%TF.GenerationSoftware,KiCad,Pcbnew,9.0.0*%
%TF.CreationDate,2025-10-21T17:49:49-04:00*%
%TF.ProjectId,SAME51 Board,53414d45-3531-4204-926f-6172642e6b69,rev?*%
%TF.SameCoordinates,Original*%
%TF.FileFunction,Copper,L2,Bot*%
%TF.FilePolarity,Positive*%
%FSLAX46Y46*%
G04 Gerber Fmt 4.6, Leading zero omitted, Abs format (unit mm)*
G04 Created by KiCad (PCBNEW 9.0.0) date 2025-10-21 17:49:49*
%MOMM*%
%LPD*%
G01*
G04 APERTURE LIST*
G04 Aperture macros list*
%AMRoundRect*
0 Rectangle with rounded corners*
0 $1 Rounding radius*
0 $2 $3 $4 $5 $6 $7 $8 $9 X,Y pos of 4 corners*
0 Add a 4 corners polygon primitive as box body*
4,1,4,$2,$3,$4,$5,$6,$7,$8,$9,$2,$3,0*
0 Add four circle primitives for the rounded corners*
1,1,$1+$1,$2,$3*
1,1,$1+$1,$4,$5*
1,1,$1+$1,$6,$7*
1,1,$1+$1,$8,$9*
0 Add four rect primitives between the rounded corners*
20,1,$1+$1,$2,$3,$4,$5,0*
20,1,$1+$1,$4,$5,$6,$7,0*
20,1,$1+$1,$6,$7,$8,$9,0*
20,1,$1+$1,$8,$9,$2,$3,0*%
%AMRotRect*
0 Rectangle, with rotation*
0 The origin of the aperture is its center*
0 $1 length*
0 $2 width*
0 $3 Rotation angle, in degrees counterclockwise*
0 Add horizontal line*
21,1,$1,$2,0,0,$3*%
G04 Aperture macros list end*
%TA.AperFunction,SMDPad,CuDef*%
%ADD10RoundRect,0.100000X0.100000X-0.637500X0.100000X0.637500X-0.100000X0.637500X-0.100000X-0.637500X0*%
%TD*%
%TA.AperFunction,ComponentPad*%
%ADD11O,1.700000X1.700000*%
%TD*%
%TA.AperFunction,ComponentPad*%
%ADD12R,1.700000X1.700000*%
%TD*%
%TA.AperFunction,ComponentPad*%
%ADD13O,1.000000X1.000000*%
%TD*%
%TA.AperFunction,ComponentPad*%
%ADD14R,1.000000X1.000000*%
%TD*%
%TA.AperFunction,SMDPad,CuDef*%
%ADD15RoundRect,0.140000X-0.170000X0.140000X-0.170000X-0.140000X0.170000X-0.140000X0.170000X0.140000X0*%
%TD*%
%TA.AperFunction,ComponentPad*%
%ADD16C,0.600000*%
%TD*%
%TA.AperFunction,SMDPad,CuDef*%
%ADD17RotRect,7.000000X7.000000X45.000000*%
%TD*%
%TA.AperFunction,ViaPad*%
%ADD18C,0.500000*%
%TD*%
%TA.AperFunction,Conductor*%
%ADD19C,0.500000*%
%TD*%
%TA.AperFunction,Conductor*%
%ADD20C,0.350000*%
%TD*%
%TA.AperFunction,Conductor*%
%ADD21C,0.200000*%
%TD*%
G04 APERTURE END LIST*
D10*
%TO.P,U4,1,G1*%
%TO.N,GND*%
X115955000Y-87317500D03*
%TO.P,U4,2,A0*%
%TO.N,PA18*%
X115305000Y-87317500D03*
%TO.P,U4,3,A1*%
%TO.N,PA20*%
X114655000Y-87317500D03*
%TO.P,U4,4,A2*%
%TO.N,PA27*%
X114005000Y-87317500D03*
%TO.P,U4,5,A3*%
%TO.N,PB23*%
X113355000Y-87317500D03*
%TO.P,U4,6,A4*%
%TO.N,PA25*%
X112705000Y-87317500D03*
%TO.P,U4,7,A5*%
%TO.N,PA24*%
X112055000Y-87317500D03*
%TO.P,U4,8,A6*%
%TO.N,PA03*%
X111405000Y-87317500D03*
%TO.P,U4,9,A7*%
%TO.N,PA02*%
X110755000Y-87317500D03*
%TO.P,U4,10,GND*%
%TO.N,GND*%
X110105000Y-87317500D03*
%TO.P,U4,11,Y7*%
%TO.N,PA_02*%
X110105000Y-81592500D03*
%TO.P,U4,12,Y6*%
%TO.N,PA_03*%
X110755000Y-81592500D03*
%TO.P,U4,13,Y5*%
%TO.N,PA_24*%
X111405000Y-81592500D03*
%TO.P,U4,14,Y4*%
%TO.N,PA_25*%
X112055000Y-81592500D03*
%TO.P,U4,15,Y3*%
%TO.N,PB_23*%
X112705000Y-81592500D03*
%TO.P,U4,16,Y2*%
%TO.N,PA_27*%
X113355000Y-81592500D03*
%TO.P,U4,17,Y1*%
%TO.N,PA_20*%
X114005000Y-81592500D03*
%TO.P,U4,18,Y0*%
%TO.N,PA_18*%
X114655000Y-81592500D03*
%TO.P,U4,19,G2*%
%TO.N,GND*%
X115305000Y-81592500D03*
%TO.P,U4,20,VCC*%
%TO.N,+5V*%
X115955000Y-81592500D03*
%TD*%
D11*
%TO.P,J1,16,Pin_16*%
%TO.N,GND*%
X139700000Y-91440000D03*
%TO.P,J1,15,Pin_15*%
%TO.N,Net-(J1-Pin_15)*%
X137160000Y-91440000D03*
D12*
%TO.P,J1,1,Pin_1*%
%TO.N,PA_02*%
X101600000Y-91440000D03*
D11*
%TO.P,J1,2,Pin_2*%
%TO.N,PA_03*%
X104140000Y-91440000D03*
%TO.P,J1,3,Pin_3*%
%TO.N,Net-(J1-Pin_3)*%
X106680000Y-91440000D03*
%TO.P,J1,4,Pin_4*%
%TO.N,PB09*%
X109220000Y-91440000D03*
%TO.P,J1,5,Pin_5*%
%TO.N,Net-(J1-Pin_5)*%
X111760000Y-91440000D03*
%TO.P,J1,6,Pin_6*%
%TO.N,Net-(J1-Pin_6)*%
X114300000Y-91440000D03*
%TO.P,J1,7,Pin_7*%
%TO.N,Net-(J1-Pin_7)*%
X116840000Y-91440000D03*
%TO.P,J1,8,Pin_8*%
%TO.N,Net-(J1-Pin_8)*%
X119380000Y-91440000D03*
%TO.P,J1,9,Pin_9*%
%TO.N,PA08*%
X121920000Y-91440000D03*
%TO.P,J1,10,Pin_10*%
%TO.N,PA09*%
X124460000Y-91440000D03*
%TO.P,J1,11,Pin_11*%
%TO.N,PA10*%
X127000000Y-91440000D03*
%TO.P,J1,12,Pin_12*%
%TO.N,PA11*%
X129540000Y-91440000D03*
%TO.P,J1,13,Pin_13*%
%TO.N,PA12*%
X132080000Y-91440000D03*
%TO.P,J1,14,Pin_14*%
%TO.N,PB10*%
X134620000Y-91440000D03*
%TD*%
D13*
%TO.P,J3,4,Pin_4*%
%TO.N,V33*%
X101600000Y-85852000D03*
D14*
%TO.P,J3,1,Pin_1*%
%TO.N,SWDCLK*%
X102870000Y-87122000D03*
D13*
%TO.P,J3,6,Pin_6*%
%TO.N,RESET*%
X101600000Y-84582000D03*
%TO.P,J3,2,Pin_2*%
%TO.N,SWDIO*%
X101600000Y-87122000D03*
%TO.P,J3,3,Pin_3*%
%TO.N,unconnected-(J3-Pin_3-Pad3)*%
X102870000Y-85852000D03*
%TO.P,J3,5,Pin_5*%
%TO.N,GND*%
X102870000Y-84582000D03*
%TD*%
D15*
%TO.P,C14,1*%
%TO.N,GND*%
X116078000Y-79082500D03*
%TO.P,C14,2*%
%TO.N,+5V*%
X116078000Y-80042500D03*
%TD*%
D12*
%TO.P,J2,1,Pin_1*%
%TO.N,+5V*%
X101600000Y-76200000D03*
D11*
%TO.P,J2,2,Pin_2*%
%TO.N,PB22*%
X104140000Y-76200000D03*
%TO.P,J2,3,Pin_3*%
%TO.N,PA_24*%
X106680000Y-76200000D03*
%TO.P,J2,4,Pin_4*%
%TO.N,PA_25*%
X109220000Y-76200000D03*
%TO.P,J2,5,Pin_5*%
%TO.N,PB_23*%
X111760000Y-76200000D03*
%TO.P,J2,6,Pin_6*%
%TO.N,PA_27*%
X114300000Y-76200000D03*
%TO.P,J2,7,Pin_7*%
%TO.N,PA21*%
X116840000Y-76200000D03*
%TO.P,J2,8,Pin_8*%
%TO.N,PA_20*%
X119380000Y-76200000D03*
%TO.P,J2,9,Pin_9*%
%TO.N,PA19*%
X121920000Y-76200000D03*
%TO.P,J2,10,Pin_10*%
%TO.N,PA_18*%
X124460000Y-76200000D03*
%TO.P,J2,11,Pin_11*%
%TO.N,PA17*%
X127000000Y-76200000D03*
%TO.P,J2,12,Pin_12*%
%TO.N,PA16*%
X129540000Y-76200000D03*
%TO.P,J2,13,Pin_13*%
%TO.N,PA13*%
X132080000Y-76200000D03*
%TO.P,J2,14,Pin_14*%
%TO.N,PB11*%
X134620000Y-76200000D03*
%TO.P,J2,15,Pin_15*%
%TO.N,CAN_L*%
X137160000Y-76200000D03*
%TO.P,J2,16,Pin_16*%
%TO.N,CAN_H*%
X139700000Y-76200000D03*
%TD*%
D16*
%TO.P,U1,49,GND-PAD*%
%TO.N,GND*%
X123190000Y-83189744D03*
X123190000Y-84886800D03*
D17*
X123190000Y-84038272D03*
D16*
X122341472Y-84038272D03*
X122341472Y-85735328D03*
X124887056Y-83189744D03*
X120644416Y-84038272D03*
X124038528Y-82341216D03*
X124887056Y-84886800D03*
X124038528Y-85735328D03*
X121492944Y-83189744D03*
X123190000Y-81492688D03*
X124038528Y-84038272D03*
X121492944Y-84886800D03*
X123190000Y-86583856D03*
X122341472Y-82341216D03*
X125735584Y-84038272D03*
%TD*%
D18*
%TO.N,GND*%
X100990400Y-80010000D03*
%TO.N,PB10*%
X130429000Y-87630000D03*
X132651500Y-89852500D03*
%TO.N,GND*%
X115316000Y-78359000D03*
X118110000Y-90881200D03*
X114147600Y-88595200D03*
X115976400Y-86258400D03*
%TO.N,PA25*%
X124412799Y-78613761D03*
%TO.N,PA20*%
X127355600Y-81026000D03*
%TO.N,PA24*%
X125196600Y-78511400D03*
%TO.N,PA18*%
X127660400Y-82306328D03*
%TO.N,SWDCLK*%
X108691309Y-85039849D03*
%TO.N,SWDIO*%
X108331000Y-85640000D03*
X112896983Y-84169637D03*
%TO.N,GND*%
X139989260Y-81118610D03*
%TO.N,+5V*%
X109497131Y-83110030D03*
X111604198Y-82796043D03*
%TO.N,CAN RX*%
X139053000Y-81739400D03*
%TO.N,GND*%
X136970200Y-84127000D03*
%TO.N,PA03*%
X111800756Y-86031427D03*
%TO.N,PA27*%
X121158000Y-79603600D03*
%TO.N,PB23*%
X120777935Y-79015761D03*
%TO.N,GND*%
X128016000Y-87795478D03*
X104394000Y-88392000D03*
%TO.N,+5V*%
X101677033Y-88442405D03*
X101701600Y-83475000D03*
%TO.N,CAN TX*%
X137668000Y-81153000D03*
%TO.N,/PA15*%
X131775200Y-84492459D03*
%TO.N,CAN RX*%
X126611709Y-78792562D03*
%TO.N,CAN TX*%
X126952585Y-79708585D03*
%TO.N,/PA14*%
X131953000Y-87249000D03*
%TO.N,PB22*%
X109372400Y-78384400D03*
%TO.N,GND*%
X120041942Y-81078342D03*
%TO.N,PA12*%
X128778000Y-86144478D03*
%TO.N,GND*%
X124501825Y-79494969D03*
X103632000Y-82550000D03*
X108458000Y-82296000D03*
X105664000Y-81534000D03*
%TO.N,/PA15*%
X130113000Y-83431116D03*
%TO.N,SWDCLK*%
X112208400Y-84043712D03*
%TO.N,+5V*%
X136948000Y-82583400D03*
X115860382Y-82753200D03*
%TO.N,CAN_L*%
X139110000Y-86659000D03*
%TO.N,GND*%
X140623909Y-86361000D03*
%TO.N,CAN_L*%
X137007600Y-85140800D03*
%TO.N,/RST*%
X108204000Y-81026000D03*
%TO.N,+5V*%
X101904800Y-78486000D03*
%TO.N,GND*%
X135737600Y-84734400D03*
%TO.N,PA02*%
X112166400Y-85293200D03*
%TO.N,/RST*%
X110236000Y-79806800D03*
%TO.N,GND*%
X132029200Y-86461600D03*
%TO.N,PA_03*%
X110805003Y-82762900D03*
%TO.N,/PA14*%
X129841352Y-85026830D03*
%TO.N,PA_02*%
X110105000Y-82762900D03*
%TO.N,+5V*%
X108673900Y-88150700D03*
%TD*%
D19*
%TO.N,+5V*%
X101244005Y-88442405D02*
X101677033Y-88442405D01*
X100482400Y-87680800D02*
X101244005Y-88442405D01*
X100482400Y-84023200D02*
X100482400Y-87680800D01*
X101030600Y-83475000D02*
X100482400Y-84023200D01*
X101701600Y-83475000D02*
X101030600Y-83475000D01*
D20*
X109118400Y-88290400D02*
X108813600Y-88290400D01*
X108813600Y-88290400D02*
X108673900Y-88150700D01*
X111042000Y-90214000D02*
X109118400Y-88290400D01*
X112986000Y-90932174D02*
X112267826Y-90214000D01*
X112986000Y-91947826D02*
X112986000Y-90932174D01*
X113649400Y-92611226D02*
X112986000Y-91947826D01*
X113649400Y-92710000D02*
X113649400Y-92611226D01*
X132842000Y-92710000D02*
X113649400Y-92710000D01*
X136888600Y-82583400D02*
X136668000Y-82804000D01*
X136948000Y-82583400D02*
X136888600Y-82583400D01*
X134924800Y-82804000D02*
X133394000Y-84334800D01*
X133394000Y-84334800D02*
X133394000Y-92158000D01*
X136668000Y-82804000D02*
X134924800Y-82804000D01*
X112267826Y-90214000D02*
X111042000Y-90214000D01*
X133394000Y-92158000D02*
X132842000Y-92710000D01*
D21*
%TO.N,PB10*%
X132651500Y-89852500D02*
X130429000Y-87630000D01*
%TO.N,PA12*%
X129485057Y-88083057D02*
X132080000Y-90678000D01*
X129485057Y-87202991D02*
X129485057Y-88083057D01*
X128778000Y-86495934D02*
X129485057Y-87202991D01*
X128778000Y-86144478D02*
X128778000Y-86495934D01*
X132080000Y-90678000D02*
X132080000Y-92202000D01*
%TO.N,PB23*%
X113355000Y-86555001D02*
X113355000Y-87330000D01*
X114057001Y-85853000D02*
X113355000Y-86555001D01*
X119024400Y-80750966D02*
X119024400Y-81559846D01*
X114731246Y-85853000D02*
X114057001Y-85853000D01*
X120777935Y-78997431D02*
X119024400Y-80750966D01*
X120777935Y-79015761D02*
X120777935Y-78997431D01*
X119024400Y-81559846D02*
X114731246Y-85853000D01*
%TO.N,PA25*%
X112705000Y-86555001D02*
X112705000Y-87330000D01*
X113808001Y-85452000D02*
X112705000Y-86555001D01*
X114506500Y-85452000D02*
X113808001Y-85452000D01*
X114518300Y-85440200D02*
X114506500Y-85452000D01*
X114753200Y-85205300D02*
X114518300Y-85440200D01*
X118377700Y-81580800D02*
X114753200Y-85205300D01*
X118612600Y-80174682D02*
X118612600Y-81013700D01*
X124017467Y-78464761D02*
X120322521Y-78464761D01*
X120322521Y-78464761D02*
X118612600Y-80174682D01*
X124412799Y-78533200D02*
X124344360Y-78464761D01*
X124344360Y-78464761D02*
X124017467Y-78464761D01*
X118612600Y-81345900D02*
X118377700Y-81580800D01*
X124412799Y-78613761D02*
X124412799Y-78533200D01*
X118612600Y-81013700D02*
X118612600Y-81345900D01*
%TO.N,PA24*%
X112055000Y-86555001D02*
X112055000Y-87330000D01*
X124184567Y-78062761D02*
X124183567Y-78063761D01*
X114352200Y-85039200D02*
X113570801Y-85039200D01*
X120156421Y-78063761D02*
X118211600Y-80008582D01*
X113570801Y-85039200D02*
X112055000Y-86555001D01*
X124641031Y-78062761D02*
X124184567Y-78062761D01*
X124642031Y-78063761D02*
X124641031Y-78062761D01*
X124183567Y-78063761D02*
X120156421Y-78063761D01*
X124748961Y-78063761D02*
X124642031Y-78063761D01*
X125196600Y-78511400D02*
X124748961Y-78063761D01*
X118211600Y-80008582D02*
X118211600Y-81179800D01*
X118211600Y-81179800D02*
X114352200Y-85039200D01*
%TO.N,/PA14*%
X130323386Y-85508864D02*
X129841352Y-85026830D01*
X131953000Y-87249000D02*
X130323386Y-85619386D01*
X130323386Y-85619386D02*
X130323386Y-85508864D01*
%TO.N,/RST*%
X109423200Y-79806800D02*
X108204000Y-81026000D01*
X110236000Y-79806800D02*
X109423200Y-79806800D01*
%TO.N,/PA15*%
X130167116Y-83431116D02*
X131228459Y-84492459D01*
X130113000Y-83431116D02*
X130167116Y-83431116D01*
X131228459Y-84492459D02*
X131775200Y-84492459D01*
%TO.N,PA18*%
X115305000Y-88104999D02*
X115305000Y-87330000D01*
X115953001Y-88753000D02*
X115305000Y-88104999D01*
X122197102Y-88753000D02*
X115953001Y-88753000D01*
X122529302Y-88753000D02*
X122197102Y-88753000D01*
X123065321Y-89289019D02*
X122764202Y-88987900D01*
X128440747Y-84162951D02*
X123314679Y-89289019D01*
X122764202Y-88987900D02*
X122676302Y-88900000D01*
X128440747Y-83086675D02*
X128440747Y-84162951D01*
X123314679Y-89289019D02*
X123065321Y-89289019D01*
X127660400Y-82306328D02*
X128440747Y-83086675D01*
X122676302Y-88900000D02*
X122529302Y-88753000D01*
%TO.N,PA20*%
X114655000Y-88104999D02*
X114655000Y-87330000D01*
X122363202Y-89154000D02*
X115704001Y-89154000D01*
X122899221Y-89690019D02*
X122363202Y-89154000D01*
X115704001Y-89154000D02*
X114655000Y-88104999D01*
X128841747Y-82258147D02*
X128841747Y-84329051D01*
X128841747Y-84329051D02*
X123480779Y-89690019D01*
X123480779Y-89690019D02*
X122899221Y-89690019D01*
X127609600Y-81026000D02*
X128841747Y-82258147D01*
X127355600Y-81026000D02*
X127609600Y-81026000D01*
D20*
%TO.N,+5V*%
X109776001Y-83388900D02*
X109497131Y-83110030D01*
X110514700Y-83388900D02*
X109776001Y-83388900D01*
X110545705Y-83388900D02*
X110530202Y-83373398D01*
X111064301Y-83388900D02*
X110545705Y-83388900D01*
X111604198Y-82796043D02*
X111604198Y-82849003D01*
X111604198Y-82849003D02*
X111064301Y-83388900D01*
X110530202Y-83373398D02*
X110514700Y-83388900D01*
X115955000Y-82658582D02*
X115955000Y-81580000D01*
X115860382Y-82753200D02*
X115955000Y-82658582D01*
D21*
%TO.N,PA_18*%
X121231240Y-75023000D02*
X123283000Y-75023000D01*
X123283000Y-75023000D02*
X124460000Y-76200000D01*
X120650000Y-76557760D02*
X120650000Y-75604240D01*
X119856760Y-77351000D02*
X120650000Y-76557760D01*
X117482860Y-77752000D02*
X117883860Y-77351000D01*
X120650000Y-75604240D02*
X121231240Y-75023000D01*
X117883860Y-77351000D02*
X119856760Y-77351000D01*
X114983200Y-77752000D02*
X117482860Y-77752000D01*
X114655000Y-78080200D02*
X114983200Y-77752000D01*
X114655000Y-81580000D02*
X114655000Y-78080200D01*
%TO.N,PA_20*%
X114005000Y-77866600D02*
X114005000Y-81580000D01*
X117316760Y-77351000D02*
X114520600Y-77351000D01*
X118110000Y-76200000D02*
X118110000Y-76557760D01*
X118110000Y-76557760D02*
X117316760Y-77351000D01*
X114520600Y-77351000D02*
X114005000Y-77866600D01*
X119380000Y-76200000D02*
X118110000Y-76200000D01*
%TO.N,SWDIO*%
X110617618Y-85640000D02*
X108331000Y-85640000D01*
X111314618Y-84943000D02*
X110617618Y-85640000D01*
X111861600Y-84632800D02*
X111551400Y-84943000D01*
X112896983Y-84169637D02*
X112896983Y-84314234D01*
X111551400Y-84943000D02*
X111314618Y-84943000D01*
X112896983Y-84314234D02*
X112578417Y-84632800D01*
X112578417Y-84632800D02*
X111861600Y-84632800D01*
%TO.N,SWDCLK*%
X111148518Y-84542000D02*
X110650669Y-85039849D01*
X110650669Y-85039849D02*
X108691309Y-85039849D01*
X111695500Y-84231800D02*
X111385300Y-84542000D01*
X112206487Y-84231800D02*
X111695500Y-84231800D01*
X112208400Y-84229887D02*
X112206487Y-84231800D01*
X112208400Y-84043712D02*
X112208400Y-84229887D01*
X111385300Y-84542000D02*
X111148518Y-84542000D01*
%TO.N,PA27*%
X114005000Y-87330000D02*
X114005000Y-86635130D01*
%TO.N,CAN_L*%
X137007600Y-85140800D02*
X137007600Y-86207600D01*
X137541000Y-86741000D02*
X139028000Y-86741000D01*
X137007600Y-86207600D02*
X137541000Y-86741000D01*
%TO.N,PB22*%
X109372400Y-78384400D02*
X106324400Y-78384400D01*
%TO.N,CAN RX*%
X139053000Y-81739400D02*
X139205400Y-81739400D01*
%TO.N,PA_27*%
X114828200Y-76728200D02*
X114300000Y-76200000D01*
%TO.N,PA_03*%
X110755000Y-82712897D02*
X110805003Y-82762900D01*
X110755000Y-81580000D02*
X110755000Y-82712897D01*
%TO.N,PA_02*%
X110105000Y-81580000D02*
X110105000Y-82762900D01*
%TO.N,PB_23*%
X111760000Y-77012800D02*
X111760000Y-76200000D01*
%TO.N,PA_27*%
X114300000Y-76200000D02*
X113355000Y-77145000D01*
%TO.N,PB_23*%
X112705000Y-77957800D02*
X111760000Y-77012800D01*
%TO.N,PA_24*%
X111405000Y-78435800D02*
X110337600Y-77368400D01*
%TO.N,PA_25*%
X112055000Y-78122760D02*
X110609000Y-76676760D01*
X110134400Y-76200000D02*
X109220000Y-76200000D01*
X110609000Y-76676760D02*
X110609000Y-76674600D01*
X110609000Y-76674600D02*
X110134400Y-76200000D01*
%TO.N,PA_24*%
X107848400Y-77368400D02*
X106680000Y-76200000D01*
X110337600Y-77368400D02*
X107848400Y-77368400D01*
%TO.N,CAN TX*%
X126952585Y-79708585D02*
X127000000Y-79661170D01*
X127000000Y-79270571D02*
X127077009Y-79193562D01*
X135232500Y-78486000D02*
X137668000Y-80921500D01*
X127784571Y-78486000D02*
X135232500Y-78486000D01*
X127000000Y-79661170D02*
X127000000Y-79270571D01*
X137668000Y-80921500D02*
X137668000Y-81153000D01*
X127077009Y-79193562D02*
X127784571Y-78486000D01*
%TO.N,PB22*%
X106324400Y-78384400D02*
X104140000Y-76200000D01*
%TO.N,CAN RX*%
X135596400Y-78282800D02*
X135633500Y-78319900D01*
X127420671Y-78282800D02*
X127618471Y-78085000D01*
X126833900Y-78792562D02*
X126910909Y-78792562D01*
X127618471Y-78085000D02*
X127950671Y-78085000D01*
X126910909Y-78792562D02*
X127383571Y-78319900D01*
X127950671Y-78085000D02*
X135066400Y-78085000D01*
X127383571Y-78319900D02*
X127420671Y-78282800D01*
X135066400Y-78085000D02*
X135398600Y-78085000D01*
X126611709Y-78792562D02*
X126833900Y-78792562D01*
X137834100Y-80520500D02*
X138069000Y-80755400D01*
X135398600Y-78085000D02*
X135596400Y-78282800D01*
X135633500Y-78319900D02*
X137834100Y-80520500D01*
X138069000Y-80755400D02*
X139053000Y-81739400D01*
%TO.N,PA_24*%
X111405000Y-78435800D02*
X111405000Y-81580000D01*
%TO.N,PA_25*%
X112055000Y-78122760D02*
X112055000Y-81580000D01*
%TO.N,PA_27*%
X113355000Y-81580000D02*
X113355000Y-77145000D01*
%TO.N,PB_23*%
X112705000Y-77957800D02*
X112705000Y-81580000D01*
%TO.N,PA27*%
X119425400Y-80917066D02*
X120032225Y-80310241D01*
X121158000Y-79654400D02*
X121158000Y-79603600D01*
X120737059Y-80075341D02*
X120773100Y-80039300D01*
X114897346Y-86254000D02*
X115132246Y-86019100D01*
X120488689Y-80310241D02*
X120495424Y-80316976D01*
X119380000Y-81771346D02*
X119425400Y-81725946D01*
X114386130Y-86254000D02*
X114565146Y-86254000D01*
X119190500Y-81960846D02*
X119380000Y-81771346D01*
X114005000Y-86635130D02*
X114386130Y-86254000D01*
X121008000Y-79804400D02*
X121158000Y-79654400D01*
X119425400Y-81393746D02*
X119425400Y-80917066D01*
X120773100Y-80039300D02*
X121008000Y-79804400D01*
X115132246Y-86019100D02*
X119190500Y-81960846D01*
X120495424Y-80316976D02*
X120502159Y-80310241D01*
X114565146Y-86254000D02*
X114897346Y-86254000D01*
X119425400Y-81725946D02*
X119425400Y-81393746D01*
X120502159Y-80310241D02*
X120737059Y-80075341D01*
X120032225Y-80310241D02*
X120169959Y-80310241D01*
X120169959Y-80310241D02*
X120488689Y-80310241D01*
%TO.N,+5V*%
X116078000Y-80304500D02*
X115955000Y-80427500D01*
%TO.N,PA02*%
X110857972Y-85966746D02*
X110755000Y-86069718D01*
X110899036Y-85966746D02*
X110857972Y-85966746D01*
%TO.N,+5V*%
X115955000Y-80427500D02*
X115955000Y-81529200D01*
X116078000Y-80042500D02*
X116078000Y-80304500D01*
%TO.N,PA02*%
X110755000Y-86069718D02*
X110755000Y-87330000D01*
%TO.N,PA03*%
X111800756Y-86031427D02*
X111571109Y-86031427D01*
X111571109Y-86031427D02*
X111405000Y-86197536D01*
X111405000Y-86197536D02*
X111405000Y-87330000D01*
%TO.N,PA02*%
X111480718Y-85344000D02*
X110899036Y-85925682D01*
X111775818Y-85344000D02*
X111480718Y-85344000D01*
X111826618Y-85293200D02*
X111775818Y-85344000D01*
X112166400Y-85293200D02*
X111826618Y-85293200D01*
D19*
%TO.N,+5V*%
X101904800Y-78486000D02*
X101904800Y-76504800D01*
D20*
X101904800Y-76504800D02*
X101600000Y-76200000D01*
%TD*%
%TA.AperFunction,Conductor*%
%TO.N,GND*%
G36*
X100691528Y-74942185D02*
G01*
X100737283Y-74994989D01*
X100747227Y-75064147D01*
X100718202Y-75127703D01*
X100681705Y-75154021D01*
X100681923Y-75154348D01*
X100672791Y-75160449D01*
X100671945Y-75161060D01*
X100671768Y-75161133D01*
X100605447Y-75205447D01*
X100561132Y-75271769D01*
X100561131Y-75271770D01*
X100549500Y-75330247D01*
X100549500Y-77069752D01*
X100561131Y-77128229D01*
X100561132Y-77128230D01*
X100605447Y-77194552D01*
X100671769Y-77238867D01*
X100671770Y-77238868D01*
X100730247Y-77250499D01*
X100730250Y-77250500D01*
X100730252Y-77250500D01*
X101330300Y-77250500D01*
X101397339Y-77270185D01*
X101443094Y-77322989D01*
X101454300Y-77374500D01*
X101454300Y-78545309D01*
X101485001Y-78659886D01*
X101544311Y-78762613D01*
X101628187Y-78846489D01*
X101730914Y-78905799D01*
X101845491Y-78936500D01*
X101845494Y-78936500D01*
X101964106Y-78936500D01*
X101964109Y-78936500D01*
X102078686Y-78905799D01*
X102181413Y-78846489D01*
X102265289Y-78762613D01*
X102324599Y-78659886D01*
X102355300Y-78545309D01*
X102355300Y-77374159D01*
X102374985Y-77307120D01*
X102427789Y-77261365D01*
X102467152Y-77250755D01*
X102469740Y-77250500D01*
X102469748Y-77250500D01*
X102469756Y-77250498D01*
X102469760Y-77250498D01*
X102528229Y-77238868D01*
X102528229Y-77238867D01*
X102528231Y-77238867D01*
X102594552Y-77194552D01*
X102638867Y-77128231D01*
X102638867Y-77128229D01*
X102638868Y-77128229D01*
X102650499Y-77069752D01*
X102650500Y-77069750D01*
X102650500Y-75330249D01*
X102650499Y-75330247D01*
X102638868Y-75271770D01*
X102638867Y-75271769D01*
X102594552Y-75205447D01*
X102528231Y-75161133D01*
X102528055Y-75161060D01*
X102527729Y-75160797D01*
X102518077Y-75154348D01*
X102518654Y-75153483D01*
X102473653Y-75117217D01*
X102451590Y-75050923D01*
X102468871Y-74983224D01*
X102520009Y-74935615D01*
X102575511Y-74922500D01*
X103918747Y-74922500D01*
X103985786Y-74942185D01*
X104031541Y-74994989D01*
X104041485Y-75064147D01*
X104012460Y-75127703D01*
X103953682Y-75165477D01*
X103942938Y-75168117D01*
X103833587Y-75189868D01*
X103833579Y-75189870D01*
X103642403Y-75269058D01*
X103470342Y-75384024D01*
X103324024Y-75530342D01*
X103209058Y-75702403D01*
X103129870Y-75893579D01*
X103129868Y-75893587D01*
X103089500Y-76096530D01*
X103089500Y-76303469D01*
X103129868Y-76506412D01*
X103129870Y-76506420D01*
X103192631Y-76657939D01*
X103209059Y-76697598D01*
X103211186Y-76700781D01*
X103324024Y-76869657D01*
X103470342Y-77015975D01*
X103470345Y-77015977D01*
X103642402Y-77130941D01*
X103833580Y-77210130D01*
X103978052Y-77238867D01*
X104036530Y-77250499D01*
X104036534Y-77250500D01*
X104036535Y-77250500D01*
X104243466Y-77250500D01*
X104243467Y-77250499D01*
X104446420Y-77210130D01*
X104566974Y-77160194D01*
X104636438Y-77152726D01*
X104698918Y-77184000D01*
X104702104Y-77187075D01*
X106083940Y-78568911D01*
X106139889Y-78624860D01*
X106139891Y-78624861D01*
X106139895Y-78624864D01*
X106208404Y-78664417D01*
X106208411Y-78664421D01*
X106284838Y-78684900D01*
X106363962Y-78684900D01*
X108984436Y-78684900D01*
X109051475Y-78704585D01*
X109072117Y-78721219D01*
X109095787Y-78744889D01*
X109198514Y-78804199D01*
X109313091Y-78834900D01*
X109313094Y-78834900D01*
X109431706Y-78834900D01*
X109431709Y-78834900D01*
X109546286Y-78804199D01*
X109649013Y-78744889D01*
X109732889Y-78661013D01*
X109792199Y-78558286D01*
X109822900Y-78443709D01*
X109822900Y-78325091D01*
X109792199Y-78210514D01*
X109732889Y-78107787D01*
X109649013Y-78023911D01*
X109546286Y-77964601D01*
X109431709Y-77933900D01*
X109313091Y-77933900D01*
X109198514Y-77964601D01*
X109198512Y-77964601D01*
X109198512Y-77964602D01*
X109095787Y-78023911D01*
X109095784Y-78023913D01*
X109072117Y-78047581D01*
X109010794Y-78081066D01*
X108984436Y-78083900D01*
X106500233Y-78083900D01*
X106433194Y-78064215D01*
X106412552Y-78047581D01*
X105127075Y-76762104D01*
X105093590Y-76700781D01*
X105098574Y-76631089D01*
X105100163Y-76627049D01*
X105150130Y-76506420D01*
X105190500Y-76303465D01*
X105190500Y-76096535D01*
X105150130Y-75893580D01*
X105070941Y-75702402D01*
X104955977Y-75530345D01*
X104955975Y-75530342D01*
X104809657Y-75384024D01*
X104641655Y-75271770D01*
X104637598Y-75269059D01*
X104585002Y-75247273D01*
X104446420Y-75189870D01*
X104446412Y-75189868D01*
X104337062Y-75168117D01*
X104275151Y-75135732D01*
X104240577Y-75075017D01*
X104244316Y-75005247D01*
X104285182Y-74948575D01*
X104350201Y-74922994D01*
X104361253Y-74922500D01*
X106458747Y-74922500D01*
X106525786Y-74942185D01*
X106571541Y-74994989D01*
X106581485Y-75064147D01*
X106552460Y-75127703D01*
X106493682Y-75165477D01*
X106482938Y-75168117D01*
X106373587Y-75189868D01*
X106373579Y-75189870D01*
X106182403Y-75269058D01*
X106010342Y-75384024D01*
X105864024Y-75530342D01*
X105749058Y-75702403D01*
X105669870Y-75893579D01*
X105669868Y-75893587D01*
X105629500Y-76096530D01*
X105629500Y-76303469D01*
X105669868Y-76506412D01*
X105669870Y-76506420D01*
X105732631Y-76657939D01*
X105749059Y-76697598D01*
X105751186Y-76700781D01*
X105864024Y-76869657D01*
X106010342Y-77015975D01*
X106010345Y-77015977D01*
X106182402Y-77130941D01*
X106373580Y-77210130D01*
X106518052Y-77238867D01*
X106576530Y-77250499D01*
X106576534Y-77250500D01*
X106576535Y-77250500D01*
X106783466Y-77250500D01*
X106783467Y-77250499D01*
X106986420Y-77210130D01*
X107106974Y-77160194D01*
X107176438Y-77152726D01*
X107238918Y-77184000D01*
X107242104Y-77187075D01*
X107607940Y-77552911D01*
X107663889Y-77608860D01*
X107663891Y-77608861D01*
X107663895Y-77608864D01*
X107702273Y-77631021D01*
X107732411Y-77648421D01*
X107808838Y-77668900D01*
X110161767Y-77668900D01*
X110228806Y-77688585D01*
X110249448Y-77705219D01*
X111068181Y-78523952D01*
X111101666Y-78585275D01*
X111104500Y-78611633D01*
X111104500Y-80546374D01*
X111084815Y-80613413D01*
X111032011Y-80659168D01*
X110962853Y-80669112D01*
X110930419Y-80659811D01*
X110924992Y-80657415D01*
X110899865Y-80654500D01*
X110610143Y-80654500D01*
X110610117Y-80654502D01*
X110585013Y-80657413D01*
X110535745Y-80679167D01*
X110482238Y-80702793D01*
X110480086Y-80703743D01*
X110410807Y-80712814D01*
X110379914Y-80703743D01*
X110377765Y-80702794D01*
X110274991Y-80657415D01*
X110249865Y-80654500D01*
X109960143Y-80654500D01*
X109960117Y-80654502D01*
X109935012Y-80657413D01*
X109935008Y-80657415D01*
X109832235Y-80702793D01*
X109752794Y-80782234D01*
X109707415Y-80885006D01*
X109707415Y-80885008D01*
X109704500Y-80910131D01*
X109704500Y-82274856D01*
X109704502Y-82274882D01*
X109707413Y-82299987D01*
X109707414Y-82299991D01*
X109744678Y-82384384D01*
X109745337Y-82389423D01*
X109748300Y-82393556D01*
X109749828Y-82423718D01*
X109753750Y-82453662D01*
X109751649Y-82459638D01*
X109751837Y-82463336D01*
X109739254Y-82494904D01*
X109738820Y-82496142D01*
X109738656Y-82496427D01*
X109685201Y-82589014D01*
X109684870Y-82590247D01*
X109680270Y-82598272D01*
X109660546Y-82617193D01*
X109643394Y-82638470D01*
X109635701Y-82641028D01*
X109629850Y-82646642D01*
X109603028Y-82651896D01*
X109577096Y-82660522D01*
X109562543Y-82659827D01*
X109561284Y-82660074D01*
X109560404Y-82659725D01*
X109556508Y-82659539D01*
X109556440Y-82659530D01*
X109437822Y-82659530D01*
X109323245Y-82690231D01*
X109323243Y-82690231D01*
X109323243Y-82690232D01*
X109220518Y-82749541D01*
X109220515Y-82749543D01*
X109136644Y-82833414D01*
X109136642Y-82833417D01*
X109077332Y-82936144D01*
X109046631Y-83050721D01*
X109046631Y-83169339D01*
X109077332Y-83283916D01*
X109136642Y-83386643D01*
X109220518Y-83470519D01*
X109323245Y-83529829D01*
X109376729Y-83544159D01*
X109432316Y-83576252D01*
X109545438Y-83689375D01*
X109631064Y-83738811D01*
X109726565Y-83764400D01*
X109726566Y-83764400D01*
X110465264Y-83764400D01*
X110496270Y-83764400D01*
X110496274Y-83764400D01*
X110496281Y-83764402D01*
X110545717Y-83764400D01*
X111014865Y-83764400D01*
X111113737Y-83764400D01*
X111168617Y-83749694D01*
X111180216Y-83746587D01*
X111187471Y-83744642D01*
X111209239Y-83738810D01*
X111294863Y-83689375D01*
X111364776Y-83619462D01*
X111364775Y-83619462D01*
X111423309Y-83560928D01*
X111744104Y-83240132D01*
X111771974Y-83221520D01*
X111771043Y-83219907D01*
X111778084Y-83215842D01*
X111880811Y-83156532D01*
X111964687Y-83072656D01*
X112023997Y-82969929D01*
X112054698Y-82855352D01*
X112054698Y-82736734D01*
X112041262Y-82686590D01*
X112042925Y-82616743D01*
X112082087Y-82558880D01*
X112128364Y-82534881D01*
X112144407Y-82530499D01*
X112199864Y-82530499D01*
X112224991Y-82527585D01*
X112327765Y-82482206D01*
X112330227Y-82479743D01*
X112347326Y-82475073D01*
X112373364Y-82475566D01*
X112399190Y-82472185D01*
X112413285Y-82476324D01*
X112417183Y-82476398D01*
X112420028Y-82478304D01*
X112430085Y-82481257D01*
X112527100Y-82524093D01*
X112535009Y-82527585D01*
X112560135Y-82530500D01*
X112849864Y-82530499D01*
X112849879Y-82530497D01*
X112849882Y-82530497D01*
X112874987Y-82527586D01*
X112874987Y-82527585D01*
X112874991Y-82527585D01*
X112977765Y-82482206D01*
X112977766Y-82482204D01*
X112979912Y-82481257D01*
X113049190Y-82472185D01*
X113080085Y-82481257D01*
X113177100Y-82524093D01*
X113185009Y-82527585D01*
X113210135Y-82530500D01*
X113499864Y-82530499D01*
X113499879Y-82530497D01*
X113499882Y-82530497D01*
X113524987Y-82527586D01*
X113524987Y-82527585D01*
X113524991Y-82527585D01*
X113627765Y-82482206D01*
X113627766Y-82482204D01*
X113629912Y-82481257D01*
X113699190Y-82472185D01*
X113730085Y-82481257D01*
X113827100Y-82524093D01*
X113835009Y-82527585D01*
X113860135Y-82530500D01*
X114149864Y-82530499D01*
X114149879Y-82530497D01*
X114149882Y-82530497D01*
X114174987Y-82527586D01*
X114174987Y-82527585D01*
X114174991Y-82527585D01*
X114277765Y-82482206D01*
X114277766Y-82482204D01*
X114279912Y-82481257D01*
X114349190Y-82472185D01*
X114380085Y-82481257D01*
X114477100Y-82524093D01*
X114485009Y-82527585D01*
X114510135Y-82530500D01*
X114799864Y-82530499D01*
X114799879Y-82530497D01*
X114799882Y-82530497D01*
X114824987Y-82527586D01*
X114824988Y-82527585D01*
X114824991Y-82527585D01*
X114927765Y-82482206D01*
X115007206Y-82402765D01*
X115052585Y-82299991D01*
X115055500Y-82274865D01*
X115055499Y-80910136D01*
X115055497Y-80910117D01*
X115052586Y-80885012D01*
X115052585Y-80885010D01*
X115052585Y-80885009D01*
X115007206Y-80782235D01*
X114991819Y-80766848D01*
X114958334Y-80705525D01*
X114955500Y-80679167D01*
X114955500Y-78256033D01*
X114964144Y-78226592D01*
X114970668Y-78196606D01*
X114974422Y-78191590D01*
X114975185Y-78188994D01*
X114991819Y-78168352D01*
X115071352Y-78088819D01*
X115132675Y-78055334D01*
X115159033Y-78052500D01*
X117522420Y-78052500D01*
X117522422Y-78052500D01*
X117598849Y-78032021D01*
X117667371Y-77992460D01*
X117723320Y-77936511D01*
X117972012Y-77687819D01*
X118033335Y-77654334D01*
X118059693Y-77651500D01*
X119844349Y-77651500D01*
X119911388Y-77671185D01*
X119957143Y-77723989D01*
X119967087Y-77793147D01*
X119938062Y-77856703D01*
X119932030Y-77863181D01*
X117971141Y-79824069D01*
X117971135Y-79824077D01*
X117931582Y-79892586D01*
X117931579Y-79892591D01*
X117917926Y-79943544D01*
X117912422Y-79964089D01*
X117911100Y-79969021D01*
X117911100Y-81003967D01*
X117891415Y-81071006D01*
X117874781Y-81091648D01*
X116563305Y-82403123D01*
X116501982Y-82436608D01*
X116432290Y-82431624D01*
X116376357Y-82389752D01*
X116351940Y-82324288D01*
X116352450Y-82301150D01*
X116352584Y-82299992D01*
X116352585Y-82299991D01*
X116355500Y-82274865D01*
X116355499Y-80910136D01*
X116355497Y-80910117D01*
X116352586Y-80885012D01*
X116352585Y-80885010D01*
X116352585Y-80885009D01*
X116307206Y-80782235D01*
X116291819Y-80766848D01*
X116277115Y-80739920D01*
X116260523Y-80714102D01*
X116259631Y-80707901D01*
X116258334Y-80705525D01*
X116255500Y-80679167D01*
X116255500Y-80633386D01*
X116275185Y-80566347D01*
X116327989Y-80520592D01*
X116331256Y-80519377D01*
X116337485Y-80516472D01*
X116337487Y-80516472D01*
X116446316Y-80465724D01*
X116531224Y-80380816D01*
X116581972Y-80271987D01*
X116588500Y-80222401D01*
X116588499Y-79862600D01*
X116581972Y-79813013D01*
X116531224Y-79704184D01*
X116446316Y-79619276D01*
X116337487Y-79568528D01*
X116337485Y-79568527D01*
X116337486Y-79568527D01*
X116287901Y-79562000D01*
X115868105Y-79562000D01*
X115853369Y-79563940D01*
X115818513Y-79568528D01*
X115818511Y-79568529D01*
X115818509Y-79568529D01*
X115709683Y-79619276D01*
X115624776Y-79704183D01*
X115574027Y-79813014D01*
X115567500Y-79862597D01*
X115567500Y-80222394D01*
X115567501Y-80222400D01*
X115574028Y-80271987D01*
X115574029Y-80271989D01*
X115574029Y-80271990D01*
X115624776Y-80380817D01*
X115630998Y-80389702D01*
X115627841Y-80391912D01*
X115632884Y-80401148D01*
X115649477Y-80426967D01*
X115650368Y-80433167D01*
X115651666Y-80435544D01*
X115654500Y-80461902D01*
X115654500Y-80679167D01*
X115634815Y-80746206D01*
X115618181Y-80766848D01*
X115602794Y-80782234D01*
X115557415Y-80885006D01*
X115557415Y-80885008D01*
X115554500Y-80910131D01*
X115554500Y-82274856D01*
X115554502Y-82274882D01*
X115557413Y-82299987D01*
X115557414Y-82299988D01*
X115559577Y-82304887D01*
X115568649Y-82374166D01*
X115538826Y-82437351D01*
X115533825Y-82442654D01*
X115499896Y-82476583D01*
X115499893Y-82476587D01*
X115440583Y-82579314D01*
X115409882Y-82693891D01*
X115409882Y-82812509D01*
X115440583Y-82927086D01*
X115499893Y-83029813D01*
X115583769Y-83113689D01*
X115614340Y-83131339D01*
X115662555Y-83181907D01*
X115675777Y-83250514D01*
X115649809Y-83315379D01*
X115640020Y-83326407D01*
X114264048Y-84702381D01*
X114202725Y-84735866D01*
X114176367Y-84738700D01*
X113531239Y-84738700D01*
X113500668Y-84746891D01*
X113454809Y-84759179D01*
X113454808Y-84759180D01*
X113407717Y-84786368D01*
X113407716Y-84786370D01*
X113386291Y-84798739D01*
X113386288Y-84798741D01*
X112828581Y-85356448D01*
X112767258Y-85389933D01*
X112697566Y-85384949D01*
X112641633Y-85343077D01*
X112620472Y-85298317D01*
X112616900Y-85283759D01*
X112616900Y-85233891D01*
X112586199Y-85119314D01*
X112569416Y-85090246D01*
X112565208Y-85073094D01*
X112566016Y-85055125D01*
X112561776Y-85037646D01*
X112567555Y-85020946D01*
X112568350Y-85003295D01*
X112578744Y-84988617D01*
X112584627Y-84971619D01*
X112598517Y-84960695D01*
X112608729Y-84946275D01*
X112625408Y-84939546D01*
X112639548Y-84928427D01*
X112653525Y-84923775D01*
X112694406Y-84912821D01*
X112762928Y-84873260D01*
X112818877Y-84817311D01*
X113014431Y-84621755D01*
X113037310Y-84608547D01*
X113052684Y-84595715D01*
X113063448Y-84592768D01*
X113063357Y-84592548D01*
X113069269Y-84590098D01*
X113070026Y-84589661D01*
X113070869Y-84589436D01*
X113173596Y-84530126D01*
X113257472Y-84446250D01*
X113316782Y-84343523D01*
X113347483Y-84228946D01*
X113347483Y-84110328D01*
X113316782Y-83995751D01*
X113257472Y-83893024D01*
X113173596Y-83809148D01*
X113070869Y-83749838D01*
X112956292Y-83719137D01*
X112837674Y-83719137D01*
X112764258Y-83738809D01*
X112723092Y-83749839D01*
X112723091Y-83749840D01*
X112696788Y-83765026D01*
X112628888Y-83781497D01*
X112562861Y-83758644D01*
X112547109Y-83745319D01*
X112485015Y-83683225D01*
X112485013Y-83683223D01*
X112382286Y-83623913D01*
X112267709Y-83593212D01*
X112149091Y-83593212D01*
X112034514Y-83623913D01*
X112034512Y-83623913D01*
X112034512Y-83623914D01*
X111931787Y-83683223D01*
X111931784Y-83683225D01*
X111847913Y-83767096D01*
X111847911Y-83767099D01*
X111788904Y-83869301D01*
X111738336Y-83917516D01*
X111681517Y-83931300D01*
X111655938Y-83931300D01*
X111625367Y-83939491D01*
X111579508Y-83951779D01*
X111579507Y-83951780D01*
X111533334Y-83978439D01*
X111533333Y-83978440D01*
X111510990Y-83991339D01*
X111510987Y-83991341D01*
X111297148Y-84205181D01*
X111235825Y-84238666D01*
X111209467Y-84241500D01*
X111108956Y-84241500D01*
X111076507Y-84250195D01*
X111032528Y-84261979D01*
X111003167Y-84278931D01*
X110966997Y-84299814D01*
X110964004Y-84301541D01*
X110562517Y-84703030D01*
X110501194Y-84736515D01*
X110474836Y-84739349D01*
X109079273Y-84739349D01*
X109012234Y-84719664D01*
X108991592Y-84703030D01*
X108967924Y-84679362D01*
X108967922Y-84679360D01*
X108865195Y-84620050D01*
X108750618Y-84589349D01*
X108632000Y-84589349D01*
X108517423Y-84620050D01*
X108517421Y-84620050D01*
X108517421Y-84620051D01*
X108414696Y-84679360D01*
X108414693Y-84679362D01*
X108330822Y-84763233D01*
X108330820Y-84763236D01*
X108279027Y-84852944D01*
X108271510Y-84865963D01*
X108240809Y-84980540D01*
X108240809Y-84980542D01*
X108240809Y-85102679D01*
X108221124Y-85169718D01*
X108168320Y-85215473D01*
X108164261Y-85217240D01*
X108157118Y-85220198D01*
X108054387Y-85279511D01*
X108054384Y-85279513D01*
X107970513Y-85363384D01*
X107970511Y-85363387D01*
X107932160Y-85429813D01*
X107911201Y-85466114D01*
X107880500Y-85580691D01*
X107880500Y-85699309D01*
X107911201Y-85813886D01*
X107970511Y-85916613D01*
X108054387Y-86000489D01*
X108157114Y-86059799D01*
X108271691Y-86090500D01*
X108271694Y-86090500D01*
X108390306Y-86090500D01*
X108390309Y-86090500D01*
X108504886Y-86059799D01*
X108607613Y-86000489D01*
X108631283Y-85976819D01*
X108692606Y-85943334D01*
X108718964Y-85940500D01*
X110330500Y-85940500D01*
X110397539Y-85960185D01*
X110443294Y-86012989D01*
X110454500Y-86064500D01*
X110454500Y-86404167D01*
X110434815Y-86471206D01*
X110418181Y-86491848D01*
X110402794Y-86507234D01*
X110357415Y-86610006D01*
X110357415Y-86610008D01*
X110354500Y-86635131D01*
X110354500Y-87999856D01*
X110354502Y-87999882D01*
X110357413Y-88024987D01*
X110357415Y-88024991D01*
X110402793Y-88127764D01*
X110402794Y-88127765D01*
X110482235Y-88207206D01*
X110585009Y-88252585D01*
X110610135Y-88255500D01*
X110899864Y-88255499D01*
X110899879Y-88255497D01*
X110899882Y-88255497D01*
X110924987Y-88252586D01*
X110924987Y-88252585D01*
X110924991Y-88252585D01*
X111027765Y-88207206D01*
X111027766Y-88207204D01*
X111029912Y-88206257D01*
X111099190Y-88197185D01*
X111130085Y-88206257D01*
X111209926Y-88241510D01*
X111235009Y-88252585D01*
X111260135Y-88255500D01*
X111549864Y-88255499D01*
X111549879Y-88255497D01*
X111549882Y-88255497D01*
X111574987Y-88252586D01*
X111574987Y-88252585D01*
X111574991Y-88252585D01*
X111677765Y-88207206D01*
X111677766Y-88207204D01*
X111679912Y-88206257D01*
X111749190Y-88197185D01*
X111780085Y-88206257D01*
X111859926Y-88241510D01*
X111885009Y-88252585D01*
X111910135Y-88255500D01*
X112199864Y-88255499D01*
X112199879Y-88255497D01*
X112199882Y-88255497D01*
X112224987Y-88252586D01*
X112224987Y-88252585D01*
X112224991Y-88252585D01*
X112327765Y-88207206D01*
X112327766Y-88207204D01*
X112329912Y-88206257D01*
X112399190Y-88197185D01*
X112430085Y-88206257D01*
X112509926Y-88241510D01*
X112535009Y-88252585D01*
X112560135Y-88255500D01*
X112849864Y-88255499D01*
X112849879Y-88255497D01*
X112849882Y-88255497D01*
X112874987Y-88252586D01*
X112874987Y-88252585D01*
X112874991Y-88252585D01*
X112977765Y-88207206D01*
X112977766Y-88207204D01*
X112979912Y-88206257D01*
X113049190Y-88197185D01*
X113080085Y-88206257D01*
X113159926Y-88241510D01*
X113185009Y-88252585D01*
X113210135Y-88255500D01*
X113499864Y-88255499D01*
X113499879Y-88255497D01*
X113499882Y-88255497D01*
X113524987Y-88252586D01*
X113524987Y-88252585D01*
X113524991Y-88252585D01*
X113627765Y-88207206D01*
X113627766Y-88207204D01*
X113629912Y-88206257D01*
X113699190Y-88197185D01*
X113730085Y-88206257D01*
X113809926Y-88241510D01*
X113835009Y-88252585D01*
X113860135Y-88255500D01*
X114149864Y-88255499D01*
X114149879Y-88255497D01*
X114149882Y-88255497D01*
X114174987Y-88252586D01*
X114174987Y-88252585D01*
X114174991Y-88252585D01*
X114247071Y-88220758D01*
X114316346Y-88211687D01*
X114379531Y-88241510D01*
X114404542Y-88272193D01*
X114414540Y-88289510D01*
X115463541Y-89338511D01*
X115519490Y-89394460D01*
X115519492Y-89394461D01*
X115519496Y-89394464D01*
X115585726Y-89432701D01*
X115588012Y-89434021D01*
X115664439Y-89454500D01*
X115743563Y-89454500D01*
X122187369Y-89454500D01*
X122254408Y-89474185D01*
X122275050Y-89490819D01*
X122658761Y-89874530D01*
X122714710Y-89930479D01*
X122714712Y-89930480D01*
X122714716Y-89930483D01*
X122783225Y-89970036D01*
X122783232Y-89970040D01*
X122859659Y-89990519D01*
X122859661Y-89990519D01*
X123520339Y-89990519D01*
X123520341Y-89990519D01*
X123596768Y-89970040D01*
X123665290Y-89930479D01*
X123721239Y-89874530D01*
X128628248Y-84967521D01*
X129390852Y-84967521D01*
X129390852Y-85086139D01*
X129421553Y-85200716D01*
X129480863Y-85303443D01*
X129564739Y-85387319D01*
X129667466Y-85446629D01*
X129782043Y-85477330D01*
X129815519Y-85477330D01*
X129844959Y-85485974D01*
X129874946Y-85492498D01*
X129879961Y-85496252D01*
X129882558Y-85497015D01*
X129903200Y-85513649D01*
X129990016Y-85600465D01*
X130022110Y-85656051D01*
X130022886Y-85658947D01*
X130022886Y-85658948D01*
X130033700Y-85699306D01*
X130043366Y-85735378D01*
X130043367Y-85735380D01*
X130066953Y-85776231D01*
X130066954Y-85776233D01*
X130082923Y-85803893D01*
X130082927Y-85803898D01*
X131466181Y-87187152D01*
X131499666Y-87248475D01*
X131502500Y-87274833D01*
X131502500Y-87308309D01*
X131533201Y-87422886D01*
X131592511Y-87525613D01*
X131676387Y-87609489D01*
X131779114Y-87668799D01*
X131893691Y-87699500D01*
X131893694Y-87699500D01*
X132012306Y-87699500D01*
X132012309Y-87699500D01*
X132126886Y-87668799D01*
X132229613Y-87609489D01*
X132313489Y-87525613D01*
X132372799Y-87422886D01*
X132403500Y-87308309D01*
X132403500Y-87189691D01*
X132372799Y-87075114D01*
X132313489Y-86972387D01*
X132229613Y-86888511D01*
X132126886Y-86829201D01*
X132012309Y-86798500D01*
X132012306Y-86798500D01*
X131978833Y-86798500D01*
X131911794Y-86778815D01*
X131891152Y-86762181D01*
X130656755Y-85527784D01*
X130624661Y-85472197D01*
X130623886Y-85469304D01*
X130623886Y-85469302D01*
X130603407Y-85392875D01*
X130603403Y-85392868D01*
X130563850Y-85324359D01*
X130563844Y-85324351D01*
X130328171Y-85088678D01*
X130294686Y-85027355D01*
X130291852Y-85000997D01*
X130291852Y-84967523D01*
X130291852Y-84967521D01*
X130261151Y-84852944D01*
X130201841Y-84750217D01*
X130117965Y-84666341D01*
X130015238Y-84607031D01*
X129900661Y-84576330D01*
X129782043Y-84576330D01*
X129667466Y-84607031D01*
X129667464Y-84607031D01*
X129667464Y-84607032D01*
X129564739Y-84666341D01*
X129564736Y-84666343D01*
X129480865Y-84750214D01*
X129480863Y-84750217D01*
X129452849Y-84798739D01*
X129421553Y-84852944D01*
X129390852Y-84967521D01*
X128628248Y-84967521D01*
X129082207Y-84513562D01*
X129121769Y-84445039D01*
X129142247Y-84368613D01*
X129142247Y-84289489D01*
X129142247Y-83371807D01*
X129662500Y-83371807D01*
X129662500Y-83490425D01*
X129693201Y-83605002D01*
X129752511Y-83707729D01*
X129836387Y-83791605D01*
X129939114Y-83850915D01*
X130053691Y-83881616D01*
X130053694Y-83881616D01*
X130141283Y-83881616D01*
X130208322Y-83901301D01*
X130228964Y-83917935D01*
X131043948Y-84732919D01*
X131112471Y-84772481D01*
X131188897Y-84792959D01*
X131387236Y-84792959D01*
X131454275Y-84812644D01*
X131474917Y-84829278D01*
X131498587Y-84852948D01*
X131601314Y-84912258D01*
X131715891Y-84942959D01*
X131715894Y-84942959D01*
X131834506Y-84942959D01*
X131834509Y-84942959D01*
X131949086Y-84912258D01*
X132051813Y-84852948D01*
X132135689Y-84769072D01*
X132194999Y-84666345D01*
X132225700Y-84551768D01*
X132225700Y-84433150D01*
X132194999Y-84318573D01*
X132135689Y-84215846D01*
X132051813Y-84131970D01*
X131949086Y-84072660D01*
X131834509Y-84041959D01*
X131715891Y-84041959D01*
X131601314Y-84072660D01*
X131601312Y-84072660D01*
X131601312Y-84072661D01*
X131498587Y-84131970D01*
X131498584Y-84131972D01*
X131483445Y-84147112D01*
X131422122Y-84180597D01*
X131352430Y-84175613D01*
X131308083Y-84147112D01*
X130597921Y-83436950D01*
X130566505Y-83379416D01*
X130565603Y-83379658D01*
X130564606Y-83375939D01*
X130564436Y-83375627D01*
X130564274Y-83374700D01*
X130563500Y-83371811D01*
X130563500Y-83371807D01*
X130532799Y-83257230D01*
X130473489Y-83154503D01*
X130389613Y-83070627D01*
X130286886Y-83011317D01*
X130172309Y-82980616D01*
X130053691Y-82980616D01*
X129939114Y-83011317D01*
X129939112Y-83011317D01*
X129939112Y-83011318D01*
X129836387Y-83070627D01*
X129836384Y-83070629D01*
X129752513Y-83154500D01*
X129752511Y-83154503D01*
X129697079Y-83250514D01*
X129693201Y-83257230D01*
X129662500Y-83371807D01*
X129142247Y-83371807D01*
X129142247Y-82218585D01*
X129121768Y-82142158D01*
X129116423Y-82132900D01*
X129082211Y-82073642D01*
X129082205Y-82073634D01*
X127794112Y-80785541D01*
X127794107Y-80785537D01*
X127718551Y-80741915D01*
X127718896Y-80741316D01*
X127686111Y-80719409D01*
X127632215Y-80665513D01*
X127632213Y-80665511D01*
X127529486Y-80606201D01*
X127414909Y-80575500D01*
X127296291Y-80575500D01*
X127181714Y-80606201D01*
X127181712Y-80606201D01*
X127181712Y-80606202D01*
X127078987Y-80665511D01*
X127078984Y-80665513D01*
X126995113Y-80749384D01*
X126995111Y-80749387D01*
X126935801Y-80852114D01*
X126905100Y-80966691D01*
X126905100Y-81085309D01*
X126935801Y-81199886D01*
X126995111Y-81302613D01*
X127078987Y-81386489D01*
X127181714Y-81445799D01*
X127296291Y-81476500D01*
X127296294Y-81476500D01*
X127414906Y-81476500D01*
X127414909Y-81476500D01*
X127519442Y-81448490D01*
X127531439Y-81448775D01*
X127542686Y-81444581D01*
X127565720Y-81449591D01*
X127589287Y-81450153D01*
X127600934Y-81457252D01*
X127610959Y-81459433D01*
X127639213Y-81480584D01*
X127802776Y-81644147D01*
X127836261Y-81705470D01*
X127831277Y-81775162D01*
X127789405Y-81831095D01*
X127723941Y-81855512D01*
X127715095Y-81855828D01*
X127601091Y-81855828D01*
X127486514Y-81886529D01*
X127486512Y-81886529D01*
X127486512Y-81886530D01*
X127383787Y-81945839D01*
X127383784Y-81945841D01*
X127299913Y-82029712D01*
X127299911Y-82029715D01*
X127274550Y-82073642D01*
X127240601Y-82132442D01*
X127209900Y-82247019D01*
X127209900Y-82365637D01*
X127240601Y-82480214D01*
X127299911Y-82582941D01*
X127383787Y-82666817D01*
X127486514Y-82726127D01*
X127601091Y-82756828D01*
X127634567Y-82756828D01*
X127701606Y-82776513D01*
X127722248Y-82793147D01*
X128103928Y-83174827D01*
X128137413Y-83236150D01*
X128140247Y-83262508D01*
X128140247Y-83987118D01*
X128120562Y-84054157D01*
X128103928Y-84074799D01*
X123277681Y-88901046D01*
X123216358Y-88934531D01*
X123146666Y-88929547D01*
X123102319Y-88901046D01*
X122713815Y-88512542D01*
X122713813Y-88512540D01*
X122711473Y-88511189D01*
X122645293Y-88472980D01*
X122645292Y-88472979D01*
X122619815Y-88466152D01*
X122568864Y-88452500D01*
X122568862Y-88452500D01*
X116128834Y-88452500D01*
X116061795Y-88432815D01*
X116041153Y-88416181D01*
X115739518Y-88114546D01*
X115706033Y-88053223D01*
X115704026Y-88012570D01*
X115705499Y-87999875D01*
X115705499Y-87999873D01*
X115705500Y-87999865D01*
X115705499Y-86635136D01*
X115705497Y-86635117D01*
X115702586Y-86610012D01*
X115702585Y-86610010D01*
X115702585Y-86610009D01*
X115657206Y-86507235D01*
X115577765Y-86427794D01*
X115574316Y-86426271D01*
X115474993Y-86382415D01*
X115465993Y-86379967D01*
X115466539Y-86377959D01*
X115413492Y-86355461D01*
X115374129Y-86297735D01*
X115372224Y-86227891D01*
X115404426Y-86171890D01*
X119430960Y-82145357D01*
X119620460Y-81955857D01*
X119665860Y-81910457D01*
X119679675Y-81886529D01*
X119697400Y-81855828D01*
X119705418Y-81841941D01*
X119705420Y-81841936D01*
X119705421Y-81841935D01*
X119725900Y-81765508D01*
X119725900Y-81354184D01*
X119725900Y-81092899D01*
X119745585Y-81025860D01*
X119762219Y-81005218D01*
X120120377Y-80647060D01*
X120147304Y-80632356D01*
X120173123Y-80615764D01*
X120179323Y-80614872D01*
X120181700Y-80613575D01*
X120208058Y-80610741D01*
X120414402Y-80610741D01*
X120446494Y-80614966D01*
X120455862Y-80617476D01*
X120455864Y-80617476D01*
X120534984Y-80617476D01*
X120534986Y-80617476D01*
X120611412Y-80596998D01*
X120679935Y-80557436D01*
X120735884Y-80501487D01*
X120742619Y-80494752D01*
X120977519Y-80259852D01*
X121013560Y-80223811D01*
X121148349Y-80089021D01*
X121209668Y-80055539D01*
X121216152Y-80054409D01*
X121217305Y-80054100D01*
X121217309Y-80054100D01*
X121331886Y-80023399D01*
X121434613Y-79964089D01*
X121518489Y-79880213D01*
X121577799Y-79777486D01*
X121608500Y-79662909D01*
X121608500Y-79544291D01*
X121577799Y-79429714D01*
X121518489Y-79326987D01*
X121434613Y-79243111D01*
X121381351Y-79212360D01*
X121331887Y-79183801D01*
X121327816Y-79182710D01*
X121320339Y-79180707D01*
X121300614Y-79168683D01*
X121278904Y-79160779D01*
X121271341Y-79150840D01*
X121260681Y-79144342D01*
X121250587Y-79123563D01*
X121236596Y-79105175D01*
X121233498Y-79088384D01*
X121230152Y-79081495D01*
X121228824Y-79070747D01*
X121228435Y-79065847D01*
X121228435Y-78956452D01*
X121216092Y-78910388D01*
X121215194Y-78899075D01*
X121220120Y-78875541D01*
X121220693Y-78851505D01*
X121227150Y-78841964D01*
X121229511Y-78830688D01*
X121246377Y-78813554D01*
X121259855Y-78793642D01*
X121270445Y-78789106D01*
X121278528Y-78780897D01*
X121301983Y-78775601D01*
X121324084Y-78766138D01*
X121338805Y-78765261D01*
X123908484Y-78765261D01*
X123975523Y-78784946D01*
X124015870Y-78827259D01*
X124052310Y-78890374D01*
X124136186Y-78974250D01*
X124238913Y-79033560D01*
X124353490Y-79064261D01*
X124353493Y-79064261D01*
X124472105Y-79064261D01*
X124472108Y-79064261D01*
X124586685Y-79033560D01*
X124689412Y-78974250D01*
X124771425Y-78892236D01*
X124832744Y-78858754D01*
X124902436Y-78863738D01*
X124921095Y-78872528D01*
X125022714Y-78931199D01*
X125137291Y-78961900D01*
X125137294Y-78961900D01*
X125255906Y-78961900D01*
X125255909Y-78961900D01*
X125370486Y-78931199D01*
X125473213Y-78871889D01*
X125557089Y-78788013D01*
X125588705Y-78733253D01*
X126161209Y-78733253D01*
X126161209Y-78851871D01*
X126191910Y-78966448D01*
X126251220Y-79069175D01*
X126335096Y-79153051D01*
X126437823Y-79212361D01*
X126526307Y-79236070D01*
X126585966Y-79272434D01*
X126616495Y-79335281D01*
X126608200Y-79404656D01*
X126592592Y-79431325D01*
X126592099Y-79431967D01*
X126550819Y-79503466D01*
X126532786Y-79534699D01*
X126502085Y-79649276D01*
X126502085Y-79767894D01*
X126532786Y-79882471D01*
X126592096Y-79985198D01*
X126675972Y-80069074D01*
X126778699Y-80128384D01*
X126893276Y-80159085D01*
X126893279Y-80159085D01*
X127011891Y-80159085D01*
X127011894Y-80159085D01*
X127126471Y-80128384D01*
X127229198Y-80069074D01*
X127313074Y-79985198D01*
X127372384Y-79882471D01*
X127403085Y-79767894D01*
X127403085Y-79649276D01*
X127372384Y-79534699D01*
X127342528Y-79482988D01*
X127326055Y-79415090D01*
X127348906Y-79349063D01*
X127362228Y-79333313D01*
X127872723Y-78822819D01*
X127934046Y-78789334D01*
X127960404Y-78786500D01*
X135056667Y-78786500D01*
X135123706Y-78806185D01*
X135144348Y-78822819D01*
X137208660Y-80887131D01*
X137242145Y-80948454D01*
X137240754Y-81006905D01*
X137228716Y-81051833D01*
X137217500Y-81093691D01*
X137217500Y-81212309D01*
X137248201Y-81326886D01*
X137307511Y-81429613D01*
X137391387Y-81513489D01*
X137494114Y-81572799D01*
X137608691Y-81603500D01*
X137608694Y-81603500D01*
X137727306Y-81603500D01*
X137727309Y-81603500D01*
X137841886Y-81572799D01*
X137944613Y-81513489D01*
X138028489Y-81429613D01*
X138053747Y-81385864D01*
X138104312Y-81337651D01*
X138172919Y-81324427D01*
X138237784Y-81350395D01*
X138248814Y-81360185D01*
X138566181Y-81677552D01*
X138599666Y-81738875D01*
X138602500Y-81765233D01*
X138602500Y-81798709D01*
X138633201Y-81913286D01*
X138692511Y-82016013D01*
X138776387Y-82099889D01*
X138879114Y-82159199D01*
X138993691Y-82189900D01*
X138993694Y-82189900D01*
X139112306Y-82189900D01*
X139112309Y-82189900D01*
X139226886Y-82159199D01*
X139329613Y-82099889D01*
X139413489Y-82016013D01*
X139472799Y-81913286D01*
X139503500Y-81798709D01*
X139503500Y-81787918D01*
X139505900Y-81778962D01*
X139505900Y-81699838D01*
X139503500Y-81690881D01*
X139503500Y-81680091D01*
X139472799Y-81565514D01*
X139413489Y-81462787D01*
X139329613Y-81378911D01*
X139226886Y-81319601D01*
X139112309Y-81288900D01*
X139112306Y-81288900D01*
X139078833Y-81288900D01*
X139011794Y-81269215D01*
X138991152Y-81252581D01*
X135583112Y-77844541D01*
X135583111Y-77844540D01*
X135552796Y-77827038D01*
X135552796Y-77827037D01*
X135552792Y-77827036D01*
X135539462Y-77819339D01*
X135514590Y-77804979D01*
X135514591Y-77804979D01*
X135470432Y-77793147D01*
X135438162Y-77784500D01*
X135105962Y-77784500D01*
X127990233Y-77784500D01*
X127578909Y-77784500D01*
X127546639Y-77793147D01*
X127502481Y-77804979D01*
X127472350Y-77822375D01*
X127464279Y-77827036D01*
X127464277Y-77827037D01*
X127464275Y-77827038D01*
X127433961Y-77844539D01*
X127433958Y-77844541D01*
X127199060Y-78079440D01*
X126929042Y-78349457D01*
X126867719Y-78382942D01*
X126798027Y-78377958D01*
X126793189Y-78375679D01*
X126793109Y-78375875D01*
X126785599Y-78372764D01*
X126775328Y-78370012D01*
X126671018Y-78342062D01*
X126552400Y-78342062D01*
X126437823Y-78372763D01*
X126437821Y-78372763D01*
X126437821Y-78372764D01*
X126335096Y-78432073D01*
X126335093Y-78432075D01*
X126251222Y-78515946D01*
X126251220Y-78515949D01*
X126191910Y-78618676D01*
X126161209Y-78733253D01*
X125588705Y-78733253D01*
X125616399Y-78685286D01*
X125647100Y-78570709D01*
X125647100Y-78452091D01*
X125616399Y-78337514D01*
X125557089Y-78234787D01*
X125473213Y-78150911D01*
X125370486Y-78091601D01*
X125255909Y-78060900D01*
X125255906Y-78060900D01*
X125222433Y-78060900D01*
X125155394Y-78041215D01*
X125134752Y-78024581D01*
X124933473Y-77823302D01*
X124933468Y-77823298D01*
X124901737Y-77804979D01*
X124893423Y-77800179D01*
X124893421Y-77800177D01*
X124893421Y-77800178D01*
X124893419Y-77800177D01*
X124887404Y-77796704D01*
X124864951Y-77783740D01*
X124864952Y-77783740D01*
X124825947Y-77773289D01*
X124788523Y-77763261D01*
X124788521Y-77763261D01*
X124696315Y-77763261D01*
X124681059Y-77762261D01*
X124680593Y-77762261D01*
X124145005Y-77762261D01*
X124144539Y-77762261D01*
X124129283Y-77763261D01*
X120168832Y-77763261D01*
X120101793Y-77743576D01*
X120056038Y-77690772D01*
X120046094Y-77621614D01*
X120075119Y-77558058D01*
X120081151Y-77551580D01*
X120097220Y-77535511D01*
X120474504Y-77158227D01*
X120860621Y-76772109D01*
X120921942Y-76738626D01*
X120991633Y-76743610D01*
X121047567Y-76785482D01*
X121051390Y-76790884D01*
X121086956Y-76844113D01*
X121104024Y-76869657D01*
X121250342Y-77015975D01*
X121250345Y-77015977D01*
X121422402Y-77130941D01*
X121613580Y-77210130D01*
X121758052Y-77238867D01*
X121816530Y-77250499D01*
X121816534Y-77250500D01*
X121816535Y-77250500D01*
X122023466Y-77250500D01*
X122023467Y-77250499D01*
X122226420Y-77210130D01*
X122417598Y-77130941D01*
X122589655Y-77015977D01*
X122735977Y-76869655D01*
X122850941Y-76697598D01*
X122930130Y-76506420D01*
X122970500Y-76303465D01*
X122970500Y-76096535D01*
X122930130Y-75893580D01*
X122850941Y-75702402D01*
X122735977Y-75530345D01*
X122735976Y-75530344D01*
X122735974Y-75530341D01*
X122732547Y-75526165D01*
X122705234Y-75461855D01*
X122717025Y-75392987D01*
X122764177Y-75341427D01*
X122828400Y-75323500D01*
X123107167Y-75323500D01*
X123174206Y-75343185D01*
X123194848Y-75359819D01*
X123472924Y-75637895D01*
X123506409Y-75699218D01*
X123501425Y-75768910D01*
X123499804Y-75773029D01*
X123449870Y-75893579D01*
X123449868Y-75893587D01*
X123409500Y-76096530D01*
X123409500Y-76303469D01*
X123449868Y-76506412D01*
X123449870Y-76506420D01*
X123512631Y-76657939D01*
X123529059Y-76697598D01*
X123531186Y-76700781D01*
X123644024Y-76869657D01*
X123790342Y-77015975D01*
X123790345Y-77015977D01*
X123962402Y-77130941D01*
X124153580Y-77210130D01*
X124298052Y-77238867D01*
X124356530Y-77250499D01*
X124356534Y-77250500D01*
X124356535Y-77250500D01*
X124563466Y-77250500D01*
X124563467Y-77250499D01*
X124766420Y-77210130D01*
X124957598Y-77130941D01*
X125129655Y-77015977D01*
X125275977Y-76869655D01*
X125390941Y-76697598D01*
X125470130Y-76506420D01*
X125510500Y-76303465D01*
X125510500Y-76096535D01*
X125470130Y-75893580D01*
X125390941Y-75702402D01*
X125275977Y-75530345D01*
X125275975Y-75530342D01*
X125129657Y-75384024D01*
X124961655Y-75271770D01*
X124957598Y-75269059D01*
X124905002Y-75247273D01*
X124766420Y-75189870D01*
X124766412Y-75189868D01*
X124657062Y-75168117D01*
X124595151Y-75135732D01*
X124560577Y-75075017D01*
X124564316Y-75005247D01*
X124605182Y-74948575D01*
X124670201Y-74922994D01*
X124681253Y-74922500D01*
X126778747Y-74922500D01*
X126845786Y-74942185D01*
X126891541Y-74994989D01*
X126901485Y-75064147D01*
X126872460Y-75127703D01*
X126813682Y-75165477D01*
X126802938Y-75168117D01*
X126693587Y-75189868D01*
X126693579Y-75189870D01*
X126502403Y-75269058D01*
X126330342Y-75384024D01*
X126184024Y-75530342D01*
X126069058Y-75702403D01*
X125989870Y-75893579D01*
X125989868Y-75893587D01*
X125949500Y-76096530D01*
X125949500Y-76303469D01*
X125989868Y-76506412D01*
X125989870Y-76506420D01*
X126052631Y-76657939D01*
X126069059Y-76697598D01*
X126071186Y-76700781D01*
X126184024Y-76869657D01*
X126330342Y-77015975D01*
X126330345Y-77015977D01*
X126502402Y-77130941D01*
X126693580Y-77210130D01*
X126838052Y-77238867D01*
X126896530Y-77250499D01*
X126896534Y-77250500D01*
X126896535Y-77250500D01*
X127103466Y-77250500D01*
X127103467Y-77250499D01*
X127306420Y-77210130D01*
X127497598Y-77130941D01*
X127669655Y-77015977D01*
X127815977Y-76869655D01*
X127930941Y-76697598D01*
X128010130Y-76506420D01*
X128050500Y-76303465D01*
X128050500Y-76096535D01*
X128010130Y-75893580D01*
X127930941Y-75702402D01*
X127815977Y-75530345D01*
X127815975Y-75530342D01*
X127669657Y-75384024D01*
X127501655Y-75271770D01*
X127497598Y-75269059D01*
X127445002Y-75247273D01*
X127306420Y-75189870D01*
X127306412Y-75189868D01*
X127197062Y-75168117D01*
X127135151Y-75135732D01*
X127100577Y-75075017D01*
X127104316Y-75005247D01*
X127145182Y-74948575D01*
X127210201Y-74922994D01*
X127221253Y-74922500D01*
X129318747Y-74922500D01*
X129385786Y-74942185D01*
X129431541Y-74994989D01*
X129441485Y-75064147D01*
X129412460Y-75127703D01*
X129353682Y-75165477D01*
X129342938Y-75168117D01*
X129233587Y-75189868D01*
X129233579Y-75189870D01*
X129042403Y-75269058D01*
X128870342Y-75384024D01*
X128724024Y-75530342D01*
X128609058Y-75702403D01*
X128529870Y-75893579D01*
X128529868Y-75893587D01*
X128489500Y-76096530D01*
X128489500Y-76303469D01*
X128529868Y-76506412D01*
X128529870Y-76506420D01*
X128592631Y-76657939D01*
X128609059Y-76697598D01*
X128611186Y-76700781D01*
X128724024Y-76869657D01*
X128870342Y-77015975D01*
X128870345Y-77015977D01*
X129042402Y-77130941D01*
X129233580Y-77210130D01*
X129378052Y-77238867D01*
X129436530Y-77250499D01*
X129436534Y-77250500D01*
X129436535Y-77250500D01*
X129643466Y-77250500D01*
X129643467Y-77250499D01*
X129846420Y-77210130D01*
X130037598Y-77130941D01*
X130209655Y-77015977D01*
X130355977Y-76869655D01*
X130470941Y-76697598D01*
X130550130Y-76506420D01*
X130590500Y-76303465D01*
X130590500Y-76096535D01*
X130550130Y-75893580D01*
X130470941Y-75702402D01*
X130355977Y-75530345D01*
X130355975Y-75530342D01*
X130209657Y-75384024D01*
X130041655Y-75271770D01*
X130037598Y-75269059D01*
X129985002Y-75247273D01*
X129846420Y-75189870D01*
X129846412Y-75189868D01*
X129737062Y-75168117D01*
X129675151Y-75135732D01*
X129640577Y-75075017D01*
X129644316Y-75005247D01*
X129685182Y-74948575D01*
X129750201Y-74922994D01*
X129761253Y-74922500D01*
X131858747Y-74922500D01*
X131925786Y-74942185D01*
X131971541Y-74994989D01*
X131981485Y-75064147D01*
X131952460Y-75127703D01*
X131893682Y-75165477D01*
X131882938Y-75168117D01*
X131773587Y-75189868D01*
X131773579Y-75189870D01*
X131582403Y-75269058D01*
X131410342Y-75384024D01*
X131264024Y-75530342D01*
X131149058Y-75702403D01*
X131069870Y-75893579D01*
X131069868Y-75893587D01*
X131029500Y-76096530D01*
X131029500Y-76303469D01*
X131069868Y-76506412D01*
X131069870Y-76506420D01*
X131132631Y-76657939D01*
X131149059Y-76697598D01*
X131151186Y-76700781D01*
X131264024Y-76869657D01*
X131410342Y-77015975D01*
X131410345Y-77015977D01*
X131582402Y-77130941D01*
X131773580Y-77210130D01*
X131918052Y-77238867D01*
X131976530Y-77250499D01*
X131976534Y-77250500D01*
X131976535Y-77250500D01*
X132183466Y-77250500D01*
X132183467Y-77250499D01*
X132386420Y-77210130D01*
X132577598Y-77130941D01*
X132749655Y-77015977D01*
X132895977Y-76869655D01*
X133010941Y-76697598D01*
X133090130Y-76506420D01*
X133130500Y-76303465D01*
X133130500Y-76096535D01*
X133090130Y-75893580D01*
X133010941Y-75702402D01*
X132895977Y-75530345D01*
X132895975Y-75530342D01*
X132749657Y-75384024D01*
X132581655Y-75271770D01*
X132577598Y-75269059D01*
X132525002Y-75247273D01*
X132386420Y-75189870D01*
X132386412Y-75189868D01*
X132277062Y-75168117D01*
X132215151Y-75135732D01*
X132180577Y-75075017D01*
X132184316Y-75005247D01*
X132225182Y-74948575D01*
X132290201Y-74922994D01*
X132301253Y-74922500D01*
X134398747Y-74922500D01*
X134465786Y-74942185D01*
X134511541Y-74994989D01*
X134521485Y-75064147D01*
X134492460Y-75127703D01*
X134433682Y-75165477D01*
X134422938Y-75168117D01*
X134313587Y-75189868D01*
X134313579Y-75189870D01*
X134122403Y-75269058D01*
X133950342Y-75384024D01*
X133804024Y-75530342D01*
X133689058Y-75702403D01*
X133609870Y-75893579D01*
X133609868Y-75893587D01*
X133569500Y-76096530D01*
X133569500Y-76303469D01*
X133609868Y-76506412D01*
X133609870Y-76506420D01*
X133672631Y-76657939D01*
X133689059Y-76697598D01*
X133691186Y-76700781D01*
X133804024Y-76869657D01*
X133950342Y-77015975D01*
X133950345Y-77015977D01*
X134122402Y-77130941D01*
X134313580Y-77210130D01*
X134458052Y-77238867D01*
X134516530Y-77250499D01*
X134516534Y-77250500D01*
X134516535Y-77250500D01*
X134723466Y-77250500D01*
X134723467Y-77250499D01*
X134926420Y-77210130D01*
X135117598Y-77130941D01*
X135289655Y-77015977D01*
X135435977Y-76869655D01*
X135550941Y-76697598D01*
X135630130Y-76506420D01*
X135670500Y-76303465D01*
X135670500Y-76096535D01*
X135630130Y-75893580D01*
X135550941Y-75702402D01*
X135435977Y-75530345D01*
X135435975Y-75530342D01*
X135289657Y-75384024D01*
X135121655Y-75271770D01*
X135117598Y-75269059D01*
X135065002Y-75247273D01*
X134926420Y-75189870D01*
X134926412Y-75189868D01*
X134817062Y-75168117D01*
X134755151Y-75135732D01*
X134720577Y-75075017D01*
X134724316Y-75005247D01*
X134765182Y-74948575D01*
X134830201Y-74922994D01*
X134841253Y-74922500D01*
X136938747Y-74922500D01*
X137005786Y-74942185D01*
X137051541Y-74994989D01*
X137061485Y-75064147D01*
X137032460Y-75127703D01*
X136973682Y-75165477D01*
X136962938Y-75168117D01*
X136853587Y-75189868D01*
X136853579Y-75189870D01*
X136662403Y-75269058D01*
X136490342Y-75384024D01*
X136344024Y-75530342D01*
X136229058Y-75702403D01*
X136149870Y-75893579D01*
X136149868Y-75893587D01*
X136109500Y-76096530D01*
X136109500Y-76303469D01*
X136149868Y-76506412D01*
X136149870Y-76506420D01*
X136212631Y-76657939D01*
X136229059Y-76697598D01*
X136231186Y-76700781D01*
X136344024Y-76869657D01*
X136490342Y-77015975D01*
X136490345Y-77015977D01*
X136662402Y-77130941D01*
X136853580Y-77210130D01*
X136998052Y-77238867D01*
X137056530Y-77250499D01*
X137056534Y-77250500D01*
X137056535Y-77250500D01*
X137263466Y-77250500D01*
X137263467Y-77250499D01*
X137466420Y-77210130D01*
X137657598Y-77130941D01*
X137829655Y-77015977D01*
X137975977Y-76869655D01*
X138090941Y-76697598D01*
X138170130Y-76506420D01*
X138210500Y-76303465D01*
X138210500Y-76096535D01*
X138170130Y-75893580D01*
X138090941Y-75702402D01*
X137975977Y-75530345D01*
X137975975Y-75530342D01*
X137829657Y-75384024D01*
X137661655Y-75271770D01*
X137657598Y-75269059D01*
X137605002Y-75247273D01*
X137466420Y-75189870D01*
X137466412Y-75189868D01*
X137357062Y-75168117D01*
X137295151Y-75135732D01*
X137260577Y-75075017D01*
X137264316Y-75005247D01*
X137305182Y-74948575D01*
X137370201Y-74922994D01*
X137381253Y-74922500D01*
X139478747Y-74922500D01*
X139545786Y-74942185D01*
X139591541Y-74994989D01*
X139601485Y-75064147D01*
X139572460Y-75127703D01*
X139513682Y-75165477D01*
X139502938Y-75168117D01*
X139393587Y-75189868D01*
X139393579Y-75189870D01*
X139202403Y-75269058D01*
X139030342Y-75384024D01*
X138884024Y-75530342D01*
X138769058Y-75702403D01*
X138689870Y-75893579D01*
X138689868Y-75893587D01*
X138649500Y-76096530D01*
X138649500Y-76303469D01*
X138689868Y-76506412D01*
X138689870Y-76506420D01*
X138752631Y-76657939D01*
X138769059Y-76697598D01*
X138771186Y-76700781D01*
X138884024Y-76869657D01*
X139030342Y-77015975D01*
X139030345Y-77015977D01*
X139202402Y-77130941D01*
X139393580Y-77210130D01*
X139538052Y-77238867D01*
X139596530Y-77250499D01*
X139596534Y-77250500D01*
X139596535Y-77250500D01*
X139803466Y-77250500D01*
X139803467Y-77250499D01*
X140006420Y-77210130D01*
X140197598Y-77130941D01*
X140369655Y-77015977D01*
X140515977Y-76869655D01*
X140630941Y-76697598D01*
X140710130Y-76506420D01*
X140750500Y-76303465D01*
X140750500Y-76096535D01*
X140710130Y-75893580D01*
X140630941Y-75702402D01*
X140515977Y-75530345D01*
X140515975Y-75530342D01*
X140369657Y-75384024D01*
X140201655Y-75271770D01*
X140197598Y-75269059D01*
X140145002Y-75247273D01*
X140006420Y-75189870D01*
X140006412Y-75189868D01*
X139897062Y-75168117D01*
X139835151Y-75135732D01*
X139800577Y-75075017D01*
X139804316Y-75005247D01*
X139845182Y-74948575D01*
X139910201Y-74922994D01*
X139921253Y-74922500D01*
X141234500Y-74922500D01*
X141301539Y-74942185D01*
X141347294Y-74994989D01*
X141358500Y-75046500D01*
X141358500Y-92796700D01*
X141338815Y-92863739D01*
X141286011Y-92909494D01*
X141234500Y-92920700D01*
X133461699Y-92920700D01*
X133394660Y-92901015D01*
X133348905Y-92848211D01*
X133338961Y-92779053D01*
X133367986Y-92715497D01*
X133374018Y-92709019D01*
X133694475Y-92388563D01*
X133739978Y-92309748D01*
X133743910Y-92302938D01*
X133745000Y-92298867D01*
X133750322Y-92288022D01*
X133765914Y-92271003D01*
X133777844Y-92251243D01*
X133789072Y-92245729D01*
X133797522Y-92236507D01*
X133819840Y-92230620D01*
X133840560Y-92220446D01*
X133852986Y-92221877D01*
X133865081Y-92218688D01*
X133887037Y-92225801D01*
X133909970Y-92228444D01*
X133923658Y-92237666D01*
X133931550Y-92240223D01*
X133936594Y-92246381D01*
X133945444Y-92252344D01*
X133945635Y-92252112D01*
X133948086Y-92254124D01*
X133949326Y-92254959D01*
X133950342Y-92255975D01*
X133950345Y-92255977D01*
X134122402Y-92370941D01*
X134313580Y-92450130D01*
X134458052Y-92478867D01*
X134516530Y-92490499D01*
X134516534Y-92490500D01*
X134516535Y-92490500D01*
X134723466Y-92490500D01*
X134723467Y-92490499D01*
X134926420Y-92450130D01*
X135117598Y-92370941D01*
X135289655Y-92255977D01*
X135435977Y-92109655D01*
X135550941Y-91937598D01*
X135630130Y-91746420D01*
X135670500Y-91543465D01*
X135670500Y-91336535D01*
X135670499Y-91336530D01*
X136109500Y-91336530D01*
X136109500Y-91543469D01*
X136149868Y-91746412D01*
X136149870Y-91746420D01*
X136229059Y-91937598D01*
X136286541Y-92023626D01*
X136344024Y-92109657D01*
X136490342Y-92255975D01*
X136490345Y-92255977D01*
X136662402Y-92370941D01*
X136853580Y-92450130D01*
X136998052Y-92478867D01*
X137056530Y-92490499D01*
X137056534Y-92490500D01*
X137056535Y-92490500D01*
X137263466Y-92490500D01*
X137263467Y-92490499D01*
X137466420Y-92450130D01*
X137657598Y-92370941D01*
X137829655Y-92255977D01*
X137975977Y-92109655D01*
X138090941Y-91937598D01*
X138170130Y-91746420D01*
X138210500Y-91543465D01*
X138210500Y-91336535D01*
X138170130Y-91133580D01*
X138090941Y-90942402D01*
X137975977Y-90770345D01*
X137975975Y-90770342D01*
X137829657Y-90624024D01*
X137715333Y-90547636D01*
X137657598Y-90509059D01*
X137466420Y-90429870D01*
X137466412Y-90429868D01*
X137263469Y-90389500D01*
X137263465Y-90389500D01*
X137056535Y-90389500D01*
X137056530Y-90389500D01*
X136853587Y-90429868D01*
X136853579Y-90429870D01*
X136662403Y-90509058D01*
X136490342Y-90624024D01*
X136344024Y-90770342D01*
X136229058Y-90942403D01*
X136149870Y-91133579D01*
X136149868Y-91133587D01*
X136109500Y-91336530D01*
X135670499Y-91336530D01*
X135630130Y-91133580D01*
X135550941Y-90942402D01*
X135435977Y-90770345D01*
X135435975Y-90770342D01*
X135289657Y-90624024D01*
X135175333Y-90547636D01*
X135117598Y-90509059D01*
X134926420Y-90429870D01*
X134926412Y-90429868D01*
X134723469Y-90389500D01*
X134723465Y-90389500D01*
X134516535Y-90389500D01*
X134516530Y-90389500D01*
X134313587Y-90429868D01*
X134313579Y-90429870D01*
X134122403Y-90509058D01*
X133962390Y-90615974D01*
X133895712Y-90636851D01*
X133828332Y-90618366D01*
X133781643Y-90566387D01*
X133769500Y-90512871D01*
X133769500Y-85081491D01*
X136557100Y-85081491D01*
X136557100Y-85200109D01*
X136587801Y-85314686D01*
X136647111Y-85417413D01*
X136647113Y-85417415D01*
X136670781Y-85441083D01*
X136704266Y-85502406D01*
X136707100Y-85528764D01*
X136707100Y-86247162D01*
X136720651Y-86297735D01*
X136727579Y-86323590D01*
X136740089Y-86345257D01*
X136754368Y-86369989D01*
X136759859Y-86379500D01*
X136766561Y-86391109D01*
X136767140Y-86392111D01*
X137356489Y-86981460D01*
X137415829Y-87015720D01*
X137422351Y-87019486D01*
X137425012Y-87021022D01*
X137501438Y-87041500D01*
X137580562Y-87041500D01*
X138838284Y-87041500D01*
X138900284Y-87058113D01*
X138936110Y-87078797D01*
X138936111Y-87078797D01*
X138936114Y-87078799D01*
X139050691Y-87109500D01*
X139050694Y-87109500D01*
X139169306Y-87109500D01*
X139169309Y-87109500D01*
X139283886Y-87078799D01*
X139386613Y-87019489D01*
X139470489Y-86935613D01*
X139529799Y-86832886D01*
X139560500Y-86718309D01*
X139560500Y-86599691D01*
X139529799Y-86485114D01*
X139470489Y-86382387D01*
X139386613Y-86298511D01*
X139283886Y-86239201D01*
X139169309Y-86208500D01*
X139050691Y-86208500D01*
X138936114Y-86239201D01*
X138936112Y-86239201D01*
X138936112Y-86239202D01*
X138833387Y-86298511D01*
X138833384Y-86298513D01*
X138749513Y-86382384D01*
X138744563Y-86388836D01*
X138742542Y-86387285D01*
X138701183Y-86426718D01*
X138644368Y-86440500D01*
X137716833Y-86440500D01*
X137649794Y-86420815D01*
X137629152Y-86404181D01*
X137344419Y-86119448D01*
X137310934Y-86058125D01*
X137308100Y-86031767D01*
X137308100Y-85528764D01*
X137327785Y-85461725D01*
X137344419Y-85441083D01*
X137356020Y-85429482D01*
X137368089Y-85417413D01*
X137427399Y-85314686D01*
X137458100Y-85200109D01*
X137458100Y-85081491D01*
X137427399Y-84966914D01*
X137368089Y-84864187D01*
X137284213Y-84780311D01*
X137181486Y-84721001D01*
X137066909Y-84690300D01*
X136948291Y-84690300D01*
X136833714Y-84721001D01*
X136833712Y-84721001D01*
X136833712Y-84721002D01*
X136730987Y-84780311D01*
X136730984Y-84780313D01*
X136647113Y-84864184D01*
X136647111Y-84864187D01*
X136591392Y-84960695D01*
X136587801Y-84966914D01*
X136557100Y-85081491D01*
X133769500Y-85081491D01*
X133769500Y-84541699D01*
X133789185Y-84474660D01*
X133805819Y-84454018D01*
X135044018Y-83215819D01*
X135105341Y-83182334D01*
X135131699Y-83179500D01*
X136717434Y-83179500D01*
X136717436Y-83179500D01*
X136767039Y-83166208D01*
X136777522Y-83163400D01*
X136793135Y-83159216D01*
X136812938Y-83153910D01*
X136898562Y-83104475D01*
X136933586Y-83069450D01*
X136994906Y-83035966D01*
X137005083Y-83034193D01*
X137007304Y-83033900D01*
X137007309Y-83033900D01*
X137121886Y-83003199D01*
X137224613Y-82943889D01*
X137308489Y-82860013D01*
X137367799Y-82757286D01*
X137398500Y-82642709D01*
X137398500Y-82524091D01*
X137367799Y-82409514D01*
X137308489Y-82306787D01*
X137224613Y-82222911D01*
X137121886Y-82163601D01*
X137007309Y-82132900D01*
X136888691Y-82132900D01*
X136774114Y-82163601D01*
X136774112Y-82163601D01*
X136774112Y-82163602D01*
X136671387Y-82222911D01*
X136671384Y-82222913D01*
X136587513Y-82306784D01*
X136587511Y-82306787D01*
X136553034Y-82366501D01*
X136502469Y-82414715D01*
X136445649Y-82428500D01*
X134875364Y-82428500D01*
X134827612Y-82441295D01*
X134827611Y-82441294D01*
X134779863Y-82454089D01*
X134779862Y-82454089D01*
X134724095Y-82486287D01*
X134699447Y-82500518D01*
X134694235Y-82503527D01*
X133093527Y-84104235D01*
X133044091Y-84189859D01*
X133044090Y-84189861D01*
X133044090Y-84189862D01*
X133031295Y-84237613D01*
X133031294Y-84237614D01*
X133020224Y-84278931D01*
X133020223Y-84278936D01*
X133018500Y-84285365D01*
X133018500Y-89329420D01*
X132998815Y-89396459D01*
X132946011Y-89442214D01*
X132876853Y-89452158D01*
X132865930Y-89450084D01*
X132848238Y-89445895D01*
X132825386Y-89432701D01*
X132710809Y-89402000D01*
X132662852Y-89402000D01*
X132648763Y-89398664D01*
X132630480Y-89388242D01*
X132610294Y-89382315D01*
X132589652Y-89365681D01*
X130915819Y-87691848D01*
X130882334Y-87630525D01*
X130879500Y-87604167D01*
X130879500Y-87570693D01*
X130879500Y-87570691D01*
X130848799Y-87456114D01*
X130789489Y-87353387D01*
X130705613Y-87269511D01*
X130602886Y-87210201D01*
X130488309Y-87179500D01*
X130369691Y-87179500D01*
X130255114Y-87210201D01*
X130255112Y-87210201D01*
X130255112Y-87210202D01*
X130152387Y-87269511D01*
X130152384Y-87269513D01*
X130068513Y-87353384D01*
X130068511Y-87353387D01*
X130016944Y-87442703D01*
X129966376Y-87490918D01*
X129897769Y-87504140D01*
X129832905Y-87478172D01*
X129792377Y-87421258D01*
X129785557Y-87380702D01*
X129785557Y-87163431D01*
X129785556Y-87163427D01*
X129777407Y-87133012D01*
X129765079Y-87087003D01*
X129725517Y-87018480D01*
X129201977Y-86494940D01*
X129168492Y-86433617D01*
X129173476Y-86363925D01*
X129182272Y-86345257D01*
X129197799Y-86318364D01*
X129228500Y-86203787D01*
X129228500Y-86085169D01*
X129197799Y-85970592D01*
X129138489Y-85867865D01*
X129054613Y-85783989D01*
X128951886Y-85724679D01*
X128837309Y-85693978D01*
X128718691Y-85693978D01*
X128604114Y-85724679D01*
X128604112Y-85724679D01*
X128604112Y-85724680D01*
X128501387Y-85783989D01*
X128501384Y-85783991D01*
X128417513Y-85867862D01*
X128417511Y-85867865D01*
X128364210Y-85960185D01*
X128358201Y-85970592D01*
X128327500Y-86085169D01*
X128327500Y-86203787D01*
X128358201Y-86318364D01*
X128417511Y-86421091D01*
X128417513Y-86421093D01*
X128441181Y-86444761D01*
X128470355Y-86490959D01*
X128477500Y-86511085D01*
X128477500Y-86535496D01*
X128497979Y-86611923D01*
X128532081Y-86670989D01*
X128537540Y-86680445D01*
X128537667Y-86680572D01*
X128537668Y-86680574D01*
X129148238Y-87291143D01*
X129181723Y-87352466D01*
X129184557Y-87378824D01*
X129184557Y-88122619D01*
X129198209Y-88173570D01*
X129205036Y-88199047D01*
X129205039Y-88199052D01*
X129229236Y-88240964D01*
X129229237Y-88240964D01*
X129244594Y-88267564D01*
X129244599Y-88267570D01*
X131418348Y-90441319D01*
X131451833Y-90502642D01*
X131446849Y-90572334D01*
X131413692Y-90618755D01*
X131414652Y-90619715D01*
X131264025Y-90770341D01*
X131264024Y-90770342D01*
X131149058Y-90942403D01*
X131069870Y-91133579D01*
X131069868Y-91133587D01*
X131029500Y-91336530D01*
X131029500Y-91543469D01*
X131069868Y-91746412D01*
X131069870Y-91746420D01*
X131149059Y-91937598D01*
X131206541Y-92023626D01*
X131264024Y-92109657D01*
X131277186Y-92122819D01*
X131310671Y-92184142D01*
X131305687Y-92253834D01*
X131263815Y-92309767D01*
X131198351Y-92334184D01*
X131189505Y-92334500D01*
X130430495Y-92334500D01*
X130363456Y-92314815D01*
X130317701Y-92262011D01*
X130307757Y-92192853D01*
X130336782Y-92129297D01*
X130342814Y-92122819D01*
X130355974Y-92109658D01*
X130355975Y-92109657D01*
X130355977Y-92109655D01*
X130470941Y-91937598D01*
X130550130Y-91746420D01*
X130590500Y-91543465D01*
X130590500Y-91336535D01*
X130550130Y-91133580D01*
X130470941Y-90942402D01*
X130355977Y-90770345D01*
X130355975Y-90770342D01*
X130209657Y-90624024D01*
X130095333Y-90547636D01*
X130037598Y-90509059D01*
X129846420Y-90429870D01*
X129846412Y-90429868D01*
X129643469Y-90389500D01*
X129643465Y-90389500D01*
X129436535Y-90389500D01*
X129436530Y-90389500D01*
X129233587Y-90429868D01*
X129233579Y-90429870D01*
X129042403Y-90509058D01*
X128870342Y-90624024D01*
X128724024Y-90770342D01*
X128609058Y-90942403D01*
X128529870Y-91133579D01*
X128529868Y-91133587D01*
X128489500Y-91336530D01*
X128489500Y-91543469D01*
X128529868Y-91746412D01*
X128529870Y-91746420D01*
X128609059Y-91937598D01*
X128666541Y-92023626D01*
X128724024Y-92109657D01*
X128737186Y-92122819D01*
X128770671Y-92184142D01*
X128765687Y-92253834D01*
X128723815Y-92309767D01*
X128658351Y-92334184D01*
X128649505Y-92334500D01*
X127890495Y-92334500D01*
X127823456Y-92314815D01*
X127777701Y-92262011D01*
X127767757Y-92192853D01*
X127796782Y-92129297D01*
X127802814Y-92122819D01*
X127815974Y-92109658D01*
X127815975Y-92109657D01*
X127815977Y-92109655D01*
X127930941Y-91937598D01*
X128010130Y-91746420D01*
X128050500Y-91543465D01*
X128050500Y-91336535D01*
X128010130Y-91133580D01*
X127930941Y-90942402D01*
X127815977Y-90770345D01*
X127815975Y-90770342D01*
X127669657Y-90624024D01*
X127555333Y-90547636D01*
X127497598Y-90509059D01*
X127306420Y-90429870D01*
X127306412Y-90429868D01*
X127103469Y-90389500D01*
X127103465Y-90389500D01*
X126896535Y-90389500D01*
X126896530Y-90389500D01*
X126693587Y-90429868D01*
X126693579Y-90429870D01*
X126502403Y-90509058D01*
X126330342Y-90624024D01*
X126184024Y-90770342D01*
X126069058Y-90942403D01*
X125989870Y-91133579D01*
X125989868Y-91133587D01*
X125949500Y-91336530D01*
X125949500Y-91543469D01*
X125989868Y-91746412D01*
X125989870Y-91746420D01*
X126069059Y-91937598D01*
X126126541Y-92023626D01*
X126184024Y-92109657D01*
X126197186Y-92122819D01*
X126230671Y-92184142D01*
X126225687Y-92253834D01*
X126183815Y-92309767D01*
X126118351Y-92334184D01*
X126109505Y-92334500D01*
X125350495Y-92334500D01*
X125283456Y-92314815D01*
X125237701Y-92262011D01*
X125227757Y-92192853D01*
X125256782Y-92129297D01*
X125262814Y-92122819D01*
X125275974Y-92109658D01*
X125275975Y-92109657D01*
X125275977Y-92109655D01*
X125390941Y-91937598D01*
X125470130Y-91746420D01*
X125510500Y-91543465D01*
X125510500Y-91336535D01*
X125470130Y-91133580D01*
X125390941Y-90942402D01*
X125275977Y-90770345D01*
X125275975Y-90770342D01*
X125129657Y-90624024D01*
X125015333Y-90547636D01*
X124957598Y-90509059D01*
X124766420Y-90429870D01*
X124766412Y-90429868D01*
X124563469Y-90389500D01*
X124563465Y-90389500D01*
X124356535Y-90389500D01*
X124356530Y-90389500D01*
X124153587Y-90429868D01*
X124153579Y-90429870D01*
X123962403Y-90509058D01*
X123790342Y-90624024D01*
X123644024Y-90770342D01*
X123529058Y-90942403D01*
X123449870Y-91133579D01*
X123449868Y-91133587D01*
X123409500Y-91336530D01*
X123409500Y-91543469D01*
X123449868Y-91746412D01*
X123449870Y-91746420D01*
X123529059Y-91937598D01*
X123586541Y-92023626D01*
X123644024Y-92109657D01*
X123657186Y-92122819D01*
X123690671Y-92184142D01*
X123685687Y-92253834D01*
X123643815Y-92309767D01*
X123578351Y-92334184D01*
X123569505Y-92334500D01*
X122810495Y-92334500D01*
X122743456Y-92314815D01*
X122697701Y-92262011D01*
X122687757Y-92192853D01*
X122716782Y-92129297D01*
X122722814Y-92122819D01*
X122735974Y-92109658D01*
X122735975Y-92109657D01*
X122735977Y-92109655D01*
X122850941Y-91937598D01*
X122930130Y-91746420D01*
X122970500Y-91543465D01*
X122970500Y-91336535D01*
X122930130Y-91133580D01*
X122850941Y-90942402D01*
X122735977Y-90770345D01*
X122735975Y-90770342D01*
X122589657Y-90624024D01*
X122475333Y-90547636D01*
X122417598Y-90509059D01*
X122226420Y-90429870D01*
X122226412Y-90429868D01*
X122023469Y-90389500D01*
X122023465Y-90389500D01*
X121816535Y-90389500D01*
X121816530Y-90389500D01*
X121613587Y-90429868D01*
X121613579Y-90429870D01*
X121422403Y-90509058D01*
X121250342Y-90624024D01*
X121104024Y-90770342D01*
X120989058Y-90942403D01*
X120909870Y-91133579D01*
X120909868Y-91133587D01*
X120869500Y-91336530D01*
X120869500Y-91543469D01*
X120909868Y-91746412D01*
X120909870Y-91746420D01*
X120989059Y-91937598D01*
X121046541Y-92023626D01*
X121104024Y-92109657D01*
X121117186Y-92122819D01*
X121150671Y-92184142D01*
X121145687Y-92253834D01*
X121103815Y-92309767D01*
X121038351Y-92334184D01*
X121029505Y-92334500D01*
X120270495Y-92334500D01*
X120203456Y-92314815D01*
X120157701Y-92262011D01*
X120147757Y-92192853D01*
X120176782Y-92129297D01*
X120182814Y-92122819D01*
X120195974Y-92109658D01*
X120195975Y-92109657D01*
X120195977Y-92109655D01*
X120310941Y-91937598D01*
X120390130Y-91746420D01*
X120430500Y-91543465D01*
X120430500Y-91336535D01*
X120390130Y-91133580D01*
X120310941Y-90942402D01*
X120195977Y-90770345D01*
X120195975Y-90770342D01*
X120049657Y-90624024D01*
X119935333Y-90547636D01*
X119877598Y-90509059D01*
X119686420Y-90429870D01*
X119686412Y-90429868D01*
X119483469Y-90389500D01*
X119483465Y-90389500D01*
X119276535Y-90389500D01*
X119276530Y-90389500D01*
X119073587Y-90429868D01*
X119073579Y-90429870D01*
X118882403Y-90509058D01*
X118710342Y-90624024D01*
X118564024Y-90770342D01*
X118449058Y-90942403D01*
X118369870Y-91133579D01*
X118369868Y-91133587D01*
X118329500Y-91336530D01*
X118329500Y-91543469D01*
X118369868Y-91746412D01*
X118369870Y-91746420D01*
X118449059Y-91937598D01*
X118506541Y-92023626D01*
X118564024Y-92109657D01*
X118577186Y-92122819D01*
X118610671Y-92184142D01*
X118605687Y-92253834D01*
X118563815Y-92309767D01*
X118498351Y-92334184D01*
X118489505Y-92334500D01*
X117730495Y-92334500D01*
X117663456Y-92314815D01*
X117617701Y-92262011D01*
X117607757Y-92192853D01*
X117636782Y-92129297D01*
X117642814Y-92122819D01*
X117655974Y-92109658D01*
X117655975Y-92109657D01*
X117655977Y-92109655D01*
X117770941Y-91937598D01*
X117850130Y-91746420D01*
X117890500Y-91543465D01*
X117890500Y-91336535D01*
X117850130Y-91133580D01*
X117770941Y-90942402D01*
X117655977Y-90770345D01*
X117655975Y-90770342D01*
X117509657Y-90624024D01*
X117395333Y-90547636D01*
X117337598Y-90509059D01*
X117146420Y-90429870D01*
X117146412Y-90429868D01*
X116943469Y-90389500D01*
X116943465Y-90389500D01*
X116736535Y-90389500D01*
X116736530Y-90389500D01*
X116533587Y-90429868D01*
X116533579Y-90429870D01*
X116342403Y-90509058D01*
X116170342Y-90624024D01*
X116024024Y-90770342D01*
X115909058Y-90942403D01*
X115829870Y-91133579D01*
X115829868Y-91133587D01*
X115789500Y-91336530D01*
X115789500Y-91543469D01*
X115829868Y-91746412D01*
X115829870Y-91746420D01*
X115909059Y-91937598D01*
X115966541Y-92023626D01*
X116024024Y-92109657D01*
X116037186Y-92122819D01*
X116070671Y-92184142D01*
X116065687Y-92253834D01*
X116023815Y-92309767D01*
X115958351Y-92334184D01*
X115949505Y-92334500D01*
X115190495Y-92334500D01*
X115123456Y-92314815D01*
X115077701Y-92262011D01*
X115067757Y-92192853D01*
X115096782Y-92129297D01*
X115102814Y-92122819D01*
X115115974Y-92109658D01*
X115115975Y-92109657D01*
X115115977Y-92109655D01*
X115230941Y-91937598D01*
X115310130Y-91746420D01*
X115350500Y-91543465D01*
X115350500Y-91336535D01*
X115310130Y-91133580D01*
X115230941Y-90942402D01*
X115115977Y-90770345D01*
X115115975Y-90770342D01*
X114969657Y-90624024D01*
X114855333Y-90547636D01*
X114797598Y-90509059D01*
X114606420Y-90429870D01*
X114606412Y-90429868D01*
X114403469Y-90389500D01*
X114403465Y-90389500D01*
X114196535Y-90389500D01*
X114196530Y-90389500D01*
X113993587Y-90429868D01*
X113993579Y-90429870D01*
X113802403Y-90509058D01*
X113630344Y-90624023D01*
X113498208Y-90756159D01*
X113436885Y-90789643D01*
X113367193Y-90784659D01*
X113311260Y-90742787D01*
X113303146Y-90730487D01*
X113286475Y-90701612D01*
X113216562Y-90631699D01*
X112498389Y-89913526D01*
X112498388Y-89913525D01*
X112412764Y-89864090D01*
X112365012Y-89851295D01*
X112365010Y-89851294D01*
X112365008Y-89851293D01*
X112317262Y-89838500D01*
X112317261Y-89838500D01*
X111248899Y-89838500D01*
X111181860Y-89818815D01*
X111161218Y-89802181D01*
X109348963Y-87989926D01*
X109348962Y-87989925D01*
X109263338Y-87940490D01*
X109213196Y-87927054D01*
X109196998Y-87922714D01*
X109196997Y-87922713D01*
X109187380Y-87920137D01*
X109167836Y-87914900D01*
X109167835Y-87914900D01*
X109120266Y-87914900D01*
X109114001Y-87914262D01*
X109087243Y-87903353D01*
X109059526Y-87895215D01*
X109051587Y-87888817D01*
X109049301Y-87887886D01*
X109047826Y-87885788D01*
X109038884Y-87878582D01*
X108950512Y-87790210D01*
X108868352Y-87742775D01*
X108847786Y-87730901D01*
X108733209Y-87700200D01*
X108614591Y-87700200D01*
X108500014Y-87730901D01*
X108500012Y-87730901D01*
X108500012Y-87730902D01*
X108397287Y-87790211D01*
X108397284Y-87790213D01*
X108313413Y-87874084D01*
X108313411Y-87874087D01*
X108254101Y-87976814D01*
X108223400Y-88091391D01*
X108223400Y-88210009D01*
X108254101Y-88324586D01*
X108313411Y-88427313D01*
X108397287Y-88511189D01*
X108500014Y-88570499D01*
X108573314Y-88590139D01*
X108603215Y-88602524D01*
X108668663Y-88640311D01*
X108764164Y-88665900D01*
X108764165Y-88665900D01*
X108911501Y-88665900D01*
X108978540Y-88685585D01*
X108999182Y-88702219D01*
X110741525Y-90444562D01*
X110811438Y-90514475D01*
X110897062Y-90563910D01*
X110897067Y-90563911D01*
X110904569Y-90567019D01*
X110903208Y-90570303D01*
X110948927Y-90598031D01*
X110979596Y-90660809D01*
X110971456Y-90730203D01*
X110947660Y-90765448D01*
X110947888Y-90765635D01*
X110945894Y-90768063D01*
X110945048Y-90769318D01*
X110944029Y-90770336D01*
X110944024Y-90770342D01*
X110829058Y-90942403D01*
X110749870Y-91133579D01*
X110749868Y-91133587D01*
X110709500Y-91336530D01*
X110709500Y-91543469D01*
X110749868Y-91746412D01*
X110749870Y-91746420D01*
X110829059Y-91937598D01*
X110886541Y-92023626D01*
X110944024Y-92109657D01*
X111090342Y-92255975D01*
X111090345Y-92255977D01*
X111262402Y-92370941D01*
X111453580Y-92450130D01*
X111598052Y-92478867D01*
X111656530Y-92490499D01*
X111656534Y-92490500D01*
X111656535Y-92490500D01*
X111863466Y-92490500D01*
X111863467Y-92490499D01*
X112066420Y-92450130D01*
X112257598Y-92370941D01*
X112429655Y-92255977D01*
X112508704Y-92176927D01*
X112570025Y-92143444D01*
X112639717Y-92148428D01*
X112684065Y-92176929D01*
X113216156Y-92709019D01*
X113249641Y-92770342D01*
X113244657Y-92840033D01*
X113202786Y-92895967D01*
X113137321Y-92920384D01*
X113128475Y-92920700D01*
X100319500Y-92920700D01*
X100252461Y-92901015D01*
X100206706Y-92848211D01*
X100195500Y-92796700D01*
X100195500Y-90570247D01*
X100549500Y-90570247D01*
X100549500Y-92309752D01*
X100561131Y-92368229D01*
X100561132Y-92368230D01*
X100605447Y-92434552D01*
X100671769Y-92478867D01*
X100671770Y-92478868D01*
X100730247Y-92490499D01*
X100730250Y-92490500D01*
X100730252Y-92490500D01*
X102469750Y-92490500D01*
X102469751Y-92490499D01*
X102484568Y-92487552D01*
X102528229Y-92478868D01*
X102528229Y-92478867D01*
X102528231Y-92478867D01*
X102594552Y-92434552D01*
X102638867Y-92368231D01*
X102638867Y-92368229D01*
X102638868Y-92368229D01*
X102650499Y-92309752D01*
X102650500Y-92309748D01*
X102650500Y-91336530D01*
X103089500Y-91336530D01*
X103089500Y-91543469D01*
X103129868Y-91746412D01*
X103129870Y-91746420D01*
X103209059Y-91937598D01*
X103266541Y-92023626D01*
X103324024Y-92109657D01*
X103470342Y-92255975D01*
X103470345Y-92255977D01*
X103642402Y-92370941D01*
X103833580Y-92450130D01*
X103978052Y-92478867D01*
X104036530Y-92490499D01*
X104036534Y-92490500D01*
X104036535Y-92490500D01*
X104243466Y-92490500D01*
X104243467Y-92490499D01*
X104446420Y-92450130D01*
X104637598Y-92370941D01*
X104809655Y-92255977D01*
X104955977Y-92109655D01*
X105070941Y-91937598D01*
X105150130Y-91746420D01*
X105190500Y-91543465D01*
X105190500Y-91336535D01*
X105190499Y-91336530D01*
X105629500Y-91336530D01*
X105629500Y-91543469D01*
X105669868Y-91746412D01*
X105669870Y-91746420D01*
X105749059Y-91937598D01*
X105806541Y-92023626D01*
X105864024Y-92109657D01*
X106010342Y-92255975D01*
X106010345Y-92255977D01*
X106182402Y-92370941D01*
X106373580Y-92450130D01*
X106518052Y-92478867D01*
X106576530Y-92490499D01*
X106576534Y-92490500D01*
X106576535Y-92490500D01*
X106783466Y-92490500D01*
X106783467Y-92490499D01*
X106986420Y-92450130D01*
X107177598Y-92370941D01*
X107349655Y-92255977D01*
X107495977Y-92109655D01*
X107610941Y-91937598D01*
X107690130Y-91746420D01*
X107730500Y-91543465D01*
X107730500Y-91336535D01*
X107730499Y-91336530D01*
X108169500Y-91336530D01*
X108169500Y-91543469D01*
X108209868Y-91746412D01*
X108209870Y-91746420D01*
X108289059Y-91937598D01*
X108346541Y-92023626D01*
X108404024Y-92109657D01*
X108550342Y-92255975D01*
X108550345Y-92255977D01*
X108722402Y-92370941D01*
X108913580Y-92450130D01*
X109058052Y-92478867D01*
X109116530Y-92490499D01*
X109116534Y-92490500D01*
X109116535Y-92490500D01*
X109323466Y-92490500D01*
X109323467Y-92490499D01*
X109526420Y-92450130D01*
X109717598Y-92370941D01*
X109889655Y-92255977D01*
X110035977Y-92109655D01*
X110150941Y-91937598D01*
X110230130Y-91746420D01*
X110270500Y-91543465D01*
X110270500Y-91336535D01*
X110230130Y-91133580D01*
X110150941Y-90942402D01*
X110035977Y-90770345D01*
X110035975Y-90770342D01*
X109889657Y-90624024D01*
X109775333Y-90547636D01*
X109717598Y-90509059D01*
X109526420Y-90429870D01*
X109526412Y-90429868D01*
X109323469Y-90389500D01*
X109323465Y-90389500D01*
X109116535Y-90389500D01*
X109116530Y-90389500D01*
X108913587Y-90429868D01*
X108913579Y-90429870D01*
X108722403Y-90509058D01*
X108550342Y-90624024D01*
X108404024Y-90770342D01*
X108289058Y-90942403D01*
X108209870Y-91133579D01*
X108209868Y-91133587D01*
X108169500Y-91336530D01*
X107730499Y-91336530D01*
X107690130Y-91133580D01*
X107610941Y-90942402D01*
X107495977Y-90770345D01*
X107495975Y-90770342D01*
X107349657Y-90624024D01*
X107235333Y-90547636D01*
X107177598Y-90509059D01*
X106986420Y-90429870D01*
X106986412Y-90429868D01*
X106783469Y-90389500D01*
X106783465Y-90389500D01*
X106576535Y-90389500D01*
X106576530Y-90389500D01*
X106373587Y-90429868D01*
X106373579Y-90429870D01*
X106182403Y-90509058D01*
X106010342Y-90624024D01*
X105864024Y-90770342D01*
X105749058Y-90942403D01*
X105669870Y-91133579D01*
X105669868Y-91133587D01*
X105629500Y-91336530D01*
X105190499Y-91336530D01*
X105150130Y-91133580D01*
X105070941Y-90942402D01*
X104955977Y-90770345D01*
X104955975Y-90770342D01*
X104809657Y-90624024D01*
X104695333Y-90547636D01*
X104637598Y-90509059D01*
X104446420Y-90429870D01*
X104446412Y-90429868D01*
X104243469Y-90389500D01*
X104243465Y-90389500D01*
X104036535Y-90389500D01*
X104036530Y-90389500D01*
X103833587Y-90429868D01*
X103833579Y-90429870D01*
X103642403Y-90509058D01*
X103470342Y-90624024D01*
X103324024Y-90770342D01*
X103209058Y-90942403D01*
X103129870Y-91133579D01*
X103129868Y-91133587D01*
X103089500Y-91336530D01*
X102650500Y-91336530D01*
X102650500Y-90570249D01*
X102650499Y-90570247D01*
X102638868Y-90511770D01*
X102638867Y-90511769D01*
X102594552Y-90445447D01*
X102528230Y-90401132D01*
X102528229Y-90401131D01*
X102469752Y-90389500D01*
X102469748Y-90389500D01*
X100730252Y-90389500D01*
X100730247Y-90389500D01*
X100671770Y-90401131D01*
X100671769Y-90401132D01*
X100605447Y-90445447D01*
X100561132Y-90511769D01*
X100561131Y-90511770D01*
X100549500Y-90570247D01*
X100195500Y-90570247D01*
X100195500Y-88330365D01*
X100215185Y-88263326D01*
X100267989Y-88217571D01*
X100337147Y-88207627D01*
X100400703Y-88236652D01*
X100407181Y-88242684D01*
X100967391Y-88802894D01*
X101070118Y-88862204D01*
X101094326Y-88868689D01*
X101094329Y-88868691D01*
X101094330Y-88868691D01*
X101124452Y-88876762D01*
X101184696Y-88892905D01*
X101184698Y-88892905D01*
X101736339Y-88892905D01*
X101736342Y-88892905D01*
X101850919Y-88862204D01*
X101953646Y-88802894D01*
X102037522Y-88719018D01*
X102096832Y-88616291D01*
X102127533Y-88501714D01*
X102127533Y-88383096D01*
X102096832Y-88268519D01*
X102037522Y-88165792D01*
X101953646Y-88081916D01*
X101850919Y-88022606D01*
X101842667Y-88020394D01*
X101821954Y-88007769D01*
X101799325Y-87999034D01*
X101792657Y-87989912D01*
X101783009Y-87984031D01*
X101772409Y-87962211D01*
X101758094Y-87942626D01*
X101757416Y-87931346D01*
X101752480Y-87921184D01*
X101755359Y-87897100D01*
X101753905Y-87872882D01*
X101759433Y-87863026D01*
X101760775Y-87851808D01*
X101776219Y-87833101D01*
X101788088Y-87811945D01*
X101800393Y-87803824D01*
X101805260Y-87797930D01*
X101816582Y-87791118D01*
X101821822Y-87788333D01*
X101931811Y-87742775D01*
X102025922Y-87679891D01*
X102031438Y-87676961D01*
X102059784Y-87671132D01*
X102087405Y-87662484D01*
X102093591Y-87664181D01*
X102099876Y-87662889D01*
X102126875Y-87673311D01*
X102154785Y-87680968D01*
X102160170Y-87686164D01*
X102165057Y-87688051D01*
X102172072Y-87697649D01*
X102192721Y-87717573D01*
X102225447Y-87766552D01*
X102291769Y-87810867D01*
X102291770Y-87810868D01*
X102350247Y-87822499D01*
X102350250Y-87822500D01*
X102350252Y-87822500D01*
X103389750Y-87822500D01*
X103389751Y-87822499D01*
X103404568Y-87819552D01*
X103448229Y-87810868D01*
X103448229Y-87810867D01*
X103448231Y-87810867D01*
X103514552Y-87766552D01*
X103558867Y-87700231D01*
X103558867Y-87700229D01*
X103558868Y-87700229D01*
X103570499Y-87641752D01*
X103570500Y-87641750D01*
X103570500Y-86602249D01*
X103570499Y-86602247D01*
X103558868Y-86543770D01*
X103558867Y-86543769D01*
X103514552Y-86477447D01*
X103465573Y-86444721D01*
X103420768Y-86391109D01*
X103412061Y-86321784D01*
X103431360Y-86272730D01*
X103490775Y-86183811D01*
X103543580Y-86056328D01*
X103554688Y-86000486D01*
X103570500Y-85920995D01*
X103570500Y-85783004D01*
X103543581Y-85647677D01*
X103543580Y-85647676D01*
X103543580Y-85647672D01*
X103543578Y-85647667D01*
X103490778Y-85520195D01*
X103490771Y-85520182D01*
X103414114Y-85405458D01*
X103414111Y-85405454D01*
X103316545Y-85307888D01*
X103316541Y-85307885D01*
X103201817Y-85231228D01*
X103201804Y-85231221D01*
X103074332Y-85178421D01*
X103074322Y-85178418D01*
X102938995Y-85151500D01*
X102938993Y-85151500D01*
X102801007Y-85151500D01*
X102801005Y-85151500D01*
X102665677Y-85178418D01*
X102665667Y-85178421D01*
X102538195Y-85231221D01*
X102538182Y-85231228D01*
X102423458Y-85307885D01*
X102423454Y-85307888D01*
X102322681Y-85408662D01*
X102314735Y-85413000D01*
X102309310Y-85420248D01*
X102284550Y-85429482D01*
X102261358Y-85442147D01*
X102252328Y-85441501D01*
X102243846Y-85444665D01*
X102218025Y-85439048D01*
X102191666Y-85437163D01*
X102182612Y-85431344D01*
X102175573Y-85429813D01*
X102147319Y-85408662D01*
X102043338Y-85304681D01*
X102009853Y-85243358D01*
X102014837Y-85173666D01*
X102043338Y-85129319D01*
X102144111Y-85028545D01*
X102144114Y-85028542D01*
X102220775Y-84913811D01*
X102273580Y-84786328D01*
X102283054Y-84738700D01*
X102300500Y-84650995D01*
X102300500Y-84513004D01*
X102273581Y-84377677D01*
X102273580Y-84377676D01*
X102273580Y-84377672D01*
X102267100Y-84362027D01*
X102220778Y-84250195D01*
X102220771Y-84250182D01*
X102144114Y-84135458D01*
X102144111Y-84135454D01*
X102046542Y-84037885D01*
X102009883Y-84013391D01*
X101965078Y-83959779D01*
X101956371Y-83890454D01*
X101986525Y-83827427D01*
X101991056Y-83822645D01*
X102062089Y-83751613D01*
X102121399Y-83648886D01*
X102152100Y-83534309D01*
X102152100Y-83415691D01*
X102121399Y-83301114D01*
X102062089Y-83198387D01*
X101978213Y-83114511D01*
X101875486Y-83055201D01*
X101760909Y-83024500D01*
X100971291Y-83024500D01*
X100886898Y-83047113D01*
X100886897Y-83047113D01*
X100856714Y-83055199D01*
X100753986Y-83114511D01*
X100753983Y-83114513D01*
X100407181Y-83461316D01*
X100345858Y-83494801D01*
X100276166Y-83489817D01*
X100220233Y-83447945D01*
X100195816Y-83382481D01*
X100195500Y-83373635D01*
X100195500Y-80966691D01*
X107753500Y-80966691D01*
X107753500Y-81085309D01*
X107784201Y-81199886D01*
X107843511Y-81302613D01*
X107927387Y-81386489D01*
X108030114Y-81445799D01*
X108144691Y-81476500D01*
X108144694Y-81476500D01*
X108263306Y-81476500D01*
X108263309Y-81476500D01*
X108377886Y-81445799D01*
X108480613Y-81386489D01*
X108564489Y-81302613D01*
X108623799Y-81199886D01*
X108654500Y-81085309D01*
X108654500Y-81051833D01*
X108674185Y-80984794D01*
X108690819Y-80964152D01*
X109511352Y-80143619D01*
X109538279Y-80128915D01*
X109564098Y-80112323D01*
X109570298Y-80111431D01*
X109572675Y-80110134D01*
X109599033Y-80107300D01*
X109848036Y-80107300D01*
X109915075Y-80126985D01*
X109935717Y-80143619D01*
X109959387Y-80167289D01*
X110062114Y-80226599D01*
X110176691Y-80257300D01*
X110176694Y-80257300D01*
X110295306Y-80257300D01*
X110295309Y-80257300D01*
X110409886Y-80226599D01*
X110512613Y-80167289D01*
X110596489Y-80083413D01*
X110655799Y-79980686D01*
X110686500Y-79866109D01*
X110686500Y-79747491D01*
X110655799Y-79632914D01*
X110596489Y-79530187D01*
X110512613Y-79446311D01*
X110409886Y-79387001D01*
X110295309Y-79356300D01*
X110176691Y-79356300D01*
X110062114Y-79387001D01*
X110062112Y-79387001D01*
X110062112Y-79387002D01*
X109959387Y-79446311D01*
X109959384Y-79446313D01*
X109935717Y-79469981D01*
X109874394Y-79503466D01*
X109848036Y-79506300D01*
X109383638Y-79506300D01*
X109332686Y-79519952D01*
X109307210Y-79526779D01*
X109242846Y-79563940D01*
X109242845Y-79563939D01*
X109238692Y-79566337D01*
X109238687Y-79566341D01*
X108265848Y-80539181D01*
X108204525Y-80572666D01*
X108178167Y-80575500D01*
X108144691Y-80575500D01*
X108030114Y-80606201D01*
X108030112Y-80606201D01*
X108030112Y-80606202D01*
X107927387Y-80665511D01*
X107927384Y-80665513D01*
X107843513Y-80749384D01*
X107843511Y-80749387D01*
X107784201Y-80852114D01*
X107753500Y-80966691D01*
X100195500Y-80966691D01*
X100195500Y-75046500D01*
X100215185Y-74979461D01*
X100267989Y-74933706D01*
X100319500Y-74922500D01*
X100624489Y-74922500D01*
X100691528Y-74942185D01*
G37*
%TD.AperFunction*%
%TD*%
M02*
