%TF.GenerationSoftware,KiCad,Pcbnew,9.0.0*%
%TF.CreationDate,2025-10-21T17:49:49-04:00*%
%TF.ProjectId,SAME51 Board,53414d45-3531-4204-926f-6172642e6b69,rev?*%
%TF.SameCoordinates,Original*%
%TF.FileFunction,Copper,L1,Top*%
%TF.FilePolarity,Positive*%
%FSLAX46Y46*%
G04 Gerber Fmt 4.6, Leading zero omitted, Abs format (unit mm)*
G04 Created by KiCad (PCBNEW 9.0.0) date 2025-10-21 17:49:49*
%MOMM*%
%LPD*%
G01*
G04 APERTURE LIST*
G04 Aperture macros list*
%AMRoundRect*
0 Rectangle with rounded corners*
0 $1 Rounding radius*
0 $2 $3 $4 $5 $6 $7 $8 $9 X,Y pos of 4 corners*
0 Add a 4 corners polygon primitive as box body*
4,1,4,$2,$3,$4,$5,$6,$7,$8,$9,$2,$3,0*
0 Add four circle primitives for the rounded corners*
1,1,$1+$1,$2,$3*
1,1,$1+$1,$4,$5*
1,1,$1+$1,$6,$7*
1,1,$1+$1,$8,$9*
0 Add four rect primitives between the rounded corners*
20,1,$1+$1,$2,$3,$4,$5,0*
20,1,$1+$1,$4,$5,$6,$7,0*
20,1,$1+$1,$6,$7,$8,$9,0*
20,1,$1+$1,$8,$9,$2,$3,0*%
%AMRotRect*
0 Rectangle, with rotation*
0 The origin of the aperture is its center*
0 $1 length*
0 $2 width*
0 $3 Rotation angle, in degrees counterclockwise*
0 Add horizontal line*
21,1,$1,$2,0,0,$3*%
%AMFreePoly0*
4,1,6,1.000000,0.000000,0.500000,-0.750000,-0.500000,-0.750000,-0.500000,0.750000,0.500000,0.750000,1.000000,0.000000,1.000000,0.000000,$1*%
%AMFreePoly1*
4,1,6,0.500000,-0.750000,-0.650000,-0.750000,-0.150000,0.000000,-0.650000,0.750000,0.500000,0.750000,0.500000,-0.750000,0.500000,-0.750000,$1*%
G04 Aperture macros list end*
%TA.AperFunction,SMDPad,CuDef*%
%ADD10FreePoly0,90.000000*%
%TD*%
%TA.AperFunction,SMDPad,CuDef*%
%ADD11FreePoly1,90.000000*%
%TD*%
%TA.AperFunction,SMDPad,CuDef*%
%ADD12RoundRect,0.140000X0.140000X0.170000X-0.140000X0.170000X-0.140000X-0.170000X0.140000X-0.170000X0*%
%TD*%
%TA.AperFunction,SMDPad,CuDef*%
%ADD13RoundRect,0.140000X0.170000X-0.140000X0.170000X0.140000X-0.170000X0.140000X-0.170000X-0.140000X0*%
%TD*%
%TA.AperFunction,SMDPad,CuDef*%
%ADD14RoundRect,0.250000X-0.250000X-0.475000X0.250000X-0.475000X0.250000X0.475000X-0.250000X0.475000X0*%
%TD*%
%TA.AperFunction,SMDPad,CuDef*%
%ADD15FreePoly0,0.000000*%
%TD*%
%TA.AperFunction,SMDPad,CuDef*%
%ADD16FreePoly1,0.000000*%
%TD*%
%TA.AperFunction,SMDPad,CuDef*%
%ADD17RoundRect,0.140000X-0.170000X0.140000X-0.170000X-0.140000X0.170000X-0.140000X0.170000X0.140000X0*%
%TD*%
%TA.AperFunction,SMDPad,CuDef*%
%ADD18RoundRect,0.135000X-0.185000X0.135000X-0.185000X-0.135000X0.185000X-0.135000X0.185000X0.135000X0*%
%TD*%
%TA.AperFunction,SMDPad,CuDef*%
%ADD19RoundRect,0.135000X-0.135000X-0.185000X0.135000X-0.185000X0.135000X0.185000X-0.135000X0.185000X0*%
%TD*%
%TA.AperFunction,SMDPad,CuDef*%
%ADD20RoundRect,0.135000X0.185000X-0.135000X0.185000X0.135000X-0.185000X0.135000X-0.185000X-0.135000X0*%
%TD*%
%TA.AperFunction,SMDPad,CuDef*%
%ADD21RoundRect,0.135000X0.135000X0.185000X-0.135000X0.185000X-0.135000X-0.185000X0.135000X-0.185000X0*%
%TD*%
%TA.AperFunction,ComponentPad*%
%ADD22O,1.700000X1.700000*%
%TD*%
%TA.AperFunction,ComponentPad*%
%ADD23R,1.700000X1.700000*%
%TD*%
%TA.AperFunction,ComponentPad*%
%ADD24O,1.000000X1.000000*%
%TD*%
%TA.AperFunction,ComponentPad*%
%ADD25R,1.000000X1.000000*%
%TD*%
%TA.AperFunction,SMDPad,CuDef*%
%ADD26RoundRect,0.200000X-0.200000X-0.275000X0.200000X-0.275000X0.200000X0.275000X-0.200000X0.275000X0*%
%TD*%
%TA.AperFunction,SMDPad,CuDef*%
%ADD27RoundRect,0.147500X-0.147500X-0.172500X0.147500X-0.172500X0.147500X0.172500X-0.147500X0.172500X0*%
%TD*%
%TA.AperFunction,SMDPad,CuDef*%
%ADD28RoundRect,0.225000X-0.225000X-0.250000X0.225000X-0.250000X0.225000X0.250000X-0.225000X0.250000X0*%
%TD*%
%TA.AperFunction,SMDPad,CuDef*%
%ADD29RoundRect,0.225000X-0.250000X0.225000X-0.250000X-0.225000X0.250000X-0.225000X0.250000X0.225000X0*%
%TD*%
%TA.AperFunction,SMDPad,CuDef*%
%ADD30R,1.500000X1.300000*%
%TD*%
%TA.AperFunction,SMDPad,CuDef*%
%ADD31R,0.300000X0.750000*%
%TD*%
%TA.AperFunction,SMDPad,CuDef*%
%ADD32R,1.100000X1.300000*%
%TD*%
%TA.AperFunction,SMDPad,CuDef*%
%ADD33RoundRect,0.150000X-0.512500X-0.150000X0.512500X-0.150000X0.512500X0.150000X-0.512500X0.150000X0*%
%TD*%
%TA.AperFunction,SMDPad,CuDef*%
%ADD34RoundRect,0.120000X0.194454X0.236881X-0.236881X-0.194454X-0.194454X-0.236881X0.236881X0.194454X0*%
%TD*%
%TA.AperFunction,SMDPad,CuDef*%
%ADD35RoundRect,0.120000X0.236881X-0.194454X-0.194454X0.236881X-0.236881X0.194454X0.194454X-0.236881X0*%
%TD*%
%TA.AperFunction,SMDPad,CuDef*%
%ADD36RotRect,5.200000X5.200000X45.000000*%
%TD*%
%TA.AperFunction,ComponentPad*%
%ADD37C,0.600000*%
%TD*%
%TA.AperFunction,SMDPad,CuDef*%
%ADD38RoundRect,0.140000X-0.140000X-0.170000X0.140000X-0.170000X0.140000X0.170000X-0.140000X0.170000X0*%
%TD*%
%TA.AperFunction,ViaPad*%
%ADD39C,0.500000*%
%TD*%
%TA.AperFunction,Conductor*%
%ADD40C,0.500000*%
%TD*%
%TA.AperFunction,Conductor*%
%ADD41C,0.200000*%
%TD*%
%TA.AperFunction,Conductor*%
%ADD42C,0.350000*%
%TD*%
%TA.AperFunction,Conductor*%
%ADD43C,0.250000*%
%TD*%
G04 APERTURE END LIST*
D10*
%TO.P,JP2,1,A*%
%TO.N,Net-(J1-Pin_15)*%
X137184000Y-89103200D03*
D11*
%TO.P,JP2,2,B*%
%TO.N,V33*%
X137184000Y-87653200D03*
%TD*%
D12*
%TO.P,C8,1*%
%TO.N,V33*%
X117546000Y-78613000D03*
%TO.P,C8,2*%
%TO.N,GND*%
X116586000Y-78613000D03*
%TD*%
D13*
%TO.P,C9,1*%
%TO.N,V33*%
X119126000Y-81252000D03*
%TO.P,C9,2*%
%TO.N,GND*%
X119126000Y-80292000D03*
%TD*%
D14*
%TO.P,C7,1*%
%TO.N,V33*%
X127574000Y-89027000D03*
%TO.P,C7,2*%
%TO.N,GND*%
X129474000Y-89027000D03*
%TD*%
D15*
%TO.P,JP1,1,A*%
%TO.N,CAN_L*%
X135419000Y-79375000D03*
D16*
%TO.P,JP1,2,B*%
%TO.N,Net-(JP1-B)*%
X136869000Y-79375000D03*
%TD*%
D17*
%TO.P,C10,2*%
%TO.N,GND*%
X117094000Y-81252000D03*
%TO.P,C10,1*%
%TO.N,VDDCORE*%
X117094000Y-80292000D03*
%TD*%
%TO.P,C12,2*%
%TO.N,GND*%
X115087400Y-81252000D03*
%TO.P,C12,1*%
%TO.N,VDDCORE*%
X115087400Y-80292000D03*
%TD*%
%TO.P,C11,2*%
%TO.N,GND*%
X116078000Y-81252000D03*
%TO.P,C11,1*%
%TO.N,VDDCORE*%
X116078000Y-80292000D03*
%TD*%
D18*
%TO.P,R11,2*%
%TO.N,Net-(J1-Pin_6)*%
X115011200Y-89765600D03*
%TO.P,R11,1*%
%TO.N,PA05*%
X115011200Y-88745600D03*
%TD*%
D19*
%TO.P,R18,1*%
%TO.N,GND*%
X118260400Y-89712800D03*
%TO.P,R18,2*%
%TO.N,PA07*%
X119280400Y-89712800D03*
%TD*%
D20*
%TO.P,R17,1*%
%TO.N,GND*%
X117297200Y-89765600D03*
%TO.P,R17,2*%
%TO.N,PA06*%
X117297200Y-88745600D03*
%TD*%
D19*
%TO.P,R16,1*%
%TO.N,GND*%
X113485200Y-87680800D03*
%TO.P,R16,2*%
%TO.N,PA05*%
X114505200Y-87680800D03*
%TD*%
D21*
%TO.P,R15,1*%
%TO.N,GND*%
X113336800Y-88747600D03*
%TO.P,R15,2*%
%TO.N,PA04*%
X112316800Y-88747600D03*
%TD*%
D19*
%TO.P,R14,1*%
%TO.N,GND*%
X115923600Y-85648800D03*
%TO.P,R14,2*%
%TO.N,PB08*%
X116943600Y-85648800D03*
%TD*%
%TO.P,R13,1*%
%TO.N,PA07*%
X120241600Y-89712800D03*
%TO.P,R13,2*%
%TO.N,Net-(J1-Pin_8)*%
X121261600Y-89712800D03*
%TD*%
D18*
%TO.P,R12,1*%
%TO.N,PA06*%
X116179600Y-88745600D03*
%TO.P,R12,2*%
%TO.N,Net-(J1-Pin_7)*%
X116179600Y-89765600D03*
%TD*%
D21*
%TO.P,R10,1*%
%TO.N,PA04*%
X112828800Y-89814400D03*
%TO.P,R10,2*%
%TO.N,Net-(J1-Pin_5)*%
X111808800Y-89814400D03*
%TD*%
D22*
%TO.P,J1,16,Pin_16*%
%TO.N,GND*%
X139700000Y-91440000D03*
%TO.P,J1,15,Pin_15*%
%TO.N,Net-(J1-Pin_15)*%
X137160000Y-91440000D03*
D23*
%TO.P,J1,1,Pin_1*%
%TO.N,PA_02*%
X101600000Y-91440000D03*
D22*
%TO.P,J1,2,Pin_2*%
%TO.N,PA_03*%
X104140000Y-91440000D03*
%TO.P,J1,3,Pin_3*%
%TO.N,Net-(J1-Pin_3)*%
X106680000Y-91440000D03*
%TO.P,J1,4,Pin_4*%
%TO.N,PB09*%
X109220000Y-91440000D03*
%TO.P,J1,5,Pin_5*%
%TO.N,Net-(J1-Pin_5)*%
X111760000Y-91440000D03*
%TO.P,J1,6,Pin_6*%
%TO.N,Net-(J1-Pin_6)*%
X114300000Y-91440000D03*
%TO.P,J1,7,Pin_7*%
%TO.N,Net-(J1-Pin_7)*%
X116840000Y-91440000D03*
%TO.P,J1,8,Pin_8*%
%TO.N,Net-(J1-Pin_8)*%
X119380000Y-91440000D03*
%TO.P,J1,9,Pin_9*%
%TO.N,PA08*%
X121920000Y-91440000D03*
%TO.P,J1,10,Pin_10*%
%TO.N,PA09*%
X124460000Y-91440000D03*
%TO.P,J1,11,Pin_11*%
%TO.N,PA10*%
X127000000Y-91440000D03*
%TO.P,J1,12,Pin_12*%
%TO.N,PA11*%
X129540000Y-91440000D03*
%TO.P,J1,13,Pin_13*%
%TO.N,PA12*%
X132080000Y-91440000D03*
%TO.P,J1,14,Pin_14*%
%TO.N,PB10*%
X134620000Y-91440000D03*
%TD*%
D24*
%TO.P,J3,4,Pin_4*%
%TO.N,V33*%
X101600000Y-85852000D03*
D25*
%TO.P,J3,1,Pin_1*%
%TO.N,SWDCLK*%
X102870000Y-87122000D03*
D24*
%TO.P,J3,6,Pin_6*%
%TO.N,RESET*%
X101600000Y-84582000D03*
%TO.P,J3,2,Pin_2*%
%TO.N,SWDIO*%
X101600000Y-87122000D03*
%TO.P,J3,3,Pin_3*%
%TO.N,unconnected-(J3-Pin_3-Pad3)*%
X102870000Y-85852000D03*
%TO.P,J3,5,Pin_5*%
%TO.N,GND*%
X102870000Y-84582000D03*
%TD*%
D26*
%TO.P,R6,2*%
%TO.N,CAN_H*%
X140118600Y-79375000D03*
%TO.P,R6,1*%
%TO.N,Net-(JP1-B)*%
X138468600Y-79375000D03*
%TD*%
D27*
%TO.P,D2,1,K*%
%TO.N,Net-(D2-K)*%
X106957000Y-86360000D03*
%TO.P,D2,2,A*%
%TO.N,V33*%
X107927000Y-86360000D03*
%TD*%
D28*
%TO.P,C3,1*%
%TO.N,+5V*%
X101383800Y-82550000D03*
%TO.P,C3,2*%
%TO.N,GND*%
X102933800Y-82550000D03*
%TD*%
D29*
%TO.P,C4,1*%
%TO.N,V33*%
X105664000Y-79235000D03*
%TO.P,C4,2*%
%TO.N,GND*%
X105664000Y-80785000D03*
%TD*%
D21*
%TO.P,R8,1*%
%TO.N,Net-(D4-K)*%
X105920000Y-88392000D03*
%TO.P,R8,2*%
%TO.N,GND*%
X104900000Y-88392000D03*
%TD*%
%TO.P,R7,1*%
%TO.N,Net-(D3-K)*%
X105920000Y-87376000D03*
%TO.P,R7,2*%
%TO.N,GND*%
X104900000Y-87376000D03*
%TD*%
D30*
%TO.P,U2,9,PAD*%
%TO.N,GND*%
X139815000Y-84127000D03*
D31*
%TO.P,U2,8,S*%
X140565000Y-85577000D03*
%TO.P,U2,7,CANH*%
%TO.N,CAN_H*%
X140065000Y-85577000D03*
%TO.P,U2,6,CANL*%
%TO.N,CAN_L*%
X139565000Y-85577000D03*
%TO.P,U2,4,RXD*%
%TO.N,CAN RX*%
X139065000Y-82677000D03*
%TO.P,U2,3,VDD*%
%TO.N,+5V*%
X139565000Y-82677000D03*
%TO.P,U2,2,VSS*%
%TO.N,GND*%
X140065000Y-82677000D03*
%TO.P,U2,1,TXD*%
%TO.N,CAN TX*%
X140565000Y-82677000D03*
%TO.P,U2,5,VIO*%
%TO.N,V33*%
X139065000Y-85577000D03*
%TD*%
D32*
%TO.P,X1,4,4*%
%TO.N,GND*%
X133058000Y-86494000D03*
%TO.P,X1,3,3*%
%TO.N,/PA15*%
X133058000Y-84194000D03*
%TO.P,X1,2,2*%
%TO.N,GND*%
X134658000Y-84194000D03*
%TO.P,X1,1,1*%
%TO.N,/PA14*%
X134658000Y-86494000D03*
%TD*%
D23*
%TO.P,J2,1,Pin_1*%
%TO.N,+5V*%
X101600000Y-76200000D03*
D22*
%TO.P,J2,2,Pin_2*%
%TO.N,PB22*%
X104140000Y-76200000D03*
%TO.P,J2,3,Pin_3*%
%TO.N,PA_24*%
X106680000Y-76200000D03*
%TO.P,J2,4,Pin_4*%
%TO.N,PA_25*%
X109220000Y-76200000D03*
%TO.P,J2,5,Pin_5*%
%TO.N,PB_23*%
X111760000Y-76200000D03*
%TO.P,J2,6,Pin_6*%
%TO.N,PA_27*%
X114300000Y-76200000D03*
%TO.P,J2,7,Pin_7*%
%TO.N,PA21*%
X116840000Y-76200000D03*
%TO.P,J2,8,Pin_8*%
%TO.N,PA_20*%
X119380000Y-76200000D03*
%TO.P,J2,9,Pin_9*%
%TO.N,PA19*%
X121920000Y-76200000D03*
%TO.P,J2,10,Pin_10*%
%TO.N,PA_18*%
X124460000Y-76200000D03*
%TO.P,J2,11,Pin_11*%
%TO.N,PA17*%
X127000000Y-76200000D03*
%TO.P,J2,12,Pin_12*%
%TO.N,PA16*%
X129540000Y-76200000D03*
%TO.P,J2,13,Pin_13*%
%TO.N,PA13*%
X132080000Y-76200000D03*
%TO.P,J2,14,Pin_14*%
%TO.N,PB11*%
X134620000Y-76200000D03*
%TO.P,J2,15,Pin_15*%
%TO.N,CAN_L*%
X137160000Y-76200000D03*
%TO.P,J2,16,Pin_16*%
%TO.N,CAN_H*%
X139700000Y-76200000D03*
%TD*%
D33*
%TO.P,U3,4,NC*%
%TO.N,unconnected-(U3-NC-Pad4)*%
X104007500Y-80960000D03*
%TO.P,U3,3,EN*%
%TO.N,+5V*%
X101732500Y-80960000D03*
%TO.P,U3,1,VIN*%
X101732500Y-79060000D03*
%TO.P,U3,5,VOUT*%
%TO.N,V33*%
X104007500Y-79060000D03*
%TO.P,U3,2,GND*%
%TO.N,GND*%
X101732500Y-80010000D03*
%TD*%
D34*
%TO.P,U1,1,PA00*%
%TO.N,unconnected-(U1-PA00-Pad1)*%
X118805938Y-84533247D03*
%TO.P,U1,2,PA01*%
%TO.N,unconnected-(U1-PA01-Pad2)*%
X119159491Y-84886800D03*
%TO.P,U1,3,PA02*%
%TO.N,PA02*%
X119513045Y-85240354D03*
%TO.P,U1,4,PA03*%
%TO.N,PA03*%
X119866598Y-85593907D03*
%TO.P,U1,5,GNDANA*%
%TO.N,unconnected-(U1-GNDANA-Pad5)*%
X120220152Y-85947460D03*
%TO.P,U1,6,VDDANA*%
%TO.N,unconnected-(U1-VDDANA-Pad6)*%
X120573705Y-86301014D03*
%TO.P,U1,7,PB08*%
%TO.N,PB08*%
X120927258Y-86654567D03*
%TO.P,U1,8,PB09*%
%TO.N,PB09*%
X121280812Y-87008120D03*
%TO.P,U1,9,PA04*%
%TO.N,PA04*%
X121634365Y-87361674D03*
%TO.P,U1,10,PA05*%
%TO.N,PA05*%
X121987918Y-87715227D03*
%TO.P,U1,11,PA06*%
%TO.N,PA06*%
X122341472Y-88068781D03*
%TO.P,U1,12,PA07*%
%TO.N,PA07*%
X122695025Y-88422334D03*
D35*
%TO.P,U1,13,PA08*%
%TO.N,PA08*%
X123684975Y-88422334D03*
%TO.P,U1,14,PA09*%
%TO.N,PA09*%
X124038528Y-88068781D03*
%TO.P,U1,15,PA10*%
%TO.N,PA10*%
X124392082Y-87715227D03*
%TO.P,U1,16,PA11*%
%TO.N,PA11*%
X124745635Y-87361674D03*
%TO.P,U1,18,GND*%
%TO.N,GND*%
X125452742Y-86654567D03*
%TO.P,U1,19,PB10*%
%TO.N,PB10*%
X125806295Y-86301014D03*
%TO.P,U1,20,PB11*%
%TO.N,PB11*%
X126159848Y-85947460D03*
%TO.P,U1,21,PA12*%
%TO.N,PA12*%
X126513402Y-85593907D03*
%TO.P,U1,22,PA13*%
%TO.N,PA13*%
X126866955Y-85240354D03*
%TO.P,U1,23,PA14*%
%TO.N,/PA14*%
X127220509Y-84886800D03*
%TO.P,U1,24,PA15*%
%TO.N,/PA15*%
X127574062Y-84533247D03*
D34*
%TO.P,U1,25,PA16*%
%TO.N,PA16*%
X127574062Y-83543297D03*
%TO.P,U1,26,PA17*%
%TO.N,PA17*%
X127220509Y-83189744D03*
%TO.P,U1,27,PA18*%
%TO.N,PA18*%
X126866955Y-82836190D03*
%TO.P,U1,28,PA19*%
%TO.N,PA19*%
X126513402Y-82482637D03*
%TO.P,U1,29,PA20*%
%TO.N,PA20*%
X126159848Y-82129084D03*
%TO.P,U1,30,PA21*%
%TO.N,PA21*%
X125806295Y-81775530D03*
%TO.P,U1,31,PA22*%
%TO.N,CAN TX*%
X125452742Y-81421977D03*
%TO.P,U1,32,PA23*%
%TO.N,CAN RX*%
X125099188Y-81068424D03*
%TO.P,U1,33,PA24*%
%TO.N,PA24*%
X124745635Y-80714870D03*
%TO.P,U1,34,PA25*%
%TO.N,PA25*%
X124392082Y-80361317D03*
%TO.P,U1,35,GND*%
%TO.N,GND*%
X124038528Y-80007763D03*
D35*
%TO.P,U1,37,PB22*%
%TO.N,PB22*%
X122695025Y-79654210D03*
%TO.P,U1,38,PB23*%
%TO.N,PB23*%
X122341472Y-80007763D03*
%TO.P,U1,39,PA27*%
%TO.N,PA27*%
X121987918Y-80361317D03*
%TO.P,U1,40,~{RESET}*%
%TO.N,/RST*%
X121634365Y-80714870D03*
%TO.P,U1,41,VDDCORE*%
%TO.N,VDDCORE*%
X121280812Y-81068424D03*
%TO.P,U1,42,GND*%
%TO.N,GND*%
X120927258Y-81421977D03*
%TO.P,U1,43,VSW*%
%TO.N,unconnected-(U1-VSW-Pad43)*%
X120573705Y-81775530D03*
%TO.P,U1,45,PA30*%
%TO.N,SWDCLK*%
X119866598Y-82482637D03*
%TO.P,U1,46,PA31*%
%TO.N,SWDIO*%
X119513045Y-82836190D03*
%TO.P,U1,47,PB02*%
%TO.N,unconnected-(U1-PB02-Pad47)*%
X119159491Y-83189744D03*
%TO.P,U1,48,PB03*%
%TO.N,unconnected-(U1-PB03-Pad48)*%
X118805938Y-83543297D03*
%TO.P,U1,17,VDDIO*%
%TO.N,V33*%
X125099188Y-87008120D03*
D34*
%TO.P,U1,36,VDDIO*%
X123684975Y-79654210D03*
D35*
%TO.P,U1,44,VDDIO*%
X120220152Y-82129084D03*
D36*
%TO.P,U1,49,GND-PAD*%
%TO.N,GND*%
X123190000Y-84038272D03*
D37*
X123190000Y-83189744D03*
X123190000Y-84886800D03*
X122341472Y-84038272D03*
X122341472Y-85735328D03*
X124887056Y-83189744D03*
X120644416Y-84038272D03*
X124038528Y-82341216D03*
X124887056Y-84886800D03*
X124038528Y-85735328D03*
X121492944Y-83189744D03*
X123190000Y-81492688D03*
X124038528Y-84038272D03*
X121492944Y-84886800D03*
X123190000Y-86583856D03*
X122341472Y-82341216D03*
X125735584Y-84038272D03*
%TD*%
D12*
%TO.P,C2,2*%
%TO.N,GND*%
X133378000Y-88036400D03*
%TO.P,C2,1*%
%TO.N,/PA14*%
X134338000Y-88036400D03*
%TD*%
D38*
%TO.P,C1,2*%
%TO.N,GND*%
X134439600Y-82651600D03*
%TO.P,C1,1*%
%TO.N,/PA15*%
X133479600Y-82651600D03*
%TD*%
D13*
%TO.P,C5,2*%
%TO.N,GND*%
X137783000Y-84409000D03*
%TO.P,C5,1*%
%TO.N,V33*%
X137783000Y-85369000D03*
%TD*%
D19*
%TO.P,R2,2*%
%TO.N,/RST*%
X105920000Y-82296000D03*
%TO.P,R2,1*%
%TO.N,RESET*%
X104900000Y-82296000D03*
%TD*%
D17*
%TO.P,C6,2*%
%TO.N,GND*%
X137783000Y-83337000D03*
%TO.P,C6,1*%
%TO.N,+5V*%
X137783000Y-82377000D03*
%TD*%
D38*
%TO.P,C13,1*%
%TO.N,/RST*%
X106835000Y-82296000D03*
%TO.P,C13,2*%
%TO.N,GND*%
X107795000Y-82296000D03*
%TD*%
D18*
%TO.P,R1,2*%
%TO.N,/RST*%
X106934000Y-81026000D03*
%TO.P,R1,1*%
%TO.N,V33*%
X106934000Y-80006000D03*
%TD*%
D21*
%TO.P,R3,1*%
%TO.N,Net-(D2-K)*%
X105920000Y-86360000D03*
%TO.P,R3,2*%
%TO.N,SWDIO*%
X104900000Y-86360000D03*
%TD*%
%TO.P,R4,2*%
%TO.N,SWDCLK*%
X104900000Y-84455000D03*
%TO.P,R4,1*%
%TO.N,Net-(D1-K)*%
X105920000Y-84455000D03*
%TD*%
%TO.P,R5,2*%
%TO.N,SWDCLK*%
X104900000Y-83439000D03*
%TO.P,R5,1*%
%TO.N,V33*%
X105920000Y-83439000D03*
%TD*%
D27*
%TO.P,D1,1,K*%
%TO.N,Net-(D1-K)*%
X106957000Y-84455000D03*
%TO.P,D1,2,A*%
%TO.N,V33*%
X107927000Y-84455000D03*
%TD*%
%TO.P,D3,1,K*%
%TO.N,Net-(D3-K)*%
X106957000Y-87376000D03*
%TO.P,D3,2,A*%
%TO.N,V33*%
X107927000Y-87376000D03*
%TD*%
%TO.P,D4,2,A*%
%TO.N,+5V*%
X107927000Y-88392000D03*
%TO.P,D4,1,K*%
%TO.N,Net-(D4-K)*%
X106957000Y-88392000D03*
%TD*%
D21*
%TO.P,R9,1*%
%TO.N,PB08*%
X115013200Y-85648800D03*
%TO.P,R9,2*%
%TO.N,Net-(J1-Pin_3)*%
X113993200Y-85648800D03*
%TD*%
D39*
%TO.N,GND*%
X100990400Y-80010000D03*
%TO.N,PB10*%
X130429000Y-87630000D03*
X132651500Y-89852500D03*
%TO.N,GND*%
X115316000Y-78359000D03*
X118110000Y-90881200D03*
X114147600Y-88595200D03*
X115976400Y-86258400D03*
%TO.N,PA25*%
X124412799Y-78613761D03*
%TO.N,PA20*%
X127355600Y-81026000D03*
%TO.N,PA24*%
X125196600Y-78511400D03*
%TO.N,PA18*%
X127660400Y-82306328D03*
%TO.N,SWDCLK*%
X108691309Y-85039849D03*
%TO.N,SWDIO*%
X108331000Y-85640000D03*
X112896983Y-84169637D03*
%TO.N,GND*%
X139989260Y-81118610D03*
%TO.N,+5V*%
X109497131Y-83110030D03*
X111604198Y-82796043D03*
%TO.N,CAN RX*%
X139053000Y-81739400D03*
%TO.N,GND*%
X136970200Y-84127000D03*
%TO.N,PA03*%
X111800756Y-86031427D03*
%TO.N,PA27*%
X121158000Y-79603600D03*
%TO.N,PB23*%
X120777935Y-79015761D03*
%TO.N,GND*%
X128016000Y-87795478D03*
X104394000Y-88392000D03*
%TO.N,+5V*%
X101677033Y-88442405D03*
X101701600Y-83475000D03*
%TO.N,CAN TX*%
X137668000Y-81153000D03*
%TO.N,/PA15*%
X131775200Y-84492459D03*
%TO.N,CAN RX*%
X126611709Y-78792562D03*
%TO.N,CAN TX*%
X126952585Y-79708585D03*
%TO.N,/PA14*%
X131953000Y-87249000D03*
%TO.N,PB22*%
X109372400Y-78384400D03*
%TO.N,GND*%
X120041942Y-81078342D03*
%TO.N,PA12*%
X128778000Y-86144478D03*
%TO.N,GND*%
X124501825Y-79494969D03*
X103632000Y-82550000D03*
X108458000Y-82296000D03*
X105664000Y-81534000D03*
%TO.N,/PA15*%
X130113000Y-83431116D03*
%TO.N,SWDCLK*%
X112208400Y-84043712D03*
%TO.N,+5V*%
X136948000Y-82583400D03*
X115860382Y-82753200D03*
%TO.N,CAN_L*%
X139110000Y-86659000D03*
%TO.N,GND*%
X140623909Y-86361000D03*
%TO.N,CAN_L*%
X137007600Y-85140800D03*
%TO.N,/RST*%
X108204000Y-81026000D03*
%TO.N,+5V*%
X101904800Y-78486000D03*
%TO.N,GND*%
X135737600Y-84734400D03*
%TO.N,PA02*%
X112166400Y-85293200D03*
%TO.N,/RST*%
X110236000Y-79806800D03*
%TO.N,GND*%
X132029200Y-86461600D03*
%TO.N,PA_03*%
X110805003Y-82762900D03*
%TO.N,/PA14*%
X129841352Y-85026830D03*
%TO.N,PA_02*%
X110105000Y-82762900D03*
%TO.N,+5V*%
X108673900Y-88150700D03*
%TD*%
D40*
%TO.N,+5V*%
X102394999Y-80960000D02*
X101732500Y-80960000D01*
X102870000Y-80484999D02*
X102394999Y-80960000D01*
X102870000Y-79451200D02*
X102870000Y-80484999D01*
X102478800Y-79060000D02*
X102870000Y-79451200D01*
X101732500Y-79060000D02*
X102478800Y-79060000D01*
X107434199Y-89204800D02*
X107927000Y-88711999D01*
X102439428Y-89204800D02*
X107434199Y-89204800D01*
X107927000Y-88711999D02*
X107927000Y-88392000D01*
X101677033Y-88442405D02*
X102439428Y-89204800D01*
D41*
%TO.N,PA_02*%
X110254003Y-82911903D02*
X110105000Y-82762900D01*
X111257400Y-83994530D02*
X110254003Y-82991132D01*
X111245819Y-84579881D02*
X111257400Y-84568300D01*
X111257400Y-84568300D02*
X111257400Y-83994530D01*
X110597000Y-85228701D02*
X111245819Y-84579883D01*
X110597000Y-87301040D02*
X110597000Y-85228701D01*
X108134440Y-89763600D02*
X110597000Y-87301040D01*
X103276400Y-89763600D02*
X108134440Y-89763600D01*
X111245819Y-84579883D02*
X111245819Y-84579881D01*
X110254003Y-82991132D02*
X110254003Y-82911903D01*
X101600000Y-91440000D02*
X103276400Y-89763600D01*
D40*
%TO.N,+5V*%
X108432600Y-88392000D02*
X107927000Y-88392000D01*
D42*
X110769818Y-84382717D02*
X110121000Y-85031534D01*
X109497131Y-83110030D02*
X110769818Y-84382717D01*
X110121000Y-85031534D02*
X110121000Y-86703600D01*
X110121000Y-86703600D02*
X108432600Y-88392000D01*
D41*
%TO.N,PA11*%
X125052313Y-87737646D02*
X124745635Y-87430968D01*
X125052313Y-87877654D02*
X125052313Y-87737646D01*
X125099759Y-87995812D02*
X125099759Y-87925100D01*
X125262000Y-88158053D02*
X125099759Y-87995812D01*
X126738000Y-90289000D02*
X125262000Y-88813000D01*
X125099759Y-87925100D02*
X125052313Y-87877654D01*
X125262000Y-88813000D02*
X125262000Y-88158053D01*
X124745635Y-87430968D02*
X124745635Y-87361674D01*
X128320800Y-91133040D02*
X127476760Y-90289000D01*
X128320800Y-91440000D02*
X128320800Y-91133040D01*
X127476760Y-90289000D02*
X126738000Y-90289000D01*
X129540000Y-91440000D02*
X128320800Y-91440000D01*
D42*
%TO.N,+5V*%
X136948000Y-82583400D02*
X137154400Y-82377000D01*
X137154400Y-82377000D02*
X137783000Y-82377000D01*
D41*
%TO.N,PB10*%
X130429000Y-87630000D02*
X130044478Y-87245478D01*
X130044478Y-87245478D02*
X126750759Y-87245478D01*
X134239000Y-91440000D02*
X132651500Y-89852500D01*
X134620000Y-91440000D02*
X134239000Y-91440000D01*
X126750759Y-87245478D02*
X125806295Y-86301014D01*
D42*
%TO.N,Net-(J1-Pin_15)*%
X137184000Y-91416000D02*
X137160000Y-91440000D01*
X137184000Y-88741000D02*
X137184000Y-91416000D01*
D43*
%TO.N,GND*%
X118153096Y-81252000D02*
X117094000Y-81252000D01*
X119113096Y-80292000D02*
X119126000Y-80292000D01*
X118153096Y-81252000D02*
X119113096Y-80292000D01*
D41*
%TO.N,VDDCORE*%
X120396000Y-80518000D02*
X120730388Y-80518000D01*
X119507000Y-79629000D02*
X120396000Y-80518000D01*
X120730388Y-80518000D02*
X121280812Y-81068424D01*
X118110000Y-80292000D02*
X118773000Y-79629000D01*
X117094000Y-80292000D02*
X118110000Y-80292000D01*
X118773000Y-79629000D02*
X119507000Y-79629000D01*
%TO.N,PB22*%
X110243800Y-79255800D02*
X109372400Y-78384400D01*
X110464232Y-79255800D02*
X110243800Y-79255800D01*
X110583432Y-79375000D02*
X110464232Y-79255800D01*
X111111300Y-79228000D02*
X110964300Y-79375000D01*
X118039800Y-79228000D02*
X111111300Y-79228000D01*
X118480271Y-78787529D02*
X118039800Y-79228000D01*
X110964300Y-79375000D02*
X110583432Y-79375000D01*
X121006167Y-78464761D02*
X120549703Y-78464761D01*
X120226935Y-78787529D02*
X118480271Y-78787529D01*
X122248341Y-79347532D02*
X121515570Y-78614761D01*
X122319053Y-79347532D02*
X122248341Y-79347532D01*
X122625731Y-79654210D02*
X122319053Y-79347532D01*
X121515570Y-78614761D02*
X121156167Y-78614761D01*
X121156167Y-78614761D02*
X121006167Y-78464761D01*
X122695025Y-79654210D02*
X122625731Y-79654210D01*
X120549703Y-78464761D02*
X120226935Y-78787529D01*
%TO.N,/RST*%
X111099600Y-79806800D02*
X110236000Y-79806800D01*
X111277400Y-79629000D02*
X111099600Y-79806800D01*
X118606900Y-79228000D02*
X118205900Y-79629000D01*
X119741000Y-79228000D02*
X118606900Y-79228000D01*
X120630000Y-80117000D02*
X119741000Y-79228000D01*
X121074095Y-80154600D02*
X120934088Y-80154600D01*
X120934088Y-80154600D02*
X120896488Y-80117000D01*
X120896488Y-80117000D02*
X120630000Y-80117000D01*
X121634365Y-80714870D02*
X121074095Y-80154600D01*
X118205900Y-79629000D02*
X111277400Y-79629000D01*
%TO.N,GND*%
X115570000Y-78613000D02*
X115316000Y-78359000D01*
X116586000Y-78613000D02*
X115570000Y-78613000D01*
X119126000Y-80320000D02*
X119126000Y-80292000D01*
D43*
X119255600Y-80292000D02*
X120041942Y-81078342D01*
X119126000Y-80292000D02*
X119255600Y-80292000D01*
D41*
X126555175Y-87757000D02*
X125452742Y-86654567D01*
X127977522Y-87757000D02*
X126555175Y-87757000D01*
X128016000Y-87795478D02*
X127977522Y-87757000D01*
X129131478Y-87795478D02*
X128016000Y-87795478D01*
X129474000Y-88138000D02*
X129131478Y-87795478D01*
X129474000Y-89027000D02*
X129474000Y-88138000D01*
%TO.N,/PA14*%
X133351400Y-88647400D02*
X133704550Y-88647400D01*
X133704550Y-88647400D02*
X133727000Y-88647400D01*
X132797000Y-88392950D02*
X133051450Y-88647400D01*
X132797000Y-88093000D02*
X132797000Y-88392950D01*
X133051450Y-88647400D02*
X133351400Y-88647400D01*
X133727000Y-88647400D02*
X134338000Y-88036400D01*
X131953000Y-87249000D02*
X132797000Y-88093000D01*
%TO.N,CAN_L*%
X135636000Y-77724000D02*
X135636000Y-79338000D01*
X137160000Y-76200000D02*
X135636000Y-77724000D01*
X135636000Y-79338000D02*
X135673000Y-79375000D01*
X136398000Y-81109000D02*
X136398000Y-84334032D01*
X135419000Y-80130000D02*
X136398000Y-81109000D01*
X135419000Y-79375000D02*
X135419000Y-80130000D01*
%TO.N,Net-(JP1-B)*%
X138468600Y-79375000D02*
X136869000Y-79375000D01*
%TO.N,CAN_H*%
X139700000Y-78956400D02*
X140118600Y-79375000D01*
X139700000Y-76200000D02*
X139700000Y-78956400D01*
X140842000Y-79375000D02*
X140118600Y-79375000D01*
X140872116Y-86911000D02*
X141224000Y-86559116D01*
X140065000Y-86671000D02*
X140305000Y-86911000D01*
X140305000Y-86911000D02*
X140872116Y-86911000D01*
X140065000Y-85577000D02*
X140065000Y-86671000D01*
X141224000Y-86559116D02*
X141224000Y-79757000D01*
X141224000Y-79757000D02*
X140842000Y-79375000D01*
%TO.N,GND*%
X140565000Y-86082000D02*
X140565000Y-85577000D01*
X140623909Y-86140909D02*
X140565000Y-86082000D01*
X140623909Y-86361000D02*
X140623909Y-86140909D01*
%TO.N,CAN_L*%
X136741968Y-84678000D02*
X136398000Y-84334032D01*
X136741968Y-84875168D02*
X136741968Y-84678000D01*
X137007600Y-85140800D02*
X136741968Y-84875168D01*
%TO.N,PA06*%
X117477555Y-88565245D02*
X117297200Y-88745600D01*
X121845008Y-88565245D02*
X117477555Y-88565245D01*
X122341472Y-88068781D02*
X121845008Y-88565245D01*
%TO.N,/PA15*%
X128030385Y-84792478D02*
X127833293Y-84792478D01*
X129391747Y-83431116D02*
X128030385Y-84792478D01*
X130113000Y-83431116D02*
X129391747Y-83431116D01*
X127833293Y-84792478D02*
X127574062Y-84533247D01*
%TO.N,PA13*%
X130810000Y-77470000D02*
X132080000Y-76200000D01*
X130810000Y-77614100D02*
X130810000Y-77470000D01*
X130663000Y-77761100D02*
X130810000Y-77614100D01*
X130663000Y-78093300D02*
X130663000Y-77761100D01*
X129495478Y-85594478D02*
X130051522Y-85594478D01*
X130663000Y-84983000D02*
X130663000Y-78093300D01*
X129162522Y-85594478D02*
X129162900Y-85594100D01*
X129162900Y-85594100D02*
X129495100Y-85594100D01*
X129495100Y-85594100D02*
X129495478Y-85594478D01*
X130051522Y-85594478D02*
X130663000Y-84983000D01*
X127221079Y-85594478D02*
X129162522Y-85594478D01*
X126866955Y-85240354D02*
X127221079Y-85594478D01*
%TO.N,PB11*%
X133231000Y-76676760D02*
X133231000Y-76200000D01*
X132556760Y-77351000D02*
X133231000Y-76676760D01*
X129949290Y-86695478D02*
X131064000Y-85580768D01*
X131064000Y-77927200D02*
X131640200Y-77351000D01*
X131064000Y-85580768D02*
X131064000Y-77927200D01*
X128229000Y-86695478D02*
X129949290Y-86695478D01*
X131640200Y-77351000D02*
X132556760Y-77351000D01*
X128228000Y-86694478D02*
X128229000Y-86695478D01*
X126906866Y-86694478D02*
X128228000Y-86694478D01*
X133231000Y-76200000D02*
X134620000Y-76200000D01*
X126159848Y-85947460D02*
X126906866Y-86694478D01*
%TO.N,CAN RX*%
X126271347Y-79132924D02*
X126611709Y-78792562D01*
X126271347Y-79756258D02*
X126271347Y-79132924D01*
X125099188Y-81068424D02*
X125405866Y-80761746D01*
X125405866Y-80761746D02*
X125405866Y-80621739D01*
X125405866Y-80621739D02*
X126271347Y-79756258D01*
%TO.N,PA24*%
X125870347Y-79185147D02*
X125870347Y-79590158D01*
X125196600Y-78511400D02*
X125870347Y-79185147D01*
X125870347Y-79590158D02*
X124745635Y-80714870D01*
%TO.N,PA25*%
X124414709Y-80361317D02*
X124392082Y-80361317D01*
X125171824Y-79372786D02*
X125171824Y-79604202D01*
X125171824Y-79604202D02*
X124414709Y-80361317D01*
X124412799Y-78613761D02*
X125171824Y-79372786D01*
%TO.N,PA04*%
X112316800Y-87908860D02*
X112316800Y-88747600D01*
X113165860Y-87059800D02*
X112316800Y-87908860D01*
X114824540Y-87059800D02*
X113165860Y-87059800D01*
X114993740Y-87229000D02*
X114824540Y-87059800D01*
X119278169Y-87229000D02*
X114993740Y-87229000D01*
X119812414Y-87763245D02*
X119278169Y-87229000D01*
X121232794Y-87763245D02*
X119812414Y-87763245D01*
X121634365Y-87361674D02*
X121232794Y-87763245D01*
%TO.N,PA05*%
X114556000Y-87630000D02*
X114505200Y-87680800D01*
X119646314Y-88164245D02*
X119112069Y-87630000D01*
X119112069Y-87630000D02*
X114556000Y-87630000D01*
X121538900Y-88164245D02*
X119646314Y-88164245D01*
X121987918Y-87715227D02*
X121538900Y-88164245D01*
%TO.N,/PA14*%
X127527187Y-85193478D02*
X129674704Y-85193478D01*
X127220509Y-84886800D02*
X127527187Y-85193478D01*
X129674704Y-85193478D02*
X129841352Y-85026830D01*
%TO.N,GND*%
X118260400Y-90730800D02*
X118260400Y-89712800D01*
X118110000Y-90881200D02*
X118260400Y-90730800D01*
%TO.N,PB08*%
X115013200Y-85328801D02*
X115013200Y-85648800D01*
X115426001Y-84916000D02*
X115013200Y-85328801D01*
X116210800Y-84916000D02*
X115426001Y-84916000D01*
%TO.N,Net-(J1-Pin_3)*%
X113942400Y-85699600D02*
X113993200Y-85648800D01*
X107592240Y-91440000D02*
X113332640Y-85699600D01*
X113332640Y-85699600D02*
X113942400Y-85699600D01*
X106680000Y-91440000D02*
X107592240Y-91440000D01*
D42*
%TO.N,+5V*%
X112742946Y-82836000D02*
X115777582Y-82836000D01*
X115777582Y-82836000D02*
X115860382Y-82753200D01*
X112724146Y-82854800D02*
X112742946Y-82836000D01*
X111662955Y-82854800D02*
X112724146Y-82854800D01*
X111604198Y-82796043D02*
X111662955Y-82854800D01*
D41*
%TO.N,PA_03*%
X110998000Y-87467140D02*
X110998000Y-85394801D01*
X108295140Y-90170000D02*
X110998000Y-87467140D01*
X105410000Y-90170000D02*
X104140000Y-91440000D01*
X108295140Y-90170000D02*
X105410000Y-90170000D01*
X111133085Y-85259718D02*
X111133083Y-85259718D01*
X111133083Y-85259718D02*
X110998000Y-85394801D01*
%TO.N,PA19*%
X127090711Y-81905328D02*
X126513402Y-82482637D01*
X127230717Y-81905328D02*
X127090711Y-81905328D01*
X127282168Y-81905328D02*
X127230717Y-81905328D01*
X127432168Y-81755328D02*
X127282168Y-81905328D01*
X127439072Y-81755328D02*
X127432168Y-81755328D01*
X126805100Y-77825600D02*
X127203200Y-77825600D01*
X128357000Y-80837400D02*
X127439072Y-81755328D01*
X125730000Y-76750500D02*
X126805100Y-77825600D01*
X127203200Y-77825600D02*
X128357000Y-78979400D01*
X125730000Y-75438000D02*
X125730000Y-76750500D01*
X125341000Y-75049000D02*
X125730000Y-75438000D01*
X123071000Y-75049000D02*
X125341000Y-75049000D01*
X121920000Y-76200000D02*
X123071000Y-75049000D01*
X128357000Y-78979400D02*
X128357000Y-80837400D01*
%TO.N,PA20*%
X126159848Y-82059789D02*
X126159848Y-82129084D01*
X126466526Y-81753111D02*
X126159848Y-82059789D01*
X127192221Y-81026000D02*
X126466526Y-81751695D01*
X127355600Y-81026000D02*
X127192221Y-81026000D01*
X126466526Y-81751695D02*
X126466526Y-81753111D01*
%TO.N,PA19*%
X126513402Y-82482637D02*
X126582696Y-82482637D01*
%TO.N,PA21*%
X126839941Y-78241562D02*
X126653962Y-78241562D01*
X126653962Y-78241562D02*
X125780800Y-77368400D01*
X125780800Y-77368400D02*
X118008400Y-77368400D01*
X127609600Y-79011221D02*
X126839941Y-78241562D01*
X127609600Y-79972225D02*
X127609600Y-79011221D01*
X125806295Y-81775530D02*
X127609600Y-79972225D01*
X118008400Y-77368400D02*
X116840000Y-76200000D01*
%TO.N,PB23*%
X120777935Y-79015761D02*
X121349470Y-79015761D01*
X121349470Y-79015761D02*
X122341472Y-80007763D01*
%TO.N,VDDCORE*%
X116078000Y-80292000D02*
X115087400Y-80292000D01*
D43*
%TO.N,GND*%
X115087400Y-81252000D02*
X116078000Y-81252000D01*
D41*
%TO.N,VDDCORE*%
X117094000Y-80292000D02*
X116078000Y-80292000D01*
D43*
%TO.N,GND*%
X117094000Y-81252000D02*
X116078000Y-81252000D01*
D41*
X118207600Y-89765600D02*
X118260400Y-89712800D01*
X117297200Y-89765600D02*
X118207600Y-89765600D01*
%TO.N,Net-(J1-Pin_8)*%
X119534400Y-91440000D02*
X119380000Y-91440000D01*
X121261600Y-89712800D02*
X119534400Y-91440000D01*
%TO.N,PA07*%
X119280400Y-89712800D02*
X120241600Y-89712800D01*
X122151114Y-88966245D02*
X120988155Y-88966245D01*
X120988155Y-88966245D02*
X120241600Y-89712800D01*
X122695025Y-88422334D02*
X122151114Y-88966245D01*
%TO.N,Net-(J1-Pin_7)*%
X116179600Y-90779600D02*
X116840000Y-91440000D01*
X116179600Y-89765600D02*
X116179600Y-90779600D01*
%TO.N,PA06*%
X116179600Y-88745600D02*
X117297200Y-88745600D01*
%TO.N,Net-(J1-Pin_6)*%
X114300000Y-90476800D02*
X115011200Y-89765600D01*
X114300000Y-91440000D02*
X114300000Y-90476800D01*
%TO.N,PA05*%
X115011200Y-88186800D02*
X114505200Y-87680800D01*
X115011200Y-88745600D02*
X115011200Y-88186800D01*
%TO.N,GND*%
X113485200Y-87932800D02*
X114147600Y-88595200D01*
X113485200Y-87680800D02*
X113485200Y-87932800D01*
X113995200Y-88747600D02*
X114147600Y-88595200D01*
X113485200Y-88599200D02*
X113336800Y-88747600D01*
X113485200Y-87680800D02*
X113485200Y-88599200D01*
X115923600Y-86205600D02*
X115976400Y-86258400D01*
X115923600Y-85648800D02*
X115923600Y-86205600D01*
%TO.N,PA04*%
X121599717Y-87327026D02*
X121599718Y-87327027D01*
X121599717Y-87327026D02*
X121634365Y-87361674D01*
%TO.N,Net-(J1-Pin_5)*%
X111808800Y-91391200D02*
X111760000Y-91440000D01*
X111808800Y-89814400D02*
X111808800Y-91391200D01*
%TO.N,PA04*%
X112316800Y-89302400D02*
X112828800Y-89814400D01*
X112316800Y-88747600D02*
X112316800Y-89302400D01*
%TO.N,PA_03*%
X111337601Y-85055200D02*
X111133085Y-85259718D01*
X111133085Y-85259718D02*
X111133084Y-85259717D01*
X111367984Y-85024817D02*
X111337601Y-85055200D01*
X111367985Y-85024818D02*
X111367984Y-85024817D01*
X111367984Y-85024817D02*
X111367985Y-85024816D01*
X111411917Y-84980884D02*
X111367984Y-85024817D01*
X111367985Y-85024816D02*
X111367985Y-85024818D01*
X111411918Y-84980882D02*
X111411919Y-84980883D01*
X111529368Y-84863434D02*
X111411918Y-84980882D01*
X111411919Y-84980883D02*
X111411917Y-84980884D01*
X111646818Y-84745983D02*
X111529368Y-84863434D01*
X111646819Y-84745983D02*
X111646818Y-84745983D01*
X111658400Y-84734400D02*
X111646819Y-84745982D01*
X111658400Y-84402200D02*
X111658400Y-84734400D01*
X111658400Y-84160630D02*
X111658400Y-84402200D01*
X111658400Y-83828430D02*
X111658400Y-84160630D01*
X111658400Y-83718400D02*
X111658400Y-83828430D01*
X111646819Y-84745982D02*
X111646819Y-84745983D01*
X110805003Y-82865003D02*
X111658400Y-83718400D01*
X110805003Y-82762900D02*
X110805003Y-82865003D01*
%TO.N,PB08*%
X117643831Y-86349031D02*
X116210800Y-84916000D01*
X119532400Y-86349031D02*
X117643831Y-86349031D01*
X120620580Y-86961245D02*
X120144614Y-86961245D01*
X120144614Y-86961245D02*
X119532400Y-86349031D01*
X120927258Y-86654567D02*
X120620580Y-86961245D01*
X115013200Y-85648800D02*
X115013200Y-85699600D01*
%TO.N,PA03*%
X112396273Y-86031427D02*
X111800756Y-86031427D01*
X117193871Y-84515000D02*
X113912700Y-84515000D01*
X119512474Y-85948031D02*
X118626902Y-85948031D01*
X113912700Y-84515000D02*
X112396273Y-86031427D01*
X119866598Y-85593907D02*
X119512474Y-85948031D01*
X118626902Y-85948031D02*
X117193871Y-84515000D01*
%TO.N,PA02*%
X117359971Y-84114000D02*
X113746600Y-84114000D01*
X112567400Y-85293200D02*
X112166400Y-85293200D01*
X118793002Y-85547031D02*
X117359971Y-84114000D01*
X113746600Y-84114000D02*
X112567400Y-85293200D01*
X119137072Y-85547031D02*
X118793002Y-85547031D01*
X119443749Y-85240354D02*
X119137072Y-85547031D01*
X119513045Y-85240354D02*
X119443749Y-85240354D01*
%TO.N,PA03*%
X119710105Y-85750400D02*
X119866598Y-85593907D01*
X119640811Y-85750400D02*
X119710105Y-85750400D01*
X111800756Y-86031427D02*
X111827665Y-86004518D01*
%TO.N,PA02*%
X119510999Y-85242400D02*
X119513045Y-85240354D01*
X119441703Y-85242400D02*
X119510999Y-85242400D01*
%TO.N,SWDIO*%
X117556600Y-83713000D02*
X113353620Y-83713000D01*
X113353620Y-83713000D02*
X112896983Y-84169637D01*
X118740087Y-82529513D02*
X117556600Y-83713000D01*
X119206368Y-82529513D02*
X118740087Y-82529513D01*
X119513045Y-82836190D02*
X119206368Y-82529513D01*
%TO.N,SWDCLK*%
X118573987Y-82128513D02*
X117390500Y-83312000D01*
X117390500Y-83312000D02*
X112940112Y-83312000D01*
X112940112Y-83312000D02*
X112208400Y-84043712D01*
X119512474Y-82128513D02*
X118573987Y-82128513D01*
X119866598Y-82482637D02*
X119512474Y-82128513D01*
X112301488Y-84136800D02*
X112353336Y-84084951D01*
X112208400Y-84043712D02*
X112301488Y-84136800D01*
%TO.N,Net-(J1-Pin_5)*%
X112522000Y-91440000D02*
X111760000Y-91440000D01*
%TO.N,Net-(J1-Pin_7)*%
X117602000Y-91440000D02*
X116840000Y-91440000D01*
D42*
%TO.N,Net-(J1-Pin_15)*%
X137160000Y-91440000D02*
X137160000Y-91694000D01*
D41*
%TO.N,PB10*%
X134620000Y-91440000D02*
X134620000Y-92202000D01*
%TO.N,PA10*%
X124861000Y-88324153D02*
X124861000Y-89301000D01*
X127000000Y-91440000D02*
X127000000Y-92202000D01*
X124698759Y-88161912D02*
X124861000Y-88324153D01*
X124861000Y-89301000D02*
X127000000Y-91440000D01*
X124698759Y-88091200D02*
X124698759Y-88161912D01*
X127000000Y-92202000D02*
X127286206Y-91915794D01*
X124392082Y-87784523D02*
X124698759Y-88091200D01*
X124392082Y-87715227D02*
X124392082Y-87784523D01*
%TO.N,PA08*%
X121920000Y-91440000D02*
X121920000Y-92202000D01*
X123684975Y-89675025D02*
X121920000Y-91440000D01*
X123684975Y-88422334D02*
X123684975Y-89675025D01*
%TO.N,Net-(J1-Pin_8)*%
X119380000Y-91440000D02*
X119380000Y-92202000D01*
X119634000Y-91440000D02*
X119380000Y-91440000D01*
%TO.N,PA07*%
X122695025Y-88422334D02*
X122651666Y-88422334D01*
%TO.N,Net-(J1-Pin_6)*%
X114300000Y-91440000D02*
X114300000Y-92202000D01*
%TO.N,PB09*%
X109220000Y-92202000D02*
X109220000Y-91440000D01*
%TO.N,SWDCLK*%
X104304000Y-85051000D02*
X104900000Y-84455000D01*
X104304000Y-85432000D02*
X104304000Y-85051000D01*
D43*
%TO.N,GND*%
X104900000Y-88392000D02*
X104394000Y-88392000D01*
X104900000Y-88392000D02*
X104900000Y-87376000D01*
D41*
%TO.N,Net-(D1-K)*%
X105920000Y-84455000D02*
X106957000Y-84455000D01*
%TO.N,GND*%
X140065000Y-81194350D02*
X139989260Y-81118610D01*
X140065000Y-82677000D02*
X140065000Y-81194350D01*
%TO.N,PA09*%
X124460000Y-88490253D02*
X124460000Y-92202000D01*
X124038528Y-88068781D02*
X124460000Y-88490253D01*
%TO.N,CAN TX*%
X140565000Y-82677000D02*
X140565000Y-80915118D01*
X140565000Y-80915118D02*
X140167882Y-80518000D01*
X140167882Y-80518000D02*
X138303000Y-80518000D01*
X138303000Y-80518000D02*
X137668000Y-81153000D01*
%TO.N,PA25*%
X124413295Y-80361316D02*
X124392082Y-80361316D01*
D43*
%TO.N,GND*%
X124501825Y-79544467D02*
X124038529Y-80007763D01*
X124501825Y-79494969D02*
X124501825Y-79544467D01*
D41*
%TO.N,/PA15*%
X133479600Y-83772400D02*
X133058000Y-84194000D01*
%TO.N,GND*%
X134439600Y-83975600D02*
X134658000Y-84194000D01*
X133058000Y-86394000D02*
X134658000Y-84794000D01*
%TO.N,/PA14*%
X134338000Y-86814000D02*
X134658000Y-86494000D01*
%TO.N,/PA15*%
X133479600Y-82651600D02*
X133479600Y-83772400D01*
%TO.N,GND*%
X134658000Y-84794000D02*
X134658000Y-84194000D01*
X134439600Y-82651600D02*
X134439600Y-83975600D01*
X133378000Y-88036400D02*
X133378000Y-86814000D01*
%TO.N,/PA14*%
X134338000Y-88036400D02*
X134338000Y-86814000D01*
%TO.N,GND*%
X133058000Y-86494000D02*
X133058000Y-86394000D01*
X133378000Y-86814000D02*
X133058000Y-86494000D01*
D43*
X108458000Y-82296000D02*
X107795000Y-82296000D01*
D41*
%TO.N,/RST*%
X121634365Y-80714870D02*
X121634365Y-80680929D01*
X108204000Y-81026000D02*
X106934000Y-81026000D01*
%TO.N,GND*%
X132029200Y-86461600D02*
X133025600Y-86461600D01*
X133025600Y-86461600D02*
X133058000Y-86494000D01*
X134658000Y-84194000D02*
X135197200Y-84194000D01*
X135197200Y-84194000D02*
X135737600Y-84734400D01*
%TO.N,/PA15*%
X132759541Y-84492459D02*
X133058000Y-84194000D01*
X131775200Y-84492459D02*
X132759541Y-84492459D01*
D42*
%TO.N,+5V*%
X101732500Y-79060000D02*
X101271966Y-79060000D01*
D41*
%TO.N,SWDCLK*%
X104900000Y-83439000D02*
X104900000Y-84455000D01*
%TO.N,GND*%
X137783000Y-84409000D02*
X137783000Y-83337000D01*
%TO.N,SWDIO*%
X104900000Y-86360000D02*
X103696000Y-87564000D01*
%TO.N,PA27*%
X121987918Y-80361317D02*
X121230201Y-79603600D01*
X121230201Y-79603600D02*
X121158000Y-79603600D01*
D42*
%TO.N,GND*%
X105664000Y-80785000D02*
X105664000Y-81534000D01*
D41*
%TO.N,SWDCLK*%
X104304000Y-85688000D02*
X104304000Y-85432000D01*
%TO.N,Net-(D2-K)*%
X105920000Y-86360000D02*
X106957000Y-86360000D01*
%TO.N,SWDIO*%
X101600000Y-87630000D02*
X101600000Y-87122000D01*
X101918000Y-87948000D02*
X101600000Y-87630000D01*
X103696000Y-87564000D02*
X103696000Y-87948000D01*
%TO.N,SWDCLK*%
X102870000Y-87122000D02*
X104304000Y-85688000D01*
%TO.N,SWDIO*%
X103696000Y-87948000D02*
X101918000Y-87948000D01*
%TO.N,Net-(D4-K)*%
X105920000Y-88392000D02*
X106957000Y-88392000D01*
%TO.N,Net-(D3-K)*%
X106957000Y-87376000D02*
X105920000Y-87376000D01*
%TO.N,GND*%
X140565000Y-84877000D02*
X139815000Y-84127000D01*
X140565000Y-85577000D02*
X140565000Y-84877000D01*
X139815000Y-84127000D02*
X138065000Y-84127000D01*
X140065000Y-83877000D02*
X140065000Y-82677000D01*
X137783000Y-84409000D02*
X137252200Y-84409000D01*
D43*
X138065000Y-84127000D02*
X137783000Y-84409000D01*
D41*
X137252200Y-84409000D02*
X136970200Y-84127000D01*
D43*
X139815000Y-84127000D02*
X140065000Y-83877000D01*
D41*
%TO.N,+5V*%
X139565000Y-82677000D02*
X139604000Y-82638000D01*
X139604000Y-81511168D02*
X139281232Y-81188400D01*
X139281232Y-81188400D02*
X138691601Y-81188400D01*
X139604000Y-82638000D02*
X139604000Y-81511168D01*
X137783000Y-82097001D02*
X137783000Y-82377000D01*
X138691601Y-81188400D02*
X137783000Y-82097001D01*
%TO.N,CAN RX*%
X139065000Y-82083000D02*
X139065000Y-82677000D01*
X139053000Y-82071000D02*
X139065000Y-82083000D01*
X139053000Y-81739400D02*
X139053000Y-82071000D01*
%TO.N,SWDCLK*%
X105535000Y-85090000D02*
X104900000Y-84455000D01*
%TO.N,SWDIO*%
X108305600Y-85598000D02*
X105662000Y-85598000D01*
%TO.N,SWDCLK*%
X108691309Y-85039849D02*
X108641158Y-85090000D01*
%TO.N,SWDIO*%
X108331000Y-85640000D02*
X108331000Y-85623400D01*
%TO.N,SWDCLK*%
X108641158Y-85090000D02*
X105535000Y-85090000D01*
%TO.N,SWDIO*%
X108331000Y-85623400D02*
X108305600Y-85598000D01*
X105662000Y-85598000D02*
X104900000Y-86360000D01*
%TO.N,CAN_L*%
X139565000Y-86204000D02*
X139110000Y-86659000D01*
X139565000Y-85577000D02*
X139565000Y-86204000D01*
X139110000Y-86659000D02*
X139028000Y-86741000D01*
%TO.N,PA16*%
X127574062Y-83543297D02*
X128382910Y-83543297D01*
X129159000Y-82767207D02*
X129159000Y-76581000D01*
X128382910Y-83543297D02*
X129159000Y-82767207D01*
X129159000Y-76581000D02*
X129540000Y-76200000D01*
%TO.N,CAN TX*%
X126385000Y-80223057D02*
X126385000Y-80489719D01*
X126899472Y-79708585D02*
X126385000Y-80223057D01*
X126952585Y-79708585D02*
X126899472Y-79708585D01*
X126385000Y-80489719D02*
X125452742Y-81421977D01*
D42*
%TO.N,GND*%
X103137000Y-82550000D02*
X102918176Y-82550000D01*
D41*
%TO.N,/RST*%
X105920000Y-82296000D02*
X106835000Y-82296000D01*
X106934000Y-81026000D02*
X106934000Y-82197000D01*
D43*
X106934000Y-82197000D02*
X106835000Y-82296000D01*
D41*
%TO.N,PB11*%
X126159848Y-85947460D02*
X126229143Y-85947460D01*
%TO.N,PA12*%
X126513402Y-85593907D02*
X127063973Y-86144478D01*
X127063973Y-86144478D02*
X128778000Y-86144478D01*
%TO.N,RESET*%
X104329000Y-83072200D02*
X104329000Y-83069660D01*
X104329000Y-83069660D02*
X104580660Y-82818000D01*
X104851200Y-82550000D02*
X104851200Y-82092800D01*
X101600000Y-84582000D02*
X102412800Y-83769200D01*
X102412800Y-83769200D02*
X103632000Y-83769200D01*
X103632000Y-83769200D02*
X104329000Y-83072200D01*
X104583200Y-82818000D02*
X104851200Y-82550000D01*
X104580660Y-82818000D02*
X104583200Y-82818000D01*
D43*
%TO.N,GND*%
X120041942Y-81078342D02*
X120138973Y-80981311D01*
X120138973Y-80981311D02*
X120486594Y-80981311D01*
X120486594Y-80981311D02*
X120927259Y-81421976D01*
D40*
%TO.N,+5V*%
X101732500Y-78658300D02*
X101904800Y-78486000D01*
D41*
%TO.N,PA17*%
X128758000Y-81987960D02*
X128758000Y-77958000D01*
X127552925Y-82857328D02*
X127888632Y-82857328D01*
X127220509Y-83189744D02*
X127552925Y-82857328D01*
X127888632Y-82857328D02*
X128758000Y-81987960D01*
D40*
%TO.N,+5V*%
X101732500Y-79060000D02*
X101732500Y-78658300D01*
X101732500Y-80960000D02*
X101732500Y-82201300D01*
D42*
%TO.N,GND*%
X102933800Y-82550000D02*
X103632000Y-82550000D01*
D40*
%TO.N,+5V*%
X101383800Y-82550000D02*
X101383800Y-83157200D01*
X101732500Y-82201300D02*
X101383800Y-82550000D01*
X101383800Y-83157200D02*
X101701600Y-83475000D01*
D41*
%TO.N,PA18*%
X127660400Y-82306328D02*
X127396817Y-82306328D01*
X127396817Y-82306328D02*
X126866955Y-82836190D01*
%TO.N,PA17*%
X128758000Y-77958000D02*
X127000000Y-76200000D01*
X127220509Y-83189744D02*
X127289803Y-83189744D01*
%TO.N,PB09*%
X121246165Y-86973473D02*
X121280812Y-87008120D01*
X120952286Y-87267351D02*
X121246165Y-86973473D01*
X120952284Y-87267351D02*
X120952286Y-87267351D01*
X120834127Y-87314798D02*
X120904839Y-87314798D01*
X120904839Y-87314798D02*
X120952284Y-87267351D01*
X120786680Y-87362245D02*
X120834127Y-87314798D01*
X115766768Y-86828000D02*
X119444269Y-86828000D01*
X115552768Y-86614000D02*
X115766768Y-86828000D01*
X112985340Y-86614000D02*
X115552768Y-86614000D01*
X119978514Y-87362245D02*
X120786680Y-87362245D01*
X109220000Y-90379340D02*
X112985340Y-86614000D01*
X109220000Y-91440000D02*
X109220000Y-90379340D01*
X119444269Y-86828000D02*
X119978514Y-87362245D01*
D42*
%TO.N,GND*%
X101732500Y-80010000D02*
X100990400Y-80010000D01*
%TD*%
%TA.AperFunction,Conductor*%
%TO.N,V33*%
G36*
X100691528Y-74942185D02*
G01*
X100737283Y-74994989D01*
X100747227Y-75064147D01*
X100718202Y-75127703D01*
X100681705Y-75154021D01*
X100681923Y-75154348D01*
X100672791Y-75160449D01*
X100671945Y-75161060D01*
X100671768Y-75161133D01*
X100605447Y-75205447D01*
X100561132Y-75271769D01*
X100561131Y-75271770D01*
X100549500Y-75330247D01*
X100549500Y-77069752D01*
X100561131Y-77128229D01*
X100561132Y-77128230D01*
X100605447Y-77194552D01*
X100671769Y-77238867D01*
X100671770Y-77238868D01*
X100730247Y-77250499D01*
X100730250Y-77250500D01*
X100730252Y-77250500D01*
X102469750Y-77250500D01*
X102469751Y-77250499D01*
X102484568Y-77247552D01*
X102528229Y-77238868D01*
X102528229Y-77238867D01*
X102528231Y-77238867D01*
X102594552Y-77194552D01*
X102638867Y-77128231D01*
X102638867Y-77128229D01*
X102638868Y-77128229D01*
X102650499Y-77069752D01*
X102650500Y-77069750D01*
X102650500Y-75330249D01*
X102650499Y-75330247D01*
X102638868Y-75271770D01*
X102638867Y-75271769D01*
X102594552Y-75205447D01*
X102528231Y-75161133D01*
X102528055Y-75161060D01*
X102527729Y-75160797D01*
X102518077Y-75154348D01*
X102518654Y-75153483D01*
X102473653Y-75117217D01*
X102451590Y-75050923D01*
X102468871Y-74983224D01*
X102520009Y-74935615D01*
X102575511Y-74922500D01*
X103918747Y-74922500D01*
X103985786Y-74942185D01*
X104031541Y-74994989D01*
X104041485Y-75064147D01*
X104012460Y-75127703D01*
X103953682Y-75165477D01*
X103942938Y-75168117D01*
X103833587Y-75189868D01*
X103833579Y-75189870D01*
X103642403Y-75269058D01*
X103470342Y-75384024D01*
X103324024Y-75530342D01*
X103209058Y-75702403D01*
X103129870Y-75893579D01*
X103129868Y-75893587D01*
X103089500Y-76096530D01*
X103089500Y-76303469D01*
X103128692Y-76500500D01*
X103129870Y-76506420D01*
X103209059Y-76697598D01*
X103231898Y-76731779D01*
X103324024Y-76869657D01*
X103470342Y-77015975D01*
X103470345Y-77015977D01*
X103642402Y-77130941D01*
X103833580Y-77210130D01*
X103978052Y-77238867D01*
X104036530Y-77250499D01*
X104036534Y-77250500D01*
X104036535Y-77250500D01*
X104243466Y-77250500D01*
X104243467Y-77250499D01*
X104446420Y-77210130D01*
X104637598Y-77130941D01*
X104809655Y-77015977D01*
X104955977Y-76869655D01*
X105070941Y-76697598D01*
X105150130Y-76506420D01*
X105190500Y-76303465D01*
X105190500Y-76096535D01*
X105150130Y-75893580D01*
X105070941Y-75702402D01*
X104955977Y-75530345D01*
X104955975Y-75530342D01*
X104809657Y-75384024D01*
X104641655Y-75271770D01*
X104637598Y-75269059D01*
X104600023Y-75253495D01*
X104446420Y-75189870D01*
X104446412Y-75189868D01*
X104337062Y-75168117D01*
X104275151Y-75135732D01*
X104240577Y-75075017D01*
X104244316Y-75005247D01*
X104285182Y-74948575D01*
X104350201Y-74922994D01*
X104361253Y-74922500D01*
X106458747Y-74922500D01*
X106525786Y-74942185D01*
X106571541Y-74994989D01*
X106581485Y-75064147D01*
X106552460Y-75127703D01*
X106493682Y-75165477D01*
X106482938Y-75168117D01*
X106373587Y-75189868D01*
X106373579Y-75189870D01*
X106182403Y-75269058D01*
X106010342Y-75384024D01*
X105864024Y-75530342D01*
X105749058Y-75702403D01*
X105669870Y-75893579D01*
X105669868Y-75893587D01*
X105629500Y-76096530D01*
X105629500Y-76303469D01*
X105668692Y-76500500D01*
X105669870Y-76506420D01*
X105749059Y-76697598D01*
X105771898Y-76731779D01*
X105864024Y-76869657D01*
X106010342Y-77015975D01*
X106010345Y-77015977D01*
X106182402Y-77130941D01*
X106373580Y-77210130D01*
X106518052Y-77238867D01*
X106576530Y-77250499D01*
X106576534Y-77250500D01*
X106576535Y-77250500D01*
X106783466Y-77250500D01*
X106783467Y-77250499D01*
X106986420Y-77210130D01*
X107177598Y-77130941D01*
X107349655Y-77015977D01*
X107495977Y-76869655D01*
X107610941Y-76697598D01*
X107690130Y-76506420D01*
X107730500Y-76303465D01*
X107730500Y-76096535D01*
X107690130Y-75893580D01*
X107610941Y-75702402D01*
X107495977Y-75530345D01*
X107495975Y-75530342D01*
X107349657Y-75384024D01*
X107181655Y-75271770D01*
X107177598Y-75269059D01*
X107140023Y-75253495D01*
X106986420Y-75189870D01*
X106986412Y-75189868D01*
X106877062Y-75168117D01*
X106815151Y-75135732D01*
X106780577Y-75075017D01*
X106784316Y-75005247D01*
X106825182Y-74948575D01*
X106890201Y-74922994D01*
X106901253Y-74922500D01*
X108998747Y-74922500D01*
X109065786Y-74942185D01*
X109111541Y-74994989D01*
X109121485Y-75064147D01*
X109092460Y-75127703D01*
X109033682Y-75165477D01*
X109022938Y-75168117D01*
X108913587Y-75189868D01*
X108913579Y-75189870D01*
X108722403Y-75269058D01*
X108550342Y-75384024D01*
X108404024Y-75530342D01*
X108289058Y-75702403D01*
X108209870Y-75893579D01*
X108209868Y-75893587D01*
X108169500Y-76096530D01*
X108169500Y-76303469D01*
X108208692Y-76500500D01*
X108209870Y-76506420D01*
X108289059Y-76697598D01*
X108311898Y-76731779D01*
X108404024Y-76869657D01*
X108550342Y-77015975D01*
X108550345Y-77015977D01*
X108722402Y-77130941D01*
X108913580Y-77210130D01*
X109058052Y-77238867D01*
X109116530Y-77250499D01*
X109116534Y-77250500D01*
X109116535Y-77250500D01*
X109323466Y-77250500D01*
X109323467Y-77250499D01*
X109526420Y-77210130D01*
X109717598Y-77130941D01*
X109889655Y-77015977D01*
X110035977Y-76869655D01*
X110150941Y-76697598D01*
X110230130Y-76506420D01*
X110270500Y-76303465D01*
X110270500Y-76096535D01*
X110230130Y-75893580D01*
X110150941Y-75702402D01*
X110035977Y-75530345D01*
X110035975Y-75530342D01*
X109889657Y-75384024D01*
X109721655Y-75271770D01*
X109717598Y-75269059D01*
X109680023Y-75253495D01*
X109526420Y-75189870D01*
X109526412Y-75189868D01*
X109417062Y-75168117D01*
X109355151Y-75135732D01*
X109320577Y-75075017D01*
X109324316Y-75005247D01*
X109365182Y-74948575D01*
X109430201Y-74922994D01*
X109441253Y-74922500D01*
X111538747Y-74922500D01*
X111605786Y-74942185D01*
X111651541Y-74994989D01*
X111661485Y-75064147D01*
X111632460Y-75127703D01*
X111573682Y-75165477D01*
X111562938Y-75168117D01*
X111453587Y-75189868D01*
X111453579Y-75189870D01*
X111262403Y-75269058D01*
X111090342Y-75384024D01*
X110944024Y-75530342D01*
X110829058Y-75702403D01*
X110749870Y-75893579D01*
X110749868Y-75893587D01*
X110709500Y-76096530D01*
X110709500Y-76303469D01*
X110748692Y-76500500D01*
X110749870Y-76506420D01*
X110829059Y-76697598D01*
X110851898Y-76731779D01*
X110944024Y-76869657D01*
X111090342Y-77015975D01*
X111090345Y-77015977D01*
X111262402Y-77130941D01*
X111453580Y-77210130D01*
X111598052Y-77238867D01*
X111656530Y-77250499D01*
X111656534Y-77250500D01*
X111656535Y-77250500D01*
X111863466Y-77250500D01*
X111863467Y-77250499D01*
X112066420Y-77210130D01*
X112257598Y-77130941D01*
X112429655Y-77015977D01*
X112575977Y-76869655D01*
X112690941Y-76697598D01*
X112770130Y-76506420D01*
X112810500Y-76303465D01*
X112810500Y-76096535D01*
X112770130Y-75893580D01*
X112690941Y-75702402D01*
X112575977Y-75530345D01*
X112575975Y-75530342D01*
X112429657Y-75384024D01*
X112261655Y-75271770D01*
X112257598Y-75269059D01*
X112220023Y-75253495D01*
X112066420Y-75189870D01*
X112066412Y-75189868D01*
X111957062Y-75168117D01*
X111895151Y-75135732D01*
X111860577Y-75075017D01*
X111864316Y-75005247D01*
X111905182Y-74948575D01*
X111970201Y-74922994D01*
X111981253Y-74922500D01*
X114078747Y-74922500D01*
X114145786Y-74942185D01*
X114191541Y-74994989D01*
X114201485Y-75064147D01*
X114172460Y-75127703D01*
X114113682Y-75165477D01*
X114102938Y-75168117D01*
X113993587Y-75189868D01*
X113993579Y-75189870D01*
X113802403Y-75269058D01*
X113630342Y-75384024D01*
X113484024Y-75530342D01*
X113369058Y-75702403D01*
X113289870Y-75893579D01*
X113289868Y-75893587D01*
X113249500Y-76096530D01*
X113249500Y-76303469D01*
X113288692Y-76500500D01*
X113289870Y-76506420D01*
X113369059Y-76697598D01*
X113391898Y-76731779D01*
X113484024Y-76869657D01*
X113630342Y-77015975D01*
X113630345Y-77015977D01*
X113802402Y-77130941D01*
X113993580Y-77210130D01*
X114138052Y-77238867D01*
X114196530Y-77250499D01*
X114196534Y-77250500D01*
X114196535Y-77250500D01*
X114403466Y-77250500D01*
X114403467Y-77250499D01*
X114606420Y-77210130D01*
X114797598Y-77130941D01*
X114969655Y-77015977D01*
X115115977Y-76869655D01*
X115230941Y-76697598D01*
X115310130Y-76506420D01*
X115350500Y-76303465D01*
X115350500Y-76096535D01*
X115310130Y-75893580D01*
X115230941Y-75702402D01*
X115115977Y-75530345D01*
X115115975Y-75530342D01*
X114969657Y-75384024D01*
X114801655Y-75271770D01*
X114797598Y-75269059D01*
X114760023Y-75253495D01*
X114606420Y-75189870D01*
X114606412Y-75189868D01*
X114497062Y-75168117D01*
X114435151Y-75135732D01*
X114400577Y-75075017D01*
X114404316Y-75005247D01*
X114445182Y-74948575D01*
X114510201Y-74922994D01*
X114521253Y-74922500D01*
X116618747Y-74922500D01*
X116685786Y-74942185D01*
X116731541Y-74994989D01*
X116741485Y-75064147D01*
X116712460Y-75127703D01*
X116653682Y-75165477D01*
X116642938Y-75168117D01*
X116533587Y-75189868D01*
X116533579Y-75189870D01*
X116342403Y-75269058D01*
X116170342Y-75384024D01*
X116024024Y-75530342D01*
X115909058Y-75702403D01*
X115829870Y-75893579D01*
X115829868Y-75893587D01*
X115789500Y-76096530D01*
X115789500Y-76303469D01*
X115828692Y-76500500D01*
X115829870Y-76506420D01*
X115909059Y-76697598D01*
X115931898Y-76731779D01*
X116024024Y-76869657D01*
X116170342Y-77015975D01*
X116170345Y-77015977D01*
X116342402Y-77130941D01*
X116533580Y-77210130D01*
X116678052Y-77238867D01*
X116736530Y-77250499D01*
X116736534Y-77250500D01*
X116736535Y-77250500D01*
X116943466Y-77250500D01*
X116943467Y-77250499D01*
X117146420Y-77210130D01*
X117266974Y-77160194D01*
X117336438Y-77152726D01*
X117398918Y-77184000D01*
X117402104Y-77187075D01*
X117767940Y-77552911D01*
X117823889Y-77608860D01*
X117823891Y-77608861D01*
X117823895Y-77608864D01*
X117862266Y-77631017D01*
X117892411Y-77648421D01*
X117968838Y-77668900D01*
X118047962Y-77668900D01*
X125604967Y-77668900D01*
X125672006Y-77688585D01*
X125692648Y-77705219D01*
X126289618Y-78302189D01*
X126323103Y-78363512D01*
X126318119Y-78433204D01*
X126289618Y-78477551D01*
X126251222Y-78515946D01*
X126251220Y-78515949D01*
X126191910Y-78618676D01*
X126161209Y-78733253D01*
X126161209Y-78733255D01*
X126161209Y-78751676D01*
X126141524Y-78818715D01*
X126088720Y-78864470D01*
X126019562Y-78874414D01*
X125956006Y-78845389D01*
X125949528Y-78839357D01*
X125683419Y-78573248D01*
X125649934Y-78511925D01*
X125647100Y-78485567D01*
X125647100Y-78452093D01*
X125647100Y-78452091D01*
X125616399Y-78337514D01*
X125557089Y-78234787D01*
X125473213Y-78150911D01*
X125370486Y-78091601D01*
X125255909Y-78060900D01*
X125137291Y-78060900D01*
X125022714Y-78091601D01*
X125022712Y-78091601D01*
X125022712Y-78091602D01*
X124919987Y-78150910D01*
X124837976Y-78232922D01*
X124776652Y-78266406D01*
X124706961Y-78261422D01*
X124688298Y-78252629D01*
X124586685Y-78193962D01*
X124472108Y-78163261D01*
X124353490Y-78163261D01*
X124238913Y-78193962D01*
X124238911Y-78193962D01*
X124238911Y-78193963D01*
X124136186Y-78253272D01*
X124136183Y-78253274D01*
X124052312Y-78337145D01*
X124052310Y-78337148D01*
X123996852Y-78433204D01*
X123993000Y-78439875D01*
X123962299Y-78554452D01*
X123962299Y-78673070D01*
X123993000Y-78787647D01*
X124052310Y-78890374D01*
X124136186Y-78974250D01*
X124154260Y-78984685D01*
X124202474Y-79035251D01*
X124215696Y-79103859D01*
X124189728Y-79168723D01*
X124179940Y-79179751D01*
X124141339Y-79218352D01*
X124141338Y-79218354D01*
X124141336Y-79218356D01*
X124082026Y-79321083D01*
X124051325Y-79435660D01*
X124051325Y-79435662D01*
X124051325Y-79447921D01*
X124031640Y-79514960D01*
X124015006Y-79535602D01*
X123548466Y-80002142D01*
X123548458Y-80002151D01*
X123519802Y-80039496D01*
X123485705Y-80133180D01*
X123471657Y-80152259D01*
X123461432Y-80173632D01*
X123451323Y-80179876D01*
X123444279Y-80189444D01*
X123422147Y-80197899D01*
X123401989Y-80210352D01*
X123390108Y-80210139D01*
X123379010Y-80214380D01*
X123355821Y-80209527D01*
X123332130Y-80209105D01*
X123315285Y-80201045D01*
X123310622Y-80200070D01*
X123300292Y-80193872D01*
X123258167Y-80165725D01*
X123213362Y-80112113D01*
X123204655Y-80042788D01*
X123210536Y-80020213D01*
X123213747Y-80011388D01*
X123213749Y-80011387D01*
X123252405Y-79905177D01*
X123252405Y-79792152D01*
X123252404Y-79792147D01*
X123213750Y-79685944D01*
X123213750Y-79685943D01*
X123185094Y-79648598D01*
X123185086Y-79648589D01*
X122700645Y-79164148D01*
X122700636Y-79164140D01*
X122663291Y-79135484D01*
X122557087Y-79096830D01*
X122557083Y-79096830D01*
X122519050Y-79096830D01*
X122510916Y-79095214D01*
X122505874Y-79096128D01*
X122490833Y-79091226D01*
X122471670Y-79087421D01*
X122464120Y-79084299D01*
X122435042Y-79067511D01*
X122402290Y-79058734D01*
X122394815Y-79055644D01*
X122378802Y-79042757D01*
X122354514Y-79028734D01*
X121700082Y-78374302D01*
X121700077Y-78374298D01*
X121671066Y-78357549D01*
X121671066Y-78357548D01*
X121671064Y-78357548D01*
X121631564Y-78334742D01*
X121631561Y-78334740D01*
X121593345Y-78324500D01*
X121555132Y-78314261D01*
X121555130Y-78314261D01*
X121332000Y-78314261D01*
X121306954Y-78306906D01*
X121281091Y-78303329D01*
X121270967Y-78296339D01*
X121264961Y-78294576D01*
X121251298Y-78284406D01*
X121247691Y-78281314D01*
X121190678Y-78224301D01*
X121171556Y-78213261D01*
X121122804Y-78185114D01*
X121122158Y-78184741D01*
X121122157Y-78184740D01*
X121096680Y-78177913D01*
X121045729Y-78164261D01*
X120510141Y-78164261D01*
X120471927Y-78174500D01*
X120433712Y-78184740D01*
X120433711Y-78184741D01*
X120389075Y-78210512D01*
X120384314Y-78213261D01*
X120378632Y-78216541D01*
X120365192Y-78224300D01*
X120365190Y-78224302D01*
X120138783Y-78450710D01*
X120077460Y-78484195D01*
X120051102Y-78487029D01*
X118440709Y-78487029D01*
X118410138Y-78495220D01*
X118364279Y-78507508D01*
X118364278Y-78507509D01*
X118301926Y-78543509D01*
X118301921Y-78543512D01*
X118295759Y-78547068D01*
X118295757Y-78547070D01*
X117951648Y-78891181D01*
X117890325Y-78924666D01*
X117863967Y-78927500D01*
X117190500Y-78927500D01*
X117123461Y-78907815D01*
X117077706Y-78855011D01*
X117066500Y-78803500D01*
X117066499Y-78403105D01*
X117066499Y-78403100D01*
X117059972Y-78353513D01*
X117009224Y-78244684D01*
X116924316Y-78159776D01*
X116815487Y-78109028D01*
X116815485Y-78109027D01*
X116815486Y-78109027D01*
X116765902Y-78102500D01*
X116406105Y-78102500D01*
X116390386Y-78104569D01*
X116356513Y-78109028D01*
X116356511Y-78109029D01*
X116356509Y-78109029D01*
X116247683Y-78159776D01*
X116162775Y-78244684D01*
X116156553Y-78253571D01*
X116154594Y-78252199D01*
X116153073Y-78253926D01*
X116145869Y-78269703D01*
X116130462Y-78279603D01*
X116118360Y-78293348D01*
X116101476Y-78298232D01*
X116087091Y-78307477D01*
X116052156Y-78312500D01*
X115865080Y-78312500D01*
X115798041Y-78292815D01*
X115752286Y-78240011D01*
X115745307Y-78220599D01*
X115735799Y-78185114D01*
X115676489Y-78082387D01*
X115592613Y-77998511D01*
X115489886Y-77939201D01*
X115375309Y-77908500D01*
X115256691Y-77908500D01*
X115142114Y-77939201D01*
X115142112Y-77939201D01*
X115142112Y-77939202D01*
X115039387Y-77998511D01*
X115039384Y-77998513D01*
X114955513Y-78082384D01*
X114955511Y-78082387D01*
X114908241Y-78164261D01*
X114896201Y-78185114D01*
X114865500Y-78299691D01*
X114865500Y-78418309D01*
X114896201Y-78532886D01*
X114955511Y-78635613D01*
X114955513Y-78635615D01*
X115035717Y-78715819D01*
X115069202Y-78777142D01*
X115064218Y-78846834D01*
X115022346Y-78902767D01*
X114956882Y-78927184D01*
X114948036Y-78927500D01*
X111071738Y-78927500D01*
X111041453Y-78935615D01*
X110995309Y-78947979D01*
X110995308Y-78947980D01*
X110937569Y-78981315D01*
X110937569Y-78981316D01*
X110931736Y-78984684D01*
X110926785Y-78987542D01*
X110876149Y-79038180D01*
X110849220Y-79052884D01*
X110823402Y-79069477D01*
X110817202Y-79070368D01*
X110814826Y-79071666D01*
X110788467Y-79074500D01*
X110759266Y-79074500D01*
X110692227Y-79054815D01*
X110671585Y-79038181D01*
X110648745Y-79015341D01*
X110646529Y-79014062D01*
X110640472Y-79010565D01*
X110640469Y-79010563D01*
X110580224Y-78975780D01*
X110580223Y-78975779D01*
X110542007Y-78965539D01*
X110503794Y-78955300D01*
X110503792Y-78955300D01*
X110419633Y-78955300D01*
X110352594Y-78935615D01*
X110331952Y-78918981D01*
X109859219Y-78446248D01*
X109825734Y-78384925D01*
X109822900Y-78358567D01*
X109822900Y-78325093D01*
X109822900Y-78325091D01*
X109792199Y-78210514D01*
X109732889Y-78107787D01*
X109649013Y-78023911D01*
X109546286Y-77964601D01*
X109431709Y-77933900D01*
X109313091Y-77933900D01*
X109198514Y-77964601D01*
X109198512Y-77964601D01*
X109198512Y-77964602D01*
X109095787Y-78023911D01*
X109095784Y-78023913D01*
X109011913Y-78107784D01*
X109011911Y-78107787D01*
X108953251Y-78209389D01*
X108952601Y-78210514D01*
X108921900Y-78325091D01*
X108921900Y-78443709D01*
X108952601Y-78558286D01*
X109011911Y-78661013D01*
X109095787Y-78744889D01*
X109198514Y-78804199D01*
X109313091Y-78834900D01*
X109346567Y-78834900D01*
X109413606Y-78854585D01*
X109434248Y-78871219D01*
X109896682Y-79333653D01*
X109930167Y-79394976D01*
X109925183Y-79464668D01*
X109896684Y-79509014D01*
X109875511Y-79530187D01*
X109840862Y-79590201D01*
X109816201Y-79632914D01*
X109785500Y-79747491D01*
X109785500Y-79866109D01*
X109816201Y-79980686D01*
X109875511Y-80083413D01*
X109959387Y-80167289D01*
X110062114Y-80226599D01*
X110176691Y-80257300D01*
X110176694Y-80257300D01*
X110295306Y-80257300D01*
X110295309Y-80257300D01*
X110409886Y-80226599D01*
X110512613Y-80167289D01*
X110536283Y-80143619D01*
X110597606Y-80110134D01*
X110623964Y-80107300D01*
X111139160Y-80107300D01*
X111139162Y-80107300D01*
X111215589Y-80086821D01*
X111284111Y-80047260D01*
X111340060Y-79991311D01*
X111365552Y-79965819D01*
X111426875Y-79932334D01*
X111453233Y-79929500D01*
X114459545Y-79929500D01*
X114526584Y-79949185D01*
X114572339Y-80001989D01*
X114582483Y-80069684D01*
X114577532Y-80107300D01*
X114576900Y-80112099D01*
X114576900Y-80471894D01*
X114576901Y-80471900D01*
X114583428Y-80521487D01*
X114583429Y-80521489D01*
X114583429Y-80521490D01*
X114634176Y-80630316D01*
X114688179Y-80684319D01*
X114721664Y-80745642D01*
X114716680Y-80815334D01*
X114688179Y-80859681D01*
X114634176Y-80913683D01*
X114583427Y-81022514D01*
X114576900Y-81072097D01*
X114576900Y-81431894D01*
X114577813Y-81438828D01*
X114583428Y-81481487D01*
X114583429Y-81481489D01*
X114583429Y-81481490D01*
X114617856Y-81555317D01*
X114634176Y-81590316D01*
X114719084Y-81675224D01*
X114827913Y-81725972D01*
X114877499Y-81732500D01*
X115297300Y-81732499D01*
X115346887Y-81725972D01*
X115455716Y-81675224D01*
X115495019Y-81635921D01*
X115556342Y-81602436D01*
X115626034Y-81607420D01*
X115670381Y-81635921D01*
X115709684Y-81675224D01*
X115818513Y-81725972D01*
X115868099Y-81732500D01*
X116287900Y-81732499D01*
X116337487Y-81725972D01*
X116446316Y-81675224D01*
X116498319Y-81623221D01*
X116559642Y-81589736D01*
X116629334Y-81594720D01*
X116673681Y-81623221D01*
X116725684Y-81675224D01*
X116834513Y-81725972D01*
X116884099Y-81732500D01*
X117303900Y-81732499D01*
X117353487Y-81725972D01*
X117462316Y-81675224D01*
X117523722Y-81613818D01*
X117585046Y-81580334D01*
X117611403Y-81577500D01*
X118195947Y-81577500D01*
X118195949Y-81577500D01*
X118278735Y-81555318D01*
X118352958Y-81512465D01*
X119056604Y-80808817D01*
X119083531Y-80794114D01*
X119109350Y-80777522D01*
X119115550Y-80776630D01*
X119117927Y-80775333D01*
X119144285Y-80772499D01*
X119224410Y-80772499D01*
X119291449Y-80792184D01*
X119312091Y-80808818D01*
X119555123Y-81051849D01*
X119588608Y-81113172D01*
X119590373Y-81129591D01*
X119590381Y-81129591D01*
X119591441Y-81137647D01*
X119591442Y-81137650D01*
X119591442Y-81137651D01*
X119622143Y-81252228D01*
X119681453Y-81354955D01*
X119765329Y-81438831D01*
X119868056Y-81498141D01*
X119924419Y-81513243D01*
X119931983Y-81517854D01*
X119940786Y-81518879D01*
X119961356Y-81535757D01*
X119984078Y-81549606D01*
X119987949Y-81557576D01*
X119994800Y-81563197D01*
X120002980Y-81588516D01*
X120014608Y-81612453D01*
X120013556Y-81621251D01*
X120016280Y-81629683D01*
X120016325Y-81633017D01*
X120016325Y-81637592D01*
X120054979Y-81743795D01*
X120054979Y-81743796D01*
X120083635Y-81781141D01*
X120083643Y-81781150D01*
X120568084Y-82265591D01*
X120568093Y-82265599D01*
X120591141Y-82283284D01*
X120605437Y-82294254D01*
X120692389Y-82325901D01*
X120692801Y-82326204D01*
X120693314Y-82326241D01*
X120720879Y-82346877D01*
X120748653Y-82367325D01*
X120748836Y-82367805D01*
X120749247Y-82368113D01*
X120761278Y-82400369D01*
X120773590Y-82432594D01*
X120773484Y-82433096D01*
X120773664Y-82433577D01*
X120766341Y-82467236D01*
X120759281Y-82500983D01*
X120758884Y-82501517D01*
X120758812Y-82501850D01*
X120737661Y-82530104D01*
X120621172Y-82646593D01*
X120559849Y-82680078D01*
X120490157Y-82675094D01*
X120434224Y-82633222D01*
X120416969Y-82601322D01*
X120385322Y-82514369D01*
X120375460Y-82501517D01*
X120356667Y-82477025D01*
X120356659Y-82477016D01*
X119872216Y-81992573D01*
X119834866Y-81963913D01*
X119763188Y-81937825D01*
X119717916Y-81908984D01*
X119696986Y-81888054D01*
X119696978Y-81888048D01*
X119679777Y-81878117D01*
X119679773Y-81878116D01*
X119647202Y-81859311D01*
X119628464Y-81848492D01*
X119596428Y-81839908D01*
X119552036Y-81828013D01*
X118534425Y-81828013D01*
X118479334Y-81842775D01*
X118457994Y-81848493D01*
X118406687Y-81878116D01*
X118406686Y-81878116D01*
X118389482Y-81888048D01*
X118389474Y-81888054D01*
X117302348Y-82975181D01*
X117241025Y-83008666D01*
X117214667Y-83011500D01*
X116419162Y-83011500D01*
X116352123Y-82991815D01*
X116306368Y-82939011D01*
X116296424Y-82869853D01*
X116299384Y-82855417D01*
X116310882Y-82812509D01*
X116310882Y-82693891D01*
X116280181Y-82579314D01*
X116220871Y-82476587D01*
X116136995Y-82392711D01*
X116034268Y-82333401D01*
X115919691Y-82302700D01*
X115801073Y-82302700D01*
X115686496Y-82333401D01*
X115686494Y-82333401D01*
X115686494Y-82333402D01*
X115583769Y-82392711D01*
X115583766Y-82392713D01*
X115552299Y-82424181D01*
X115490976Y-82457666D01*
X115464618Y-82460500D01*
X112693509Y-82460500D01*
X112658482Y-82469885D01*
X112658482Y-82469886D01*
X112639115Y-82475075D01*
X112607023Y-82479300D01*
X111975919Y-82479300D01*
X111908880Y-82459615D01*
X111888238Y-82442981D01*
X111880813Y-82435556D01*
X111880811Y-82435554D01*
X111778084Y-82376244D01*
X111663507Y-82345543D01*
X111544889Y-82345543D01*
X111430312Y-82376244D01*
X111430310Y-82376244D01*
X111430310Y-82376245D01*
X111327585Y-82435554D01*
X111327584Y-82435555D01*
X111308849Y-82454289D01*
X111247524Y-82487771D01*
X111177833Y-82482784D01*
X111133490Y-82454285D01*
X111081618Y-82402413D01*
X111081616Y-82402411D01*
X110978889Y-82343101D01*
X110864312Y-82312400D01*
X110745694Y-82312400D01*
X110631117Y-82343101D01*
X110631115Y-82343101D01*
X110631115Y-82343102D01*
X110609972Y-82355309D01*
X110528390Y-82402411D01*
X110528388Y-82402412D01*
X110521352Y-82406475D01*
X110520342Y-82404725D01*
X110465303Y-82425996D01*
X110396860Y-82411949D01*
X110385619Y-82404724D01*
X110378076Y-82400369D01*
X110278886Y-82343101D01*
X110164309Y-82312400D01*
X110045691Y-82312400D01*
X109931114Y-82343101D01*
X109931112Y-82343101D01*
X109931112Y-82343102D01*
X109828387Y-82402411D01*
X109828384Y-82402413D01*
X109744513Y-82486284D01*
X109744511Y-82486287D01*
X109681137Y-82596053D01*
X109678716Y-82594655D01*
X109643394Y-82638470D01*
X109577096Y-82660522D01*
X109556508Y-82659539D01*
X109556440Y-82659530D01*
X109437822Y-82659530D01*
X109323245Y-82690231D01*
X109323243Y-82690231D01*
X109323243Y-82690232D01*
X109220518Y-82749541D01*
X109220515Y-82749543D01*
X109136644Y-82833414D01*
X109136642Y-82833417D01*
X109107900Y-82883200D01*
X109077332Y-82936144D01*
X109046631Y-83050721D01*
X109046631Y-83169339D01*
X109077332Y-83283916D01*
X109136642Y-83386643D01*
X109220518Y-83470519D01*
X109323245Y-83529829D01*
X109376729Y-83544159D01*
X109432317Y-83576253D01*
X110151099Y-84295035D01*
X110184584Y-84356358D01*
X110179600Y-84426050D01*
X110151099Y-84470397D01*
X109820527Y-84800969D01*
X109820525Y-84800971D01*
X109820525Y-84800972D01*
X109812672Y-84814574D01*
X109771091Y-84886593D01*
X109771090Y-84886595D01*
X109771090Y-84886596D01*
X109758295Y-84934347D01*
X109749569Y-84966914D01*
X109745923Y-84980521D01*
X109745918Y-84980539D01*
X109745500Y-84982098D01*
X109745500Y-86496700D01*
X109725815Y-86563739D01*
X109709181Y-86584381D01*
X108609086Y-87684475D01*
X108553501Y-87716568D01*
X108500015Y-87730900D01*
X108500014Y-87730900D01*
X108397287Y-87790211D01*
X108397283Y-87790214D01*
X108325739Y-87861757D01*
X108264416Y-87895242D01*
X108194724Y-87890256D01*
X108183598Y-87885475D01*
X108175172Y-87881355D01*
X108158259Y-87878891D01*
X108107528Y-87871500D01*
X107746472Y-87871500D01*
X107695740Y-87878891D01*
X107678828Y-87881355D01*
X107574486Y-87932365D01*
X107529681Y-87977171D01*
X107521735Y-87981509D01*
X107516310Y-87988757D01*
X107491550Y-87997991D01*
X107468358Y-88010656D01*
X107459328Y-88010010D01*
X107450846Y-88013174D01*
X107425025Y-88007557D01*
X107398666Y-88005672D01*
X107389612Y-87999853D01*
X107382573Y-87998322D01*
X107354319Y-87977171D01*
X107348829Y-87971681D01*
X107315344Y-87910358D01*
X107320328Y-87840666D01*
X107348829Y-87796319D01*
X107391634Y-87753513D01*
X107391636Y-87753511D01*
X107442645Y-87649170D01*
X107452500Y-87581528D01*
X107452500Y-87170472D01*
X107442645Y-87102830D01*
X107391636Y-86998489D01*
X107391634Y-86998487D01*
X107391634Y-86998486D01*
X107348829Y-86955681D01*
X107315344Y-86894358D01*
X107320328Y-86824666D01*
X107348829Y-86780319D01*
X107391634Y-86737513D01*
X107391636Y-86737511D01*
X107442645Y-86633170D01*
X107452500Y-86565528D01*
X107452500Y-86154472D01*
X107442645Y-86086830D01*
X107440409Y-86082256D01*
X107437820Y-86076959D01*
X107426062Y-86008085D01*
X107453406Y-85943789D01*
X107511171Y-85904482D01*
X107549221Y-85898500D01*
X107901035Y-85898500D01*
X107968074Y-85918185D01*
X107988716Y-85934818D01*
X108054387Y-86000489D01*
X108157114Y-86059799D01*
X108271691Y-86090500D01*
X108271694Y-86090500D01*
X108390306Y-86090500D01*
X108390309Y-86090500D01*
X108504886Y-86059799D01*
X108607613Y-86000489D01*
X108691489Y-85916613D01*
X108750799Y-85813886D01*
X108781500Y-85699309D01*
X108781500Y-85580691D01*
X108781500Y-85577169D01*
X108801185Y-85510130D01*
X108853989Y-85464375D01*
X108858055Y-85462605D01*
X108865192Y-85459648D01*
X108865195Y-85459648D01*
X108967922Y-85400338D01*
X109051798Y-85316462D01*
X109111108Y-85213735D01*
X109141809Y-85099158D01*
X109141809Y-84980540D01*
X109111108Y-84865963D01*
X109051798Y-84763236D01*
X108967922Y-84679360D01*
X108865195Y-84620050D01*
X108750618Y-84589349D01*
X108632000Y-84589349D01*
X108517423Y-84620050D01*
X108517421Y-84620050D01*
X108517421Y-84620051D01*
X108414696Y-84679360D01*
X108340874Y-84753182D01*
X108279550Y-84786666D01*
X108253193Y-84789500D01*
X107576465Y-84789500D01*
X107509426Y-84769815D01*
X107463671Y-84717011D01*
X107454307Y-84665015D01*
X107452500Y-84665015D01*
X107452500Y-84249477D01*
X107452500Y-84249472D01*
X107442645Y-84181830D01*
X107391636Y-84077489D01*
X107391634Y-84077487D01*
X107391634Y-84077486D01*
X107309513Y-83995365D01*
X107205171Y-83944355D01*
X107195506Y-83942947D01*
X107137528Y-83934500D01*
X106776472Y-83934500D01*
X106732325Y-83940932D01*
X106708828Y-83944355D01*
X106604488Y-83995364D01*
X106517298Y-84082554D01*
X106455974Y-84116038D01*
X106386283Y-84111054D01*
X106344344Y-84079658D01*
X106341736Y-84082267D01*
X106250404Y-83990935D01*
X106239570Y-83985883D01*
X106143173Y-83940932D01*
X106143171Y-83940931D01*
X106143172Y-83940931D01*
X106094317Y-83934500D01*
X106094316Y-83934500D01*
X105745684Y-83934500D01*
X105745683Y-83934500D01*
X105696828Y-83940931D01*
X105589595Y-83990935D01*
X105498264Y-84082267D01*
X105495440Y-84079443D01*
X105456958Y-84110183D01*
X105387458Y-84117352D01*
X105325114Y-84085808D01*
X105322093Y-84082873D01*
X105314247Y-84074986D01*
X105314065Y-84074596D01*
X105273924Y-84034455D01*
X105257121Y-84003494D01*
X105240665Y-83973358D01*
X105240676Y-83973193D01*
X105240597Y-83973046D01*
X105243182Y-83938168D01*
X105245649Y-83903666D01*
X105245750Y-83903507D01*
X105245761Y-83903367D01*
X105246309Y-83902637D01*
X105274150Y-83859319D01*
X105289672Y-83843797D01*
X105314065Y-83819404D01*
X105364068Y-83712173D01*
X105370500Y-83663316D01*
X105370500Y-83214684D01*
X105370170Y-83212181D01*
X105364068Y-83165828D01*
X105364068Y-83165827D01*
X105314065Y-83058596D01*
X105230404Y-82974935D01*
X105230401Y-82974933D01*
X105222035Y-82969076D01*
X105178409Y-82914500D01*
X105171215Y-82845002D01*
X105202736Y-82782647D01*
X105207383Y-82777952D01*
X105221933Y-82764015D01*
X105230404Y-82760065D01*
X105314065Y-82676404D01*
X105314602Y-82675250D01*
X105324226Y-82666033D01*
X105344842Y-82655344D01*
X105362977Y-82640843D01*
X105375276Y-82639567D01*
X105386255Y-82633876D01*
X105409376Y-82636030D01*
X105432474Y-82633635D01*
X105443511Y-82639211D01*
X105455824Y-82640359D01*
X105474108Y-82654671D01*
X105494835Y-82665143D01*
X105498093Y-82668903D01*
X105498264Y-82668733D01*
X105505935Y-82676404D01*
X105589596Y-82760065D01*
X105696827Y-82810068D01*
X105745683Y-82816500D01*
X105745684Y-82816500D01*
X106094317Y-82816500D01*
X106115843Y-82813666D01*
X106143173Y-82810068D01*
X106250404Y-82760065D01*
X106291284Y-82719184D01*
X106352605Y-82685700D01*
X106422296Y-82690684D01*
X106466645Y-82719185D01*
X106496684Y-82749224D01*
X106605513Y-82799972D01*
X106655099Y-82806500D01*
X107014900Y-82806499D01*
X107064487Y-82799972D01*
X107173316Y-82749224D01*
X107227319Y-82695221D01*
X107288642Y-82661736D01*
X107358334Y-82666720D01*
X107402681Y-82695221D01*
X107456684Y-82749224D01*
X107565513Y-82799972D01*
X107615099Y-82806500D01*
X107974900Y-82806499D01*
X108024487Y-82799972D01*
X108133316Y-82749224D01*
X108142530Y-82740008D01*
X108203851Y-82706524D01*
X108273543Y-82711506D01*
X108277664Y-82713127D01*
X108284112Y-82715798D01*
X108284114Y-82715799D01*
X108398691Y-82746500D01*
X108398694Y-82746500D01*
X108517306Y-82746500D01*
X108517309Y-82746500D01*
X108631886Y-82715799D01*
X108734613Y-82656489D01*
X108818489Y-82572613D01*
X108877799Y-82469886D01*
X108908500Y-82355309D01*
X108908500Y-82236691D01*
X108877799Y-82122114D01*
X108818489Y-82019387D01*
X108734613Y-81935511D01*
X108631886Y-81876201D01*
X108517309Y-81845500D01*
X108398691Y-81845500D01*
X108325577Y-81865091D01*
X108284109Y-81876202D01*
X108277654Y-81878876D01*
X108208184Y-81886338D01*
X108145707Y-81855057D01*
X108142531Y-81851991D01*
X108133316Y-81842776D01*
X108101657Y-81828013D01*
X108024487Y-81792028D01*
X108024485Y-81792027D01*
X108024486Y-81792027D01*
X107974902Y-81785500D01*
X107615105Y-81785500D01*
X107599386Y-81787569D01*
X107565513Y-81792028D01*
X107565511Y-81792029D01*
X107565509Y-81792029D01*
X107456683Y-81842776D01*
X107446181Y-81853279D01*
X107426744Y-81863891D01*
X107410011Y-81878392D01*
X107396679Y-81880308D01*
X107384858Y-81886764D01*
X107362771Y-81885184D01*
X107340853Y-81888336D01*
X107328601Y-81882740D01*
X107315166Y-81881780D01*
X107297439Y-81868509D01*
X107277297Y-81859311D01*
X107270014Y-81847979D01*
X107259233Y-81839908D01*
X107251495Y-81819162D01*
X107239523Y-81800533D01*
X107236371Y-81778614D01*
X107234816Y-81774444D01*
X107234500Y-81765598D01*
X107234500Y-81556321D01*
X107254185Y-81489282D01*
X107306095Y-81443939D01*
X107314404Y-81440065D01*
X107391650Y-81362819D01*
X107452973Y-81329334D01*
X107479331Y-81326500D01*
X107816036Y-81326500D01*
X107883075Y-81346185D01*
X107903717Y-81362819D01*
X107927387Y-81386489D01*
X108030114Y-81445799D01*
X108144691Y-81476500D01*
X108144694Y-81476500D01*
X108263306Y-81476500D01*
X108263309Y-81476500D01*
X108377886Y-81445799D01*
X108480613Y-81386489D01*
X108564489Y-81302613D01*
X108623799Y-81199886D01*
X108654500Y-81085309D01*
X108654500Y-80966691D01*
X108623799Y-80852114D01*
X108564489Y-80749387D01*
X108480613Y-80665511D01*
X108377886Y-80606201D01*
X108263309Y-80575500D01*
X108144691Y-80575500D01*
X108030114Y-80606201D01*
X108030112Y-80606201D01*
X108030112Y-80606202D01*
X107927387Y-80665511D01*
X107927384Y-80665513D01*
X107903717Y-80689181D01*
X107842394Y-80722666D01*
X107816036Y-80725500D01*
X107479331Y-80725500D01*
X107412292Y-80705815D01*
X107391650Y-80689181D01*
X107314404Y-80611935D01*
X107278803Y-80595334D01*
X107207173Y-80561932D01*
X107207171Y-80561931D01*
X107207172Y-80561931D01*
X107158317Y-80555500D01*
X107158316Y-80555500D01*
X106709684Y-80555500D01*
X106709683Y-80555500D01*
X106660828Y-80561931D01*
X106553595Y-80611935D01*
X106551181Y-80614350D01*
X106546484Y-80616914D01*
X106544710Y-80618157D01*
X106544571Y-80617959D01*
X106489858Y-80647835D01*
X106420166Y-80642851D01*
X106364233Y-80600979D01*
X106339816Y-80535515D01*
X106339500Y-80526669D01*
X106339500Y-80526506D01*
X106323720Y-80426878D01*
X106323719Y-80426876D01*
X106323719Y-80426874D01*
X106262528Y-80306780D01*
X106262526Y-80306778D01*
X106262523Y-80306774D01*
X106167225Y-80211476D01*
X106167221Y-80211473D01*
X106167220Y-80211472D01*
X106047126Y-80150281D01*
X106047124Y-80150280D01*
X106047121Y-80150279D01*
X105947493Y-80134500D01*
X105947488Y-80134500D01*
X105380512Y-80134500D01*
X105380507Y-80134500D01*
X105280878Y-80150279D01*
X105280874Y-80150280D01*
X105280874Y-80150281D01*
X105247500Y-80167286D01*
X105160778Y-80211473D01*
X105160774Y-80211476D01*
X105065476Y-80306774D01*
X105065473Y-80306778D01*
X105004279Y-80426878D01*
X104991525Y-80507406D01*
X104961596Y-80570541D01*
X104902284Y-80607472D01*
X104832421Y-80606474D01*
X104781371Y-80575689D01*
X104726485Y-80520803D01*
X104679484Y-80497826D01*
X104621393Y-80469427D01*
X104621391Y-80469426D01*
X104553261Y-80459500D01*
X104553260Y-80459500D01*
X103461740Y-80459500D01*
X103461738Y-80459500D01*
X103457269Y-80459824D01*
X103457185Y-80458677D01*
X103393173Y-80449581D01*
X103340294Y-80403912D01*
X103320500Y-80336905D01*
X103320500Y-79391893D01*
X103320500Y-79391891D01*
X103289799Y-79277314D01*
X103255759Y-79218356D01*
X103230489Y-79174586D01*
X102755414Y-78699511D01*
X102688734Y-78661013D01*
X102652688Y-78640201D01*
X102634838Y-78635418D01*
X102634833Y-78635417D01*
X102628473Y-78633713D01*
X102538109Y-78609500D01*
X102469630Y-78609500D01*
X102460081Y-78608002D01*
X102436877Y-78597043D01*
X102412261Y-78589815D01*
X102405810Y-78582370D01*
X102396903Y-78578164D01*
X102383307Y-78556401D01*
X102366506Y-78537011D01*
X102364000Y-78525495D01*
X102359885Y-78518907D01*
X102360034Y-78507261D01*
X102355300Y-78485500D01*
X102355300Y-78426693D01*
X102355300Y-78426691D01*
X102330662Y-78334742D01*
X102328076Y-78325090D01*
X102325174Y-78314261D01*
X102324599Y-78312113D01*
X102265289Y-78209386D01*
X102181414Y-78125511D01*
X102130050Y-78095856D01*
X102078688Y-78066201D01*
X102066580Y-78062957D01*
X102054473Y-78059713D01*
X102054470Y-78059712D01*
X102003863Y-78046152D01*
X101964109Y-78035500D01*
X101845491Y-78035500D01*
X101755125Y-78059713D01*
X101755124Y-78059712D01*
X101730916Y-78066199D01*
X101730913Y-78066200D01*
X101628186Y-78125511D01*
X101628183Y-78125513D01*
X101372013Y-78381683D01*
X101372011Y-78381686D01*
X101308637Y-78491452D01*
X101307147Y-78490591D01*
X101269473Y-78537350D01*
X101203181Y-78559421D01*
X101198745Y-78559500D01*
X101186739Y-78559500D01*
X101118608Y-78569426D01*
X101013514Y-78620803D01*
X100930803Y-78703514D01*
X100879426Y-78808608D01*
X100869500Y-78876739D01*
X100869500Y-79243260D01*
X100879426Y-79311391D01*
X100879427Y-79311393D01*
X100911133Y-79376250D01*
X100926527Y-79407738D01*
X100938286Y-79476611D01*
X100910942Y-79540908D01*
X100853178Y-79580215D01*
X100847222Y-79581972D01*
X100816514Y-79590200D01*
X100713787Y-79649511D01*
X100713784Y-79649513D01*
X100629913Y-79733384D01*
X100629911Y-79733387D01*
X100587179Y-79807401D01*
X100570601Y-79836114D01*
X100539900Y-79950691D01*
X100539900Y-80069309D01*
X100570601Y-80183886D01*
X100629911Y-80286613D01*
X100713787Y-80370489D01*
X100816514Y-80429799D01*
X100847220Y-80438026D01*
X100906880Y-80474391D01*
X100937409Y-80537238D01*
X100929114Y-80606613D01*
X100926527Y-80612261D01*
X100879426Y-80708608D01*
X100869500Y-80776739D01*
X100869500Y-81143260D01*
X100879426Y-81211391D01*
X100930803Y-81316485D01*
X101013514Y-81399196D01*
X101013515Y-81399196D01*
X101013517Y-81399198D01*
X101118607Y-81450573D01*
X101175881Y-81458917D01*
X101207618Y-81473483D01*
X101239203Y-81487908D01*
X101239268Y-81488009D01*
X101239378Y-81488060D01*
X101258089Y-81517296D01*
X101276977Y-81546686D01*
X101276999Y-81546842D01*
X101277042Y-81546909D01*
X101282000Y-81581621D01*
X101282000Y-81750500D01*
X101262315Y-81817539D01*
X101209511Y-81863294D01*
X101158000Y-81874500D01*
X101125307Y-81874500D01*
X101025678Y-81890279D01*
X101025674Y-81890280D01*
X101025674Y-81890281D01*
X100994339Y-81906247D01*
X100905578Y-81951473D01*
X100905574Y-81951476D01*
X100810276Y-82046774D01*
X100810273Y-82046778D01*
X100749079Y-82166878D01*
X100733300Y-82266506D01*
X100733300Y-82833493D01*
X100749079Y-82933121D01*
X100749080Y-82933122D01*
X100749081Y-82933126D01*
X100810272Y-83053220D01*
X100810273Y-83053221D01*
X100810276Y-83053225D01*
X100897431Y-83140380D01*
X100905699Y-83155011D01*
X100916803Y-83165485D01*
X100924777Y-83188769D01*
X100930096Y-83198180D01*
X100933300Y-83211084D01*
X100933300Y-83216509D01*
X100951362Y-83283916D01*
X100951650Y-83284993D01*
X100951662Y-83285039D01*
X100963999Y-83331084D01*
X100977884Y-83355133D01*
X101023311Y-83433814D01*
X101023313Y-83433816D01*
X101336745Y-83747248D01*
X101370230Y-83808571D01*
X101365246Y-83878263D01*
X101323374Y-83934196D01*
X101296520Y-83949489D01*
X101268191Y-83961223D01*
X101268182Y-83961228D01*
X101153458Y-84037885D01*
X101153454Y-84037888D01*
X101055888Y-84135454D01*
X101055885Y-84135458D01*
X100979228Y-84250182D01*
X100979221Y-84250195D01*
X100926421Y-84377667D01*
X100926418Y-84377677D01*
X100899500Y-84513004D01*
X100899500Y-84513007D01*
X100899500Y-84650993D01*
X100899500Y-84650995D01*
X100899499Y-84650995D01*
X100926418Y-84786322D01*
X100926421Y-84786332D01*
X100979221Y-84913804D01*
X100979228Y-84913817D01*
X101055885Y-85028541D01*
X101055888Y-85028545D01*
X101153454Y-85126111D01*
X101153458Y-85126114D01*
X101268182Y-85202771D01*
X101268195Y-85202778D01*
X101366165Y-85243358D01*
X101395672Y-85255580D01*
X101395676Y-85255580D01*
X101395677Y-85255581D01*
X101531004Y-85282500D01*
X101531007Y-85282500D01*
X101668995Y-85282500D01*
X101780428Y-85260334D01*
X101804328Y-85255580D01*
X101915988Y-85209329D01*
X101931804Y-85202778D01*
X101931804Y-85202777D01*
X101931811Y-85202775D01*
X102046542Y-85126114D01*
X102094046Y-85078610D01*
X102147319Y-85025338D01*
X102155264Y-85020999D01*
X102160690Y-85013752D01*
X102185449Y-85004517D01*
X102208642Y-84991853D01*
X102217671Y-84992498D01*
X102226154Y-84989335D01*
X102251974Y-84994951D01*
X102278334Y-84996837D01*
X102287387Y-85002655D01*
X102294427Y-85004187D01*
X102322681Y-85025338D01*
X102426662Y-85129319D01*
X102460147Y-85190642D01*
X102455163Y-85260334D01*
X102426662Y-85304681D01*
X102325888Y-85405454D01*
X102325885Y-85405458D01*
X102249228Y-85520182D01*
X102249221Y-85520195D01*
X102196421Y-85647667D01*
X102196418Y-85647677D01*
X102169500Y-85783004D01*
X102169500Y-85783007D01*
X102169500Y-85920993D01*
X102169500Y-85920995D01*
X102169499Y-85920995D01*
X102196418Y-86056322D01*
X102196421Y-86056332D01*
X102249221Y-86183804D01*
X102249228Y-86183817D01*
X102308637Y-86272728D01*
X102329515Y-86339406D01*
X102311031Y-86406786D01*
X102293216Y-86429300D01*
X102284578Y-86437937D01*
X102225448Y-86477448D01*
X102185937Y-86536578D01*
X102177300Y-86545216D01*
X102156923Y-86556342D01*
X102139108Y-86571231D01*
X102126834Y-86572772D01*
X102115977Y-86578701D01*
X102092818Y-86577044D01*
X102069783Y-86579938D01*
X102055679Y-86574388D01*
X102046285Y-86573717D01*
X102037769Y-86567341D01*
X102020728Y-86560637D01*
X101931817Y-86501228D01*
X101931804Y-86501221D01*
X101804332Y-86448421D01*
X101804322Y-86448418D01*
X101668995Y-86421500D01*
X101668993Y-86421500D01*
X101531007Y-86421500D01*
X101531005Y-86421500D01*
X101395677Y-86448418D01*
X101395667Y-86448421D01*
X101268195Y-86501221D01*
X101268182Y-86501228D01*
X101153458Y-86577885D01*
X101153454Y-86577888D01*
X101055888Y-86675454D01*
X101055885Y-86675458D01*
X100979228Y-86790182D01*
X100979221Y-86790195D01*
X100926421Y-86917667D01*
X100926418Y-86917677D01*
X100899500Y-87053004D01*
X100899500Y-87053007D01*
X100899500Y-87190993D01*
X100899500Y-87190995D01*
X100899499Y-87190995D01*
X100926418Y-87326322D01*
X100926421Y-87326332D01*
X100979221Y-87453804D01*
X100979228Y-87453817D01*
X101055885Y-87568541D01*
X101055888Y-87568545D01*
X101153454Y-87666111D01*
X101153458Y-87666114D01*
X101268185Y-87742773D01*
X101268187Y-87742774D01*
X101268189Y-87742775D01*
X101294928Y-87753850D01*
X101339204Y-87784972D01*
X101348188Y-87794848D01*
X101359540Y-87814511D01*
X101431846Y-87886817D01*
X101433809Y-87888975D01*
X101447860Y-87917877D01*
X101463247Y-87946056D01*
X101463030Y-87949081D01*
X101464358Y-87951812D01*
X101460553Y-87983713D01*
X101458263Y-88015748D01*
X101456444Y-88018177D01*
X101456085Y-88021191D01*
X101435637Y-88045971D01*
X101416391Y-88071681D01*
X101412072Y-88074530D01*
X101411616Y-88075083D01*
X101410874Y-88075320D01*
X101404087Y-88079798D01*
X101400422Y-88081913D01*
X101400416Y-88081918D01*
X101316546Y-88165788D01*
X101316544Y-88165791D01*
X101257233Y-88268518D01*
X101257233Y-88268520D01*
X101254719Y-88277898D01*
X101254720Y-88277899D01*
X101238172Y-88339659D01*
X101226533Y-88383096D01*
X101226533Y-88501714D01*
X101249041Y-88585713D01*
X101249040Y-88585713D01*
X101249041Y-88585715D01*
X101257233Y-88616290D01*
X101257232Y-88616290D01*
X101287442Y-88668613D01*
X101316544Y-88719019D01*
X102162814Y-89565289D01*
X102162815Y-89565290D01*
X102162817Y-89565291D01*
X102181165Y-89575884D01*
X102199901Y-89586701D01*
X102205758Y-89590082D01*
X102205760Y-89590084D01*
X102205761Y-89590084D01*
X102265542Y-89624599D01*
X102380119Y-89655300D01*
X102660367Y-89655300D01*
X102727406Y-89674985D01*
X102773161Y-89727789D01*
X102783105Y-89796947D01*
X102754080Y-89860503D01*
X102748048Y-89866981D01*
X102261848Y-90353181D01*
X102200525Y-90386666D01*
X102174167Y-90389500D01*
X100730247Y-90389500D01*
X100671770Y-90401131D01*
X100671769Y-90401132D01*
X100605447Y-90445447D01*
X100561132Y-90511769D01*
X100561131Y-90511770D01*
X100549500Y-90570247D01*
X100549500Y-92309752D01*
X100561131Y-92368229D01*
X100561132Y-92368230D01*
X100605447Y-92434552D01*
X100671769Y-92478867D01*
X100671770Y-92478868D01*
X100730247Y-92490499D01*
X100730250Y-92490500D01*
X100730252Y-92490500D01*
X102469750Y-92490500D01*
X102469751Y-92490499D01*
X102484568Y-92487552D01*
X102528229Y-92478868D01*
X102528229Y-92478867D01*
X102528231Y-92478867D01*
X102594552Y-92434552D01*
X102638867Y-92368231D01*
X102638867Y-92368229D01*
X102638868Y-92368229D01*
X102650499Y-92309752D01*
X102650500Y-92309750D01*
X102650500Y-90865833D01*
X102670185Y-90798794D01*
X102686819Y-90778152D01*
X103364552Y-90100419D01*
X103425875Y-90066934D01*
X103452233Y-90064100D01*
X104791567Y-90064100D01*
X104858606Y-90083785D01*
X104904361Y-90136589D01*
X104914305Y-90205747D01*
X104885280Y-90269303D01*
X104879267Y-90275760D01*
X104745980Y-90409048D01*
X104702104Y-90452924D01*
X104640780Y-90486408D01*
X104571089Y-90481424D01*
X104566971Y-90479803D01*
X104446424Y-90429871D01*
X104446412Y-90429868D01*
X104243469Y-90389500D01*
X104243465Y-90389500D01*
X104036535Y-90389500D01*
X104036530Y-90389500D01*
X103833587Y-90429868D01*
X103833579Y-90429870D01*
X103642403Y-90509058D01*
X103470342Y-90624024D01*
X103324024Y-90770342D01*
X103209058Y-90942403D01*
X103129870Y-91133579D01*
X103129868Y-91133587D01*
X103089500Y-91336530D01*
X103089500Y-91543469D01*
X103129868Y-91746412D01*
X103129870Y-91746420D01*
X103209058Y-91937596D01*
X103324024Y-92109657D01*
X103470342Y-92255975D01*
X103470345Y-92255977D01*
X103642402Y-92370941D01*
X103833580Y-92450130D01*
X103978052Y-92478867D01*
X104036530Y-92490499D01*
X104036534Y-92490500D01*
X104036535Y-92490500D01*
X104243466Y-92490500D01*
X104243467Y-92490499D01*
X104446420Y-92450130D01*
X104637598Y-92370941D01*
X104809655Y-92255977D01*
X104955977Y-92109655D01*
X105070941Y-91937598D01*
X105150130Y-91746420D01*
X105190500Y-91543465D01*
X105190500Y-91336535D01*
X105150130Y-91133580D01*
X105100194Y-91013026D01*
X105092726Y-90943559D01*
X105124001Y-90881080D01*
X105127044Y-90877926D01*
X105498152Y-90506819D01*
X105559475Y-90473334D01*
X105585833Y-90470500D01*
X105864505Y-90470500D01*
X105931544Y-90490185D01*
X105977299Y-90542989D01*
X105987243Y-90612147D01*
X105958218Y-90675703D01*
X105952186Y-90682181D01*
X105864025Y-90770341D01*
X105864024Y-90770342D01*
X105749058Y-90942403D01*
X105669870Y-91133579D01*
X105669868Y-91133587D01*
X105629500Y-91336530D01*
X105629500Y-91543469D01*
X105669868Y-91746412D01*
X105669870Y-91746420D01*
X105749058Y-91937596D01*
X105864024Y-92109657D01*
X106010342Y-92255975D01*
X106010345Y-92255977D01*
X106182402Y-92370941D01*
X106373580Y-92450130D01*
X106518052Y-92478867D01*
X106576530Y-92490499D01*
X106576534Y-92490500D01*
X106576535Y-92490500D01*
X106783466Y-92490500D01*
X106783467Y-92490499D01*
X106986420Y-92450130D01*
X107177598Y-92370941D01*
X107349655Y-92255977D01*
X107495977Y-92109655D01*
X107610941Y-91937598D01*
X107682705Y-91764344D01*
X107726546Y-91709942D01*
X107735255Y-91704417D01*
X107776751Y-91680460D01*
X107832700Y-91624511D01*
X107963029Y-91494181D01*
X108024349Y-91460698D01*
X108094041Y-91465682D01*
X108149975Y-91507553D01*
X108172325Y-91557673D01*
X108209868Y-91746412D01*
X108209870Y-91746420D01*
X108289058Y-91937596D01*
X108404024Y-92109657D01*
X108550342Y-92255975D01*
X108550345Y-92255977D01*
X108722402Y-92370941D01*
X108913580Y-92450130D01*
X109058052Y-92478867D01*
X109116530Y-92490499D01*
X109116534Y-92490500D01*
X109116535Y-92490500D01*
X109135654Y-92490500D01*
X109180438Y-92502500D01*
X109259562Y-92502500D01*
X109304346Y-92490500D01*
X109323465Y-92490500D01*
X109323466Y-92490500D01*
X109323467Y-92490499D01*
X109526420Y-92450130D01*
X109717598Y-92370941D01*
X109889655Y-92255977D01*
X110035977Y-92109655D01*
X110150941Y-91937598D01*
X110230130Y-91746420D01*
X110270500Y-91543465D01*
X110270500Y-91336535D01*
X110230130Y-91133580D01*
X110150941Y-90942402D01*
X110035977Y-90770345D01*
X110035975Y-90770342D01*
X109889658Y-90624025D01*
X109889654Y-90624022D01*
X109721930Y-90511952D01*
X109677125Y-90458340D01*
X109668418Y-90389015D01*
X109698573Y-90325987D01*
X109703120Y-90321189D01*
X111640348Y-88383961D01*
X111701670Y-88350478D01*
X111771362Y-88355462D01*
X111827295Y-88397334D01*
X111851712Y-88462798D01*
X111850967Y-88487827D01*
X111846300Y-88523280D01*
X111846300Y-88971916D01*
X111852731Y-89020771D01*
X111852732Y-89020773D01*
X111890843Y-89102502D01*
X111897835Y-89117495D01*
X111908327Y-89186572D01*
X111879807Y-89250356D01*
X111821331Y-89288596D01*
X111785453Y-89293900D01*
X111634483Y-89293900D01*
X111585628Y-89300331D01*
X111478395Y-89350335D01*
X111394735Y-89433995D01*
X111344731Y-89541228D01*
X111338300Y-89590082D01*
X111338300Y-90038716D01*
X111344731Y-90087571D01*
X111387676Y-90179665D01*
X111394735Y-90194804D01*
X111420975Y-90221044D01*
X111446963Y-90247032D01*
X111480447Y-90308356D01*
X111475462Y-90378048D01*
X111433591Y-90433981D01*
X111406734Y-90449274D01*
X111262403Y-90509057D01*
X111090342Y-90624024D01*
X110944024Y-90770342D01*
X110829058Y-90942403D01*
X110749870Y-91133579D01*
X110749868Y-91133587D01*
X110709500Y-91336530D01*
X110709500Y-91543469D01*
X110749868Y-91746412D01*
X110749870Y-91746420D01*
X110829058Y-91937596D01*
X110944024Y-92109657D01*
X111090342Y-92255975D01*
X111090345Y-92255977D01*
X111262402Y-92370941D01*
X111453580Y-92450130D01*
X111598052Y-92478867D01*
X111656530Y-92490499D01*
X111656534Y-92490500D01*
X111656535Y-92490500D01*
X111863466Y-92490500D01*
X111863467Y-92490499D01*
X112066420Y-92450130D01*
X112257598Y-92370941D01*
X112429655Y-92255977D01*
X112575977Y-92109655D01*
X112690941Y-91937598D01*
X112770130Y-91746420D01*
X112810500Y-91543465D01*
X112810500Y-91524345D01*
X112822500Y-91479562D01*
X112822500Y-91400438D01*
X112810500Y-91355654D01*
X112810500Y-91336535D01*
X112770130Y-91133580D01*
X112690941Y-90942402D01*
X112575977Y-90770345D01*
X112575975Y-90770342D01*
X112429655Y-90624022D01*
X112257604Y-90509062D01*
X112257594Y-90509057D01*
X112185847Y-90479338D01*
X112170282Y-90466794D01*
X112152097Y-90458490D01*
X112143632Y-90445319D01*
X112131443Y-90435496D01*
X112125130Y-90416528D01*
X112114323Y-90399712D01*
X112110360Y-90372149D01*
X112109379Y-90369202D01*
X112109300Y-90364777D01*
X112109300Y-90359731D01*
X112128985Y-90292692D01*
X112145619Y-90272050D01*
X112230536Y-90187133D01*
X112233364Y-90189961D01*
X112271777Y-90159243D01*
X112341274Y-90152035D01*
X112403635Y-90183543D01*
X112406893Y-90187303D01*
X112407064Y-90187133D01*
X112414735Y-90194804D01*
X112498396Y-90278465D01*
X112605627Y-90328468D01*
X112654483Y-90334900D01*
X112654484Y-90334900D01*
X113003117Y-90334900D01*
X113023420Y-90332227D01*
X113051973Y-90328468D01*
X113159204Y-90278465D01*
X113242865Y-90194804D01*
X113292868Y-90087573D01*
X113299300Y-90038716D01*
X113299300Y-89590084D01*
X113299061Y-89588271D01*
X113292868Y-89541228D01*
X113282220Y-89518394D01*
X113247764Y-89444503D01*
X113237273Y-89375428D01*
X113265793Y-89311644D01*
X113324269Y-89273404D01*
X113360147Y-89268100D01*
X113511117Y-89268100D01*
X113529756Y-89265646D01*
X113559973Y-89261668D01*
X113667204Y-89211665D01*
X113750865Y-89128004D01*
X113762757Y-89102499D01*
X113808927Y-89050061D01*
X113876120Y-89030908D01*
X113883548Y-89031189D01*
X113895579Y-89032006D01*
X113955638Y-89048100D01*
X114034762Y-89048100D01*
X114054505Y-89042809D01*
X114075081Y-89044208D01*
X114078043Y-89045301D01*
X114082865Y-89044985D01*
X114088289Y-89045699D01*
X114088291Y-89045700D01*
X114088293Y-89045700D01*
X114206906Y-89045700D01*
X114206909Y-89045700D01*
X114321486Y-89014999D01*
X114359663Y-88992956D01*
X114427563Y-88976483D01*
X114493590Y-88999334D01*
X114516752Y-89020754D01*
X114527181Y-89033214D01*
X114547135Y-89076004D01*
X114630796Y-89159665D01*
X114634448Y-89161368D01*
X114646705Y-89176011D01*
X114654388Y-89193625D01*
X114666383Y-89208642D01*
X114668069Y-89224991D01*
X114674639Y-89240053D01*
X114671579Y-89259023D01*
X114673552Y-89278142D01*
X114666132Y-89292806D01*
X114663516Y-89309031D01*
X114650684Y-89323338D01*
X114642008Y-89340486D01*
X114638301Y-89343698D01*
X114638467Y-89343864D01*
X114547135Y-89435195D01*
X114497131Y-89542428D01*
X114490700Y-89591283D01*
X114490700Y-89809767D01*
X114471015Y-89876806D01*
X114454381Y-89897448D01*
X114059541Y-90292287D01*
X114059537Y-90292292D01*
X114019980Y-90360807D01*
X114019979Y-90360809D01*
X114018286Y-90367129D01*
X113981919Y-90426788D01*
X113945965Y-90449592D01*
X113802404Y-90509057D01*
X113630342Y-90624024D01*
X113484024Y-90770342D01*
X113369058Y-90942403D01*
X113289870Y-91133579D01*
X113289868Y-91133587D01*
X113249500Y-91336530D01*
X113249500Y-91543469D01*
X113289868Y-91746412D01*
X113289870Y-91746420D01*
X113369058Y-91937596D01*
X113484024Y-92109657D01*
X113630342Y-92255975D01*
X113630345Y-92255977D01*
X113802402Y-92370941D01*
X113993580Y-92450130D01*
X114138052Y-92478867D01*
X114196530Y-92490499D01*
X114196534Y-92490500D01*
X114196535Y-92490500D01*
X114215654Y-92490500D01*
X114260438Y-92502500D01*
X114339562Y-92502500D01*
X114384346Y-92490500D01*
X114403465Y-92490500D01*
X114403466Y-92490500D01*
X114403467Y-92490499D01*
X114606420Y-92450130D01*
X114797598Y-92370941D01*
X114969655Y-92255977D01*
X115115977Y-92109655D01*
X115230941Y-91937598D01*
X115310130Y-91746420D01*
X115350500Y-91543465D01*
X115350500Y-91336535D01*
X115310130Y-91133580D01*
X115230941Y-90942402D01*
X115115977Y-90770345D01*
X115115975Y-90770342D01*
X114969658Y-90624025D01*
X114969650Y-90624019D01*
X114860354Y-90550990D01*
X114846845Y-90534826D01*
X114829976Y-90522198D01*
X114824886Y-90508551D01*
X114815548Y-90497378D01*
X114812922Y-90476473D01*
X114805560Y-90456733D01*
X114808655Y-90442502D01*
X114806841Y-90428053D01*
X114815933Y-90409048D01*
X114820412Y-90388461D01*
X114835295Y-90368579D01*
X114836995Y-90365026D01*
X114841536Y-90360234D01*
X114929353Y-90272416D01*
X114990676Y-90238934D01*
X115017033Y-90236100D01*
X115235517Y-90236100D01*
X115251801Y-90233956D01*
X115284373Y-90229668D01*
X115391604Y-90179665D01*
X115475265Y-90096004D01*
X115483018Y-90079376D01*
X115529190Y-90026938D01*
X115596384Y-90007786D01*
X115663265Y-90028002D01*
X115684275Y-90045311D01*
X115698910Y-90060353D01*
X115715535Y-90096004D01*
X115799196Y-90179665D01*
X115828116Y-90193151D01*
X115843975Y-90209450D01*
X115850101Y-90221044D01*
X115859943Y-90229710D01*
X115866313Y-90251727D01*
X115876616Y-90271226D01*
X115875554Y-90283667D01*
X115879100Y-90295921D01*
X115879100Y-90819162D01*
X115896347Y-90883527D01*
X115900025Y-90897252D01*
X115898362Y-90967102D01*
X115894811Y-90976799D01*
X115829870Y-91133579D01*
X115829868Y-91133587D01*
X115789500Y-91336530D01*
X115789500Y-91543469D01*
X115829868Y-91746412D01*
X115829870Y-91746420D01*
X115909058Y-91937596D01*
X116024024Y-92109657D01*
X116170342Y-92255975D01*
X116170345Y-92255977D01*
X116342402Y-92370941D01*
X116533580Y-92450130D01*
X116678052Y-92478867D01*
X116736530Y-92490499D01*
X116736534Y-92490500D01*
X116736535Y-92490500D01*
X116943466Y-92490500D01*
X116943467Y-92490499D01*
X117146420Y-92450130D01*
X117337598Y-92370941D01*
X117509655Y-92255977D01*
X117655977Y-92109655D01*
X117770941Y-91937598D01*
X117850130Y-91746420D01*
X117890500Y-91543465D01*
X117890500Y-91540671D01*
X117891661Y-91523745D01*
X117892719Y-91516060D01*
X117902500Y-91479562D01*
X117902500Y-91445083D01*
X117903661Y-91436658D01*
X117914641Y-91412236D01*
X117922185Y-91386545D01*
X117928749Y-91380856D01*
X117932312Y-91372933D01*
X117954754Y-91358323D01*
X117974989Y-91340790D01*
X117983690Y-91339486D01*
X117990868Y-91334814D01*
X118015853Y-91334667D01*
X118042694Y-91330646D01*
X118050686Y-91331698D01*
X118050691Y-91331700D01*
X118050696Y-91331700D01*
X118169307Y-91331700D01*
X118169309Y-91331700D01*
X118173402Y-91330603D01*
X118176990Y-91330688D01*
X118177365Y-91330639D01*
X118177372Y-91330697D01*
X118243251Y-91332262D01*
X118301115Y-91371422D01*
X118328622Y-91435650D01*
X118329500Y-91450376D01*
X118329500Y-91543469D01*
X118369868Y-91746412D01*
X118369870Y-91746420D01*
X118449058Y-91937596D01*
X118564024Y-92109657D01*
X118710342Y-92255975D01*
X118710345Y-92255977D01*
X118882402Y-92370941D01*
X119073580Y-92450130D01*
X119218052Y-92478867D01*
X119276530Y-92490499D01*
X119276534Y-92490500D01*
X119276535Y-92490500D01*
X119295654Y-92490500D01*
X119340438Y-92502500D01*
X119419562Y-92502500D01*
X119464346Y-92490500D01*
X119483465Y-92490500D01*
X119483466Y-92490500D01*
X119483467Y-92490499D01*
X119686420Y-92450130D01*
X119877598Y-92370941D01*
X120049655Y-92255977D01*
X120195977Y-92109655D01*
X120310941Y-91937598D01*
X120390130Y-91746420D01*
X120430500Y-91543465D01*
X120430500Y-91336535D01*
X120390130Y-91133580D01*
X120385417Y-91122204D01*
X120377949Y-91052736D01*
X120409224Y-90990257D01*
X120412268Y-90987101D01*
X121129752Y-90269619D01*
X121191075Y-90236134D01*
X121217433Y-90233300D01*
X121435914Y-90233300D01*
X121435916Y-90233300D01*
X121484773Y-90226868D01*
X121592004Y-90176865D01*
X121675665Y-90093204D01*
X121725668Y-89985973D01*
X121732100Y-89937116D01*
X121732100Y-89488484D01*
X121725668Y-89439627D01*
X121723014Y-89430522D01*
X121725292Y-89429857D01*
X121716817Y-89374082D01*
X121745331Y-89310296D01*
X121803805Y-89272052D01*
X121839692Y-89266745D01*
X122190674Y-89266745D01*
X122190676Y-89266745D01*
X122267103Y-89246266D01*
X122335625Y-89206705D01*
X122391574Y-89150756D01*
X122546344Y-88995985D01*
X122591615Y-88967145D01*
X122663293Y-88941058D01*
X122700644Y-88912397D01*
X123102319Y-88510722D01*
X123163642Y-88477237D01*
X123233334Y-88482221D01*
X123277681Y-88510722D01*
X123348156Y-88581197D01*
X123381641Y-88642520D01*
X123384475Y-88668878D01*
X123384475Y-89499191D01*
X123364790Y-89566230D01*
X123348156Y-89586872D01*
X122482104Y-90452923D01*
X122420781Y-90486408D01*
X122351089Y-90481424D01*
X122346971Y-90479803D01*
X122226424Y-90429871D01*
X122226412Y-90429868D01*
X122023469Y-90389500D01*
X122023465Y-90389500D01*
X121816535Y-90389500D01*
X121816530Y-90389500D01*
X121647404Y-90423140D01*
X121647391Y-90423144D01*
X121613580Y-90429870D01*
X121519063Y-90469020D01*
X121519039Y-90469029D01*
X121422402Y-90509058D01*
X121250342Y-90624024D01*
X121104024Y-90770342D01*
X120989058Y-90942403D01*
X120909870Y-91133579D01*
X120909868Y-91133587D01*
X120869500Y-91336530D01*
X120869500Y-91543469D01*
X120909868Y-91746412D01*
X120909870Y-91746420D01*
X120989058Y-91937596D01*
X121104024Y-92109657D01*
X121250342Y-92255975D01*
X121250345Y-92255977D01*
X121422402Y-92370941D01*
X121613580Y-92450130D01*
X121758052Y-92478867D01*
X121816530Y-92490499D01*
X121816534Y-92490500D01*
X121816535Y-92490500D01*
X121835654Y-92490500D01*
X121880438Y-92502500D01*
X121959562Y-92502500D01*
X122004346Y-92490500D01*
X122023465Y-92490500D01*
X122023466Y-92490500D01*
X122023467Y-92490499D01*
X122226420Y-92450130D01*
X122417598Y-92370941D01*
X122589655Y-92255977D01*
X122735977Y-92109655D01*
X122850941Y-91937598D01*
X122930130Y-91746420D01*
X122970500Y-91543465D01*
X122970500Y-91336535D01*
X122930130Y-91133580D01*
X122880194Y-91013026D01*
X122872726Y-90943559D01*
X122904001Y-90881080D01*
X122907046Y-90877924D01*
X123925435Y-89859536D01*
X123928112Y-89854898D01*
X123978678Y-89806682D01*
X124047285Y-89793458D01*
X124112150Y-89819425D01*
X124152679Y-89876338D01*
X124159500Y-89916897D01*
X124159500Y-90344563D01*
X124139815Y-90411602D01*
X124087011Y-90457357D01*
X124082953Y-90459124D01*
X123962404Y-90509057D01*
X123790342Y-90624024D01*
X123644024Y-90770342D01*
X123529058Y-90942403D01*
X123449870Y-91133579D01*
X123449868Y-91133587D01*
X123409500Y-91336530D01*
X123409500Y-91543469D01*
X123449868Y-91746412D01*
X123449870Y-91746420D01*
X123529058Y-91937596D01*
X123644024Y-92109657D01*
X123790342Y-92255975D01*
X123790345Y-92255977D01*
X123962402Y-92370941D01*
X124153580Y-92450130D01*
X124298052Y-92478867D01*
X124356530Y-92490499D01*
X124356534Y-92490500D01*
X124356535Y-92490500D01*
X124375654Y-92490500D01*
X124420438Y-92502500D01*
X124499562Y-92502500D01*
X124544346Y-92490500D01*
X124563465Y-92490500D01*
X124563466Y-92490500D01*
X124563467Y-92490499D01*
X124766420Y-92450130D01*
X124957598Y-92370941D01*
X125129655Y-92255977D01*
X125275977Y-92109655D01*
X125390941Y-91937598D01*
X125470130Y-91746420D01*
X125510500Y-91543465D01*
X125510500Y-91336535D01*
X125470130Y-91133580D01*
X125390941Y-90942402D01*
X125275977Y-90770345D01*
X125275975Y-90770342D01*
X125129657Y-90624024D01*
X124957595Y-90509057D01*
X124837047Y-90459124D01*
X124782643Y-90415282D01*
X124760579Y-90348988D01*
X124760500Y-90344563D01*
X124760500Y-89924833D01*
X124780185Y-89857794D01*
X124832989Y-89812039D01*
X124902147Y-89802095D01*
X124965703Y-89831120D01*
X124972181Y-89837152D01*
X126012924Y-90877895D01*
X126046409Y-90939218D01*
X126041425Y-91008910D01*
X126039804Y-91013029D01*
X125989870Y-91133579D01*
X125989868Y-91133587D01*
X125949500Y-91336530D01*
X125949500Y-91543469D01*
X125989868Y-91746412D01*
X125989870Y-91746420D01*
X126069058Y-91937596D01*
X126184024Y-92109657D01*
X126330342Y-92255975D01*
X126330345Y-92255977D01*
X126502402Y-92370941D01*
X126693580Y-92450130D01*
X126838052Y-92478867D01*
X126896530Y-92490499D01*
X126896534Y-92490500D01*
X126896535Y-92490500D01*
X126915654Y-92490500D01*
X126960438Y-92502500D01*
X127039562Y-92502500D01*
X127084346Y-92490500D01*
X127103465Y-92490500D01*
X127103466Y-92490500D01*
X127103467Y-92490499D01*
X127306420Y-92450130D01*
X127497598Y-92370941D01*
X127669655Y-92255977D01*
X127815977Y-92109655D01*
X127930941Y-91937598D01*
X128002417Y-91765038D01*
X128046256Y-91710637D01*
X128112551Y-91688572D01*
X128178976Y-91705106D01*
X128204804Y-91720017D01*
X128204811Y-91720021D01*
X128281238Y-91740500D01*
X128444564Y-91740500D01*
X128511603Y-91760185D01*
X128557358Y-91812989D01*
X128559125Y-91817047D01*
X128609058Y-91937596D01*
X128724024Y-92109657D01*
X128870342Y-92255975D01*
X128870345Y-92255977D01*
X129042402Y-92370941D01*
X129233580Y-92450130D01*
X129378052Y-92478867D01*
X129436530Y-92490499D01*
X129436534Y-92490500D01*
X129436535Y-92490500D01*
X129643466Y-92490500D01*
X129643467Y-92490499D01*
X129846420Y-92450130D01*
X130037598Y-92370941D01*
X130209655Y-92255977D01*
X130355977Y-92109655D01*
X130470941Y-91937598D01*
X130550130Y-91746420D01*
X130590500Y-91543465D01*
X130590500Y-91336535D01*
X130590499Y-91336530D01*
X131029500Y-91336530D01*
X131029500Y-91543469D01*
X131069868Y-91746412D01*
X131069870Y-91746420D01*
X131149058Y-91937596D01*
X131264024Y-92109657D01*
X131410342Y-92255975D01*
X131410345Y-92255977D01*
X131582402Y-92370941D01*
X131773580Y-92450130D01*
X131918052Y-92478867D01*
X131976530Y-92490499D01*
X131976534Y-92490500D01*
X131976535Y-92490500D01*
X132183466Y-92490500D01*
X132183467Y-92490499D01*
X132386420Y-92450130D01*
X132577598Y-92370941D01*
X132749655Y-92255977D01*
X132895977Y-92109655D01*
X133010941Y-91937598D01*
X133090130Y-91746420D01*
X133130500Y-91543465D01*
X133130500Y-91336535D01*
X133090130Y-91133580D01*
X133033487Y-90996834D01*
X133026019Y-90927366D01*
X133057294Y-90864886D01*
X133117383Y-90829234D01*
X133187208Y-90831728D01*
X133235730Y-90861701D01*
X133546036Y-91172007D01*
X133579521Y-91233330D01*
X133579973Y-91283876D01*
X133569500Y-91336533D01*
X133569500Y-91543469D01*
X133609868Y-91746412D01*
X133609870Y-91746420D01*
X133689058Y-91937596D01*
X133804024Y-92109657D01*
X133950342Y-92255975D01*
X133950345Y-92255977D01*
X134122402Y-92370941D01*
X134313580Y-92450130D01*
X134458052Y-92478867D01*
X134516530Y-92490499D01*
X134516534Y-92490500D01*
X134516535Y-92490500D01*
X134535654Y-92490500D01*
X134580438Y-92502500D01*
X134659562Y-92502500D01*
X134704346Y-92490500D01*
X134723465Y-92490500D01*
X134723466Y-92490500D01*
X134723467Y-92490499D01*
X134926420Y-92450130D01*
X135117598Y-92370941D01*
X135289655Y-92255977D01*
X135435977Y-92109655D01*
X135550941Y-91937598D01*
X135630130Y-91746420D01*
X135670500Y-91543465D01*
X135670500Y-91336535D01*
X135630130Y-91133580D01*
X135550941Y-90942402D01*
X135435977Y-90770345D01*
X135435975Y-90770342D01*
X135289657Y-90624024D01*
X135180616Y-90551166D01*
X135117598Y-90509059D01*
X135117593Y-90509057D01*
X134926420Y-90429870D01*
X134926412Y-90429868D01*
X134723469Y-90389500D01*
X134723465Y-90389500D01*
X134516535Y-90389500D01*
X134516530Y-90389500D01*
X134313587Y-90429868D01*
X134313579Y-90429870D01*
X134122400Y-90509059D01*
X133973603Y-90608482D01*
X133906926Y-90629360D01*
X133839546Y-90610875D01*
X133817032Y-90593061D01*
X133138319Y-89914348D01*
X133104834Y-89853025D01*
X133102000Y-89826667D01*
X133102000Y-89793193D01*
X133102000Y-89793191D01*
X133071299Y-89678614D01*
X133011989Y-89575887D01*
X132928113Y-89492011D01*
X132825386Y-89432701D01*
X132710809Y-89402000D01*
X132592191Y-89402000D01*
X132477614Y-89432701D01*
X132477612Y-89432701D01*
X132477612Y-89432702D01*
X132374887Y-89492011D01*
X132374884Y-89492013D01*
X132291013Y-89575884D01*
X132291011Y-89575887D01*
X132231701Y-89678614D01*
X132201000Y-89793191D01*
X132201000Y-89911809D01*
X132231701Y-90026386D01*
X132291011Y-90129113D01*
X132291013Y-90129115D01*
X132353710Y-90191812D01*
X132387195Y-90253135D01*
X132382211Y-90322827D01*
X132340339Y-90378760D01*
X132274875Y-90403177D01*
X132241839Y-90401111D01*
X132210169Y-90394811D01*
X132183465Y-90389500D01*
X131976535Y-90389500D01*
X131976530Y-90389500D01*
X131773587Y-90429868D01*
X131773579Y-90429870D01*
X131582403Y-90509058D01*
X131410342Y-90624024D01*
X131264024Y-90770342D01*
X131149058Y-90942403D01*
X131069870Y-91133579D01*
X131069868Y-91133587D01*
X131029500Y-91336530D01*
X130590499Y-91336530D01*
X130550130Y-91133580D01*
X130470941Y-90942402D01*
X130355977Y-90770345D01*
X130355975Y-90770342D01*
X130209657Y-90624024D01*
X130100616Y-90551166D01*
X130037598Y-90509059D01*
X130037593Y-90509057D01*
X129846420Y-90429870D01*
X129846412Y-90429868D01*
X129643469Y-90389500D01*
X129643465Y-90389500D01*
X129436535Y-90389500D01*
X129436530Y-90389500D01*
X129233587Y-90429868D01*
X129233579Y-90429870D01*
X129042403Y-90509058D01*
X128870342Y-90624024D01*
X128724025Y-90770341D01*
X128671401Y-90849098D01*
X128617788Y-90893902D01*
X128548463Y-90902609D01*
X128485436Y-90872454D01*
X128480618Y-90867887D01*
X127661270Y-90048539D01*
X127644255Y-90038716D01*
X127641302Y-90037011D01*
X127617025Y-90022995D01*
X127592750Y-90008979D01*
X127567273Y-90002152D01*
X127516322Y-89988500D01*
X127516320Y-89988500D01*
X126913833Y-89988500D01*
X126846794Y-89968815D01*
X126826152Y-89952181D01*
X125598819Y-88724848D01*
X125565334Y-88663525D01*
X125562500Y-88637167D01*
X125562500Y-88118492D01*
X125557227Y-88098812D01*
X125542021Y-88042064D01*
X125539110Y-88037022D01*
X125502464Y-87973548D01*
X125502458Y-87973540D01*
X125418557Y-87889639D01*
X125413626Y-87882191D01*
X125409029Y-87878941D01*
X125401314Y-87863594D01*
X125391278Y-87848435D01*
X125388428Y-87841387D01*
X125379781Y-87809112D01*
X125365099Y-87783682D01*
X125361853Y-87775653D01*
X125359855Y-87755459D01*
X125352813Y-87729176D01*
X125352813Y-87698085D01*
X125352813Y-87698084D01*
X125332334Y-87621657D01*
X125319625Y-87599645D01*
X125303015Y-87537648D01*
X125303015Y-87499616D01*
X125303014Y-87499611D01*
X125264360Y-87393408D01*
X125264360Y-87393407D01*
X125235704Y-87356062D01*
X125235696Y-87356053D01*
X124751255Y-86871612D01*
X124751246Y-86871604D01*
X124713901Y-86842948D01*
X124626950Y-86811302D01*
X124626538Y-86810998D01*
X124626025Y-86810962D01*
X124598407Y-86790287D01*
X124570686Y-86769877D01*
X124570502Y-86769397D01*
X124570092Y-86769090D01*
X124558053Y-86736812D01*
X124545749Y-86704609D01*
X124545854Y-86704106D01*
X124545675Y-86703626D01*
X124552997Y-86669966D01*
X124560058Y-86636220D01*
X124560454Y-86635685D01*
X124560527Y-86635353D01*
X124581678Y-86607099D01*
X124698167Y-86490610D01*
X124759490Y-86457125D01*
X124829182Y-86462109D01*
X124885115Y-86503981D01*
X124902370Y-86535882D01*
X124934016Y-86622832D01*
X124934016Y-86622833D01*
X124962672Y-86660178D01*
X124962680Y-86660187D01*
X125447121Y-87144628D01*
X125447130Y-87144636D01*
X125480800Y-87170472D01*
X125484474Y-87173291D01*
X125556153Y-87199378D01*
X125601424Y-87228220D01*
X126370664Y-87997460D01*
X126439187Y-88037022D01*
X126515613Y-88057500D01*
X127589558Y-88057500D01*
X127656597Y-88077185D01*
X127677239Y-88093819D01*
X127739387Y-88155967D01*
X127842114Y-88215277D01*
X127956691Y-88245978D01*
X127956694Y-88245978D01*
X128075306Y-88245978D01*
X128075309Y-88245978D01*
X128189886Y-88215277D01*
X128292613Y-88155967D01*
X128316283Y-88132297D01*
X128377606Y-88098812D01*
X128403964Y-88095978D01*
X128755022Y-88095978D01*
X128822061Y-88115663D01*
X128867816Y-88168467D01*
X128877760Y-88237625D01*
X128854792Y-88293611D01*
X128821209Y-88339113D01*
X128821206Y-88339119D01*
X128776353Y-88467298D01*
X128776353Y-88467300D01*
X128773500Y-88497730D01*
X128773500Y-89556269D01*
X128776353Y-89586699D01*
X128776353Y-89586701D01*
X128821206Y-89714880D01*
X128821207Y-89714882D01*
X128901850Y-89824150D01*
X129011118Y-89904793D01*
X129053845Y-89919744D01*
X129139299Y-89949646D01*
X129169730Y-89952500D01*
X129169734Y-89952500D01*
X129778270Y-89952500D01*
X129808699Y-89949646D01*
X129808701Y-89949646D01*
X129879611Y-89924833D01*
X129936882Y-89904793D01*
X130046150Y-89824150D01*
X130126793Y-89714882D01*
X130158079Y-89625471D01*
X130171646Y-89586701D01*
X130171646Y-89586699D01*
X130174500Y-89556269D01*
X130174500Y-88497730D01*
X130171646Y-88467300D01*
X130171646Y-88467298D01*
X130126793Y-88339119D01*
X130126792Y-88339117D01*
X130126789Y-88339113D01*
X130046150Y-88229850D01*
X129936882Y-88149207D01*
X129900496Y-88136475D01*
X129834567Y-88113405D01*
X129777792Y-88072683D01*
X129755749Y-88028462D01*
X129754021Y-88022011D01*
X129753548Y-88021191D01*
X129714464Y-87953495D01*
X129714458Y-87953487D01*
X129518630Y-87757659D01*
X129508017Y-87738222D01*
X129493517Y-87721489D01*
X129491600Y-87708157D01*
X129485145Y-87696336D01*
X129486724Y-87674249D01*
X129483573Y-87652331D01*
X129489168Y-87640079D01*
X129490129Y-87626644D01*
X129503399Y-87608917D01*
X129512598Y-87588775D01*
X129523929Y-87581492D01*
X129532001Y-87570711D01*
X129552746Y-87562973D01*
X129571376Y-87551001D01*
X129593294Y-87547849D01*
X129597465Y-87546294D01*
X129606311Y-87545978D01*
X129854500Y-87545978D01*
X129921539Y-87565663D01*
X129967294Y-87618467D01*
X129978500Y-87669978D01*
X129978500Y-87689309D01*
X130009201Y-87803886D01*
X130068511Y-87906613D01*
X130152387Y-87990489D01*
X130255114Y-88049799D01*
X130369691Y-88080500D01*
X130369694Y-88080500D01*
X130488306Y-88080500D01*
X130488309Y-88080500D01*
X130602886Y-88049799D01*
X130705613Y-87990489D01*
X130789489Y-87906613D01*
X130848799Y-87803886D01*
X130879500Y-87689309D01*
X130879500Y-87570691D01*
X130848799Y-87456114D01*
X130789489Y-87353387D01*
X130705613Y-87269511D01*
X130602886Y-87210201D01*
X130488309Y-87179500D01*
X130488306Y-87179500D01*
X130454833Y-87179500D01*
X130425392Y-87170855D01*
X130395406Y-87164332D01*
X130390390Y-87160577D01*
X130387794Y-87159815D01*
X130367152Y-87143181D01*
X130234536Y-87010565D01*
X130201051Y-86949242D01*
X130206035Y-86879550D01*
X130234536Y-86835203D01*
X131304456Y-85765283D01*
X131304460Y-85765279D01*
X131308040Y-85759078D01*
X131344021Y-85696757D01*
X131364500Y-85620330D01*
X131364500Y-84990307D01*
X131384185Y-84923268D01*
X131436989Y-84877513D01*
X131506147Y-84867569D01*
X131550500Y-84882920D01*
X131601314Y-84912258D01*
X131715891Y-84942959D01*
X131715894Y-84942959D01*
X131834506Y-84942959D01*
X131834509Y-84942959D01*
X131949086Y-84912258D01*
X132051813Y-84852948D01*
X132075483Y-84829278D01*
X132102410Y-84814574D01*
X132128229Y-84797982D01*
X132134429Y-84797090D01*
X132136806Y-84795793D01*
X132163164Y-84792959D01*
X132191655Y-84792959D01*
X132258694Y-84812644D01*
X132304449Y-84865448D01*
X132313272Y-84892766D01*
X132316116Y-84907062D01*
X132319133Y-84922231D01*
X132363447Y-84988552D01*
X132429769Y-85032867D01*
X132429770Y-85032868D01*
X132488247Y-85044499D01*
X132488250Y-85044500D01*
X132488252Y-85044500D01*
X133627749Y-85044500D01*
X133669701Y-85036155D01*
X133739292Y-85042382D01*
X133794470Y-85085244D01*
X133817715Y-85151134D01*
X133801648Y-85219131D01*
X133781574Y-85245453D01*
X133419848Y-85607181D01*
X133358525Y-85640666D01*
X133332167Y-85643500D01*
X132488247Y-85643500D01*
X132429770Y-85655131D01*
X132429769Y-85655132D01*
X132363447Y-85699447D01*
X132319132Y-85765769D01*
X132319131Y-85765770D01*
X132307500Y-85824247D01*
X132307500Y-85908178D01*
X132287815Y-85975217D01*
X132235011Y-86020972D01*
X132165853Y-86030916D01*
X132151408Y-86027953D01*
X132088510Y-86011100D01*
X132088509Y-86011100D01*
X131969891Y-86011100D01*
X131855314Y-86041801D01*
X131855312Y-86041801D01*
X131855312Y-86041802D01*
X131752587Y-86101111D01*
X131752584Y-86101113D01*
X131668713Y-86184984D01*
X131668711Y-86184987D01*
X131609910Y-86286833D01*
X131609401Y-86287714D01*
X131578700Y-86402291D01*
X131578700Y-86520909D01*
X131609401Y-86635486D01*
X131667902Y-86736812D01*
X131668713Y-86738216D01*
X131671098Y-86741324D01*
X131672294Y-86744418D01*
X131672775Y-86745251D01*
X131672645Y-86745325D01*
X131696293Y-86806493D01*
X131682255Y-86874938D01*
X131660405Y-86904491D01*
X131592514Y-86972383D01*
X131592511Y-86972387D01*
X131539930Y-87063460D01*
X131533201Y-87075114D01*
X131502500Y-87189691D01*
X131502500Y-87308309D01*
X131533201Y-87422886D01*
X131592511Y-87525613D01*
X131676387Y-87609489D01*
X131779114Y-87668799D01*
X131893691Y-87699500D01*
X131927167Y-87699500D01*
X131994206Y-87719185D01*
X132014848Y-87735819D01*
X132460181Y-88181152D01*
X132493666Y-88242475D01*
X132496500Y-88268833D01*
X132496500Y-88432512D01*
X132515043Y-88501714D01*
X132516979Y-88508939D01*
X132540531Y-88549733D01*
X132543941Y-88555638D01*
X132554300Y-88573581D01*
X132556542Y-88577464D01*
X132556543Y-88577465D01*
X132713694Y-88734615D01*
X132866939Y-88887860D01*
X132922461Y-88919916D01*
X132935458Y-88927420D01*
X132935462Y-88927422D01*
X133011888Y-88947900D01*
X133011890Y-88947900D01*
X133766560Y-88947900D01*
X133766562Y-88947900D01*
X133842989Y-88927421D01*
X133911511Y-88887860D01*
X133967460Y-88831911D01*
X134216152Y-88583217D01*
X134277475Y-88549733D01*
X134303833Y-88546899D01*
X134517895Y-88546899D01*
X134517900Y-88546899D01*
X134567487Y-88540372D01*
X134676316Y-88489624D01*
X134761224Y-88404716D01*
X134811972Y-88295887D01*
X134818500Y-88246301D01*
X134818499Y-87826500D01*
X134811972Y-87776913D01*
X134761224Y-87668084D01*
X134676316Y-87583176D01*
X134674819Y-87581679D01*
X134660115Y-87554751D01*
X134643523Y-87528933D01*
X134642631Y-87522732D01*
X134641334Y-87520356D01*
X134638500Y-87493998D01*
X134638500Y-87468500D01*
X134658185Y-87401461D01*
X134710989Y-87355706D01*
X134762500Y-87344500D01*
X135227750Y-87344500D01*
X135227751Y-87344499D01*
X135242568Y-87341552D01*
X135286229Y-87332868D01*
X135286229Y-87332867D01*
X135286231Y-87332867D01*
X135352552Y-87288552D01*
X135396867Y-87222231D01*
X135396867Y-87222229D01*
X135396868Y-87222229D01*
X135407086Y-87170855D01*
X135408500Y-87163748D01*
X135408500Y-85824252D01*
X135408500Y-85824249D01*
X135408499Y-85824247D01*
X135396868Y-85765770D01*
X135396867Y-85765769D01*
X135352552Y-85699447D01*
X135286230Y-85655132D01*
X135286229Y-85655131D01*
X135227752Y-85643500D01*
X135227748Y-85643500D01*
X134532833Y-85643500D01*
X134465794Y-85623815D01*
X134420039Y-85571011D01*
X134410095Y-85501853D01*
X134439120Y-85438297D01*
X134445152Y-85431819D01*
X134796152Y-85080819D01*
X134857475Y-85047334D01*
X134883833Y-85044500D01*
X135227750Y-85044500D01*
X135227751Y-85044499D01*
X135286231Y-85032867D01*
X135286239Y-85032861D01*
X135289387Y-85031558D01*
X135296856Y-85030754D01*
X135298210Y-85030485D01*
X135298234Y-85030606D01*
X135358856Y-85024083D01*
X135421338Y-85055352D01*
X135424532Y-85058434D01*
X135460987Y-85094889D01*
X135563714Y-85154199D01*
X135678291Y-85184900D01*
X135678294Y-85184900D01*
X135796906Y-85184900D01*
X135796909Y-85184900D01*
X135911486Y-85154199D01*
X136014213Y-85094889D01*
X136098089Y-85011013D01*
X136157399Y-84908286D01*
X136184204Y-84808247D01*
X136187362Y-84803065D01*
X136187796Y-84797009D01*
X136205335Y-84773579D01*
X136220568Y-84748589D01*
X136226029Y-84745935D01*
X136229668Y-84741076D01*
X136257087Y-84730848D01*
X136283415Y-84718060D01*
X136289443Y-84718780D01*
X136295132Y-84716659D01*
X136323732Y-84722880D01*
X136352790Y-84726355D01*
X136358988Y-84730550D01*
X136363405Y-84731511D01*
X136391659Y-84752662D01*
X136405149Y-84766152D01*
X136438634Y-84827475D01*
X136441468Y-84853833D01*
X136441468Y-84914730D01*
X136449032Y-84942959D01*
X136461947Y-84991159D01*
X136461949Y-84991162D01*
X136491140Y-85041722D01*
X136491142Y-85041725D01*
X136496173Y-85050438D01*
X136501508Y-85059679D01*
X136525172Y-85083343D01*
X136529096Y-85088142D01*
X136540376Y-85114837D01*
X136554266Y-85140272D01*
X136555337Y-85150243D01*
X136556292Y-85152501D01*
X136555853Y-85155035D01*
X136557100Y-85166633D01*
X136557100Y-85200109D01*
X136587801Y-85314686D01*
X136647111Y-85417413D01*
X136730987Y-85501289D01*
X136833714Y-85560599D01*
X136948291Y-85591300D01*
X136948294Y-85591300D01*
X137066906Y-85591300D01*
X137066909Y-85591300D01*
X137181486Y-85560599D01*
X137284213Y-85501289D01*
X137368089Y-85417413D01*
X137427399Y-85314686D01*
X137458100Y-85200109D01*
X137458100Y-85081491D01*
X137448467Y-85045540D01*
X137450128Y-84975692D01*
X137489290Y-84917829D01*
X137553518Y-84890324D01*
X137569040Y-84889914D01*
X137569040Y-84889500D01*
X137573098Y-84889499D01*
X137573099Y-84889500D01*
X137992900Y-84889499D01*
X138042487Y-84882972D01*
X138151316Y-84832224D01*
X138236224Y-84747316D01*
X138286972Y-84638487D01*
X138293500Y-84588901D01*
X138293500Y-84551500D01*
X138313185Y-84484461D01*
X138365989Y-84438706D01*
X138417500Y-84427500D01*
X138740500Y-84427500D01*
X138807539Y-84447185D01*
X138853294Y-84499989D01*
X138864500Y-84551500D01*
X138864500Y-84796752D01*
X138876131Y-84855229D01*
X138876132Y-84855230D01*
X138920447Y-84921552D01*
X138986769Y-84965867D01*
X138986770Y-84965868D01*
X139045247Y-84977499D01*
X139045250Y-84977500D01*
X139045252Y-84977500D01*
X139104133Y-84977500D01*
X139171172Y-84997185D01*
X139216927Y-85049989D01*
X139226871Y-85119147D01*
X139225750Y-85125691D01*
X139214500Y-85182247D01*
X139214500Y-85971752D01*
X139227746Y-86038345D01*
X139227038Y-86046249D01*
X139229813Y-86053687D01*
X139223969Y-86080553D01*
X139221519Y-86107937D01*
X139216271Y-86115944D01*
X139214963Y-86121960D01*
X139193812Y-86150215D01*
X139171849Y-86172179D01*
X139110527Y-86205666D01*
X139084166Y-86208500D01*
X139050691Y-86208500D01*
X138936114Y-86239201D01*
X138936112Y-86239201D01*
X138936112Y-86239202D01*
X138833387Y-86298511D01*
X138833384Y-86298513D01*
X138749513Y-86382384D01*
X138749511Y-86382387D01*
X138706361Y-86457125D01*
X138690201Y-86485114D01*
X138659500Y-86599691D01*
X138659500Y-86718309D01*
X138690201Y-86832886D01*
X138749511Y-86935613D01*
X138833387Y-87019489D01*
X138936114Y-87078799D01*
X139050691Y-87109500D01*
X139050694Y-87109500D01*
X139169306Y-87109500D01*
X139169309Y-87109500D01*
X139283886Y-87078799D01*
X139386613Y-87019489D01*
X139470489Y-86935613D01*
X139529799Y-86832886D01*
X139543763Y-86780769D01*
X139580126Y-86721110D01*
X139642972Y-86690580D01*
X139712348Y-86698874D01*
X139766226Y-86743358D01*
X139774433Y-86757383D01*
X139780059Y-86768629D01*
X139784979Y-86786989D01*
X139815087Y-86839137D01*
X139816935Y-86842338D01*
X139816937Y-86842342D01*
X139824539Y-86855511D01*
X139824541Y-86855513D01*
X139947212Y-86978183D01*
X140064540Y-87095511D01*
X140120489Y-87151460D01*
X140120491Y-87151461D01*
X140120495Y-87151464D01*
X140188966Y-87190995D01*
X140189011Y-87191021D01*
X140265438Y-87211500D01*
X140265440Y-87211500D01*
X140911676Y-87211500D01*
X140911678Y-87211500D01*
X140988105Y-87191021D01*
X141056627Y-87151460D01*
X141112576Y-87095511D01*
X141146819Y-87061268D01*
X141208142Y-87027783D01*
X141277834Y-87032767D01*
X141333767Y-87074639D01*
X141358184Y-87140103D01*
X141358500Y-87148949D01*
X141358500Y-88141000D01*
X141338815Y-88208039D01*
X141286011Y-88253794D01*
X141234500Y-88265000D01*
X137834714Y-88265000D01*
X137767675Y-88245315D01*
X137765931Y-88244174D01*
X137297997Y-87932217D01*
X137297989Y-87932213D01*
X137289106Y-87927935D01*
X137246610Y-87907470D01*
X137246608Y-87907469D01*
X137246607Y-87907469D01*
X137155488Y-87899687D01*
X137155485Y-87899688D01*
X137111194Y-87916542D01*
X137070009Y-87932214D01*
X137070008Y-87932214D01*
X137070007Y-87932215D01*
X137070002Y-87932218D01*
X136602069Y-88244174D01*
X136535370Y-88264982D01*
X136533286Y-88265000D01*
X135966200Y-88265000D01*
X135966200Y-92796700D01*
X135946515Y-92863739D01*
X135893711Y-92909494D01*
X135842200Y-92920700D01*
X100319500Y-92920700D01*
X100252461Y-92901015D01*
X100206706Y-92848211D01*
X100195500Y-92796700D01*
X100195500Y-75046500D01*
X100215185Y-74979461D01*
X100267989Y-74933706D01*
X100319500Y-74922500D01*
X100624489Y-74922500D01*
X100691528Y-74942185D01*
G37*
%TD.AperFunction*%
%TD*%
M02*
