%TF.GenerationSoftware,KiCad,Pcbnew,9.0.0*%
%TF.CreationDate,2025-10-21T17:49:49-04:00*%
%TF.ProjectId,SAME51 Board,53414d45-3531-4204-926f-6172642e6b69,rev?*%
%TF.SameCoordinates,Original*%
%TF.FileFunction,Legend,Top*%
%TF.FilePolarity,Positive*%
%FSLAX46Y46*%
G04 Gerber Fmt 4.6, Leading zero omitted, Abs format (unit mm)*
G04 Created by KiCad (PCBNEW 9.0.0) date 2025-10-21 17:49:49*
%MOMM*%
%LPD*%
G01*
G04 APERTURE LIST*
%ADD10C,0.070000*%
%ADD11C,0.040000*%
%ADD12C,0.120000*%
%ADD13C,0.100000*%
%ADD14C,0.150000*%
G04 APERTURE END LIST*
D10*
X138604666Y-88281607D02*
X138604666Y-88567321D01*
X138604666Y-88567321D02*
X138585619Y-88624464D01*
X138585619Y-88624464D02*
X138547523Y-88662560D01*
X138547523Y-88662560D02*
X138490381Y-88681607D01*
X138490381Y-88681607D02*
X138452285Y-88681607D01*
X138795143Y-88681607D02*
X138795143Y-88281607D01*
X138795143Y-88281607D02*
X138947524Y-88281607D01*
X138947524Y-88281607D02*
X138985619Y-88300655D01*
X138985619Y-88300655D02*
X139004666Y-88319702D01*
X139004666Y-88319702D02*
X139023714Y-88357798D01*
X139023714Y-88357798D02*
X139023714Y-88414940D01*
X139023714Y-88414940D02*
X139004666Y-88453036D01*
X139004666Y-88453036D02*
X138985619Y-88472083D01*
X138985619Y-88472083D02*
X138947524Y-88491131D01*
X138947524Y-88491131D02*
X138795143Y-88491131D01*
X139176095Y-88319702D02*
X139195143Y-88300655D01*
X139195143Y-88300655D02*
X139233238Y-88281607D01*
X139233238Y-88281607D02*
X139328476Y-88281607D01*
X139328476Y-88281607D02*
X139366571Y-88300655D01*
X139366571Y-88300655D02*
X139385619Y-88319702D01*
X139385619Y-88319702D02*
X139404666Y-88357798D01*
X139404666Y-88357798D02*
X139404666Y-88395893D01*
X139404666Y-88395893D02*
X139385619Y-88453036D01*
X139385619Y-88453036D02*
X139157047Y-88681607D01*
X139157047Y-88681607D02*
X139404666Y-88681607D01*
X118398933Y-78756312D02*
X118379885Y-78775360D01*
X118379885Y-78775360D02*
X118322743Y-78794407D01*
X118322743Y-78794407D02*
X118284647Y-78794407D01*
X118284647Y-78794407D02*
X118227504Y-78775360D01*
X118227504Y-78775360D02*
X118189409Y-78737264D01*
X118189409Y-78737264D02*
X118170362Y-78699169D01*
X118170362Y-78699169D02*
X118151314Y-78622979D01*
X118151314Y-78622979D02*
X118151314Y-78565836D01*
X118151314Y-78565836D02*
X118170362Y-78489645D01*
X118170362Y-78489645D02*
X118189409Y-78451550D01*
X118189409Y-78451550D02*
X118227504Y-78413455D01*
X118227504Y-78413455D02*
X118284647Y-78394407D01*
X118284647Y-78394407D02*
X118322743Y-78394407D01*
X118322743Y-78394407D02*
X118379885Y-78413455D01*
X118379885Y-78413455D02*
X118398933Y-78432502D01*
X118627504Y-78565836D02*
X118589409Y-78546788D01*
X118589409Y-78546788D02*
X118570362Y-78527740D01*
X118570362Y-78527740D02*
X118551314Y-78489645D01*
X118551314Y-78489645D02*
X118551314Y-78470598D01*
X118551314Y-78470598D02*
X118570362Y-78432502D01*
X118570362Y-78432502D02*
X118589409Y-78413455D01*
X118589409Y-78413455D02*
X118627504Y-78394407D01*
X118627504Y-78394407D02*
X118703695Y-78394407D01*
X118703695Y-78394407D02*
X118741790Y-78413455D01*
X118741790Y-78413455D02*
X118760838Y-78432502D01*
X118760838Y-78432502D02*
X118779885Y-78470598D01*
X118779885Y-78470598D02*
X118779885Y-78489645D01*
X118779885Y-78489645D02*
X118760838Y-78527740D01*
X118760838Y-78527740D02*
X118741790Y-78546788D01*
X118741790Y-78546788D02*
X118703695Y-78565836D01*
X118703695Y-78565836D02*
X118627504Y-78565836D01*
X118627504Y-78565836D02*
X118589409Y-78584883D01*
X118589409Y-78584883D02*
X118570362Y-78603931D01*
X118570362Y-78603931D02*
X118551314Y-78642026D01*
X118551314Y-78642026D02*
X118551314Y-78718217D01*
X118551314Y-78718217D02*
X118570362Y-78756312D01*
X118570362Y-78756312D02*
X118589409Y-78775360D01*
X118589409Y-78775360D02*
X118627504Y-78794407D01*
X118627504Y-78794407D02*
X118703695Y-78794407D01*
X118703695Y-78794407D02*
X118741790Y-78775360D01*
X118741790Y-78775360D02*
X118760838Y-78756312D01*
X118760838Y-78756312D02*
X118779885Y-78718217D01*
X118779885Y-78718217D02*
X118779885Y-78642026D01*
X118779885Y-78642026D02*
X118760838Y-78603931D01*
X118760838Y-78603931D02*
X118741790Y-78584883D01*
X118741790Y-78584883D02*
X118703695Y-78565836D01*
X119059333Y-79645312D02*
X119040285Y-79664360D01*
X119040285Y-79664360D02*
X118983143Y-79683407D01*
X118983143Y-79683407D02*
X118945047Y-79683407D01*
X118945047Y-79683407D02*
X118887904Y-79664360D01*
X118887904Y-79664360D02*
X118849809Y-79626264D01*
X118849809Y-79626264D02*
X118830762Y-79588169D01*
X118830762Y-79588169D02*
X118811714Y-79511979D01*
X118811714Y-79511979D02*
X118811714Y-79454836D01*
X118811714Y-79454836D02*
X118830762Y-79378645D01*
X118830762Y-79378645D02*
X118849809Y-79340550D01*
X118849809Y-79340550D02*
X118887904Y-79302455D01*
X118887904Y-79302455D02*
X118945047Y-79283407D01*
X118945047Y-79283407D02*
X118983143Y-79283407D01*
X118983143Y-79283407D02*
X119040285Y-79302455D01*
X119040285Y-79302455D02*
X119059333Y-79321502D01*
X119249809Y-79683407D02*
X119326000Y-79683407D01*
X119326000Y-79683407D02*
X119364095Y-79664360D01*
X119364095Y-79664360D02*
X119383143Y-79645312D01*
X119383143Y-79645312D02*
X119421238Y-79588169D01*
X119421238Y-79588169D02*
X119440285Y-79511979D01*
X119440285Y-79511979D02*
X119440285Y-79359598D01*
X119440285Y-79359598D02*
X119421238Y-79321502D01*
X119421238Y-79321502D02*
X119402190Y-79302455D01*
X119402190Y-79302455D02*
X119364095Y-79283407D01*
X119364095Y-79283407D02*
X119287904Y-79283407D01*
X119287904Y-79283407D02*
X119249809Y-79302455D01*
X119249809Y-79302455D02*
X119230762Y-79321502D01*
X119230762Y-79321502D02*
X119211714Y-79359598D01*
X119211714Y-79359598D02*
X119211714Y-79454836D01*
X119211714Y-79454836D02*
X119230762Y-79492931D01*
X119230762Y-79492931D02*
X119249809Y-79511979D01*
X119249809Y-79511979D02*
X119287904Y-79531026D01*
X119287904Y-79531026D02*
X119364095Y-79531026D01*
X119364095Y-79531026D02*
X119402190Y-79511979D01*
X119402190Y-79511979D02*
X119421238Y-79492931D01*
X119421238Y-79492931D02*
X119440285Y-79454836D01*
X128457333Y-87646312D02*
X128438285Y-87665360D01*
X128438285Y-87665360D02*
X128381143Y-87684407D01*
X128381143Y-87684407D02*
X128343047Y-87684407D01*
X128343047Y-87684407D02*
X128285904Y-87665360D01*
X128285904Y-87665360D02*
X128247809Y-87627264D01*
X128247809Y-87627264D02*
X128228762Y-87589169D01*
X128228762Y-87589169D02*
X128209714Y-87512979D01*
X128209714Y-87512979D02*
X128209714Y-87455836D01*
X128209714Y-87455836D02*
X128228762Y-87379645D01*
X128228762Y-87379645D02*
X128247809Y-87341550D01*
X128247809Y-87341550D02*
X128285904Y-87303455D01*
X128285904Y-87303455D02*
X128343047Y-87284407D01*
X128343047Y-87284407D02*
X128381143Y-87284407D01*
X128381143Y-87284407D02*
X128438285Y-87303455D01*
X128438285Y-87303455D02*
X128457333Y-87322502D01*
X128590666Y-87284407D02*
X128857333Y-87284407D01*
X128857333Y-87284407D02*
X128685904Y-87684407D01*
X133587666Y-79283407D02*
X133587666Y-79569121D01*
X133587666Y-79569121D02*
X133568619Y-79626264D01*
X133568619Y-79626264D02*
X133530523Y-79664360D01*
X133530523Y-79664360D02*
X133473381Y-79683407D01*
X133473381Y-79683407D02*
X133435285Y-79683407D01*
X133778143Y-79683407D02*
X133778143Y-79283407D01*
X133778143Y-79283407D02*
X133930524Y-79283407D01*
X133930524Y-79283407D02*
X133968619Y-79302455D01*
X133968619Y-79302455D02*
X133987666Y-79321502D01*
X133987666Y-79321502D02*
X134006714Y-79359598D01*
X134006714Y-79359598D02*
X134006714Y-79416740D01*
X134006714Y-79416740D02*
X133987666Y-79454836D01*
X133987666Y-79454836D02*
X133968619Y-79473883D01*
X133968619Y-79473883D02*
X133930524Y-79492931D01*
X133930524Y-79492931D02*
X133778143Y-79492931D01*
X134387666Y-79683407D02*
X134159095Y-79683407D01*
X134273381Y-79683407D02*
X134273381Y-79283407D01*
X134273381Y-79283407D02*
X134235285Y-79340550D01*
X134235285Y-79340550D02*
X134197190Y-79378645D01*
X134197190Y-79378645D02*
X134159095Y-79397693D01*
X117344857Y-82236112D02*
X117325809Y-82255160D01*
X117325809Y-82255160D02*
X117268667Y-82274207D01*
X117268667Y-82274207D02*
X117230571Y-82274207D01*
X117230571Y-82274207D02*
X117173428Y-82255160D01*
X117173428Y-82255160D02*
X117135333Y-82217064D01*
X117135333Y-82217064D02*
X117116286Y-82178969D01*
X117116286Y-82178969D02*
X117097238Y-82102779D01*
X117097238Y-82102779D02*
X117097238Y-82045636D01*
X117097238Y-82045636D02*
X117116286Y-81969445D01*
X117116286Y-81969445D02*
X117135333Y-81931350D01*
X117135333Y-81931350D02*
X117173428Y-81893255D01*
X117173428Y-81893255D02*
X117230571Y-81874207D01*
X117230571Y-81874207D02*
X117268667Y-81874207D01*
X117268667Y-81874207D02*
X117325809Y-81893255D01*
X117325809Y-81893255D02*
X117344857Y-81912302D01*
X117725809Y-82274207D02*
X117497238Y-82274207D01*
X117611524Y-82274207D02*
X117611524Y-81874207D01*
X117611524Y-81874207D02*
X117573428Y-81931350D01*
X117573428Y-81931350D02*
X117535333Y-81969445D01*
X117535333Y-81969445D02*
X117497238Y-81988493D01*
X117973428Y-81874207D02*
X118011523Y-81874207D01*
X118011523Y-81874207D02*
X118049619Y-81893255D01*
X118049619Y-81893255D02*
X118068666Y-81912302D01*
X118068666Y-81912302D02*
X118087714Y-81950398D01*
X118087714Y-81950398D02*
X118106761Y-82026588D01*
X118106761Y-82026588D02*
X118106761Y-82121826D01*
X118106761Y-82121826D02*
X118087714Y-82198017D01*
X118087714Y-82198017D02*
X118068666Y-82236112D01*
X118068666Y-82236112D02*
X118049619Y-82255160D01*
X118049619Y-82255160D02*
X118011523Y-82274207D01*
X118011523Y-82274207D02*
X117973428Y-82274207D01*
X117973428Y-82274207D02*
X117935333Y-82255160D01*
X117935333Y-82255160D02*
X117916285Y-82236112D01*
X117916285Y-82236112D02*
X117897238Y-82198017D01*
X117897238Y-82198017D02*
X117878190Y-82121826D01*
X117878190Y-82121826D02*
X117878190Y-82026588D01*
X117878190Y-82026588D02*
X117897238Y-81950398D01*
X117897238Y-81950398D02*
X117916285Y-81912302D01*
X117916285Y-81912302D02*
X117935333Y-81893255D01*
X117935333Y-81893255D02*
X117973428Y-81874207D01*
X114804857Y-79696112D02*
X114785809Y-79715160D01*
X114785809Y-79715160D02*
X114728667Y-79734207D01*
X114728667Y-79734207D02*
X114690571Y-79734207D01*
X114690571Y-79734207D02*
X114633428Y-79715160D01*
X114633428Y-79715160D02*
X114595333Y-79677064D01*
X114595333Y-79677064D02*
X114576286Y-79638969D01*
X114576286Y-79638969D02*
X114557238Y-79562779D01*
X114557238Y-79562779D02*
X114557238Y-79505636D01*
X114557238Y-79505636D02*
X114576286Y-79429445D01*
X114576286Y-79429445D02*
X114595333Y-79391350D01*
X114595333Y-79391350D02*
X114633428Y-79353255D01*
X114633428Y-79353255D02*
X114690571Y-79334207D01*
X114690571Y-79334207D02*
X114728667Y-79334207D01*
X114728667Y-79334207D02*
X114785809Y-79353255D01*
X114785809Y-79353255D02*
X114804857Y-79372302D01*
X115185809Y-79734207D02*
X114957238Y-79734207D01*
X115071524Y-79734207D02*
X115071524Y-79334207D01*
X115071524Y-79334207D02*
X115033428Y-79391350D01*
X115033428Y-79391350D02*
X114995333Y-79429445D01*
X114995333Y-79429445D02*
X114957238Y-79448493D01*
X115338190Y-79372302D02*
X115357238Y-79353255D01*
X115357238Y-79353255D02*
X115395333Y-79334207D01*
X115395333Y-79334207D02*
X115490571Y-79334207D01*
X115490571Y-79334207D02*
X115528666Y-79353255D01*
X115528666Y-79353255D02*
X115547714Y-79372302D01*
X115547714Y-79372302D02*
X115566761Y-79410398D01*
X115566761Y-79410398D02*
X115566761Y-79448493D01*
X115566761Y-79448493D02*
X115547714Y-79505636D01*
X115547714Y-79505636D02*
X115319142Y-79734207D01*
X115319142Y-79734207D02*
X115566761Y-79734207D01*
X115820857Y-82236112D02*
X115801809Y-82255160D01*
X115801809Y-82255160D02*
X115744667Y-82274207D01*
X115744667Y-82274207D02*
X115706571Y-82274207D01*
X115706571Y-82274207D02*
X115649428Y-82255160D01*
X115649428Y-82255160D02*
X115611333Y-82217064D01*
X115611333Y-82217064D02*
X115592286Y-82178969D01*
X115592286Y-82178969D02*
X115573238Y-82102779D01*
X115573238Y-82102779D02*
X115573238Y-82045636D01*
X115573238Y-82045636D02*
X115592286Y-81969445D01*
X115592286Y-81969445D02*
X115611333Y-81931350D01*
X115611333Y-81931350D02*
X115649428Y-81893255D01*
X115649428Y-81893255D02*
X115706571Y-81874207D01*
X115706571Y-81874207D02*
X115744667Y-81874207D01*
X115744667Y-81874207D02*
X115801809Y-81893255D01*
X115801809Y-81893255D02*
X115820857Y-81912302D01*
X116201809Y-82274207D02*
X115973238Y-82274207D01*
X116087524Y-82274207D02*
X116087524Y-81874207D01*
X116087524Y-81874207D02*
X116049428Y-81931350D01*
X116049428Y-81931350D02*
X116011333Y-81969445D01*
X116011333Y-81969445D02*
X115973238Y-81988493D01*
X116582761Y-82274207D02*
X116354190Y-82274207D01*
X116468476Y-82274207D02*
X116468476Y-81874207D01*
X116468476Y-81874207D02*
X116430380Y-81931350D01*
X116430380Y-81931350D02*
X116392285Y-81969445D01*
X116392285Y-81969445D02*
X116354190Y-81988493D01*
X114379807Y-89919142D02*
X114189331Y-90052475D01*
X114379807Y-90147713D02*
X113979807Y-90147713D01*
X113979807Y-90147713D02*
X113979807Y-89995332D01*
X113979807Y-89995332D02*
X113998855Y-89957237D01*
X113998855Y-89957237D02*
X114017902Y-89938190D01*
X114017902Y-89938190D02*
X114055998Y-89919142D01*
X114055998Y-89919142D02*
X114113140Y-89919142D01*
X114113140Y-89919142D02*
X114151236Y-89938190D01*
X114151236Y-89938190D02*
X114170283Y-89957237D01*
X114170283Y-89957237D02*
X114189331Y-89995332D01*
X114189331Y-89995332D02*
X114189331Y-90147713D01*
X114379807Y-89538190D02*
X114379807Y-89766761D01*
X114379807Y-89652475D02*
X113979807Y-89652475D01*
X113979807Y-89652475D02*
X114036950Y-89690571D01*
X114036950Y-89690571D02*
X114075045Y-89728666D01*
X114075045Y-89728666D02*
X114094093Y-89766761D01*
X114379807Y-89157238D02*
X114379807Y-89385809D01*
X114379807Y-89271523D02*
X113979807Y-89271523D01*
X113979807Y-89271523D02*
X114036950Y-89309619D01*
X114036950Y-89309619D02*
X114075045Y-89347714D01*
X114075045Y-89347714D02*
X114094093Y-89385809D01*
X118513257Y-89081407D02*
X118379924Y-88890931D01*
X118284686Y-89081407D02*
X118284686Y-88681407D01*
X118284686Y-88681407D02*
X118437067Y-88681407D01*
X118437067Y-88681407D02*
X118475162Y-88700455D01*
X118475162Y-88700455D02*
X118494209Y-88719502D01*
X118494209Y-88719502D02*
X118513257Y-88757598D01*
X118513257Y-88757598D02*
X118513257Y-88814740D01*
X118513257Y-88814740D02*
X118494209Y-88852836D01*
X118494209Y-88852836D02*
X118475162Y-88871883D01*
X118475162Y-88871883D02*
X118437067Y-88890931D01*
X118437067Y-88890931D02*
X118284686Y-88890931D01*
X118894209Y-89081407D02*
X118665638Y-89081407D01*
X118779924Y-89081407D02*
X118779924Y-88681407D01*
X118779924Y-88681407D02*
X118741828Y-88738550D01*
X118741828Y-88738550D02*
X118703733Y-88776645D01*
X118703733Y-88776645D02*
X118665638Y-88795693D01*
X119122780Y-88852836D02*
X119084685Y-88833788D01*
X119084685Y-88833788D02*
X119065638Y-88814740D01*
X119065638Y-88814740D02*
X119046590Y-88776645D01*
X119046590Y-88776645D02*
X119046590Y-88757598D01*
X119046590Y-88757598D02*
X119065638Y-88719502D01*
X119065638Y-88719502D02*
X119084685Y-88700455D01*
X119084685Y-88700455D02*
X119122780Y-88681407D01*
X119122780Y-88681407D02*
X119198971Y-88681407D01*
X119198971Y-88681407D02*
X119237066Y-88700455D01*
X119237066Y-88700455D02*
X119256114Y-88719502D01*
X119256114Y-88719502D02*
X119275161Y-88757598D01*
X119275161Y-88757598D02*
X119275161Y-88776645D01*
X119275161Y-88776645D02*
X119256114Y-88814740D01*
X119256114Y-88814740D02*
X119237066Y-88833788D01*
X119237066Y-88833788D02*
X119198971Y-88852836D01*
X119198971Y-88852836D02*
X119122780Y-88852836D01*
X119122780Y-88852836D02*
X119084685Y-88871883D01*
X119084685Y-88871883D02*
X119065638Y-88890931D01*
X119065638Y-88890931D02*
X119046590Y-88929026D01*
X119046590Y-88929026D02*
X119046590Y-89005217D01*
X119046590Y-89005217D02*
X119065638Y-89043312D01*
X119065638Y-89043312D02*
X119084685Y-89062360D01*
X119084685Y-89062360D02*
X119122780Y-89081407D01*
X119122780Y-89081407D02*
X119198971Y-89081407D01*
X119198971Y-89081407D02*
X119237066Y-89062360D01*
X119237066Y-89062360D02*
X119256114Y-89043312D01*
X119256114Y-89043312D02*
X119275161Y-89005217D01*
X119275161Y-89005217D02*
X119275161Y-88929026D01*
X119275161Y-88929026D02*
X119256114Y-88890931D01*
X119256114Y-88890931D02*
X119237066Y-88871883D01*
X119237066Y-88871883D02*
X119198971Y-88852836D01*
X117192457Y-88065407D02*
X117059124Y-87874931D01*
X116963886Y-88065407D02*
X116963886Y-87665407D01*
X116963886Y-87665407D02*
X117116267Y-87665407D01*
X117116267Y-87665407D02*
X117154362Y-87684455D01*
X117154362Y-87684455D02*
X117173409Y-87703502D01*
X117173409Y-87703502D02*
X117192457Y-87741598D01*
X117192457Y-87741598D02*
X117192457Y-87798740D01*
X117192457Y-87798740D02*
X117173409Y-87836836D01*
X117173409Y-87836836D02*
X117154362Y-87855883D01*
X117154362Y-87855883D02*
X117116267Y-87874931D01*
X117116267Y-87874931D02*
X116963886Y-87874931D01*
X117573409Y-88065407D02*
X117344838Y-88065407D01*
X117459124Y-88065407D02*
X117459124Y-87665407D01*
X117459124Y-87665407D02*
X117421028Y-87722550D01*
X117421028Y-87722550D02*
X117382933Y-87760645D01*
X117382933Y-87760645D02*
X117344838Y-87779693D01*
X117706742Y-87665407D02*
X117973409Y-87665407D01*
X117973409Y-87665407D02*
X117801980Y-88065407D01*
X113738057Y-87049407D02*
X113604724Y-86858931D01*
X113509486Y-87049407D02*
X113509486Y-86649407D01*
X113509486Y-86649407D02*
X113661867Y-86649407D01*
X113661867Y-86649407D02*
X113699962Y-86668455D01*
X113699962Y-86668455D02*
X113719009Y-86687502D01*
X113719009Y-86687502D02*
X113738057Y-86725598D01*
X113738057Y-86725598D02*
X113738057Y-86782740D01*
X113738057Y-86782740D02*
X113719009Y-86820836D01*
X113719009Y-86820836D02*
X113699962Y-86839883D01*
X113699962Y-86839883D02*
X113661867Y-86858931D01*
X113661867Y-86858931D02*
X113509486Y-86858931D01*
X114119009Y-87049407D02*
X113890438Y-87049407D01*
X114004724Y-87049407D02*
X114004724Y-86649407D01*
X114004724Y-86649407D02*
X113966628Y-86706550D01*
X113966628Y-86706550D02*
X113928533Y-86744645D01*
X113928533Y-86744645D02*
X113890438Y-86763693D01*
X114461866Y-86649407D02*
X114385676Y-86649407D01*
X114385676Y-86649407D02*
X114347580Y-86668455D01*
X114347580Y-86668455D02*
X114328533Y-86687502D01*
X114328533Y-86687502D02*
X114290438Y-86744645D01*
X114290438Y-86744645D02*
X114271390Y-86820836D01*
X114271390Y-86820836D02*
X114271390Y-86973217D01*
X114271390Y-86973217D02*
X114290438Y-87011312D01*
X114290438Y-87011312D02*
X114309485Y-87030360D01*
X114309485Y-87030360D02*
X114347580Y-87049407D01*
X114347580Y-87049407D02*
X114423771Y-87049407D01*
X114423771Y-87049407D02*
X114461866Y-87030360D01*
X114461866Y-87030360D02*
X114480914Y-87011312D01*
X114480914Y-87011312D02*
X114499961Y-86973217D01*
X114499961Y-86973217D02*
X114499961Y-86877979D01*
X114499961Y-86877979D02*
X114480914Y-86839883D01*
X114480914Y-86839883D02*
X114461866Y-86820836D01*
X114461866Y-86820836D02*
X114423771Y-86801788D01*
X114423771Y-86801788D02*
X114347580Y-86801788D01*
X114347580Y-86801788D02*
X114309485Y-86820836D01*
X114309485Y-86820836D02*
X114290438Y-86839883D01*
X114290438Y-86839883D02*
X114271390Y-86877979D01*
X112061657Y-88116207D02*
X111928324Y-87925731D01*
X111833086Y-88116207D02*
X111833086Y-87716207D01*
X111833086Y-87716207D02*
X111985467Y-87716207D01*
X111985467Y-87716207D02*
X112023562Y-87735255D01*
X112023562Y-87735255D02*
X112042609Y-87754302D01*
X112042609Y-87754302D02*
X112061657Y-87792398D01*
X112061657Y-87792398D02*
X112061657Y-87849540D01*
X112061657Y-87849540D02*
X112042609Y-87887636D01*
X112042609Y-87887636D02*
X112023562Y-87906683D01*
X112023562Y-87906683D02*
X111985467Y-87925731D01*
X111985467Y-87925731D02*
X111833086Y-87925731D01*
X112442609Y-88116207D02*
X112214038Y-88116207D01*
X112328324Y-88116207D02*
X112328324Y-87716207D01*
X112328324Y-87716207D02*
X112290228Y-87773350D01*
X112290228Y-87773350D02*
X112252133Y-87811445D01*
X112252133Y-87811445D02*
X112214038Y-87830493D01*
X112804514Y-87716207D02*
X112614038Y-87716207D01*
X112614038Y-87716207D02*
X112594990Y-87906683D01*
X112594990Y-87906683D02*
X112614038Y-87887636D01*
X112614038Y-87887636D02*
X112652133Y-87868588D01*
X112652133Y-87868588D02*
X112747371Y-87868588D01*
X112747371Y-87868588D02*
X112785466Y-87887636D01*
X112785466Y-87887636D02*
X112804514Y-87906683D01*
X112804514Y-87906683D02*
X112823561Y-87944779D01*
X112823561Y-87944779D02*
X112823561Y-88040017D01*
X112823561Y-88040017D02*
X112804514Y-88078112D01*
X112804514Y-88078112D02*
X112785466Y-88097160D01*
X112785466Y-88097160D02*
X112747371Y-88116207D01*
X112747371Y-88116207D02*
X112652133Y-88116207D01*
X112652133Y-88116207D02*
X112614038Y-88097160D01*
X112614038Y-88097160D02*
X112594990Y-88078112D01*
X116176457Y-84966607D02*
X116043124Y-84776131D01*
X115947886Y-84966607D02*
X115947886Y-84566607D01*
X115947886Y-84566607D02*
X116100267Y-84566607D01*
X116100267Y-84566607D02*
X116138362Y-84585655D01*
X116138362Y-84585655D02*
X116157409Y-84604702D01*
X116157409Y-84604702D02*
X116176457Y-84642798D01*
X116176457Y-84642798D02*
X116176457Y-84699940D01*
X116176457Y-84699940D02*
X116157409Y-84738036D01*
X116157409Y-84738036D02*
X116138362Y-84757083D01*
X116138362Y-84757083D02*
X116100267Y-84776131D01*
X116100267Y-84776131D02*
X115947886Y-84776131D01*
X116557409Y-84966607D02*
X116328838Y-84966607D01*
X116443124Y-84966607D02*
X116443124Y-84566607D01*
X116443124Y-84566607D02*
X116405028Y-84623750D01*
X116405028Y-84623750D02*
X116366933Y-84661845D01*
X116366933Y-84661845D02*
X116328838Y-84680893D01*
X116900266Y-84699940D02*
X116900266Y-84966607D01*
X116805028Y-84547560D02*
X116709790Y-84833274D01*
X116709790Y-84833274D02*
X116957409Y-84833274D01*
X120494457Y-89081407D02*
X120361124Y-88890931D01*
X120265886Y-89081407D02*
X120265886Y-88681407D01*
X120265886Y-88681407D02*
X120418267Y-88681407D01*
X120418267Y-88681407D02*
X120456362Y-88700455D01*
X120456362Y-88700455D02*
X120475409Y-88719502D01*
X120475409Y-88719502D02*
X120494457Y-88757598D01*
X120494457Y-88757598D02*
X120494457Y-88814740D01*
X120494457Y-88814740D02*
X120475409Y-88852836D01*
X120475409Y-88852836D02*
X120456362Y-88871883D01*
X120456362Y-88871883D02*
X120418267Y-88890931D01*
X120418267Y-88890931D02*
X120265886Y-88890931D01*
X120875409Y-89081407D02*
X120646838Y-89081407D01*
X120761124Y-89081407D02*
X120761124Y-88681407D01*
X120761124Y-88681407D02*
X120723028Y-88738550D01*
X120723028Y-88738550D02*
X120684933Y-88776645D01*
X120684933Y-88776645D02*
X120646838Y-88795693D01*
X121008742Y-88681407D02*
X121256361Y-88681407D01*
X121256361Y-88681407D02*
X121123028Y-88833788D01*
X121123028Y-88833788D02*
X121180171Y-88833788D01*
X121180171Y-88833788D02*
X121218266Y-88852836D01*
X121218266Y-88852836D02*
X121237314Y-88871883D01*
X121237314Y-88871883D02*
X121256361Y-88909979D01*
X121256361Y-88909979D02*
X121256361Y-89005217D01*
X121256361Y-89005217D02*
X121237314Y-89043312D01*
X121237314Y-89043312D02*
X121218266Y-89062360D01*
X121218266Y-89062360D02*
X121180171Y-89081407D01*
X121180171Y-89081407D02*
X121065885Y-89081407D01*
X121065885Y-89081407D02*
X121027790Y-89062360D01*
X121027790Y-89062360D02*
X121008742Y-89043312D01*
X115770057Y-88065407D02*
X115636724Y-87874931D01*
X115541486Y-88065407D02*
X115541486Y-87665407D01*
X115541486Y-87665407D02*
X115693867Y-87665407D01*
X115693867Y-87665407D02*
X115731962Y-87684455D01*
X115731962Y-87684455D02*
X115751009Y-87703502D01*
X115751009Y-87703502D02*
X115770057Y-87741598D01*
X115770057Y-87741598D02*
X115770057Y-87798740D01*
X115770057Y-87798740D02*
X115751009Y-87836836D01*
X115751009Y-87836836D02*
X115731962Y-87855883D01*
X115731962Y-87855883D02*
X115693867Y-87874931D01*
X115693867Y-87874931D02*
X115541486Y-87874931D01*
X116151009Y-88065407D02*
X115922438Y-88065407D01*
X116036724Y-88065407D02*
X116036724Y-87665407D01*
X116036724Y-87665407D02*
X115998628Y-87722550D01*
X115998628Y-87722550D02*
X115960533Y-87760645D01*
X115960533Y-87760645D02*
X115922438Y-87779693D01*
X116303390Y-87703502D02*
X116322438Y-87684455D01*
X116322438Y-87684455D02*
X116360533Y-87665407D01*
X116360533Y-87665407D02*
X116455771Y-87665407D01*
X116455771Y-87665407D02*
X116493866Y-87684455D01*
X116493866Y-87684455D02*
X116512914Y-87703502D01*
X116512914Y-87703502D02*
X116531961Y-87741598D01*
X116531961Y-87741598D02*
X116531961Y-87779693D01*
X116531961Y-87779693D02*
X116512914Y-87836836D01*
X116512914Y-87836836D02*
X116284342Y-88065407D01*
X116284342Y-88065407D02*
X116531961Y-88065407D01*
X110486857Y-89995807D02*
X110353524Y-89805331D01*
X110258286Y-89995807D02*
X110258286Y-89595807D01*
X110258286Y-89595807D02*
X110410667Y-89595807D01*
X110410667Y-89595807D02*
X110448762Y-89614855D01*
X110448762Y-89614855D02*
X110467809Y-89633902D01*
X110467809Y-89633902D02*
X110486857Y-89671998D01*
X110486857Y-89671998D02*
X110486857Y-89729140D01*
X110486857Y-89729140D02*
X110467809Y-89767236D01*
X110467809Y-89767236D02*
X110448762Y-89786283D01*
X110448762Y-89786283D02*
X110410667Y-89805331D01*
X110410667Y-89805331D02*
X110258286Y-89805331D01*
X110867809Y-89995807D02*
X110639238Y-89995807D01*
X110753524Y-89995807D02*
X110753524Y-89595807D01*
X110753524Y-89595807D02*
X110715428Y-89652950D01*
X110715428Y-89652950D02*
X110677333Y-89691045D01*
X110677333Y-89691045D02*
X110639238Y-89710093D01*
X111115428Y-89595807D02*
X111153523Y-89595807D01*
X111153523Y-89595807D02*
X111191619Y-89614855D01*
X111191619Y-89614855D02*
X111210666Y-89633902D01*
X111210666Y-89633902D02*
X111229714Y-89671998D01*
X111229714Y-89671998D02*
X111248761Y-89748188D01*
X111248761Y-89748188D02*
X111248761Y-89843426D01*
X111248761Y-89843426D02*
X111229714Y-89919617D01*
X111229714Y-89919617D02*
X111210666Y-89957712D01*
X111210666Y-89957712D02*
X111191619Y-89976760D01*
X111191619Y-89976760D02*
X111153523Y-89995807D01*
X111153523Y-89995807D02*
X111115428Y-89995807D01*
X111115428Y-89995807D02*
X111077333Y-89976760D01*
X111077333Y-89976760D02*
X111058285Y-89957712D01*
X111058285Y-89957712D02*
X111039238Y-89919617D01*
X111039238Y-89919617D02*
X111020190Y-89843426D01*
X111020190Y-89843426D02*
X111020190Y-89748188D01*
X111020190Y-89748188D02*
X111039238Y-89671998D01*
X111039238Y-89671998D02*
X111058285Y-89633902D01*
X111058285Y-89633902D02*
X111077333Y-89614855D01*
X111077333Y-89614855D02*
X111115428Y-89595807D01*
D11*
X101466666Y-89190967D02*
X101466666Y-89476681D01*
X101466666Y-89476681D02*
X101447619Y-89533824D01*
X101447619Y-89533824D02*
X101409523Y-89571920D01*
X101409523Y-89571920D02*
X101352381Y-89590967D01*
X101352381Y-89590967D02*
X101314285Y-89590967D01*
X101866666Y-89590967D02*
X101638095Y-89590967D01*
X101752381Y-89590967D02*
X101752381Y-89190967D01*
X101752381Y-89190967D02*
X101714285Y-89248110D01*
X101714285Y-89248110D02*
X101676190Y-89286205D01*
X101676190Y-89286205D02*
X101638095Y-89305253D01*
D10*
X102101666Y-88598407D02*
X102101666Y-88884121D01*
X102101666Y-88884121D02*
X102082619Y-88941264D01*
X102082619Y-88941264D02*
X102044523Y-88979360D01*
X102044523Y-88979360D02*
X101987381Y-88998407D01*
X101987381Y-88998407D02*
X101949285Y-88998407D01*
X102254047Y-88598407D02*
X102501666Y-88598407D01*
X102501666Y-88598407D02*
X102368333Y-88750788D01*
X102368333Y-88750788D02*
X102425476Y-88750788D01*
X102425476Y-88750788D02*
X102463571Y-88769836D01*
X102463571Y-88769836D02*
X102482619Y-88788883D01*
X102482619Y-88788883D02*
X102501666Y-88826979D01*
X102501666Y-88826979D02*
X102501666Y-88922217D01*
X102501666Y-88922217D02*
X102482619Y-88960312D01*
X102482619Y-88960312D02*
X102463571Y-88979360D01*
X102463571Y-88979360D02*
X102425476Y-88998407D01*
X102425476Y-88998407D02*
X102311190Y-88998407D01*
X102311190Y-88998407D02*
X102273095Y-88979360D01*
X102273095Y-88979360D02*
X102254047Y-88960312D01*
X139226933Y-80699407D02*
X139093600Y-80508931D01*
X138998362Y-80699407D02*
X138998362Y-80299407D01*
X138998362Y-80299407D02*
X139150743Y-80299407D01*
X139150743Y-80299407D02*
X139188838Y-80318455D01*
X139188838Y-80318455D02*
X139207885Y-80337502D01*
X139207885Y-80337502D02*
X139226933Y-80375598D01*
X139226933Y-80375598D02*
X139226933Y-80432740D01*
X139226933Y-80432740D02*
X139207885Y-80470836D01*
X139207885Y-80470836D02*
X139188838Y-80489883D01*
X139188838Y-80489883D02*
X139150743Y-80508931D01*
X139150743Y-80508931D02*
X138998362Y-80508931D01*
X139569790Y-80299407D02*
X139493600Y-80299407D01*
X139493600Y-80299407D02*
X139455504Y-80318455D01*
X139455504Y-80318455D02*
X139436457Y-80337502D01*
X139436457Y-80337502D02*
X139398362Y-80394645D01*
X139398362Y-80394645D02*
X139379314Y-80470836D01*
X139379314Y-80470836D02*
X139379314Y-80623217D01*
X139379314Y-80623217D02*
X139398362Y-80661312D01*
X139398362Y-80661312D02*
X139417409Y-80680360D01*
X139417409Y-80680360D02*
X139455504Y-80699407D01*
X139455504Y-80699407D02*
X139531695Y-80699407D01*
X139531695Y-80699407D02*
X139569790Y-80680360D01*
X139569790Y-80680360D02*
X139588838Y-80661312D01*
X139588838Y-80661312D02*
X139607885Y-80623217D01*
X139607885Y-80623217D02*
X139607885Y-80527979D01*
X139607885Y-80527979D02*
X139588838Y-80489883D01*
X139588838Y-80489883D02*
X139569790Y-80470836D01*
X139569790Y-80470836D02*
X139531695Y-80451788D01*
X139531695Y-80451788D02*
X139455504Y-80451788D01*
X139455504Y-80451788D02*
X139417409Y-80470836D01*
X139417409Y-80470836D02*
X139398362Y-80489883D01*
X139398362Y-80489883D02*
X139379314Y-80527979D01*
X108670762Y-86541407D02*
X108670762Y-86141407D01*
X108670762Y-86141407D02*
X108766000Y-86141407D01*
X108766000Y-86141407D02*
X108823143Y-86160455D01*
X108823143Y-86160455D02*
X108861238Y-86198550D01*
X108861238Y-86198550D02*
X108880285Y-86236645D01*
X108880285Y-86236645D02*
X108899333Y-86312836D01*
X108899333Y-86312836D02*
X108899333Y-86369979D01*
X108899333Y-86369979D02*
X108880285Y-86446169D01*
X108880285Y-86446169D02*
X108861238Y-86484264D01*
X108861238Y-86484264D02*
X108823143Y-86522360D01*
X108823143Y-86522360D02*
X108766000Y-86541407D01*
X108766000Y-86541407D02*
X108670762Y-86541407D01*
X109051714Y-86179502D02*
X109070762Y-86160455D01*
X109070762Y-86160455D02*
X109108857Y-86141407D01*
X109108857Y-86141407D02*
X109204095Y-86141407D01*
X109204095Y-86141407D02*
X109242190Y-86160455D01*
X109242190Y-86160455D02*
X109261238Y-86179502D01*
X109261238Y-86179502D02*
X109280285Y-86217598D01*
X109280285Y-86217598D02*
X109280285Y-86255693D01*
X109280285Y-86255693D02*
X109261238Y-86312836D01*
X109261238Y-86312836D02*
X109032666Y-86541407D01*
X109032666Y-86541407D02*
X109280285Y-86541407D01*
X100136333Y-82693312D02*
X100117285Y-82712360D01*
X100117285Y-82712360D02*
X100060143Y-82731407D01*
X100060143Y-82731407D02*
X100022047Y-82731407D01*
X100022047Y-82731407D02*
X99964904Y-82712360D01*
X99964904Y-82712360D02*
X99926809Y-82674264D01*
X99926809Y-82674264D02*
X99907762Y-82636169D01*
X99907762Y-82636169D02*
X99888714Y-82559979D01*
X99888714Y-82559979D02*
X99888714Y-82502836D01*
X99888714Y-82502836D02*
X99907762Y-82426645D01*
X99907762Y-82426645D02*
X99926809Y-82388550D01*
X99926809Y-82388550D02*
X99964904Y-82350455D01*
X99964904Y-82350455D02*
X100022047Y-82331407D01*
X100022047Y-82331407D02*
X100060143Y-82331407D01*
X100060143Y-82331407D02*
X100117285Y-82350455D01*
X100117285Y-82350455D02*
X100136333Y-82369502D01*
X100269666Y-82331407D02*
X100517285Y-82331407D01*
X100517285Y-82331407D02*
X100383952Y-82483788D01*
X100383952Y-82483788D02*
X100441095Y-82483788D01*
X100441095Y-82483788D02*
X100479190Y-82502836D01*
X100479190Y-82502836D02*
X100498238Y-82521883D01*
X100498238Y-82521883D02*
X100517285Y-82559979D01*
X100517285Y-82559979D02*
X100517285Y-82655217D01*
X100517285Y-82655217D02*
X100498238Y-82693312D01*
X100498238Y-82693312D02*
X100479190Y-82712360D01*
X100479190Y-82712360D02*
X100441095Y-82731407D01*
X100441095Y-82731407D02*
X100326809Y-82731407D01*
X100326809Y-82731407D02*
X100288714Y-82712360D01*
X100288714Y-82712360D02*
X100269666Y-82693312D01*
X106867333Y-78629312D02*
X106848285Y-78648360D01*
X106848285Y-78648360D02*
X106791143Y-78667407D01*
X106791143Y-78667407D02*
X106753047Y-78667407D01*
X106753047Y-78667407D02*
X106695904Y-78648360D01*
X106695904Y-78648360D02*
X106657809Y-78610264D01*
X106657809Y-78610264D02*
X106638762Y-78572169D01*
X106638762Y-78572169D02*
X106619714Y-78495979D01*
X106619714Y-78495979D02*
X106619714Y-78438836D01*
X106619714Y-78438836D02*
X106638762Y-78362645D01*
X106638762Y-78362645D02*
X106657809Y-78324550D01*
X106657809Y-78324550D02*
X106695904Y-78286455D01*
X106695904Y-78286455D02*
X106753047Y-78267407D01*
X106753047Y-78267407D02*
X106791143Y-78267407D01*
X106791143Y-78267407D02*
X106848285Y-78286455D01*
X106848285Y-78286455D02*
X106867333Y-78305502D01*
X107210190Y-78400740D02*
X107210190Y-78667407D01*
X107114952Y-78248360D02*
X107019714Y-78534074D01*
X107019714Y-78534074D02*
X107267333Y-78534074D01*
X105343333Y-90097407D02*
X105210000Y-89906931D01*
X105114762Y-90097407D02*
X105114762Y-89697407D01*
X105114762Y-89697407D02*
X105267143Y-89697407D01*
X105267143Y-89697407D02*
X105305238Y-89716455D01*
X105305238Y-89716455D02*
X105324285Y-89735502D01*
X105324285Y-89735502D02*
X105343333Y-89773598D01*
X105343333Y-89773598D02*
X105343333Y-89830740D01*
X105343333Y-89830740D02*
X105324285Y-89868836D01*
X105324285Y-89868836D02*
X105305238Y-89887883D01*
X105305238Y-89887883D02*
X105267143Y-89906931D01*
X105267143Y-89906931D02*
X105114762Y-89906931D01*
X105571904Y-89868836D02*
X105533809Y-89849788D01*
X105533809Y-89849788D02*
X105514762Y-89830740D01*
X105514762Y-89830740D02*
X105495714Y-89792645D01*
X105495714Y-89792645D02*
X105495714Y-89773598D01*
X105495714Y-89773598D02*
X105514762Y-89735502D01*
X105514762Y-89735502D02*
X105533809Y-89716455D01*
X105533809Y-89716455D02*
X105571904Y-89697407D01*
X105571904Y-89697407D02*
X105648095Y-89697407D01*
X105648095Y-89697407D02*
X105686190Y-89716455D01*
X105686190Y-89716455D02*
X105705238Y-89735502D01*
X105705238Y-89735502D02*
X105724285Y-89773598D01*
X105724285Y-89773598D02*
X105724285Y-89792645D01*
X105724285Y-89792645D02*
X105705238Y-89830740D01*
X105705238Y-89830740D02*
X105686190Y-89849788D01*
X105686190Y-89849788D02*
X105648095Y-89868836D01*
X105648095Y-89868836D02*
X105571904Y-89868836D01*
X105571904Y-89868836D02*
X105533809Y-89887883D01*
X105533809Y-89887883D02*
X105514762Y-89906931D01*
X105514762Y-89906931D02*
X105495714Y-89945026D01*
X105495714Y-89945026D02*
X105495714Y-90021217D01*
X105495714Y-90021217D02*
X105514762Y-90059312D01*
X105514762Y-90059312D02*
X105533809Y-90078360D01*
X105533809Y-90078360D02*
X105571904Y-90097407D01*
X105571904Y-90097407D02*
X105648095Y-90097407D01*
X105648095Y-90097407D02*
X105686190Y-90078360D01*
X105686190Y-90078360D02*
X105705238Y-90059312D01*
X105705238Y-90059312D02*
X105724285Y-90021217D01*
X105724285Y-90021217D02*
X105724285Y-89945026D01*
X105724285Y-89945026D02*
X105705238Y-89906931D01*
X105705238Y-89906931D02*
X105686190Y-89887883D01*
X105686190Y-89887883D02*
X105648095Y-89868836D01*
X105343333Y-89335407D02*
X105210000Y-89144931D01*
X105114762Y-89335407D02*
X105114762Y-88935407D01*
X105114762Y-88935407D02*
X105267143Y-88935407D01*
X105267143Y-88935407D02*
X105305238Y-88954455D01*
X105305238Y-88954455D02*
X105324285Y-88973502D01*
X105324285Y-88973502D02*
X105343333Y-89011598D01*
X105343333Y-89011598D02*
X105343333Y-89068740D01*
X105343333Y-89068740D02*
X105324285Y-89106836D01*
X105324285Y-89106836D02*
X105305238Y-89125883D01*
X105305238Y-89125883D02*
X105267143Y-89144931D01*
X105267143Y-89144931D02*
X105114762Y-89144931D01*
X105476666Y-88935407D02*
X105743333Y-88935407D01*
X105743333Y-88935407D02*
X105571904Y-89335407D01*
X140919238Y-81061407D02*
X140919238Y-81385217D01*
X140919238Y-81385217D02*
X140938285Y-81423312D01*
X140938285Y-81423312D02*
X140957333Y-81442360D01*
X140957333Y-81442360D02*
X140995428Y-81461407D01*
X140995428Y-81461407D02*
X141071619Y-81461407D01*
X141071619Y-81461407D02*
X141109714Y-81442360D01*
X141109714Y-81442360D02*
X141128761Y-81423312D01*
X141128761Y-81423312D02*
X141147809Y-81385217D01*
X141147809Y-81385217D02*
X141147809Y-81061407D01*
X141319238Y-81099502D02*
X141338286Y-81080455D01*
X141338286Y-81080455D02*
X141376381Y-81061407D01*
X141376381Y-81061407D02*
X141471619Y-81061407D01*
X141471619Y-81061407D02*
X141509714Y-81080455D01*
X141509714Y-81080455D02*
X141528762Y-81099502D01*
X141528762Y-81099502D02*
X141547809Y-81137598D01*
X141547809Y-81137598D02*
X141547809Y-81175693D01*
X141547809Y-81175693D02*
X141528762Y-81232836D01*
X141528762Y-81232836D02*
X141300190Y-81461407D01*
X141300190Y-81461407D02*
X141547809Y-81461407D01*
X131248190Y-85379407D02*
X131514857Y-85779407D01*
X131514857Y-85379407D02*
X131248190Y-85779407D01*
X131876761Y-85779407D02*
X131648190Y-85779407D01*
X131762476Y-85779407D02*
X131762476Y-85379407D01*
X131762476Y-85379407D02*
X131724380Y-85436550D01*
X131724380Y-85436550D02*
X131686285Y-85474645D01*
X131686285Y-85474645D02*
X131648190Y-85493693D01*
X100323666Y-78267407D02*
X100323666Y-78553121D01*
X100323666Y-78553121D02*
X100304619Y-78610264D01*
X100304619Y-78610264D02*
X100266523Y-78648360D01*
X100266523Y-78648360D02*
X100209381Y-78667407D01*
X100209381Y-78667407D02*
X100171285Y-78667407D01*
X100495095Y-78305502D02*
X100514143Y-78286455D01*
X100514143Y-78286455D02*
X100552238Y-78267407D01*
X100552238Y-78267407D02*
X100647476Y-78267407D01*
X100647476Y-78267407D02*
X100685571Y-78286455D01*
X100685571Y-78286455D02*
X100704619Y-78305502D01*
X100704619Y-78305502D02*
X100723666Y-78343598D01*
X100723666Y-78343598D02*
X100723666Y-78381693D01*
X100723666Y-78381693D02*
X100704619Y-78438836D01*
X100704619Y-78438836D02*
X100476047Y-78667407D01*
X100476047Y-78667407D02*
X100723666Y-78667407D01*
X100025238Y-79791407D02*
X100025238Y-80115217D01*
X100025238Y-80115217D02*
X100044285Y-80153312D01*
X100044285Y-80153312D02*
X100063333Y-80172360D01*
X100063333Y-80172360D02*
X100101428Y-80191407D01*
X100101428Y-80191407D02*
X100177619Y-80191407D01*
X100177619Y-80191407D02*
X100215714Y-80172360D01*
X100215714Y-80172360D02*
X100234761Y-80153312D01*
X100234761Y-80153312D02*
X100253809Y-80115217D01*
X100253809Y-80115217D02*
X100253809Y-79791407D01*
X100406190Y-79791407D02*
X100653809Y-79791407D01*
X100653809Y-79791407D02*
X100520476Y-79943788D01*
X100520476Y-79943788D02*
X100577619Y-79943788D01*
X100577619Y-79943788D02*
X100615714Y-79962836D01*
X100615714Y-79962836D02*
X100634762Y-79981883D01*
X100634762Y-79981883D02*
X100653809Y-80019979D01*
X100653809Y-80019979D02*
X100653809Y-80115217D01*
X100653809Y-80115217D02*
X100634762Y-80153312D01*
X100634762Y-80153312D02*
X100615714Y-80172360D01*
X100615714Y-80172360D02*
X100577619Y-80191407D01*
X100577619Y-80191407D02*
X100463333Y-80191407D01*
X100463333Y-80191407D02*
X100425238Y-80172360D01*
X100425238Y-80172360D02*
X100406190Y-80153312D01*
X128955652Y-83865831D02*
X129184620Y-84094798D01*
X129184620Y-84094798D02*
X129225026Y-84108267D01*
X129225026Y-84108267D02*
X129251964Y-84108267D01*
X129251964Y-84108267D02*
X129292370Y-84094798D01*
X129292370Y-84094798D02*
X129346244Y-84040924D01*
X129346244Y-84040924D02*
X129359713Y-84000518D01*
X129359713Y-84000518D02*
X129359713Y-83973580D01*
X129359713Y-83973580D02*
X129346244Y-83933174D01*
X129346244Y-83933174D02*
X129117277Y-83704206D01*
X129682962Y-83704206D02*
X129521338Y-83865830D01*
X129602150Y-83785018D02*
X129319307Y-83502175D01*
X129319307Y-83502175D02*
X129332776Y-83569519D01*
X129332776Y-83569519D02*
X129332776Y-83623394D01*
X129332776Y-83623394D02*
X129319307Y-83663800D01*
X132267333Y-88281312D02*
X132248285Y-88300360D01*
X132248285Y-88300360D02*
X132191143Y-88319407D01*
X132191143Y-88319407D02*
X132153047Y-88319407D01*
X132153047Y-88319407D02*
X132095904Y-88300360D01*
X132095904Y-88300360D02*
X132057809Y-88262264D01*
X132057809Y-88262264D02*
X132038762Y-88224169D01*
X132038762Y-88224169D02*
X132019714Y-88147979D01*
X132019714Y-88147979D02*
X132019714Y-88090836D01*
X132019714Y-88090836D02*
X132038762Y-88014645D01*
X132038762Y-88014645D02*
X132057809Y-87976550D01*
X132057809Y-87976550D02*
X132095904Y-87938455D01*
X132095904Y-87938455D02*
X132153047Y-87919407D01*
X132153047Y-87919407D02*
X132191143Y-87919407D01*
X132191143Y-87919407D02*
X132248285Y-87938455D01*
X132248285Y-87938455D02*
X132267333Y-87957502D01*
X132419714Y-87957502D02*
X132438762Y-87938455D01*
X132438762Y-87938455D02*
X132476857Y-87919407D01*
X132476857Y-87919407D02*
X132572095Y-87919407D01*
X132572095Y-87919407D02*
X132610190Y-87938455D01*
X132610190Y-87938455D02*
X132629238Y-87957502D01*
X132629238Y-87957502D02*
X132648285Y-87995598D01*
X132648285Y-87995598D02*
X132648285Y-88033693D01*
X132648285Y-88033693D02*
X132629238Y-88090836D01*
X132629238Y-88090836D02*
X132400666Y-88319407D01*
X132400666Y-88319407D02*
X132648285Y-88319407D01*
X133892933Y-81634912D02*
X133873885Y-81653960D01*
X133873885Y-81653960D02*
X133816743Y-81673007D01*
X133816743Y-81673007D02*
X133778647Y-81673007D01*
X133778647Y-81673007D02*
X133721504Y-81653960D01*
X133721504Y-81653960D02*
X133683409Y-81615864D01*
X133683409Y-81615864D02*
X133664362Y-81577769D01*
X133664362Y-81577769D02*
X133645314Y-81501579D01*
X133645314Y-81501579D02*
X133645314Y-81444436D01*
X133645314Y-81444436D02*
X133664362Y-81368245D01*
X133664362Y-81368245D02*
X133683409Y-81330150D01*
X133683409Y-81330150D02*
X133721504Y-81292055D01*
X133721504Y-81292055D02*
X133778647Y-81273007D01*
X133778647Y-81273007D02*
X133816743Y-81273007D01*
X133816743Y-81273007D02*
X133873885Y-81292055D01*
X133873885Y-81292055D02*
X133892933Y-81311102D01*
X134273885Y-81673007D02*
X134045314Y-81673007D01*
X134159600Y-81673007D02*
X134159600Y-81273007D01*
X134159600Y-81273007D02*
X134121504Y-81330150D01*
X134121504Y-81330150D02*
X134083409Y-81368245D01*
X134083409Y-81368245D02*
X134045314Y-81387293D01*
X136585333Y-84725312D02*
X136566285Y-84744360D01*
X136566285Y-84744360D02*
X136509143Y-84763407D01*
X136509143Y-84763407D02*
X136471047Y-84763407D01*
X136471047Y-84763407D02*
X136413904Y-84744360D01*
X136413904Y-84744360D02*
X136375809Y-84706264D01*
X136375809Y-84706264D02*
X136356762Y-84668169D01*
X136356762Y-84668169D02*
X136337714Y-84591979D01*
X136337714Y-84591979D02*
X136337714Y-84534836D01*
X136337714Y-84534836D02*
X136356762Y-84458645D01*
X136356762Y-84458645D02*
X136375809Y-84420550D01*
X136375809Y-84420550D02*
X136413904Y-84382455D01*
X136413904Y-84382455D02*
X136471047Y-84363407D01*
X136471047Y-84363407D02*
X136509143Y-84363407D01*
X136509143Y-84363407D02*
X136566285Y-84382455D01*
X136566285Y-84382455D02*
X136585333Y-84401502D01*
X136947238Y-84363407D02*
X136756762Y-84363407D01*
X136756762Y-84363407D02*
X136737714Y-84553883D01*
X136737714Y-84553883D02*
X136756762Y-84534836D01*
X136756762Y-84534836D02*
X136794857Y-84515788D01*
X136794857Y-84515788D02*
X136890095Y-84515788D01*
X136890095Y-84515788D02*
X136928190Y-84534836D01*
X136928190Y-84534836D02*
X136947238Y-84553883D01*
X136947238Y-84553883D02*
X136966285Y-84591979D01*
X136966285Y-84591979D02*
X136966285Y-84687217D01*
X136966285Y-84687217D02*
X136947238Y-84725312D01*
X136947238Y-84725312D02*
X136928190Y-84744360D01*
X136928190Y-84744360D02*
X136890095Y-84763407D01*
X136890095Y-84763407D02*
X136794857Y-84763407D01*
X136794857Y-84763407D02*
X136756762Y-84744360D01*
X136756762Y-84744360D02*
X136737714Y-84725312D01*
X104321407Y-82362666D02*
X104130931Y-82495999D01*
X104321407Y-82591237D02*
X103921407Y-82591237D01*
X103921407Y-82591237D02*
X103921407Y-82438856D01*
X103921407Y-82438856D02*
X103940455Y-82400761D01*
X103940455Y-82400761D02*
X103959502Y-82381714D01*
X103959502Y-82381714D02*
X103997598Y-82362666D01*
X103997598Y-82362666D02*
X104054740Y-82362666D01*
X104054740Y-82362666D02*
X104092836Y-82381714D01*
X104092836Y-82381714D02*
X104111883Y-82400761D01*
X104111883Y-82400761D02*
X104130931Y-82438856D01*
X104130931Y-82438856D02*
X104130931Y-82591237D01*
X103959502Y-82210285D02*
X103940455Y-82191237D01*
X103940455Y-82191237D02*
X103921407Y-82153142D01*
X103921407Y-82153142D02*
X103921407Y-82057904D01*
X103921407Y-82057904D02*
X103940455Y-82019809D01*
X103940455Y-82019809D02*
X103959502Y-82000761D01*
X103959502Y-82000761D02*
X103997598Y-81981714D01*
X103997598Y-81981714D02*
X104035693Y-81981714D01*
X104035693Y-81981714D02*
X104092836Y-82000761D01*
X104092836Y-82000761D02*
X104321407Y-82229333D01*
X104321407Y-82229333D02*
X104321407Y-81981714D01*
X136839333Y-81931312D02*
X136820285Y-81950360D01*
X136820285Y-81950360D02*
X136763143Y-81969407D01*
X136763143Y-81969407D02*
X136725047Y-81969407D01*
X136725047Y-81969407D02*
X136667904Y-81950360D01*
X136667904Y-81950360D02*
X136629809Y-81912264D01*
X136629809Y-81912264D02*
X136610762Y-81874169D01*
X136610762Y-81874169D02*
X136591714Y-81797979D01*
X136591714Y-81797979D02*
X136591714Y-81740836D01*
X136591714Y-81740836D02*
X136610762Y-81664645D01*
X136610762Y-81664645D02*
X136629809Y-81626550D01*
X136629809Y-81626550D02*
X136667904Y-81588455D01*
X136667904Y-81588455D02*
X136725047Y-81569407D01*
X136725047Y-81569407D02*
X136763143Y-81569407D01*
X136763143Y-81569407D02*
X136820285Y-81588455D01*
X136820285Y-81588455D02*
X136839333Y-81607502D01*
X137182190Y-81569407D02*
X137106000Y-81569407D01*
X137106000Y-81569407D02*
X137067904Y-81588455D01*
X137067904Y-81588455D02*
X137048857Y-81607502D01*
X137048857Y-81607502D02*
X137010762Y-81664645D01*
X137010762Y-81664645D02*
X136991714Y-81740836D01*
X136991714Y-81740836D02*
X136991714Y-81893217D01*
X136991714Y-81893217D02*
X137010762Y-81931312D01*
X137010762Y-81931312D02*
X137029809Y-81950360D01*
X137029809Y-81950360D02*
X137067904Y-81969407D01*
X137067904Y-81969407D02*
X137144095Y-81969407D01*
X137144095Y-81969407D02*
X137182190Y-81950360D01*
X137182190Y-81950360D02*
X137201238Y-81931312D01*
X137201238Y-81931312D02*
X137220285Y-81893217D01*
X137220285Y-81893217D02*
X137220285Y-81797979D01*
X137220285Y-81797979D02*
X137201238Y-81759883D01*
X137201238Y-81759883D02*
X137182190Y-81740836D01*
X137182190Y-81740836D02*
X137144095Y-81721788D01*
X137144095Y-81721788D02*
X137067904Y-81721788D01*
X137067904Y-81721788D02*
X137029809Y-81740836D01*
X137029809Y-81740836D02*
X137010762Y-81759883D01*
X137010762Y-81759883D02*
X136991714Y-81797979D01*
X107946857Y-81423312D02*
X107927809Y-81442360D01*
X107927809Y-81442360D02*
X107870667Y-81461407D01*
X107870667Y-81461407D02*
X107832571Y-81461407D01*
X107832571Y-81461407D02*
X107775428Y-81442360D01*
X107775428Y-81442360D02*
X107737333Y-81404264D01*
X107737333Y-81404264D02*
X107718286Y-81366169D01*
X107718286Y-81366169D02*
X107699238Y-81289979D01*
X107699238Y-81289979D02*
X107699238Y-81232836D01*
X107699238Y-81232836D02*
X107718286Y-81156645D01*
X107718286Y-81156645D02*
X107737333Y-81118550D01*
X107737333Y-81118550D02*
X107775428Y-81080455D01*
X107775428Y-81080455D02*
X107832571Y-81061407D01*
X107832571Y-81061407D02*
X107870667Y-81061407D01*
X107870667Y-81061407D02*
X107927809Y-81080455D01*
X107927809Y-81080455D02*
X107946857Y-81099502D01*
X108327809Y-81461407D02*
X108099238Y-81461407D01*
X108213524Y-81461407D02*
X108213524Y-81061407D01*
X108213524Y-81061407D02*
X108175428Y-81118550D01*
X108175428Y-81118550D02*
X108137333Y-81156645D01*
X108137333Y-81156645D02*
X108099238Y-81175693D01*
X108461142Y-81061407D02*
X108708761Y-81061407D01*
X108708761Y-81061407D02*
X108575428Y-81213788D01*
X108575428Y-81213788D02*
X108632571Y-81213788D01*
X108632571Y-81213788D02*
X108670666Y-81232836D01*
X108670666Y-81232836D02*
X108689714Y-81251883D01*
X108689714Y-81251883D02*
X108708761Y-81289979D01*
X108708761Y-81289979D02*
X108708761Y-81385217D01*
X108708761Y-81385217D02*
X108689714Y-81423312D01*
X108689714Y-81423312D02*
X108670666Y-81442360D01*
X108670666Y-81442360D02*
X108632571Y-81461407D01*
X108632571Y-81461407D02*
X108518285Y-81461407D01*
X108518285Y-81461407D02*
X108480190Y-81442360D01*
X108480190Y-81442360D02*
X108461142Y-81423312D01*
X107629333Y-79429407D02*
X107496000Y-79238931D01*
X107400762Y-79429407D02*
X107400762Y-79029407D01*
X107400762Y-79029407D02*
X107553143Y-79029407D01*
X107553143Y-79029407D02*
X107591238Y-79048455D01*
X107591238Y-79048455D02*
X107610285Y-79067502D01*
X107610285Y-79067502D02*
X107629333Y-79105598D01*
X107629333Y-79105598D02*
X107629333Y-79162740D01*
X107629333Y-79162740D02*
X107610285Y-79200836D01*
X107610285Y-79200836D02*
X107591238Y-79219883D01*
X107591238Y-79219883D02*
X107553143Y-79238931D01*
X107553143Y-79238931D02*
X107400762Y-79238931D01*
X108010285Y-79429407D02*
X107781714Y-79429407D01*
X107896000Y-79429407D02*
X107896000Y-79029407D01*
X107896000Y-79029407D02*
X107857904Y-79086550D01*
X107857904Y-79086550D02*
X107819809Y-79124645D01*
X107819809Y-79124645D02*
X107781714Y-79143693D01*
X106105333Y-85779407D02*
X105972000Y-85588931D01*
X105876762Y-85779407D02*
X105876762Y-85379407D01*
X105876762Y-85379407D02*
X106029143Y-85379407D01*
X106029143Y-85379407D02*
X106067238Y-85398455D01*
X106067238Y-85398455D02*
X106086285Y-85417502D01*
X106086285Y-85417502D02*
X106105333Y-85455598D01*
X106105333Y-85455598D02*
X106105333Y-85512740D01*
X106105333Y-85512740D02*
X106086285Y-85550836D01*
X106086285Y-85550836D02*
X106067238Y-85569883D01*
X106067238Y-85569883D02*
X106029143Y-85588931D01*
X106029143Y-85588931D02*
X105876762Y-85588931D01*
X106238666Y-85379407D02*
X106486285Y-85379407D01*
X106486285Y-85379407D02*
X106352952Y-85531788D01*
X106352952Y-85531788D02*
X106410095Y-85531788D01*
X106410095Y-85531788D02*
X106448190Y-85550836D01*
X106448190Y-85550836D02*
X106467238Y-85569883D01*
X106467238Y-85569883D02*
X106486285Y-85607979D01*
X106486285Y-85607979D02*
X106486285Y-85703217D01*
X106486285Y-85703217D02*
X106467238Y-85741312D01*
X106467238Y-85741312D02*
X106448190Y-85760360D01*
X106448190Y-85760360D02*
X106410095Y-85779407D01*
X106410095Y-85779407D02*
X106295809Y-85779407D01*
X106295809Y-85779407D02*
X106257714Y-85760360D01*
X106257714Y-85760360D02*
X106238666Y-85741312D01*
X105089333Y-85525407D02*
X104956000Y-85334931D01*
X104860762Y-85525407D02*
X104860762Y-85125407D01*
X104860762Y-85125407D02*
X105013143Y-85125407D01*
X105013143Y-85125407D02*
X105051238Y-85144455D01*
X105051238Y-85144455D02*
X105070285Y-85163502D01*
X105070285Y-85163502D02*
X105089333Y-85201598D01*
X105089333Y-85201598D02*
X105089333Y-85258740D01*
X105089333Y-85258740D02*
X105070285Y-85296836D01*
X105070285Y-85296836D02*
X105051238Y-85315883D01*
X105051238Y-85315883D02*
X105013143Y-85334931D01*
X105013143Y-85334931D02*
X104860762Y-85334931D01*
X105432190Y-85258740D02*
X105432190Y-85525407D01*
X105336952Y-85106360D02*
X105241714Y-85392074D01*
X105241714Y-85392074D02*
X105489333Y-85392074D01*
X106613333Y-83747407D02*
X106480000Y-83556931D01*
X106384762Y-83747407D02*
X106384762Y-83347407D01*
X106384762Y-83347407D02*
X106537143Y-83347407D01*
X106537143Y-83347407D02*
X106575238Y-83366455D01*
X106575238Y-83366455D02*
X106594285Y-83385502D01*
X106594285Y-83385502D02*
X106613333Y-83423598D01*
X106613333Y-83423598D02*
X106613333Y-83480740D01*
X106613333Y-83480740D02*
X106594285Y-83518836D01*
X106594285Y-83518836D02*
X106575238Y-83537883D01*
X106575238Y-83537883D02*
X106537143Y-83556931D01*
X106537143Y-83556931D02*
X106384762Y-83556931D01*
X106975238Y-83347407D02*
X106784762Y-83347407D01*
X106784762Y-83347407D02*
X106765714Y-83537883D01*
X106765714Y-83537883D02*
X106784762Y-83518836D01*
X106784762Y-83518836D02*
X106822857Y-83499788D01*
X106822857Y-83499788D02*
X106918095Y-83499788D01*
X106918095Y-83499788D02*
X106956190Y-83518836D01*
X106956190Y-83518836D02*
X106975238Y-83537883D01*
X106975238Y-83537883D02*
X106994285Y-83575979D01*
X106994285Y-83575979D02*
X106994285Y-83671217D01*
X106994285Y-83671217D02*
X106975238Y-83709312D01*
X106975238Y-83709312D02*
X106956190Y-83728360D01*
X106956190Y-83728360D02*
X106918095Y-83747407D01*
X106918095Y-83747407D02*
X106822857Y-83747407D01*
X106822857Y-83747407D02*
X106784762Y-83728360D01*
X106784762Y-83728360D02*
X106765714Y-83709312D01*
X108670762Y-84509407D02*
X108670762Y-84109407D01*
X108670762Y-84109407D02*
X108766000Y-84109407D01*
X108766000Y-84109407D02*
X108823143Y-84128455D01*
X108823143Y-84128455D02*
X108861238Y-84166550D01*
X108861238Y-84166550D02*
X108880285Y-84204645D01*
X108880285Y-84204645D02*
X108899333Y-84280836D01*
X108899333Y-84280836D02*
X108899333Y-84337979D01*
X108899333Y-84337979D02*
X108880285Y-84414169D01*
X108880285Y-84414169D02*
X108861238Y-84452264D01*
X108861238Y-84452264D02*
X108823143Y-84490360D01*
X108823143Y-84490360D02*
X108766000Y-84509407D01*
X108766000Y-84509407D02*
X108670762Y-84509407D01*
X109280285Y-84509407D02*
X109051714Y-84509407D01*
X109166000Y-84509407D02*
X109166000Y-84109407D01*
X109166000Y-84109407D02*
X109127904Y-84166550D01*
X109127904Y-84166550D02*
X109089809Y-84204645D01*
X109089809Y-84204645D02*
X109051714Y-84223693D01*
X108670762Y-87557407D02*
X108670762Y-87157407D01*
X108670762Y-87157407D02*
X108766000Y-87157407D01*
X108766000Y-87157407D02*
X108823143Y-87176455D01*
X108823143Y-87176455D02*
X108861238Y-87214550D01*
X108861238Y-87214550D02*
X108880285Y-87252645D01*
X108880285Y-87252645D02*
X108899333Y-87328836D01*
X108899333Y-87328836D02*
X108899333Y-87385979D01*
X108899333Y-87385979D02*
X108880285Y-87462169D01*
X108880285Y-87462169D02*
X108861238Y-87500264D01*
X108861238Y-87500264D02*
X108823143Y-87538360D01*
X108823143Y-87538360D02*
X108766000Y-87557407D01*
X108766000Y-87557407D02*
X108670762Y-87557407D01*
X109032666Y-87157407D02*
X109280285Y-87157407D01*
X109280285Y-87157407D02*
X109146952Y-87309788D01*
X109146952Y-87309788D02*
X109204095Y-87309788D01*
X109204095Y-87309788D02*
X109242190Y-87328836D01*
X109242190Y-87328836D02*
X109261238Y-87347883D01*
X109261238Y-87347883D02*
X109280285Y-87385979D01*
X109280285Y-87385979D02*
X109280285Y-87481217D01*
X109280285Y-87481217D02*
X109261238Y-87519312D01*
X109261238Y-87519312D02*
X109242190Y-87538360D01*
X109242190Y-87538360D02*
X109204095Y-87557407D01*
X109204095Y-87557407D02*
X109089809Y-87557407D01*
X109089809Y-87557407D02*
X109051714Y-87538360D01*
X109051714Y-87538360D02*
X109032666Y-87519312D01*
X108670762Y-88573407D02*
X108670762Y-88173407D01*
X108670762Y-88173407D02*
X108766000Y-88173407D01*
X108766000Y-88173407D02*
X108823143Y-88192455D01*
X108823143Y-88192455D02*
X108861238Y-88230550D01*
X108861238Y-88230550D02*
X108880285Y-88268645D01*
X108880285Y-88268645D02*
X108899333Y-88344836D01*
X108899333Y-88344836D02*
X108899333Y-88401979D01*
X108899333Y-88401979D02*
X108880285Y-88478169D01*
X108880285Y-88478169D02*
X108861238Y-88516264D01*
X108861238Y-88516264D02*
X108823143Y-88554360D01*
X108823143Y-88554360D02*
X108766000Y-88573407D01*
X108766000Y-88573407D02*
X108670762Y-88573407D01*
X109242190Y-88306740D02*
X109242190Y-88573407D01*
X109146952Y-88154360D02*
X109051714Y-88440074D01*
X109051714Y-88440074D02*
X109299333Y-88440074D01*
X114436533Y-84966607D02*
X114303200Y-84776131D01*
X114207962Y-84966607D02*
X114207962Y-84566607D01*
X114207962Y-84566607D02*
X114360343Y-84566607D01*
X114360343Y-84566607D02*
X114398438Y-84585655D01*
X114398438Y-84585655D02*
X114417485Y-84604702D01*
X114417485Y-84604702D02*
X114436533Y-84642798D01*
X114436533Y-84642798D02*
X114436533Y-84699940D01*
X114436533Y-84699940D02*
X114417485Y-84738036D01*
X114417485Y-84738036D02*
X114398438Y-84757083D01*
X114398438Y-84757083D02*
X114360343Y-84776131D01*
X114360343Y-84776131D02*
X114207962Y-84776131D01*
X114627009Y-84966607D02*
X114703200Y-84966607D01*
X114703200Y-84966607D02*
X114741295Y-84947560D01*
X114741295Y-84947560D02*
X114760343Y-84928512D01*
X114760343Y-84928512D02*
X114798438Y-84871369D01*
X114798438Y-84871369D02*
X114817485Y-84795179D01*
X114817485Y-84795179D02*
X114817485Y-84642798D01*
X114817485Y-84642798D02*
X114798438Y-84604702D01*
X114798438Y-84604702D02*
X114779390Y-84585655D01*
X114779390Y-84585655D02*
X114741295Y-84566607D01*
X114741295Y-84566607D02*
X114665104Y-84566607D01*
X114665104Y-84566607D02*
X114627009Y-84585655D01*
X114627009Y-84585655D02*
X114607962Y-84604702D01*
X114607962Y-84604702D02*
X114588914Y-84642798D01*
X114588914Y-84642798D02*
X114588914Y-84738036D01*
X114588914Y-84738036D02*
X114607962Y-84776131D01*
X114607962Y-84776131D02*
X114627009Y-84795179D01*
X114627009Y-84795179D02*
X114665104Y-84814226D01*
X114665104Y-84814226D02*
X114741295Y-84814226D01*
X114741295Y-84814226D02*
X114779390Y-84795179D01*
X114779390Y-84795179D02*
X114798438Y-84776131D01*
X114798438Y-84776131D02*
X114817485Y-84738036D01*
D12*
%TO.C,JP2*%
X136184000Y-89778200D02*
X136184000Y-86978200D01*
X138184000Y-89778200D02*
X136184000Y-89778200D01*
X136184000Y-86978200D02*
X138184000Y-86978200D01*
X138184000Y-86978200D02*
X138184000Y-89778200D01*
%TO.C,C8*%
X117173836Y-78253000D02*
X116958164Y-78253000D01*
X117173836Y-78973000D02*
X116958164Y-78973000D01*
%TO.C,C9*%
X119486000Y-80879836D02*
X119486000Y-80664164D01*
X118766000Y-80879836D02*
X118766000Y-80664164D01*
%TO.C,C7*%
X128262748Y-88292000D02*
X128785252Y-88292000D01*
X128262748Y-89762000D02*
X128785252Y-89762000D01*
%TO.C,JP1*%
X134744000Y-78375000D02*
X137544000Y-78375000D01*
X134744000Y-80375000D02*
X134744000Y-78375000D01*
X137544000Y-78375000D02*
X137544000Y-80375000D01*
X137544000Y-80375000D02*
X134744000Y-80375000D01*
%TO.C,C10*%
X117454000Y-80664164D02*
X117454000Y-80879836D01*
X116734000Y-80664164D02*
X116734000Y-80879836D01*
%TO.C,C12*%
X115447400Y-80664164D02*
X115447400Y-80879836D01*
X114727400Y-80664164D02*
X114727400Y-80879836D01*
%TO.C,C11*%
X116438000Y-80664164D02*
X116438000Y-80879836D01*
X115718000Y-80664164D02*
X115718000Y-80879836D01*
%TO.C,R11*%
X114631200Y-89101959D02*
X114631200Y-89409241D01*
X115391200Y-89101959D02*
X115391200Y-89409241D01*
%TO.C,R18*%
X118616759Y-89332800D02*
X118924041Y-89332800D01*
X118616759Y-90092800D02*
X118924041Y-90092800D01*
%TO.C,R17*%
X116917200Y-89409241D02*
X116917200Y-89101959D01*
X117677200Y-89409241D02*
X117677200Y-89101959D01*
%TO.C,R16*%
X113841559Y-87300800D02*
X114148841Y-87300800D01*
X113841559Y-88060800D02*
X114148841Y-88060800D01*
%TO.C,R15*%
X112980441Y-89127600D02*
X112673159Y-89127600D01*
X112980441Y-88367600D02*
X112673159Y-88367600D01*
%TO.C,R14*%
X116279959Y-85268800D02*
X116587241Y-85268800D01*
X116279959Y-86028800D02*
X116587241Y-86028800D01*
%TO.C,R13*%
X120597959Y-89332800D02*
X120905241Y-89332800D01*
X120597959Y-90092800D02*
X120905241Y-90092800D01*
%TO.C,R12*%
X116559600Y-89101959D02*
X116559600Y-89409241D01*
X115799600Y-89101959D02*
X115799600Y-89409241D01*
%TO.C,R10*%
X112472441Y-90194400D02*
X112165159Y-90194400D01*
X112472441Y-89434400D02*
X112165159Y-89434400D01*
%TO.C,J3*%
X100470000Y-87817000D02*
X100470000Y-83887000D01*
X101292470Y-83887000D02*
X100470000Y-83887000D01*
X101292470Y-87817000D02*
X100470000Y-87817000D01*
X102110000Y-86415471D02*
X102110000Y-86558529D01*
X102110000Y-87685471D02*
X102110000Y-87817000D01*
X102110000Y-87817000D02*
X101907530Y-87817000D01*
X102306529Y-86362000D02*
X102163471Y-86362000D01*
X102562470Y-83887000D02*
X101907530Y-83887000D01*
X104000000Y-83887000D02*
X103177530Y-83887000D01*
X104000000Y-86362000D02*
X103433471Y-86362000D01*
X104000000Y-86362000D02*
X104000000Y-83887000D01*
X104000000Y-87122000D02*
X104000000Y-87882000D01*
X104000000Y-87882000D02*
X102870000Y-87882000D01*
%TO.C,R6*%
X139056342Y-79897500D02*
X139530858Y-79897500D01*
X139056342Y-78852500D02*
X139530858Y-78852500D01*
D13*
%TO.C,D2*%
X106402000Y-86360000D02*
G75*
G02*
X106302000Y-86360000I-50000J0D01*
G01*
X106302000Y-86360000D02*
G75*
G02*
X106402000Y-86360000I50000J0D01*
G01*
D12*
%TO.C,C3*%
X102018220Y-83060000D02*
X102299380Y-83060000D01*
X102018220Y-82040000D02*
X102299380Y-82040000D01*
%TO.C,C4*%
X105154000Y-79869420D02*
X105154000Y-80150580D01*
X106174000Y-79869420D02*
X106174000Y-80150580D01*
%TO.C,R8*%
X105563641Y-88012000D02*
X105256359Y-88012000D01*
X105563641Y-88772000D02*
X105256359Y-88772000D01*
%TO.C,R7*%
X105563641Y-86996000D02*
X105256359Y-86996000D01*
X105563641Y-87756000D02*
X105256359Y-87756000D01*
%TO.C,U2*%
X141185000Y-82117000D02*
X140905000Y-82117000D01*
X140905000Y-81837000D01*
X141185000Y-82117000D01*
G36*
X141185000Y-82117000D02*
G01*
X140905000Y-82117000D01*
X140905000Y-81837000D01*
X141185000Y-82117000D01*
G37*
X138705000Y-82627000D02*
X138705000Y-85627000D01*
X140925000Y-82627000D02*
X140925000Y-85627000D01*
D14*
%TO.C,X1*%
X135940843Y-87544000D02*
G75*
G02*
X135375157Y-87544000I-282843J0D01*
G01*
X135375157Y-87544000D02*
G75*
G02*
X135940843Y-87544000I282843J0D01*
G01*
D12*
X135608000Y-87444000D02*
X135608000Y-83244000D01*
X132108000Y-87444000D02*
X135608000Y-87444000D01*
%TO.C,U3*%
X101570000Y-78500000D02*
X101330000Y-78170000D01*
X101810000Y-78170000D01*
X101570000Y-78500000D01*
G36*
X101570000Y-78500000D02*
G01*
X101330000Y-78170000D01*
X101810000Y-78170000D01*
X101570000Y-78500000D01*
G37*
X102870000Y-81570000D02*
X103670000Y-81570000D01*
X102870000Y-81570000D02*
X102070000Y-81570000D01*
X102870000Y-78450000D02*
X103670000Y-78450000D01*
X102870000Y-78450000D02*
X102070000Y-78450000D01*
D14*
%TO.C,U1*%
X117674567Y-84038272D02*
X118240253Y-83472587D01*
X123190000Y-89553705D02*
X122624315Y-88988019D01*
X123190000Y-89553705D02*
X123755685Y-88988019D01*
X123260711Y-78452128D02*
X122624315Y-79088525D01*
X123260711Y-78452128D02*
X123826396Y-79017814D01*
X128776144Y-83967561D02*
X128139747Y-84603957D01*
X128776144Y-83967561D02*
X128210458Y-83401876D01*
D13*
X118262163Y-84474010D02*
G75*
G02*
X117629709Y-84474010I-316227J0D01*
G01*
X117629709Y-84474010D02*
G75*
G02*
X118262163Y-84474010I316227J0D01*
G01*
D12*
%TO.C,C2*%
X133965836Y-87676400D02*
X133750164Y-87676400D01*
X133965836Y-88396400D02*
X133750164Y-88396400D01*
%TO.C,C1*%
X133851764Y-83011600D02*
X134067436Y-83011600D01*
X133851764Y-82291600D02*
X134067436Y-82291600D01*
%TO.C,C5*%
X138143000Y-84996836D02*
X138143000Y-84781164D01*
X137423000Y-84996836D02*
X137423000Y-84781164D01*
%TO.C,R2*%
X105256359Y-82676000D02*
X105563641Y-82676000D01*
X105256359Y-81916000D02*
X105563641Y-81916000D01*
%TO.C,C6*%
X137423000Y-82749164D02*
X137423000Y-82964836D01*
X138143000Y-82749164D02*
X138143000Y-82964836D01*
%TO.C,C13*%
X107207164Y-82656000D02*
X107422836Y-82656000D01*
X107207164Y-81936000D02*
X107422836Y-81936000D01*
%TO.C,R1*%
X107314000Y-80362359D02*
X107314000Y-80669641D01*
X106554000Y-80362359D02*
X106554000Y-80669641D01*
%TO.C,R3*%
X105563641Y-85980000D02*
X105256359Y-85980000D01*
X105563641Y-86740000D02*
X105256359Y-86740000D01*
%TO.C,R4*%
X105563641Y-84075000D02*
X105256359Y-84075000D01*
X105563641Y-84835000D02*
X105256359Y-84835000D01*
%TO.C,R5*%
X105563641Y-83059000D02*
X105256359Y-83059000D01*
X105563641Y-83819000D02*
X105256359Y-83819000D01*
D13*
%TO.C,D1*%
X106402000Y-84455000D02*
G75*
G02*
X106302000Y-84455000I-50000J0D01*
G01*
X106302000Y-84455000D02*
G75*
G02*
X106402000Y-84455000I50000J0D01*
G01*
%TO.C,D3*%
X106402000Y-87376000D02*
G75*
G02*
X106302000Y-87376000I-50000J0D01*
G01*
X106302000Y-87376000D02*
G75*
G02*
X106402000Y-87376000I50000J0D01*
G01*
%TO.C,D4*%
X106402000Y-88392000D02*
G75*
G02*
X106302000Y-88392000I-50000J0D01*
G01*
X106302000Y-88392000D02*
G75*
G02*
X106402000Y-88392000I50000J0D01*
G01*
D12*
%TO.C,R9*%
X114656841Y-86028800D02*
X114349559Y-86028800D01*
X114656841Y-85268800D02*
X114349559Y-85268800D01*
%TD*%
M02*
