%TF.GenerationSoftware,KiCad,Pcbnew,9.0.0*%
%TF.CreationDate,2025-10-21T17:49:50-04:00*%
%TF.ProjectId,SAME51 Board,53414d45-3531-4204-926f-6172642e6b69,rev?*%
%TF.SameCoordinates,Original*%
%TF.FileFunction,Soldermask,Bot*%
%TF.FilePolarity,Negative*%
%FSLAX46Y46*%
G04 Gerber Fmt 4.6, Leading zero omitted, Abs format (unit mm)*
G04 Created by KiCad (PCBNEW 9.0.0) date 2025-10-21 17:49:50*
%MOMM*%
%LPD*%
G01*
G04 APERTURE LIST*
G04 Aperture macros list*
%AMRoundRect*
0 Rectangle with rounded corners*
0 $1 Rounding radius*
0 $2 $3 $4 $5 $6 $7 $8 $9 X,Y pos of 4 corners*
0 Add a 4 corners polygon primitive as box body*
4,1,4,$2,$3,$4,$5,$6,$7,$8,$9,$2,$3,0*
0 Add four circle primitives for the rounded corners*
1,1,$1+$1,$2,$3*
1,1,$1+$1,$4,$5*
1,1,$1+$1,$6,$7*
1,1,$1+$1,$8,$9*
0 Add four rect primitives between the rounded corners*
20,1,$1+$1,$2,$3,$4,$5,0*
20,1,$1+$1,$4,$5,$6,$7,0*
20,1,$1+$1,$6,$7,$8,$9,0*
20,1,$1+$1,$8,$9,$2,$3,0*%
%AMRotRect*
0 Rectangle, with rotation*
0 The origin of the aperture is its center*
0 $1 length*
0 $2 width*
0 $3 Rotation angle, in degrees counterclockwise*
0 Add horizontal line*
21,1,$1,$2,0,0,$3*%
G04 Aperture macros list end*
%ADD10RoundRect,0.100000X0.100000X-0.637500X0.100000X0.637500X-0.100000X0.637500X-0.100000X-0.637500X0*%
%ADD11O,1.700000X1.700000*%
%ADD12R,1.700000X1.700000*%
%ADD13O,1.000000X1.000000*%
%ADD14R,1.000000X1.000000*%
%ADD15RoundRect,0.140000X-0.170000X0.140000X-0.170000X-0.140000X0.170000X-0.140000X0.170000X0.140000X0*%
%ADD16C,0.600000*%
%ADD17RotRect,7.000000X7.000000X45.000000*%
G04 APERTURE END LIST*
D10*
%TO.C,U4*%
X115955000Y-87317500D03*
X115305000Y-87317500D03*
X114655000Y-87317500D03*
X114005000Y-87317500D03*
X113355000Y-87317500D03*
X112705000Y-87317500D03*
X112055000Y-87317500D03*
X111405000Y-87317500D03*
X110755000Y-87317500D03*
X110105000Y-87317500D03*
X110105000Y-81592500D03*
X110755000Y-81592500D03*
X111405000Y-81592500D03*
X112055000Y-81592500D03*
X112705000Y-81592500D03*
X113355000Y-81592500D03*
X114005000Y-81592500D03*
X114655000Y-81592500D03*
X115305000Y-81592500D03*
X115955000Y-81592500D03*
%TD*%
D11*
%TO.C,J1*%
X139700000Y-91440000D03*
X137160000Y-91440000D03*
D12*
X101600000Y-91440000D03*
D11*
X104140000Y-91440000D03*
X106680000Y-91440000D03*
X109220000Y-91440000D03*
X111760000Y-91440000D03*
X114300000Y-91440000D03*
X116840000Y-91440000D03*
X119380000Y-91440000D03*
X121920000Y-91440000D03*
X124460000Y-91440000D03*
X127000000Y-91440000D03*
X129540000Y-91440000D03*
X132080000Y-91440000D03*
X134620000Y-91440000D03*
%TD*%
D13*
%TO.C,J3*%
X101600000Y-85852000D03*
D14*
X102870000Y-87122000D03*
D13*
X101600000Y-84582000D03*
X101600000Y-87122000D03*
X102870000Y-85852000D03*
X102870000Y-84582000D03*
%TD*%
D15*
%TO.C,C14*%
X116078000Y-79082500D03*
X116078000Y-80042500D03*
%TD*%
D12*
%TO.C,J2*%
X101600000Y-76200000D03*
D11*
X104140000Y-76200000D03*
X106680000Y-76200000D03*
X109220000Y-76200000D03*
X111760000Y-76200000D03*
X114300000Y-76200000D03*
X116840000Y-76200000D03*
X119380000Y-76200000D03*
X121920000Y-76200000D03*
X124460000Y-76200000D03*
X127000000Y-76200000D03*
X129540000Y-76200000D03*
X132080000Y-76200000D03*
X134620000Y-76200000D03*
X137160000Y-76200000D03*
X139700000Y-76200000D03*
%TD*%
D16*
%TO.C,U1*%
X123190000Y-83189744D03*
X123190000Y-84886800D03*
D17*
X123190000Y-84038272D03*
D16*
X122341472Y-84038272D03*
X122341472Y-85735328D03*
X124887056Y-83189744D03*
X120644416Y-84038272D03*
X124038528Y-82341216D03*
X124887056Y-84886800D03*
X124038528Y-85735328D03*
X121492944Y-83189744D03*
X123190000Y-81492688D03*
X124038528Y-84038272D03*
X121492944Y-84886800D03*
X123190000Y-86583856D03*
X122341472Y-82341216D03*
X125735584Y-84038272D03*
%TD*%
M02*
