M48
; DRILL file {KiCad 9.0.0} date 2025-10-21T17:49:47-0400
; FORMAT={-:-/ absolute / inch / decimal}
; #@! TF.CreationDate,2025-10-21T17:49:47-04:00
; #@! TF.GenerationSoftware,Kicad,Pcbnew,9.0.0
; #@! TF.FileFunction,Plated,1,2,PTH
FMAT,2
INCH
; #@! TA.AperFunction,Plated,PTH,ViaDrill
T1C0.0118
; #@! TA.AperFunction,Plated,PTH,ComponentDrill
T2C0.0118
; #@! TA.AperFunction,Plated,PTH,ComponentDrill
T3C0.0256
; #@! TA.AperFunction,Plated,PTH,ComponentDrill
T4C0.0394
%
G90
G05
T1
X3.976Y-3.15
X4.003Y-3.482
X4.004Y-3.2864
X4.012Y-3.09
X4.08Y-3.25
X4.11Y-3.48
X4.16Y-3.21
X4.26Y-3.19
X4.265Y-3.3717
X4.27Y-3.24
X4.2785Y-3.4705
X4.2792Y-3.348
X4.306Y-3.086
X4.3109Y-3.272
X4.3348Y-3.2584
X4.34Y-3.142
X4.3624Y-3.2584
X4.3939Y-3.2597
X4.4016Y-3.3871
X4.416Y-3.358
X4.4177Y-3.3088
X4.4448Y-3.3138
X4.494Y-3.488
X4.54Y-3.085
X4.5614Y-3.258
X4.566Y-3.396
X4.65Y-3.578
X4.7261Y-3.1921
X4.755Y-3.1109
X4.77Y-3.134
X4.8981Y-3.095
X4.9016Y-3.1297
X4.929Y-3.091
X4.9847Y-3.1021
X4.9981Y-3.1381
X5.014Y-3.19
X5.026Y-3.2404
X5.04Y-3.4565
X5.07Y-3.3915
X5.1119Y-3.3475
X5.1226Y-3.2847
X5.135Y-3.45
X5.188Y-3.3265
X5.195Y-3.435
X5.198Y-3.404
X5.2225Y-3.5375
X5.344Y-3.336
X5.3917Y-3.2513
X5.3925Y-3.3121
X5.394Y-3.352
X5.42Y-3.195
X5.4745Y-3.2181
X5.4768Y-3.4118
X5.5114Y-3.1936
X5.5364Y-3.4
T2
X4.7498Y-3.3086
X4.7832Y-3.2752
X4.7832Y-3.342
X4.8166Y-3.2418
X4.8166Y-3.3086
X4.8166Y-3.3754
X4.85Y-3.2084
X4.85Y-3.2752
X4.85Y-3.342
X4.85Y-3.4088
X4.8834Y-3.2418
X4.8834Y-3.3086
X4.8834Y-3.3754
X4.9168Y-3.2752
X4.9168Y-3.342
X4.9502Y-3.3086
T3
X4.0Y-3.33
X4.0Y-3.38
X4.0Y-3.43
X4.05Y-3.33
X4.05Y-3.38
X4.05Y-3.43
T4
X4.0Y-3.0
X4.0Y-3.6
X4.1Y-3.0
X4.1Y-3.6
X4.2Y-3.0
X4.2Y-3.6
X4.3Y-3.0
X4.3Y-3.6
X4.4Y-3.0
X4.4Y-3.6
X4.5Y-3.0
X4.5Y-3.6
X4.6Y-3.0
X4.6Y-3.6
X4.7Y-3.0
X4.7Y-3.6
X4.8Y-3.0
X4.8Y-3.6
X4.9Y-3.0
X4.9Y-3.6
X5.0Y-3.0
X5.0Y-3.6
X5.1Y-3.0
X5.1Y-3.6
X5.2Y-3.0
X5.2Y-3.6
X5.3Y-3.0
X5.3Y-3.6
X5.4Y-3.0
X5.4Y-3.6
X5.5Y-3.0
X5.5Y-3.6
M30
