%TF.GenerationSoftware,KiCad,Pcbnew,9.0.0*%
%TF.CreationDate,2025-10-21T17:49:49-04:00*%
%TF.ProjectId,SAME51 Board,53414d45-3531-4204-926f-6172642e6b69,rev?*%
%TF.SameCoordinates,Original*%
%TF.FileFunction,Paste,Top*%
%TF.FilePolarity,Positive*%
%FSLAX46Y46*%
G04 Gerber Fmt 4.6, Leading zero omitted, Abs format (unit mm)*
G04 Created by KiCad (PCBNEW 9.0.0) date 2025-10-21 17:49:49*
%MOMM*%
%LPD*%
G01*
G04 APERTURE LIST*
G04 Aperture macros list*
%AMRoundRect*
0 Rectangle with rounded corners*
0 $1 Rounding radius*
0 $2 $3 $4 $5 $6 $7 $8 $9 X,Y pos of 4 corners*
0 Add a 4 corners polygon primitive as box body*
4,1,4,$2,$3,$4,$5,$6,$7,$8,$9,$2,$3,0*
0 Add four circle primitives for the rounded corners*
1,1,$1+$1,$2,$3*
1,1,$1+$1,$4,$5*
1,1,$1+$1,$6,$7*
1,1,$1+$1,$8,$9*
0 Add four rect primitives between the rounded corners*
20,1,$1+$1,$2,$3,$4,$5,0*
20,1,$1+$1,$4,$5,$6,$7,0*
20,1,$1+$1,$6,$7,$8,$9,0*
20,1,$1+$1,$8,$9,$2,$3,0*%
%AMRotRect*
0 Rectangle, with rotation*
0 The origin of the aperture is its center*
0 $1 length*
0 $2 width*
0 $3 Rotation angle, in degrees counterclockwise*
0 Add horizontal line*
21,1,$1,$2,0,0,$3*%
G04 Aperture macros list end*
%ADD10RoundRect,0.140000X0.140000X0.170000X-0.140000X0.170000X-0.140000X-0.170000X0.140000X-0.170000X0*%
%ADD11RoundRect,0.140000X0.170000X-0.140000X0.170000X0.140000X-0.170000X0.140000X-0.170000X-0.140000X0*%
%ADD12RoundRect,0.250000X-0.250000X-0.475000X0.250000X-0.475000X0.250000X0.475000X-0.250000X0.475000X0*%
%ADD13RoundRect,0.140000X-0.170000X0.140000X-0.170000X-0.140000X0.170000X-0.140000X0.170000X0.140000X0*%
%ADD14RoundRect,0.135000X-0.185000X0.135000X-0.185000X-0.135000X0.185000X-0.135000X0.185000X0.135000X0*%
%ADD15RoundRect,0.135000X-0.135000X-0.185000X0.135000X-0.185000X0.135000X0.185000X-0.135000X0.185000X0*%
%ADD16RoundRect,0.135000X0.185000X-0.135000X0.185000X0.135000X-0.185000X0.135000X-0.185000X-0.135000X0*%
%ADD17RoundRect,0.135000X0.135000X0.185000X-0.135000X0.185000X-0.135000X-0.185000X0.135000X-0.185000X0*%
%ADD18RoundRect,0.200000X-0.200000X-0.275000X0.200000X-0.275000X0.200000X0.275000X-0.200000X0.275000X0*%
%ADD19RoundRect,0.147500X-0.147500X-0.172500X0.147500X-0.172500X0.147500X0.172500X-0.147500X0.172500X0*%
%ADD20RoundRect,0.225000X-0.225000X-0.250000X0.225000X-0.250000X0.225000X0.250000X-0.225000X0.250000X0*%
%ADD21RoundRect,0.225000X-0.250000X0.225000X-0.250000X-0.225000X0.250000X-0.225000X0.250000X0.225000X0*%
%ADD22R,0.300000X0.750000*%
%ADD23R,0.600000X0.500000*%
%ADD24R,1.100000X1.300000*%
%ADD25RoundRect,0.150000X-0.512500X-0.150000X0.512500X-0.150000X0.512500X0.150000X-0.512500X0.150000X0*%
%ADD26RotRect,1.350000X1.350000X45.000000*%
%ADD27RoundRect,0.120000X0.194454X0.236881X-0.236881X-0.194454X-0.194454X-0.236881X0.236881X0.194454X0*%
%ADD28RoundRect,0.120000X0.236881X-0.194454X-0.194454X0.236881X-0.236881X0.194454X0.194454X-0.236881X0*%
%ADD29RoundRect,0.140000X-0.140000X-0.170000X0.140000X-0.170000X0.140000X0.170000X-0.140000X0.170000X0*%
G04 APERTURE END LIST*
D10*
%TO.C,C8*%
X117546000Y-78613000D03*
X116586000Y-78613000D03*
%TD*%
D11*
%TO.C,C9*%
X119126000Y-81252000D03*
X119126000Y-80292000D03*
%TD*%
D12*
%TO.C,C7*%
X127574000Y-89027000D03*
X129474000Y-89027000D03*
%TD*%
D13*
%TO.C,C10*%
X117094000Y-81252000D03*
X117094000Y-80292000D03*
%TD*%
%TO.C,C12*%
X115087400Y-81252000D03*
X115087400Y-80292000D03*
%TD*%
%TO.C,C11*%
X116078000Y-81252000D03*
X116078000Y-80292000D03*
%TD*%
D14*
%TO.C,R11*%
X115011200Y-89765600D03*
X115011200Y-88745600D03*
%TD*%
D15*
%TO.C,R18*%
X118260400Y-89712800D03*
X119280400Y-89712800D03*
%TD*%
D16*
%TO.C,R17*%
X117297200Y-89765600D03*
X117297200Y-88745600D03*
%TD*%
D15*
%TO.C,R16*%
X113485200Y-87680800D03*
X114505200Y-87680800D03*
%TD*%
D17*
%TO.C,R15*%
X113336800Y-88747600D03*
X112316800Y-88747600D03*
%TD*%
D15*
%TO.C,R14*%
X115923600Y-85648800D03*
X116943600Y-85648800D03*
%TD*%
%TO.C,R13*%
X120241600Y-89712800D03*
X121261600Y-89712800D03*
%TD*%
D14*
%TO.C,R12*%
X116179600Y-88745600D03*
X116179600Y-89765600D03*
%TD*%
D17*
%TO.C,R10*%
X112828800Y-89814400D03*
X111808800Y-89814400D03*
%TD*%
D18*
%TO.C,R6*%
X140118600Y-79375000D03*
X138468600Y-79375000D03*
%TD*%
D19*
%TO.C,D2*%
X106957000Y-86360000D03*
X107927000Y-86360000D03*
%TD*%
D20*
%TO.C,C3*%
X101383800Y-82550000D03*
X102933800Y-82550000D03*
%TD*%
D21*
%TO.C,C4*%
X105664000Y-79235000D03*
X105664000Y-80785000D03*
%TD*%
D17*
%TO.C,R8*%
X105920000Y-88392000D03*
X104900000Y-88392000D03*
%TD*%
%TO.C,R7*%
X105920000Y-87376000D03*
X104900000Y-87376000D03*
%TD*%
D22*
%TO.C,U2*%
X140565000Y-85577000D03*
X140065000Y-85577000D03*
X139565000Y-85577000D03*
X139065000Y-82677000D03*
X139565000Y-82677000D03*
X140065000Y-82677000D03*
X140565000Y-82677000D03*
D23*
X139440000Y-84452000D03*
X140190000Y-84452000D03*
X139440000Y-83802000D03*
X140190000Y-83802000D03*
D22*
X139065000Y-85577000D03*
%TD*%
D24*
%TO.C,X1*%
X133058000Y-86494000D03*
X133058000Y-84194000D03*
X134658000Y-84194000D03*
X134658000Y-86494000D03*
%TD*%
D25*
%TO.C,U3*%
X104007500Y-80960000D03*
X101732500Y-80960000D03*
X101732500Y-79060000D03*
X104007500Y-79060000D03*
X101732500Y-80010000D03*
%TD*%
D26*
%TO.C,U1*%
X120856548Y-84038272D03*
X122023274Y-85204998D03*
X123190000Y-86371724D03*
X122023274Y-82871546D03*
X123190000Y-84038272D03*
X124356726Y-85204998D03*
X123190000Y-81704820D03*
X124356726Y-82871546D03*
X125523452Y-84038272D03*
D27*
X118805938Y-84533247D03*
X119159491Y-84886800D03*
X119513045Y-85240354D03*
X119866598Y-85593907D03*
X120220152Y-85947460D03*
X120573705Y-86301014D03*
X120927258Y-86654567D03*
X121280812Y-87008120D03*
X121634365Y-87361674D03*
X121987918Y-87715227D03*
X122341472Y-88068781D03*
X122695025Y-88422334D03*
D28*
X123684975Y-88422334D03*
X124038528Y-88068781D03*
X124392082Y-87715227D03*
X124745635Y-87361674D03*
X125452742Y-86654567D03*
X125806295Y-86301014D03*
X126159848Y-85947460D03*
X126513402Y-85593907D03*
X126866955Y-85240354D03*
X127220509Y-84886800D03*
X127574062Y-84533247D03*
D27*
X127574062Y-83543297D03*
X127220509Y-83189744D03*
X126866955Y-82836190D03*
X126513402Y-82482637D03*
X126159848Y-82129084D03*
X125806295Y-81775530D03*
X125452742Y-81421977D03*
X125099188Y-81068424D03*
X124745635Y-80714870D03*
X124392082Y-80361317D03*
X124038528Y-80007763D03*
D28*
X122695025Y-79654210D03*
X122341472Y-80007763D03*
X121987918Y-80361317D03*
X121634365Y-80714870D03*
X121280812Y-81068424D03*
X120927258Y-81421977D03*
X120573705Y-81775530D03*
X119866598Y-82482637D03*
X119513045Y-82836190D03*
X119159491Y-83189744D03*
X118805938Y-83543297D03*
X125099188Y-87008120D03*
D27*
X123684975Y-79654210D03*
D28*
X120220152Y-82129084D03*
%TD*%
D10*
%TO.C,C2*%
X133378000Y-88036400D03*
X134338000Y-88036400D03*
%TD*%
D29*
%TO.C,C1*%
X134439600Y-82651600D03*
X133479600Y-82651600D03*
%TD*%
D11*
%TO.C,C5*%
X137783000Y-84409000D03*
X137783000Y-85369000D03*
%TD*%
D15*
%TO.C,R2*%
X105920000Y-82296000D03*
X104900000Y-82296000D03*
%TD*%
D13*
%TO.C,C6*%
X137783000Y-83337000D03*
X137783000Y-82377000D03*
%TD*%
D29*
%TO.C,C13*%
X106835000Y-82296000D03*
X107795000Y-82296000D03*
%TD*%
D14*
%TO.C,R1*%
X106934000Y-81026000D03*
X106934000Y-80006000D03*
%TD*%
D17*
%TO.C,R3*%
X105920000Y-86360000D03*
X104900000Y-86360000D03*
%TD*%
%TO.C,R4*%
X104900000Y-84455000D03*
X105920000Y-84455000D03*
%TD*%
%TO.C,R5*%
X104900000Y-83439000D03*
X105920000Y-83439000D03*
%TD*%
D19*
%TO.C,D1*%
X106957000Y-84455000D03*
X107927000Y-84455000D03*
%TD*%
%TO.C,D3*%
X106957000Y-87376000D03*
X107927000Y-87376000D03*
%TD*%
%TO.C,D4*%
X107927000Y-88392000D03*
X106957000Y-88392000D03*
%TD*%
D17*
%TO.C,R9*%
X115013200Y-85648800D03*
X113993200Y-85648800D03*
%TD*%
M02*
